%TF.GenerationSoftware,KiCad,Pcbnew,8.0.6*%
%TF.CreationDate,2024-11-19T15:42:44-05:00*%
%TF.ProjectId,airflow_device,61697266-6c6f-4775-9f64-65766963652e,rev?*%
%TF.SameCoordinates,Original*%
%TF.FileFunction,Copper,L1,Top*%
%TF.FilePolarity,Positive*%
%FSLAX46Y46*%
G04 Gerber Fmt 4.6, Leading zero omitted, Abs format (unit mm)*
G04 Created by KiCad (PCBNEW 8.0.6) date 2024-11-19 15:42:44*
%MOMM*%
%LPD*%
G01*
G04 APERTURE LIST*
G04 Aperture macros list*
%AMRoundRect*
0 Rectangle with rounded corners*
0 $1 Rounding radius*
0 $2 $3 $4 $5 $6 $7 $8 $9 X,Y pos of 4 corners*
0 Add a 4 corners polygon primitive as box body*
4,1,4,$2,$3,$4,$5,$6,$7,$8,$9,$2,$3,0*
0 Add four circle primitives for the rounded corners*
1,1,$1+$1,$2,$3*
1,1,$1+$1,$4,$5*
1,1,$1+$1,$6,$7*
1,1,$1+$1,$8,$9*
0 Add four rect primitives between the rounded corners*
20,1,$1+$1,$2,$3,$4,$5,0*
20,1,$1+$1,$4,$5,$6,$7,0*
20,1,$1+$1,$6,$7,$8,$9,0*
20,1,$1+$1,$8,$9,$2,$3,0*%
G04 Aperture macros list end*
%TA.AperFunction,ComponentPad*%
%ADD10C,1.400000*%
%TD*%
%TA.AperFunction,SMDPad,CuDef*%
%ADD11R,2.500000X2.500000*%
%TD*%
%TA.AperFunction,ComponentPad*%
%ADD12R,1.600000X1.600000*%
%TD*%
%TA.AperFunction,ComponentPad*%
%ADD13C,1.600000*%
%TD*%
%TA.AperFunction,SMDPad,CuDef*%
%ADD14RoundRect,0.250000X0.337500X0.475000X-0.337500X0.475000X-0.337500X-0.475000X0.337500X-0.475000X0*%
%TD*%
%TA.AperFunction,SMDPad,CuDef*%
%ADD15RoundRect,0.250000X-0.350000X-0.450000X0.350000X-0.450000X0.350000X0.450000X-0.350000X0.450000X0*%
%TD*%
%TA.AperFunction,ComponentPad*%
%ADD16R,1.800000X1.800000*%
%TD*%
%TA.AperFunction,ComponentPad*%
%ADD17C,1.800000*%
%TD*%
%TA.AperFunction,ComponentPad*%
%ADD18R,1.905000X2.000000*%
%TD*%
%TA.AperFunction,ComponentPad*%
%ADD19O,1.905000X2.000000*%
%TD*%
%TA.AperFunction,SMDPad,CuDef*%
%ADD20RoundRect,0.250000X0.350000X0.450000X-0.350000X0.450000X-0.350000X-0.450000X0.350000X-0.450000X0*%
%TD*%
%TA.AperFunction,ComponentPad*%
%ADD21C,2.000000*%
%TD*%
%TA.AperFunction,ComponentPad*%
%ADD22R,1.700000X1.700000*%
%TD*%
%TA.AperFunction,ComponentPad*%
%ADD23O,1.700000X1.700000*%
%TD*%
%TA.AperFunction,SMDPad,CuDef*%
%ADD24RoundRect,0.250000X-0.337500X-0.475000X0.337500X-0.475000X0.337500X0.475000X-0.337500X0.475000X0*%
%TD*%
%TA.AperFunction,ViaPad*%
%ADD25C,0.800000*%
%TD*%
%TA.AperFunction,Conductor*%
%ADD26C,0.250000*%
%TD*%
%TA.AperFunction,Conductor*%
%ADD27C,1.000000*%
%TD*%
G04 APERTURE END LIST*
D10*
%TO.P,U1,1,GND*%
%TO.N,GND*%
X115062000Y-81280000D03*
%TO.P,U1,2,RST*%
%TO.N,unconnected-(U1-RST-Pad2)*%
X117602000Y-81280000D03*
%TO.P,U1,3,NC*%
%TO.N,unconnected-(U1-NC-Pad3)*%
X115062000Y-83820000D03*
%TO.P,U1,4,IO_36/SVP/A0*%
%TO.N,unconnected-(U1-IO_36{slash}SVP{slash}A0-Pad4)*%
X117602000Y-83820000D03*
%TO.P,U1,5,IO_39/SVN*%
%TO.N,unconnected-(U1-IO_39{slash}SVN-Pad5)*%
X115062000Y-86360000D03*
%TO.P,U1,6,IO_26/D0*%
%TO.N,Net-(U1-IO_26{slash}D0)*%
X117602000Y-86360000D03*
%TO.P,U1,7,IO_35*%
%TO.N,unconnected-(U1-IO_35-Pad7)*%
X115062000Y-88900000D03*
%TO.P,U1,8,IO_18/D5*%
%TO.N,Net-(D1-A)*%
X117602000Y-88900000D03*
%TO.P,U1,9,IO_33*%
%TO.N,unconnected-(U1-IO_33-Pad9)*%
X115062000Y-91440000D03*
%TO.P,U1,10,IO_19/D6*%
%TO.N,Net-(U1-IO_19{slash}D6)*%
X117602000Y-91440000D03*
%TO.P,U1,11,IO_34*%
%TO.N,unconnected-(U1-IO_34-Pad11)*%
X115062000Y-93980000D03*
%TO.P,U1,12,IO_23/D7*%
%TO.N,unconnected-(U1-IO_23{slash}D7-Pad12)*%
X117602000Y-93980000D03*
%TO.P,U1,13,IO_14/TMS*%
%TO.N,unconnected-(U1-IO_14{slash}TMS-Pad13)*%
X115062000Y-96520000D03*
%TO.P,U1,14,IO_05/D8*%
%TO.N,Net-(U1-IO_05{slash}D8)*%
X117602000Y-96520000D03*
%TO.P,U1,15,NC*%
%TO.N,unconnected-(U1-NC-Pad15)*%
X115062000Y-99060000D03*
%TO.P,U1,16,3V3*%
%TO.N,/3v3*%
X117602000Y-99060000D03*
%TO.P,U1,17,IO_09/SD2*%
%TO.N,unconnected-(U1-IO_09{slash}SD2-Pad17)*%
X115062000Y-101600000D03*
%TO.P,U1,18,IO_13/TCK*%
%TO.N,unconnected-(U1-IO_13{slash}TCK-Pad18)*%
X117602000Y-101600000D03*
%TO.P,U1,19,CMD*%
%TO.N,unconnected-(U1-CMD-Pad19)*%
X115062000Y-104140000D03*
%TO.P,U1,20,IO_10/SD3*%
%TO.N,unconnected-(U1-IO_10{slash}SD3-Pad20)*%
X117602000Y-104140000D03*
%TO.P,U1,21,TXD*%
%TO.N,unconnected-(U1-TXD-Pad21)*%
X140462000Y-81280000D03*
%TO.P,U1,22,GND*%
%TO.N,GND*%
X143002000Y-81280000D03*
%TO.P,U1,23,RXD*%
%TO.N,unconnected-(U1-RXD-Pad23)*%
X140462000Y-83820000D03*
%TO.P,U1,24,IO_27*%
%TO.N,unconnected-(U1-IO_27-Pad24)*%
X143002000Y-83820000D03*
%TO.P,U1,25,IO_22/D1/SCL*%
%TO.N,/SCL*%
X140462000Y-86360000D03*
%TO.P,U1,26,IO_25*%
%TO.N,unconnected-(U1-IO_25-Pad26)*%
X143002000Y-86360000D03*
%TO.P,U1,27,IO_21/D2/SDA*%
%TO.N,/SDA*%
X140462000Y-88900000D03*
%TO.P,U1,28,IO_32*%
%TO.N,unconnected-(U1-IO_32-Pad28)*%
X143002000Y-88900000D03*
%TO.P,U1,29,IO_17/D3*%
%TO.N,Net-(U1-IO_17{slash}D3)*%
X140462000Y-91440000D03*
%TO.P,U1,30,IO_12/TDI*%
%TO.N,unconnected-(U1-IO_12{slash}TDI-Pad30)*%
X143002000Y-91440000D03*
%TO.P,U1,31,IO_16/D4*%
%TO.N,Net-(U1-IO_16{slash}D4)*%
X140462000Y-93980000D03*
%TO.P,U1,32,IO_04*%
%TO.N,Net-(J3-SIG)*%
X143002000Y-93980000D03*
%TO.P,U1,33,GND*%
%TO.N,GND*%
X140462000Y-96520000D03*
%TO.P,U1,34,IO_00*%
%TO.N,unconnected-(U1-IO_00-Pad34)*%
X143002000Y-96520000D03*
%TO.P,U1,35,VCC_(USB)*%
%TO.N,unconnected-(U1-VCC_(USB)-Pad35)*%
X140462000Y-99060000D03*
%TO.P,U1,36,IO_02*%
%TO.N,Net-(J2-SIG)*%
X143002000Y-99060000D03*
%TO.P,U1,37,TD0*%
%TO.N,unconnected-(U1-TD0-Pad37)*%
X140462000Y-101600000D03*
%TO.P,U1,38,SD1*%
%TO.N,unconnected-(U1-SD1-Pad38)*%
X143002000Y-101600000D03*
%TO.P,U1,39,SD0*%
%TO.N,unconnected-(U1-SD0-Pad39)*%
X140462000Y-104140000D03*
%TO.P,U1,40,CLK*%
%TO.N,unconnected-(U1-CLK-Pad40)*%
X143002000Y-104140000D03*
%TD*%
D11*
%TO.P,TP3,1,1*%
%TO.N,GND*%
X155194000Y-82550000D03*
%TD*%
%TO.P,TP2,1,1*%
%TO.N,/5V*%
X151130000Y-98552000D03*
%TD*%
%TO.P,TP1,1,1*%
%TO.N,/3v3*%
X155194000Y-76962000D03*
%TD*%
D12*
%TO.P,C6,2*%
%TO.N,/5V*%
X153710000Y-105664000D03*
D13*
%TO.P,C6,1*%
%TO.N,GND*%
X156210000Y-105664000D03*
%TD*%
D12*
%TO.P,C1,2*%
%TO.N,/5V*%
X153670000Y-92202000D03*
D13*
%TO.P,C1,1*%
%TO.N,GND*%
X156170000Y-92202000D03*
%TD*%
D14*
%TO.P,C5,1*%
%TO.N,/3v3*%
X90607000Y-101092000D03*
%TO.P,C5,2*%
%TO.N,GND*%
X88532000Y-101092000D03*
%TD*%
D15*
%TO.P,R6,1*%
%TO.N,/3v3*%
X76962000Y-92456000D03*
%TO.P,R6,2*%
%TO.N,Net-(D1-A)*%
X78962000Y-92456000D03*
%TD*%
D16*
%TO.P,D2,1,K*%
%TO.N,GND*%
X92964000Y-106299000D03*
D17*
%TO.P,D2,2,A*%
%TO.N,Net-(D2-A)*%
X95504000Y-106299000D03*
%TD*%
D18*
%TO.P,U2,1,GND*%
%TO.N,GND*%
X89916000Y-98552000D03*
D19*
%TO.P,U2,2,VO*%
%TO.N,/3v3*%
X92456000Y-98552000D03*
%TO.P,U2,3,VI*%
%TO.N,/BATT*%
X94996000Y-98552000D03*
%TD*%
D15*
%TO.P,R4,1*%
%TO.N,Net-(D2-A)*%
X92964000Y-109601000D03*
%TO.P,R4,2*%
%TO.N,Net-(U1-IO_05{slash}D8)*%
X94964000Y-109601000D03*
%TD*%
D20*
%TO.P,R2,1*%
%TO.N,/3v3*%
X101314000Y-72136000D03*
%TO.P,R2,2*%
%TO.N,Net-(U1-IO_17{slash}D3)*%
X99314000Y-72136000D03*
%TD*%
D15*
%TO.P,R5,1*%
%TO.N,Net-(D3-A)*%
X77248000Y-109601000D03*
%TO.P,R5,2*%
%TO.N,Net-(U1-IO_19{slash}D6)*%
X79248000Y-109601000D03*
%TD*%
D21*
%TO.P,SW2,1,1*%
%TO.N,GND*%
X88444000Y-72644000D03*
X94944000Y-72644000D03*
%TO.P,SW2,2,2*%
%TO.N,Net-(U1-IO_17{slash}D3)*%
X88444000Y-77144000D03*
X94944000Y-77144000D03*
%TD*%
%TO.P,SW4,1,1*%
%TO.N,GND*%
X77776000Y-72172000D03*
X84276000Y-72172000D03*
%TO.P,SW4,2,2*%
%TO.N,Net-(U1-IO_26{slash}D0)*%
X77776000Y-76672000D03*
X84276000Y-76672000D03*
%TD*%
D15*
%TO.P,R7,1*%
%TO.N,/3v3*%
X82042000Y-79502000D03*
%TO.P,R7,2*%
%TO.N,Net-(U1-IO_26{slash}D0)*%
X84042000Y-79502000D03*
%TD*%
D22*
%TO.P,J2,1,GND*%
%TO.N,GND*%
X147320000Y-107935000D03*
D23*
%TO.P,J2,2,SIG*%
%TO.N,Net-(J2-SIG)*%
X147320000Y-105395000D03*
%TO.P,J2,3,Vin*%
%TO.N,/5V*%
X147320000Y-102855000D03*
%TD*%
D22*
%TO.P,J4,1,GND*%
%TO.N,GND*%
X106934000Y-107696000D03*
D23*
%TO.P,J4,2,BATT*%
%TO.N,/BATT*%
X104394000Y-107696000D03*
%TD*%
D21*
%TO.P,SW3,1,1*%
%TO.N,GND*%
X104498000Y-72716000D03*
X110998000Y-72716000D03*
%TO.P,SW3,2,2*%
%TO.N,Net-(U1-IO_16{slash}D4)*%
X104498000Y-77216000D03*
X110998000Y-77216000D03*
%TD*%
D22*
%TO.P,J3,1,GND*%
%TO.N,GND*%
X147320000Y-94727000D03*
D23*
%TO.P,J3,2,SIG*%
%TO.N,Net-(J3-SIG)*%
X147320000Y-92187000D03*
%TO.P,J3,3,Vin*%
%TO.N,/5V*%
X147320000Y-89647000D03*
%TD*%
D24*
%TO.P,C2,1*%
%TO.N,/BATT*%
X103518000Y-101092000D03*
%TO.P,C2,2*%
%TO.N,GND*%
X105593000Y-101092000D03*
%TD*%
D22*
%TO.P,J1,1,GND*%
%TO.N,GND*%
X147320000Y-84328000D03*
D23*
%TO.P,J1,2,SDA*%
%TO.N,/SDA*%
X147320000Y-81788000D03*
%TO.P,J1,3,SCL*%
%TO.N,/SCL*%
X147320000Y-79248000D03*
%TO.P,J1,4,Vin*%
%TO.N,/3v3*%
X147320000Y-76708000D03*
%TD*%
D24*
%TO.P,C3,1*%
%TO.N,/5V*%
X109911000Y-101092000D03*
%TO.P,C3,2*%
%TO.N,GND*%
X111986000Y-101092000D03*
%TD*%
D16*
%TO.P,D3,1,K*%
%TO.N,GND*%
X76962000Y-106299000D03*
D17*
%TO.P,D3,2,A*%
%TO.N,Net-(D3-A)*%
X79502000Y-106299000D03*
%TD*%
D18*
%TO.P,U3,1,Vin*%
%TO.N,/BATT*%
X105085000Y-98552000D03*
D19*
%TO.P,U3,2,GND*%
%TO.N,GND*%
X107625000Y-98552000D03*
%TO.P,U3,3,Vout*%
%TO.N,/5V*%
X110165000Y-98552000D03*
%TD*%
D24*
%TO.P,C4,1*%
%TO.N,/BATT*%
X94628000Y-101092000D03*
%TO.P,C4,2*%
%TO.N,GND*%
X96703000Y-101092000D03*
%TD*%
D15*
%TO.P,R3,1*%
%TO.N,/3v3*%
X99314000Y-77216000D03*
%TO.P,R3,2*%
%TO.N,Net-(U1-IO_16{slash}D4)*%
X101314000Y-77216000D03*
%TD*%
D22*
%TO.P,SW1,1,A*%
%TO.N,unconnected-(SW1-A-Pad1)*%
X77978000Y-96520000D03*
D23*
%TO.P,SW1,2,B*%
%TO.N,GND*%
X77978000Y-99060000D03*
%TO.P,SW1,3,C*%
%TO.N,Net-(D1-A)*%
X77978000Y-101600000D03*
%TD*%
D16*
%TO.P,D1,1,K*%
%TO.N,GND*%
X85090000Y-106299000D03*
D17*
%TO.P,D1,2,A*%
%TO.N,Net-(D1-A)*%
X87630000Y-106299000D03*
%TD*%
D25*
%TO.N,GND*%
X155194000Y-82550000D03*
X96703000Y-101092000D03*
%TD*%
D26*
%TO.N,Net-(J3-SIG)*%
X145527000Y-93980000D02*
X147320000Y-92187000D01*
X143002000Y-93980000D02*
X145527000Y-93980000D01*
%TO.N,Net-(D1-A)*%
X75737000Y-103841000D02*
X77978000Y-101600000D01*
X75737000Y-109710100D02*
X75737000Y-103841000D01*
X76652900Y-110626000D02*
X75737000Y-109710100D01*
X83303000Y-110626000D02*
X76652900Y-110626000D01*
X87630000Y-106299000D02*
X83303000Y-110626000D01*
D27*
%TO.N,/3v3*%
X118364000Y-99060000D02*
X119126000Y-99822000D01*
X117602000Y-99060000D02*
X118364000Y-99060000D01*
%TO.N,/BATT*%
X103518000Y-100119000D02*
X105085000Y-98552000D01*
X103518000Y-101092000D02*
X103518000Y-100119000D01*
X94996000Y-98552000D02*
X105085000Y-98552000D01*
D26*
X94628000Y-98920000D02*
X94996000Y-98552000D01*
D27*
X94628000Y-101092000D02*
X94628000Y-98920000D01*
%TO.N,/3v3*%
X92456000Y-98552000D02*
X92456000Y-101092000D01*
D26*
%TO.N,Net-(D2-A)*%
X92964000Y-108839000D02*
X92964000Y-109601000D01*
X95504000Y-106299000D02*
X92964000Y-108839000D01*
%TO.N,Net-(D3-A)*%
X77248000Y-108553000D02*
X77248000Y-109601000D01*
X79502000Y-106299000D02*
X77248000Y-108553000D01*
%TO.N,/SCL*%
X143256000Y-85090000D02*
X141732000Y-85090000D01*
X147320000Y-79248000D02*
X146145000Y-80423000D01*
X146145000Y-82201000D02*
X143256000Y-85090000D01*
X146145000Y-80423000D02*
X146145000Y-82201000D01*
X141732000Y-85090000D02*
X140462000Y-86360000D01*
%TO.N,/SDA*%
X146145000Y-84666569D02*
X146145000Y-82963000D01*
X146145000Y-82963000D02*
X147320000Y-81788000D01*
X143426569Y-87385000D02*
X146145000Y-84666569D01*
X140462000Y-88900000D02*
X141977000Y-87385000D01*
X141977000Y-87385000D02*
X143426569Y-87385000D01*
%TO.N,Net-(U1-IO_19{slash}D6)*%
X79248000Y-109601000D02*
X84894000Y-103955000D01*
X84894000Y-103955000D02*
X84894000Y-99510000D01*
X84894000Y-99510000D02*
X93989000Y-90415000D01*
X93989000Y-90415000D02*
X116577000Y-90415000D01*
X116577000Y-90415000D02*
X117602000Y-91440000D01*
%TO.N,Net-(U1-IO_17{slash}D3)*%
X103069000Y-75891000D02*
X123923051Y-75891000D01*
X94944000Y-77144000D02*
X99314000Y-72774000D01*
X123923051Y-75891000D02*
X139472051Y-91440000D01*
X139472051Y-91440000D02*
X140462000Y-91440000D01*
X88444000Y-77144000D02*
X94944000Y-77144000D01*
X99314000Y-72136000D02*
X103069000Y-75891000D01*
X99314000Y-72774000D02*
X99314000Y-72136000D01*
%TO.N,Net-(U1-IO_16{slash}D4)*%
X123698000Y-77216000D02*
X140462000Y-93980000D01*
X110998000Y-77216000D02*
X104498000Y-77216000D01*
X101314000Y-77216000D02*
X104498000Y-77216000D01*
X110998000Y-77216000D02*
X123698000Y-77216000D01*
%TO.N,Net-(D1-A)*%
X116577000Y-87875000D02*
X117602000Y-88900000D01*
X77978000Y-101600000D02*
X79153000Y-100425000D01*
X83543000Y-87875000D02*
X116577000Y-87875000D01*
X79153000Y-92647000D02*
X78962000Y-92456000D01*
X79153000Y-100425000D02*
X79153000Y-92647000D01*
X78962000Y-92456000D02*
X83543000Y-87875000D01*
%TO.N,GND*%
X89916000Y-98552000D02*
X88532000Y-99936000D01*
X110936000Y-102142000D02*
X109000000Y-102142000D01*
X111986000Y-101092000D02*
X110936000Y-102142000D01*
X105593000Y-100584000D02*
X107625000Y-98552000D01*
X88532000Y-99936000D02*
X88532000Y-101092000D01*
X109000000Y-102142000D02*
X107625000Y-100767000D01*
X107625000Y-100767000D02*
X107625000Y-98552000D01*
X90170000Y-98552000D02*
X89916000Y-98552000D01*
X105593000Y-101092000D02*
X105593000Y-100584000D01*
%TO.N,/BATT*%
X94996000Y-100724000D02*
X94628000Y-101092000D01*
%TO.N,/5V*%
X148495000Y-96615000D02*
X148495000Y-90822000D01*
X110682000Y-98035000D02*
X110165000Y-98552000D01*
X110927000Y-97790000D02*
X110165000Y-98552000D01*
X143702081Y-98035000D02*
X147320000Y-101652919D01*
X148336000Y-96774000D02*
X148495000Y-96615000D01*
X148495000Y-90822000D02*
X147320000Y-89647000D01*
X147320000Y-102855000D02*
X147320000Y-101600000D01*
X147320000Y-97790000D02*
X148336000Y-96774000D01*
X143510000Y-97790000D02*
X147320000Y-97790000D01*
X147320000Y-101652919D02*
X147320000Y-102855000D01*
X110165000Y-100838000D02*
X109911000Y-101092000D01*
X147320000Y-101600000D02*
X143510000Y-97790000D01*
X143011000Y-98035000D02*
X143702081Y-98035000D01*
X143510000Y-97790000D02*
X110927000Y-97790000D01*
X110165000Y-98552000D02*
X110165000Y-100838000D01*
X143011000Y-98035000D02*
X110682000Y-98035000D01*
%TO.N,Net-(J2-SIG)*%
X144027000Y-102102000D02*
X144027000Y-100085000D01*
X144027000Y-100085000D02*
X143002000Y-99060000D01*
X147320000Y-105395000D02*
X144027000Y-102102000D01*
%TO.N,unconnected-(U1-IO_00-Pad34)*%
X143002000Y-96505000D02*
X143002000Y-96520000D01*
%TO.N,Net-(U1-IO_05{slash}D8)*%
X90850000Y-105074000D02*
X87619500Y-101843500D01*
X94964000Y-109601000D02*
X96729000Y-107836000D01*
X96729000Y-107836000D02*
X96729000Y-105791588D01*
X116332000Y-95250000D02*
X117602000Y-96520000D01*
X90615500Y-95250000D02*
X116332000Y-95250000D01*
X96729000Y-105791588D02*
X96011412Y-105074000D01*
X96011412Y-105074000D02*
X90850000Y-105074000D01*
X87619500Y-98246000D02*
X90615500Y-95250000D01*
X87619500Y-101843500D02*
X87619500Y-98246000D01*
%TO.N,Net-(U1-IO_26{slash}D0)*%
X84042000Y-79502000D02*
X84042000Y-76906000D01*
X84276000Y-76672000D02*
X77776000Y-76672000D01*
X84042000Y-76906000D02*
X84276000Y-76672000D01*
X89875000Y-85335000D02*
X116577000Y-85335000D01*
X116577000Y-85335000D02*
X117602000Y-86360000D01*
X84042000Y-79502000D02*
X89875000Y-85335000D01*
%TD*%
%TA.AperFunction,Conductor*%
%TO.N,/3v3*%
G36*
X117202000Y-99112661D02*
G01*
X117229259Y-99214394D01*
X117281920Y-99305606D01*
X117356394Y-99380080D01*
X117447606Y-99432741D01*
X117549339Y-99460000D01*
X117555553Y-99460000D01*
X116948672Y-100066879D01*
X116948672Y-100066880D01*
X117064821Y-100138797D01*
X117064822Y-100138798D01*
X117259213Y-100214105D01*
X117314614Y-100256678D01*
X117338205Y-100322445D01*
X117322494Y-100390525D01*
X117272470Y-100439304D01*
X117259213Y-100445359D01*
X117064601Y-100520751D01*
X117064595Y-100520754D01*
X116875439Y-100637874D01*
X116875437Y-100637876D01*
X116711020Y-100787761D01*
X116576943Y-100965308D01*
X116576938Y-100965316D01*
X116477775Y-101164461D01*
X116477769Y-101164476D01*
X116451266Y-101257627D01*
X116413987Y-101316721D01*
X116350677Y-101346278D01*
X116281438Y-101336916D01*
X116228251Y-101291606D01*
X116212734Y-101257627D01*
X116186230Y-101164476D01*
X116186229Y-101164472D01*
X116172223Y-101136344D01*
X116087061Y-100965316D01*
X116087056Y-100965308D01*
X115952979Y-100787761D01*
X115788562Y-100637876D01*
X115788560Y-100637874D01*
X115599404Y-100520754D01*
X115599395Y-100520750D01*
X115501704Y-100482905D01*
X115405475Y-100445625D01*
X115350075Y-100403054D01*
X115326484Y-100337288D01*
X115342195Y-100269207D01*
X115392219Y-100220428D01*
X115405466Y-100214377D01*
X115599401Y-100139247D01*
X115788562Y-100022124D01*
X115952981Y-99872236D01*
X116087058Y-99694689D01*
X116186229Y-99495528D01*
X116212995Y-99401455D01*
X116250272Y-99342367D01*
X116313581Y-99312809D01*
X116382821Y-99322171D01*
X116436007Y-99367480D01*
X116451525Y-99401460D01*
X116478236Y-99495342D01*
X116478239Y-99495348D01*
X116577369Y-99694428D01*
X116593137Y-99715308D01*
X116593138Y-99715308D01*
X117202000Y-99106446D01*
X117202000Y-99112661D01*
G37*
%TD.AperFunction*%
%TA.AperFunction,Conductor*%
G36*
X113908598Y-95895185D02*
G01*
X113954353Y-95947989D01*
X113964297Y-96017147D01*
X113952560Y-96054771D01*
X113937774Y-96084465D01*
X113937769Y-96084476D01*
X113876885Y-96298462D01*
X113876884Y-96298464D01*
X113856357Y-96519999D01*
X113856357Y-96520000D01*
X113876884Y-96741535D01*
X113876885Y-96741537D01*
X113937769Y-96955523D01*
X113937774Y-96955534D01*
X113952560Y-96985229D01*
X113964820Y-97054015D01*
X113937946Y-97118509D01*
X113880470Y-97158237D01*
X113841559Y-97164500D01*
X110865394Y-97164500D01*
X110814218Y-97174678D01*
X110744626Y-97168449D01*
X110733738Y-97163546D01*
X110722757Y-97157951D01*
X110505247Y-97087278D01*
X110354651Y-97063426D01*
X110279354Y-97051500D01*
X110050646Y-97051500D01*
X109975349Y-97063426D01*
X109824753Y-97087278D01*
X109824750Y-97087278D01*
X109607244Y-97157950D01*
X109403461Y-97261783D01*
X109299194Y-97337538D01*
X109218434Y-97396214D01*
X109218432Y-97396216D01*
X109218431Y-97396216D01*
X109056715Y-97557932D01*
X108995318Y-97642438D01*
X108939987Y-97685103D01*
X108870374Y-97691082D01*
X108808579Y-97658476D01*
X108794682Y-97642438D01*
X108772806Y-97612328D01*
X108733286Y-97557934D01*
X108571566Y-97396214D01*
X108386538Y-97261783D01*
X108182755Y-97157950D01*
X107965248Y-97087278D01*
X107795826Y-97060444D01*
X107739354Y-97051500D01*
X107510646Y-97051500D01*
X107435349Y-97063426D01*
X107284753Y-97087278D01*
X107284750Y-97087278D01*
X107067244Y-97157950D01*
X106863461Y-97261783D01*
X106680759Y-97394525D01*
X106614952Y-97418005D01*
X106546898Y-97402180D01*
X106498203Y-97352074D01*
X106491690Y-97337538D01*
X106481296Y-97309669D01*
X106481293Y-97309664D01*
X106395047Y-97194455D01*
X106395044Y-97194452D01*
X106279835Y-97108206D01*
X106279828Y-97108202D01*
X106144982Y-97057908D01*
X106144983Y-97057908D01*
X106085383Y-97051501D01*
X106085381Y-97051500D01*
X106085373Y-97051500D01*
X106085365Y-97051500D01*
X104096717Y-97051500D01*
X104029678Y-97031815D01*
X104003004Y-97008703D01*
X103970036Y-96970656D01*
X103970033Y-96970653D01*
X103861299Y-96876433D01*
X103861296Y-96876431D01*
X103861294Y-96876430D01*
X103730428Y-96816664D01*
X103730423Y-96816662D01*
X103730422Y-96816662D01*
X103663383Y-96796977D01*
X103663385Y-96796977D01*
X103663380Y-96796976D01*
X103615907Y-96790150D01*
X103520963Y-96776500D01*
X96127007Y-96776500D01*
X96126988Y-96776500D01*
X96109005Y-96776820D01*
X96101360Y-96777093D01*
X96100115Y-96777138D01*
X96100111Y-96777138D01*
X96100089Y-96777139D01*
X96082103Y-96778103D01*
X96082088Y-96778105D01*
X95941512Y-96808686D01*
X95941507Y-96808687D01*
X95941506Y-96808688D01*
X95925680Y-96814590D01*
X95876040Y-96833105D01*
X95876036Y-96833107D01*
X95749768Y-96902055D01*
X95648030Y-97003789D01*
X95648024Y-97003796D01*
X95606221Y-97059638D01*
X95606152Y-97059730D01*
X95606147Y-97059736D01*
X95602008Y-97067317D01*
X95552602Y-97116721D01*
X95484328Y-97131571D01*
X95454860Y-97125818D01*
X95336247Y-97087278D01*
X95185651Y-97063426D01*
X95110354Y-97051500D01*
X94881646Y-97051500D01*
X94806349Y-97063426D01*
X94655753Y-97087278D01*
X94655750Y-97087278D01*
X94438244Y-97157950D01*
X94234461Y-97261783D01*
X94130194Y-97337538D01*
X94049434Y-97396214D01*
X94049432Y-97396216D01*
X94049431Y-97396216D01*
X93887716Y-97557931D01*
X93887709Y-97557940D01*
X93826007Y-97642864D01*
X93770677Y-97685530D01*
X93701063Y-97691508D01*
X93639269Y-97658901D01*
X93625372Y-97642863D01*
X93563907Y-97558263D01*
X93563902Y-97558257D01*
X93402242Y-97396597D01*
X93217276Y-97262211D01*
X93013568Y-97158417D01*
X92796124Y-97087765D01*
X92706000Y-97073490D01*
X92706000Y-98061252D01*
X92668292Y-98039482D01*
X92528409Y-98002000D01*
X92383591Y-98002000D01*
X92243708Y-98039482D01*
X92206000Y-98061252D01*
X92206000Y-97073490D01*
X92205999Y-97073490D01*
X92115875Y-97087765D01*
X91898431Y-97158417D01*
X91694719Y-97262213D01*
X91511939Y-97395010D01*
X91446132Y-97418490D01*
X91378079Y-97402664D01*
X91329384Y-97352558D01*
X91322875Y-97338033D01*
X91312296Y-97309669D01*
X91312295Y-97309667D01*
X91312293Y-97309664D01*
X91226047Y-97194455D01*
X91226044Y-97194452D01*
X91110835Y-97108206D01*
X91110828Y-97108202D01*
X90975982Y-97057908D01*
X90975983Y-97057908D01*
X90916383Y-97051501D01*
X90916381Y-97051500D01*
X90916373Y-97051500D01*
X90916365Y-97051500D01*
X89997951Y-97051500D01*
X89930912Y-97031815D01*
X89885157Y-96979011D01*
X89875213Y-96909853D01*
X89904238Y-96846297D01*
X89910270Y-96839819D01*
X90357861Y-96392229D01*
X90838271Y-95911819D01*
X90899594Y-95878334D01*
X90925952Y-95875500D01*
X113841559Y-95875500D01*
X113908598Y-95895185D01*
G37*
%TD.AperFunction*%
%TA.AperFunction,Conductor*%
G36*
X159134374Y-69595628D02*
G01*
X159201352Y-69615513D01*
X159246949Y-69668454D01*
X159258000Y-69719627D01*
X159258000Y-111890000D01*
X159238315Y-111957039D01*
X159185511Y-112002794D01*
X159134000Y-112014000D01*
X74800000Y-112014000D01*
X74732961Y-111994315D01*
X74687206Y-111941511D01*
X74676000Y-111890000D01*
X74676000Y-103779391D01*
X75111500Y-103779391D01*
X75111500Y-109771711D01*
X75135535Y-109892544D01*
X75135540Y-109892561D01*
X75182685Y-110006380D01*
X75182690Y-110006389D01*
X75216914Y-110057607D01*
X75216915Y-110057609D01*
X75251141Y-110108833D01*
X75342586Y-110200278D01*
X75342608Y-110200298D01*
X76163916Y-111021606D01*
X76163945Y-111021637D01*
X76254163Y-111111855D01*
X76254167Y-111111858D01*
X76356607Y-111180307D01*
X76356611Y-111180309D01*
X76356614Y-111180311D01*
X76470448Y-111227463D01*
X76530871Y-111239481D01*
X76591293Y-111251500D01*
X83364607Y-111251500D01*
X83425029Y-111239481D01*
X83485452Y-111227463D01*
X83485455Y-111227461D01*
X83485458Y-111227461D01*
X83518787Y-111213654D01*
X83518786Y-111213654D01*
X83518792Y-111213652D01*
X83599286Y-111180312D01*
X83650509Y-111146084D01*
X83701733Y-111111858D01*
X83788858Y-111024733D01*
X83788859Y-111024731D01*
X83795925Y-111017665D01*
X83795928Y-111017661D01*
X87131480Y-107682108D01*
X87192801Y-107648625D01*
X87259420Y-107652509D01*
X87285019Y-107661298D01*
X87513951Y-107699500D01*
X87513952Y-107699500D01*
X87746048Y-107699500D01*
X87746049Y-107699500D01*
X87974981Y-107661298D01*
X88194503Y-107585936D01*
X88398626Y-107475470D01*
X88581784Y-107332913D01*
X88738979Y-107162153D01*
X88865924Y-106967849D01*
X88959157Y-106755300D01*
X89016134Y-106530305D01*
X89016135Y-106530297D01*
X89035300Y-106299006D01*
X89035300Y-106298993D01*
X89016135Y-106067702D01*
X89016133Y-106067691D01*
X88959157Y-105842699D01*
X88865924Y-105630151D01*
X88738983Y-105435852D01*
X88738980Y-105435849D01*
X88738979Y-105435847D01*
X88581784Y-105265087D01*
X88581779Y-105265083D01*
X88581777Y-105265081D01*
X88398634Y-105122535D01*
X88398628Y-105122531D01*
X88194504Y-105012064D01*
X88194495Y-105012061D01*
X87974984Y-104936702D01*
X87784450Y-104904908D01*
X87746049Y-104898500D01*
X87513951Y-104898500D01*
X87475550Y-104904908D01*
X87285015Y-104936702D01*
X87065504Y-105012061D01*
X87065495Y-105012064D01*
X86861371Y-105122531D01*
X86861365Y-105122535D01*
X86678222Y-105265081D01*
X86678218Y-105265085D01*
X86669866Y-105274158D01*
X86609979Y-105310148D01*
X86540141Y-105308047D01*
X86482525Y-105268522D01*
X86462455Y-105233507D01*
X86433797Y-105156671D01*
X86433793Y-105156664D01*
X86347547Y-105041455D01*
X86347544Y-105041452D01*
X86232335Y-104955206D01*
X86232328Y-104955202D01*
X86097482Y-104904908D01*
X86097483Y-104904908D01*
X86037883Y-104898501D01*
X86037881Y-104898500D01*
X86037873Y-104898500D01*
X86037865Y-104898500D01*
X85134451Y-104898500D01*
X85067412Y-104878815D01*
X85021657Y-104826011D01*
X85011713Y-104756853D01*
X85040738Y-104693297D01*
X85046770Y-104686819D01*
X85158066Y-104575523D01*
X85292729Y-104440860D01*
X85292733Y-104440858D01*
X85379858Y-104353733D01*
X85448311Y-104251286D01*
X85448312Y-104251285D01*
X85475932Y-104184603D01*
X85495463Y-104137452D01*
X85510119Y-104063770D01*
X85517029Y-104029035D01*
X85519499Y-104016610D01*
X85519500Y-104016608D01*
X85519500Y-99820452D01*
X85539185Y-99753413D01*
X85555819Y-99732771D01*
X86782319Y-98506271D01*
X86843642Y-98472786D01*
X86913334Y-98477770D01*
X86969267Y-98519642D01*
X86993684Y-98585106D01*
X86994000Y-98593952D01*
X86994000Y-101905106D01*
X87018037Y-102025952D01*
X87019741Y-102030065D01*
X87022005Y-102035530D01*
X87022006Y-102035534D01*
X87065185Y-102139780D01*
X87065187Y-102139783D01*
X87065188Y-102139786D01*
X87078502Y-102159712D01*
X87088072Y-102174033D01*
X87088073Y-102174035D01*
X87133641Y-102242232D01*
X87133644Y-102242236D01*
X87225086Y-102333678D01*
X87225108Y-102333698D01*
X90361016Y-105469606D01*
X90361045Y-105469637D01*
X90451264Y-105559856D01*
X90451267Y-105559858D01*
X90525017Y-105609136D01*
X90553715Y-105628312D01*
X90620396Y-105655931D01*
X90620398Y-105655933D01*
X90660640Y-105672601D01*
X90667548Y-105675463D01*
X90697583Y-105681437D01*
X90724679Y-105686827D01*
X90724699Y-105686830D01*
X90724721Y-105686835D01*
X90788391Y-105699499D01*
X90788392Y-105699500D01*
X90788393Y-105699500D01*
X90788394Y-105699500D01*
X91439500Y-105699500D01*
X91506539Y-105719185D01*
X91552294Y-105771989D01*
X91563500Y-105823500D01*
X91563500Y-107246870D01*
X91563501Y-107246876D01*
X91569908Y-107306483D01*
X91620202Y-107441328D01*
X91620206Y-107441335D01*
X91706452Y-107556544D01*
X91706455Y-107556547D01*
X91821664Y-107642793D01*
X91821671Y-107642797D01*
X91956517Y-107693091D01*
X91956516Y-107693091D01*
X91963444Y-107693835D01*
X92016127Y-107699500D01*
X92919547Y-107699499D01*
X92986586Y-107719183D01*
X93032341Y-107771987D01*
X93042285Y-107841146D01*
X93013260Y-107904702D01*
X93007228Y-107911180D01*
X92565269Y-108353140D01*
X92565266Y-108353143D01*
X92543856Y-108374552D01*
X92482532Y-108408036D01*
X92468779Y-108410227D01*
X92461201Y-108411001D01*
X92294668Y-108466185D01*
X92294663Y-108466187D01*
X92145342Y-108558289D01*
X92021289Y-108682342D01*
X91929187Y-108831663D01*
X91929185Y-108831668D01*
X91909033Y-108892483D01*
X91874001Y-108998203D01*
X91874001Y-108998204D01*
X91874000Y-108998204D01*
X91863500Y-109100983D01*
X91863500Y-110101001D01*
X91863501Y-110101019D01*
X91874000Y-110203796D01*
X91874001Y-110203799D01*
X91929185Y-110370331D01*
X91929186Y-110370334D01*
X92021288Y-110519656D01*
X92145344Y-110643712D01*
X92294666Y-110735814D01*
X92461203Y-110790999D01*
X92563991Y-110801500D01*
X93364008Y-110801499D01*
X93364016Y-110801498D01*
X93364019Y-110801498D01*
X93420302Y-110795748D01*
X93466797Y-110790999D01*
X93633334Y-110735814D01*
X93782656Y-110643712D01*
X93876319Y-110550049D01*
X93937642Y-110516564D01*
X94007334Y-110521548D01*
X94051681Y-110550049D01*
X94145344Y-110643712D01*
X94294666Y-110735814D01*
X94461203Y-110790999D01*
X94563991Y-110801500D01*
X95364008Y-110801499D01*
X95364016Y-110801498D01*
X95364019Y-110801498D01*
X95420302Y-110795748D01*
X95466797Y-110790999D01*
X95633334Y-110735814D01*
X95782656Y-110643712D01*
X95906712Y-110519656D01*
X95998814Y-110370334D01*
X96053999Y-110203797D01*
X96064500Y-110101009D01*
X96064499Y-109436450D01*
X96084183Y-109369412D01*
X96100813Y-109348775D01*
X97127729Y-108321860D01*
X97127733Y-108321858D01*
X97214858Y-108234733D01*
X97283311Y-108132286D01*
X97283312Y-108132285D01*
X97283313Y-108132282D01*
X97283315Y-108132279D01*
X97293672Y-108107272D01*
X97330463Y-108018451D01*
X97354500Y-107897607D01*
X97354500Y-107774393D01*
X97354500Y-105859329D01*
X97354501Y-105859308D01*
X97354501Y-105729979D01*
X97330463Y-105609137D01*
X97330462Y-105609135D01*
X97317338Y-105577451D01*
X97317336Y-105577446D01*
X97310052Y-105559859D01*
X97283313Y-105495305D01*
X97283308Y-105495296D01*
X97214858Y-105392855D01*
X97214855Y-105392851D01*
X96504340Y-104682338D01*
X96504337Y-104682334D01*
X96504337Y-104682335D01*
X96497270Y-104675268D01*
X96497270Y-104675267D01*
X96410145Y-104588142D01*
X96346427Y-104545567D01*
X96307697Y-104519687D01*
X96267451Y-104503017D01*
X96227204Y-104486347D01*
X96193864Y-104472537D01*
X96193860Y-104472536D01*
X96193856Y-104472535D01*
X96114137Y-104456678D01*
X96114136Y-104456678D01*
X96073023Y-104448500D01*
X96073019Y-104448500D01*
X96073018Y-104448500D01*
X91160452Y-104448500D01*
X91093413Y-104428815D01*
X91072771Y-104412181D01*
X89123357Y-102462767D01*
X89089872Y-102401444D01*
X89094856Y-102331752D01*
X89136728Y-102275819D01*
X89172029Y-102257382D01*
X89188834Y-102251814D01*
X89338156Y-102159712D01*
X89462212Y-102035656D01*
X89464252Y-102032347D01*
X89466245Y-102030555D01*
X89466693Y-102029989D01*
X89466789Y-102030065D01*
X89516194Y-101985623D01*
X89585156Y-101974395D01*
X89649240Y-102002234D01*
X89675329Y-102032339D01*
X89677181Y-102035341D01*
X89677183Y-102035344D01*
X89801154Y-102159315D01*
X89950375Y-102251356D01*
X89950380Y-102251358D01*
X90116802Y-102306505D01*
X90116809Y-102306506D01*
X90219519Y-102316999D01*
X90356999Y-102316999D01*
X90857000Y-102316999D01*
X90994472Y-102316999D01*
X90994486Y-102316998D01*
X91097197Y-102306505D01*
X91263619Y-102251358D01*
X91263624Y-102251356D01*
X91412845Y-102159315D01*
X91536815Y-102035345D01*
X91628856Y-101886124D01*
X91628858Y-101886119D01*
X91684005Y-101719697D01*
X91684006Y-101719690D01*
X91694499Y-101616986D01*
X91694500Y-101616973D01*
X91694500Y-101342000D01*
X90857000Y-101342000D01*
X90857000Y-102316999D01*
X90356999Y-102316999D01*
X90357000Y-102316998D01*
X90357000Y-100966000D01*
X90376685Y-100898961D01*
X90429489Y-100853206D01*
X90481000Y-100842000D01*
X91694499Y-100842000D01*
X91694499Y-100567028D01*
X91694498Y-100567013D01*
X91684005Y-100464302D01*
X91628858Y-100297880D01*
X91628856Y-100297875D01*
X91536815Y-100148654D01*
X91412845Y-100024684D01*
X91341569Y-99980721D01*
X91294845Y-99928773D01*
X91283622Y-99859811D01*
X91307401Y-99800868D01*
X91312296Y-99794331D01*
X91322872Y-99765974D01*
X91364740Y-99710041D01*
X91430204Y-99685622D01*
X91498477Y-99700472D01*
X91511940Y-99708988D01*
X91694723Y-99841788D01*
X91898429Y-99945582D01*
X92115871Y-100016234D01*
X92206000Y-100030509D01*
X92206000Y-99042747D01*
X92243708Y-99064518D01*
X92383591Y-99102000D01*
X92528409Y-99102000D01*
X92668292Y-99064518D01*
X92706000Y-99042747D01*
X92706000Y-100030508D01*
X92796128Y-100016234D01*
X93013570Y-99945582D01*
X93217276Y-99841788D01*
X93402242Y-99707402D01*
X93415819Y-99693826D01*
X93477142Y-99660341D01*
X93546834Y-99665325D01*
X93602767Y-99707197D01*
X93627184Y-99772661D01*
X93627500Y-99781507D01*
X93627500Y-100227134D01*
X93609041Y-100292225D01*
X93606688Y-100296039D01*
X93605685Y-100297667D01*
X93574827Y-100390793D01*
X93550501Y-100464203D01*
X93550501Y-100464204D01*
X93550500Y-100464204D01*
X93540000Y-100566983D01*
X93540000Y-101617001D01*
X93540001Y-101617019D01*
X93547957Y-101694899D01*
X93535187Y-101763592D01*
X93491640Y-101811814D01*
X93467466Y-101827350D01*
X93467451Y-101827361D01*
X93414659Y-101873105D01*
X93320433Y-101981846D01*
X93320430Y-101981850D01*
X93260664Y-102112716D01*
X93240976Y-102179764D01*
X93230617Y-102251814D01*
X93220500Y-102322182D01*
X93220500Y-102746000D01*
X93220501Y-102746009D01*
X93232052Y-102853450D01*
X93232054Y-102853462D01*
X93243260Y-102904972D01*
X93277383Y-103007497D01*
X93277386Y-103007503D01*
X93355171Y-103128537D01*
X93355179Y-103128548D01*
X93400923Y-103181340D01*
X93400926Y-103181343D01*
X93400930Y-103181347D01*
X93509664Y-103275567D01*
X93509667Y-103275568D01*
X93509668Y-103275569D01*
X93623956Y-103327764D01*
X93640541Y-103335338D01*
X93707580Y-103355023D01*
X93707584Y-103355024D01*
X93850000Y-103375500D01*
X97993467Y-103375500D01*
X98060506Y-103395185D01*
X98090689Y-103422533D01*
X100551009Y-106530305D01*
X100793148Y-106836165D01*
X102690431Y-109232732D01*
X102747349Y-109293569D01*
X102777532Y-109320917D01*
X102843652Y-109371567D01*
X102843655Y-109371568D01*
X102843658Y-109371570D01*
X102901596Y-109398030D01*
X102974529Y-109431338D01*
X103041568Y-109451023D01*
X103041572Y-109451024D01*
X103183988Y-109471500D01*
X103183991Y-109471500D01*
X103460805Y-109471500D01*
X103460818Y-109471500D01*
X103522808Y-109467685D01*
X103552995Y-109463955D01*
X103614069Y-109452561D01*
X103708690Y-109413808D01*
X103747206Y-109398034D01*
X103747207Y-109398032D01*
X103747215Y-109398030D01*
X103807445Y-109362617D01*
X103919830Y-109272787D01*
X104002359Y-109154930D01*
X104031110Y-109098060D01*
X104078922Y-109047116D01*
X104146690Y-109030107D01*
X104153180Y-109030807D01*
X104153199Y-109030591D01*
X104158591Y-109031062D01*
X104158592Y-109031063D01*
X104309859Y-109044297D01*
X104393999Y-109051659D01*
X104394000Y-109051659D01*
X104394001Y-109051659D01*
X104433234Y-109048226D01*
X104629408Y-109031063D01*
X104857663Y-108969903D01*
X105071830Y-108870035D01*
X105265401Y-108734495D01*
X105387329Y-108612566D01*
X105448648Y-108579084D01*
X105518340Y-108584068D01*
X105574274Y-108625939D01*
X105591189Y-108656917D01*
X105640202Y-108788328D01*
X105640206Y-108788335D01*
X105726452Y-108903544D01*
X105726455Y-108903547D01*
X105841664Y-108989793D01*
X105841671Y-108989797D01*
X105976517Y-109040091D01*
X105976516Y-109040091D01*
X105983444Y-109040835D01*
X106036127Y-109046500D01*
X107831872Y-109046499D01*
X107891483Y-109040091D01*
X108026331Y-108989796D01*
X108141546Y-108903546D01*
X108227796Y-108788331D01*
X108278091Y-108653483D01*
X108284500Y-108593873D01*
X108284499Y-106798128D01*
X108278091Y-106738517D01*
X108273965Y-106727455D01*
X108227797Y-106603671D01*
X108227793Y-106603664D01*
X108141547Y-106488455D01*
X108141544Y-106488452D01*
X108026335Y-106402206D01*
X108026328Y-106402202D01*
X107891482Y-106351908D01*
X107891483Y-106351908D01*
X107831883Y-106345501D01*
X107831881Y-106345500D01*
X107831873Y-106345500D01*
X107831865Y-106345500D01*
X106260964Y-106345500D01*
X106193925Y-106325815D01*
X106148170Y-106273011D01*
X106141150Y-106253447D01*
X106136262Y-106235115D01*
X106136259Y-106235107D01*
X106132840Y-106222284D01*
X105184835Y-102667263D01*
X105184835Y-102667262D01*
X105157687Y-102565456D01*
X105153500Y-102533506D01*
X105153500Y-102441499D01*
X105173185Y-102374460D01*
X105225989Y-102328705D01*
X105277495Y-102317499D01*
X105980508Y-102317499D01*
X105980516Y-102317498D01*
X105980519Y-102317498D01*
X106036802Y-102311748D01*
X106083297Y-102306999D01*
X106249834Y-102251814D01*
X106399156Y-102159712D01*
X106523212Y-102035656D01*
X106615314Y-101886334D01*
X106670499Y-101719797D01*
X106681000Y-101617009D01*
X106680999Y-100566992D01*
X106680438Y-100561505D01*
X106669811Y-100457467D01*
X106672698Y-100457172D01*
X106676900Y-100400359D01*
X106705292Y-100356297D01*
X106787822Y-100273767D01*
X106849143Y-100240285D01*
X106918834Y-100245269D01*
X106974768Y-100287141D01*
X106999184Y-100352606D01*
X106999500Y-100361451D01*
X106999500Y-100828606D01*
X107012476Y-100893841D01*
X107023537Y-100949453D01*
X107033912Y-100974499D01*
X107033912Y-100974500D01*
X107070684Y-101063278D01*
X107070687Y-101063284D01*
X107082560Y-101081052D01*
X107082561Y-101081054D01*
X107139140Y-101165731D01*
X107139141Y-101165732D01*
X107139142Y-101165733D01*
X107226267Y-101252858D01*
X107226268Y-101252858D01*
X107233335Y-101259925D01*
X107233334Y-101259925D01*
X107233338Y-101259928D01*
X108601263Y-102627855D01*
X108601267Y-102627858D01*
X108703710Y-102696309D01*
X108703711Y-102696309D01*
X108703715Y-102696312D01*
X108770396Y-102723931D01*
X108770398Y-102723933D01*
X108810640Y-102740601D01*
X108817548Y-102743463D01*
X108830303Y-102746000D01*
X108884348Y-102756750D01*
X108938392Y-102767501D01*
X108938394Y-102767501D01*
X109067721Y-102767501D01*
X109067741Y-102767500D01*
X110997607Y-102767500D01*
X111058029Y-102755481D01*
X111118452Y-102743463D01*
X111156990Y-102727500D01*
X111232286Y-102696312D01*
X111292150Y-102656311D01*
X111334733Y-102627858D01*
X111421858Y-102540733D01*
X111421859Y-102540731D01*
X111428925Y-102533665D01*
X111428928Y-102533661D01*
X111608771Y-102353818D01*
X111670094Y-102320333D01*
X111696452Y-102317499D01*
X112373502Y-102317499D01*
X112373508Y-102317499D01*
X112476297Y-102306999D01*
X112642834Y-102251814D01*
X112792156Y-102159712D01*
X112916212Y-102035656D01*
X113008314Y-101886334D01*
X113063499Y-101719797D01*
X113074000Y-101617009D01*
X113073999Y-100566992D01*
X113073438Y-100561505D01*
X113063499Y-100464203D01*
X113063498Y-100464200D01*
X113060962Y-100456547D01*
X113008314Y-100297666D01*
X112916212Y-100148344D01*
X112792156Y-100024288D01*
X112642834Y-99932186D01*
X112476297Y-99877001D01*
X112476295Y-99877000D01*
X112373510Y-99866500D01*
X111598498Y-99866500D01*
X111598480Y-99866501D01*
X111495703Y-99877000D01*
X111495700Y-99877001D01*
X111329168Y-99932185D01*
X111329163Y-99932187D01*
X111179842Y-100024289D01*
X111055785Y-100148346D01*
X111054037Y-100151182D01*
X111052329Y-100152717D01*
X111051307Y-100154011D01*
X111051085Y-100153836D01*
X111002089Y-100197905D01*
X110933126Y-100209126D01*
X110869044Y-100181282D01*
X110842963Y-100151182D01*
X110841214Y-100148346D01*
X110826819Y-100133951D01*
X110793334Y-100072628D01*
X110790500Y-100046270D01*
X110790500Y-99987518D01*
X110810185Y-99920479D01*
X110858204Y-99877034D01*
X110926538Y-99842217D01*
X111111566Y-99707786D01*
X111273286Y-99546066D01*
X111407717Y-99361038D01*
X111511548Y-99157258D01*
X111554801Y-99024140D01*
X111582221Y-98939749D01*
X111582221Y-98939748D01*
X111582222Y-98939745D01*
X111609883Y-98765101D01*
X111639812Y-98701967D01*
X111699124Y-98665036D01*
X111732356Y-98660500D01*
X113763318Y-98660500D01*
X113830357Y-98680185D01*
X113876112Y-98732989D01*
X113886056Y-98802147D01*
X113882584Y-98818435D01*
X113876884Y-98838464D01*
X113856357Y-99059999D01*
X113856357Y-99060000D01*
X113876884Y-99281535D01*
X113876885Y-99281537D01*
X113937769Y-99495523D01*
X113937775Y-99495538D01*
X114036938Y-99694683D01*
X114036943Y-99694691D01*
X114171020Y-99872238D01*
X114335437Y-100022123D01*
X114335439Y-100022125D01*
X114524595Y-100139245D01*
X114524596Y-100139245D01*
X114524599Y-100139247D01*
X114718524Y-100214374D01*
X114773924Y-100256946D01*
X114797515Y-100322713D01*
X114781804Y-100390793D01*
X114731780Y-100439572D01*
X114718533Y-100445622D01*
X114612740Y-100486607D01*
X114524601Y-100520752D01*
X114524595Y-100520754D01*
X114335439Y-100637874D01*
X114335437Y-100637876D01*
X114171020Y-100787761D01*
X114036943Y-100965308D01*
X114036938Y-100965316D01*
X113937775Y-101164461D01*
X113937769Y-101164476D01*
X113876885Y-101378462D01*
X113876884Y-101378464D01*
X113856357Y-101599999D01*
X113856357Y-101600000D01*
X113876884Y-101821535D01*
X113876885Y-101821537D01*
X113937769Y-102035523D01*
X113937775Y-102035538D01*
X114036938Y-102234683D01*
X114036943Y-102234691D01*
X114171020Y-102412238D01*
X114335437Y-102562123D01*
X114335439Y-102562125D01*
X114524595Y-102679245D01*
X114524596Y-102679245D01*
X114524599Y-102679247D01*
X114718524Y-102754374D01*
X114773924Y-102796946D01*
X114797515Y-102862713D01*
X114781804Y-102930793D01*
X114731780Y-102979572D01*
X114718533Y-102985622D01*
X114570488Y-103042975D01*
X114524601Y-103060752D01*
X114524595Y-103060754D01*
X114335439Y-103177874D01*
X114335437Y-103177876D01*
X114171020Y-103327761D01*
X114036943Y-103505308D01*
X114036938Y-103505316D01*
X113937775Y-103704461D01*
X113937769Y-103704476D01*
X113876885Y-103918462D01*
X113876884Y-103918464D01*
X113856357Y-104139999D01*
X113856357Y-104140000D01*
X113876884Y-104361535D01*
X113876885Y-104361537D01*
X113937769Y-104575523D01*
X113937775Y-104575538D01*
X114036938Y-104774683D01*
X114036943Y-104774691D01*
X114171020Y-104952238D01*
X114335437Y-105102123D01*
X114335439Y-105102125D01*
X114524595Y-105219245D01*
X114524596Y-105219245D01*
X114524599Y-105219247D01*
X114732060Y-105299618D01*
X114950757Y-105340500D01*
X114950759Y-105340500D01*
X115173241Y-105340500D01*
X115173243Y-105340500D01*
X115391940Y-105299618D01*
X115599401Y-105219247D01*
X115788562Y-105102124D01*
X115949725Y-104955204D01*
X115952979Y-104952238D01*
X115962711Y-104939352D01*
X116087058Y-104774689D01*
X116186229Y-104575528D01*
X116212734Y-104482371D01*
X116250013Y-104423278D01*
X116313323Y-104393721D01*
X116382562Y-104403083D01*
X116435749Y-104448393D01*
X116451266Y-104482372D01*
X116477769Y-104575523D01*
X116477775Y-104575538D01*
X116576938Y-104774683D01*
X116576943Y-104774691D01*
X116711020Y-104952238D01*
X116875437Y-105102123D01*
X116875439Y-105102125D01*
X117064595Y-105219245D01*
X117064596Y-105219245D01*
X117064599Y-105219247D01*
X117272060Y-105299618D01*
X117490757Y-105340500D01*
X117490759Y-105340500D01*
X117713241Y-105340500D01*
X117713243Y-105340500D01*
X117931940Y-105299618D01*
X118139401Y-105219247D01*
X118328562Y-105102124D01*
X118489725Y-104955204D01*
X118492979Y-104952238D01*
X118502711Y-104939352D01*
X118627058Y-104774689D01*
X118726229Y-104575528D01*
X118787115Y-104361536D01*
X118807643Y-104140000D01*
X118787115Y-103918464D01*
X118726229Y-103704472D01*
X118703361Y-103658547D01*
X118627061Y-103505316D01*
X118627056Y-103505308D01*
X118492979Y-103327761D01*
X118328562Y-103177876D01*
X118328560Y-103177874D01*
X118139404Y-103060754D01*
X118139395Y-103060750D01*
X118045956Y-103024552D01*
X117945475Y-102985625D01*
X117890075Y-102943054D01*
X117866484Y-102877288D01*
X117882195Y-102809207D01*
X117932219Y-102760428D01*
X117945466Y-102754377D01*
X118139401Y-102679247D01*
X118328562Y-102562124D01*
X118492981Y-102412236D01*
X118627058Y-102234689D01*
X118726229Y-102035528D01*
X118787115Y-101821536D01*
X118807643Y-101600000D01*
X118787115Y-101378464D01*
X118726229Y-101164472D01*
X118712223Y-101136344D01*
X118627061Y-100965316D01*
X118627056Y-100965308D01*
X118492979Y-100787761D01*
X118328562Y-100637876D01*
X118328560Y-100637874D01*
X118139404Y-100520754D01*
X118139398Y-100520751D01*
X117993684Y-100464302D01*
X117944784Y-100445358D01*
X117889385Y-100402786D01*
X117865794Y-100337019D01*
X117881505Y-100268939D01*
X117931529Y-100220160D01*
X117944786Y-100214105D01*
X118139177Y-100138797D01*
X118139181Y-100138795D01*
X118255326Y-100066879D01*
X117648448Y-99460000D01*
X117654661Y-99460000D01*
X117756394Y-99432741D01*
X117847606Y-99380080D01*
X117922080Y-99305606D01*
X117974741Y-99214394D01*
X118002000Y-99112661D01*
X118002000Y-99106447D01*
X118610861Y-99715308D01*
X118626631Y-99694425D01*
X118626633Y-99694422D01*
X118725759Y-99495350D01*
X118786621Y-99281439D01*
X118807141Y-99060000D01*
X118807141Y-99059999D01*
X118786621Y-98838556D01*
X118786620Y-98838553D01*
X118780896Y-98818434D01*
X118781483Y-98748567D01*
X118819750Y-98690108D01*
X118883547Y-98661618D01*
X118900162Y-98660500D01*
X139163318Y-98660500D01*
X139230357Y-98680185D01*
X139276112Y-98732989D01*
X139286056Y-98802147D01*
X139282584Y-98818435D01*
X139276884Y-98838464D01*
X139256357Y-99059999D01*
X139256357Y-99060000D01*
X139276884Y-99281535D01*
X139276885Y-99281537D01*
X139337769Y-99495523D01*
X139337775Y-99495538D01*
X139436938Y-99694683D01*
X139436943Y-99694691D01*
X139571020Y-99872238D01*
X139735437Y-100022123D01*
X139735439Y-100022125D01*
X139924595Y-100139245D01*
X139924596Y-100139245D01*
X139924599Y-100139247D01*
X140118524Y-100214374D01*
X140173924Y-100256946D01*
X140197515Y-100322713D01*
X140181804Y-100390793D01*
X140131780Y-100439572D01*
X140118533Y-100445622D01*
X140012740Y-100486607D01*
X139924601Y-100520752D01*
X139924595Y-100520754D01*
X139735439Y-100637874D01*
X139735437Y-100637876D01*
X139571020Y-100787761D01*
X139436943Y-100965308D01*
X139436938Y-100965316D01*
X139337775Y-101164461D01*
X139337769Y-101164476D01*
X139276885Y-101378462D01*
X139276884Y-101378464D01*
X139256357Y-101599999D01*
X139256357Y-101600000D01*
X139276884Y-101821535D01*
X139276885Y-101821537D01*
X139337769Y-102035523D01*
X139337775Y-102035538D01*
X139436938Y-102234683D01*
X139436943Y-102234691D01*
X139571020Y-102412238D01*
X139735437Y-102562123D01*
X139735439Y-102562125D01*
X139924595Y-102679245D01*
X139924596Y-102679245D01*
X139924599Y-102679247D01*
X140118524Y-102754374D01*
X140173924Y-102796946D01*
X140197515Y-102862713D01*
X140181804Y-102930793D01*
X140131780Y-102979572D01*
X140118533Y-102985622D01*
X139970488Y-103042975D01*
X139924601Y-103060752D01*
X139924595Y-103060754D01*
X139735439Y-103177874D01*
X139735437Y-103177876D01*
X139571020Y-103327761D01*
X139436943Y-103505308D01*
X139436938Y-103505316D01*
X139337775Y-103704461D01*
X139337769Y-103704476D01*
X139276885Y-103918462D01*
X139276884Y-103918464D01*
X139256357Y-104139999D01*
X139256357Y-104140000D01*
X139276884Y-104361535D01*
X139276885Y-104361537D01*
X139337769Y-104575523D01*
X139337775Y-104575538D01*
X139436938Y-104774683D01*
X139436943Y-104774691D01*
X139571020Y-104952238D01*
X139735437Y-105102123D01*
X139735439Y-105102125D01*
X139924595Y-105219245D01*
X139924596Y-105219245D01*
X139924599Y-105219247D01*
X140132060Y-105299618D01*
X140350757Y-105340500D01*
X140350759Y-105340500D01*
X140573241Y-105340500D01*
X140573243Y-105340500D01*
X140791940Y-105299618D01*
X140999401Y-105219247D01*
X141188562Y-105102124D01*
X141349725Y-104955204D01*
X141352979Y-104952238D01*
X141362711Y-104939352D01*
X141487058Y-104774689D01*
X141586229Y-104575528D01*
X141612734Y-104482371D01*
X141650013Y-104423278D01*
X141713323Y-104393721D01*
X141782562Y-104403083D01*
X141835749Y-104448393D01*
X141851266Y-104482372D01*
X141877769Y-104575523D01*
X141877775Y-104575538D01*
X141976938Y-104774683D01*
X141976943Y-104774691D01*
X142111020Y-104952238D01*
X142275437Y-105102123D01*
X142275439Y-105102125D01*
X142464595Y-105219245D01*
X142464596Y-105219245D01*
X142464599Y-105219247D01*
X142672060Y-105299618D01*
X142890757Y-105340500D01*
X142890759Y-105340500D01*
X143113241Y-105340500D01*
X143113243Y-105340500D01*
X143331940Y-105299618D01*
X143539401Y-105219247D01*
X143728562Y-105102124D01*
X143889725Y-104955204D01*
X143892979Y-104952238D01*
X143902711Y-104939352D01*
X144027058Y-104774689D01*
X144126229Y-104575528D01*
X144187115Y-104361536D01*
X144207643Y-104140000D01*
X144187115Y-103918464D01*
X144126229Y-103704472D01*
X144103361Y-103658547D01*
X144027061Y-103505316D01*
X144027056Y-103505308D01*
X143892979Y-103327761D01*
X143728562Y-103177876D01*
X143728560Y-103177874D01*
X143539404Y-103060754D01*
X143539395Y-103060750D01*
X143445956Y-103024552D01*
X143345475Y-102985625D01*
X143290075Y-102943054D01*
X143266484Y-102877288D01*
X143282195Y-102809207D01*
X143332219Y-102760428D01*
X143345466Y-102754377D01*
X143539401Y-102679247D01*
X143567219Y-102662023D01*
X143634579Y-102643466D01*
X143701279Y-102664274D01*
X143720178Y-102679768D01*
X145979762Y-104939352D01*
X146013247Y-105000675D01*
X146011856Y-105059126D01*
X145984938Y-105159586D01*
X145984936Y-105159596D01*
X145964341Y-105394999D01*
X145964341Y-105395000D01*
X145984936Y-105630403D01*
X145984938Y-105630413D01*
X146046094Y-105858655D01*
X146046096Y-105858659D01*
X146046097Y-105858663D01*
X146061035Y-105890697D01*
X146145965Y-106072830D01*
X146145967Y-106072834D01*
X146213240Y-106168909D01*
X146281501Y-106266396D01*
X146281506Y-106266402D01*
X146403430Y-106388326D01*
X146436915Y-106449649D01*
X146431931Y-106519341D01*
X146390059Y-106575274D01*
X146359083Y-106592189D01*
X146227669Y-106641203D01*
X146227664Y-106641206D01*
X146112455Y-106727452D01*
X146112452Y-106727455D01*
X146026206Y-106842664D01*
X146026202Y-106842671D01*
X145975908Y-106977517D01*
X145970366Y-107029072D01*
X145969501Y-107037123D01*
X145969500Y-107037135D01*
X145969500Y-108832870D01*
X145969501Y-108832876D01*
X145975908Y-108892483D01*
X146026202Y-109027328D01*
X146026206Y-109027335D01*
X146112452Y-109142544D01*
X146112455Y-109142547D01*
X146227664Y-109228793D01*
X146227671Y-109228797D01*
X146362517Y-109279091D01*
X146362516Y-109279091D01*
X146369444Y-109279835D01*
X146422127Y-109285500D01*
X148217872Y-109285499D01*
X148277483Y-109279091D01*
X148412331Y-109228796D01*
X148527546Y-109142546D01*
X148613796Y-109027331D01*
X148664091Y-108892483D01*
X148670500Y-108832873D01*
X148670499Y-107037128D01*
X148664091Y-106977517D01*
X148659235Y-106964498D01*
X148613797Y-106842671D01*
X148613793Y-106842664D01*
X148527547Y-106727455D01*
X148527544Y-106727452D01*
X148412335Y-106641206D01*
X148412328Y-106641202D01*
X148280917Y-106592189D01*
X148224983Y-106550318D01*
X148200566Y-106484853D01*
X148215418Y-106416580D01*
X148236563Y-106388332D01*
X148358495Y-106266401D01*
X148494035Y-106072830D01*
X148593903Y-105858663D01*
X148655063Y-105630408D01*
X148675659Y-105395000D01*
X148660593Y-105222805D01*
X148674359Y-105154308D01*
X148722974Y-105104125D01*
X148791003Y-105088191D01*
X148854370Y-105109818D01*
X151993856Y-107268215D01*
X152046974Y-107300125D01*
X152073890Y-107314125D01*
X152073893Y-107314126D01*
X152073904Y-107314132D01*
X152109885Y-107330127D01*
X152130494Y-107339289D01*
X152271086Y-107369874D01*
X152305931Y-107372366D01*
X152340776Y-107374859D01*
X152340777Y-107374859D01*
X152340779Y-107374859D01*
X152388613Y-107371438D01*
X152484286Y-107364597D01*
X152484288Y-107364596D01*
X152484290Y-107364596D01*
X152552142Y-107339289D01*
X152619095Y-107314318D01*
X152678498Y-107281882D01*
X152679956Y-107281120D01*
X152680413Y-107280837D01*
X152680419Y-107280834D01*
X152680427Y-107280830D01*
X152795609Y-107194606D01*
X152881833Y-107079424D01*
X152904928Y-107037129D01*
X152909328Y-107029072D01*
X152958734Y-106979667D01*
X153018160Y-106964499D01*
X154557871Y-106964499D01*
X154557872Y-106964499D01*
X154617483Y-106958091D01*
X154752331Y-106907796D01*
X154867546Y-106821546D01*
X154953796Y-106706331D01*
X155004091Y-106571483D01*
X155004092Y-106571472D01*
X155005365Y-106566088D01*
X155039933Y-106505369D01*
X155101841Y-106472978D01*
X155171433Y-106479199D01*
X155213725Y-106506912D01*
X155370858Y-106664045D01*
X155370861Y-106664047D01*
X155557266Y-106794568D01*
X155763504Y-106890739D01*
X155983308Y-106949635D01*
X156132230Y-106962664D01*
X156209998Y-106969468D01*
X156210000Y-106969468D01*
X156210002Y-106969468D01*
X156266807Y-106964498D01*
X156436692Y-106949635D01*
X156656496Y-106890739D01*
X156862734Y-106794568D01*
X157049139Y-106664047D01*
X157210047Y-106503139D01*
X157340568Y-106316734D01*
X157436739Y-106110496D01*
X157495635Y-105890692D01*
X157515468Y-105664000D01*
X157495635Y-105437308D01*
X157437206Y-105219247D01*
X157436741Y-105217511D01*
X157436738Y-105217502D01*
X157408371Y-105156669D01*
X157340568Y-105011266D01*
X157210047Y-104824861D01*
X157210045Y-104824858D01*
X157049141Y-104663954D01*
X156862734Y-104533432D01*
X156862732Y-104533431D01*
X156656497Y-104437261D01*
X156656488Y-104437258D01*
X156436697Y-104378366D01*
X156436693Y-104378365D01*
X156436692Y-104378365D01*
X156436691Y-104378364D01*
X156436686Y-104378364D01*
X156210002Y-104358532D01*
X156209998Y-104358532D01*
X155983313Y-104378364D01*
X155983302Y-104378366D01*
X155763511Y-104437258D01*
X155763502Y-104437262D01*
X155611459Y-104508161D01*
X155542381Y-104518653D01*
X155478597Y-104490133D01*
X155440358Y-104431657D01*
X155436316Y-104378136D01*
X155445500Y-104314263D01*
X155445500Y-93522461D01*
X155443670Y-93507894D01*
X155454845Y-93438926D01*
X155501533Y-93386946D01*
X155568913Y-93368460D01*
X155619107Y-93380057D01*
X155723504Y-93428739D01*
X155723510Y-93428740D01*
X155723511Y-93428741D01*
X155776415Y-93442916D01*
X155943308Y-93487635D01*
X156105230Y-93501801D01*
X156169998Y-93507468D01*
X156170000Y-93507468D01*
X156170002Y-93507468D01*
X156226673Y-93502509D01*
X156396692Y-93487635D01*
X156616496Y-93428739D01*
X156822734Y-93332568D01*
X157009139Y-93202047D01*
X157170047Y-93041139D01*
X157300568Y-92854734D01*
X157396739Y-92648496D01*
X157455635Y-92428692D01*
X157475468Y-92202000D01*
X157455635Y-91975308D01*
X157396739Y-91755504D01*
X157300568Y-91549266D01*
X157170047Y-91362861D01*
X157170045Y-91362858D01*
X157009141Y-91201954D01*
X156822734Y-91071432D01*
X156822732Y-91071431D01*
X156616497Y-90975261D01*
X156616488Y-90975258D01*
X156396697Y-90916366D01*
X156396693Y-90916365D01*
X156396692Y-90916365D01*
X156396691Y-90916364D01*
X156396686Y-90916364D01*
X156170002Y-90896532D01*
X156169998Y-90896532D01*
X155943313Y-90916364D01*
X155943302Y-90916366D01*
X155723511Y-90975258D01*
X155723497Y-90975263D01*
X155618844Y-91024064D01*
X155549767Y-91034556D01*
X155485983Y-91006036D01*
X155447744Y-90947559D01*
X155443703Y-90894033D01*
X155445500Y-90881538D01*
X155445500Y-88516000D01*
X155433947Y-88408544D01*
X155422741Y-88357033D01*
X155417872Y-88342403D01*
X155388616Y-88254502D01*
X155388613Y-88254496D01*
X155310828Y-88133462D01*
X155310825Y-88133457D01*
X155271232Y-88087764D01*
X155265076Y-88080659D01*
X155265072Y-88080656D01*
X155265070Y-88080653D01*
X155156336Y-87986433D01*
X155156333Y-87986431D01*
X155156331Y-87986430D01*
X155025465Y-87926664D01*
X155025460Y-87926662D01*
X155025459Y-87926662D01*
X154958420Y-87906977D01*
X154958422Y-87906977D01*
X154958417Y-87906976D01*
X154910944Y-87900150D01*
X154816000Y-87886500D01*
X148273285Y-87886500D01*
X148273275Y-87886500D01*
X148233219Y-87888090D01*
X148213589Y-87889651D01*
X148173792Y-87894412D01*
X148173789Y-87894413D01*
X148036401Y-87937140D01*
X147973315Y-87967174D01*
X147973306Y-87967178D01*
X147853524Y-88046881D01*
X147853518Y-88046886D01*
X147761045Y-88157108D01*
X147724215Y-88216475D01*
X147711843Y-88244750D01*
X147666934Y-88298276D01*
X147600216Y-88319024D01*
X147566154Y-88314816D01*
X147555408Y-88311937D01*
X147320001Y-88291341D01*
X147319999Y-88291341D01*
X147084596Y-88311936D01*
X147084586Y-88311938D01*
X146856344Y-88373094D01*
X146856335Y-88373098D01*
X146642171Y-88472964D01*
X146642169Y-88472965D01*
X146448597Y-88608505D01*
X146281505Y-88775597D01*
X146145965Y-88969169D01*
X146145964Y-88969171D01*
X146046098Y-89183335D01*
X146046094Y-89183344D01*
X145984938Y-89411586D01*
X145984936Y-89411596D01*
X145964341Y-89646999D01*
X145964341Y-89647000D01*
X145984936Y-89882403D01*
X145984938Y-89882413D01*
X146046094Y-90110655D01*
X146046096Y-90110659D01*
X146046097Y-90110663D01*
X146127684Y-90285627D01*
X146145965Y-90324830D01*
X146145967Y-90324834D01*
X146281501Y-90518395D01*
X146281506Y-90518402D01*
X146448597Y-90685493D01*
X146448603Y-90685498D01*
X146634158Y-90815425D01*
X146677783Y-90870002D01*
X146684977Y-90939500D01*
X146653454Y-91001855D01*
X146634158Y-91018575D01*
X146448597Y-91148505D01*
X146281505Y-91315597D01*
X146145965Y-91509169D01*
X146145964Y-91509171D01*
X146046098Y-91723335D01*
X146046094Y-91723344D01*
X145984938Y-91951586D01*
X145984936Y-91951596D01*
X145964341Y-92186999D01*
X145964341Y-92187000D01*
X145984936Y-92422403D01*
X145984938Y-92422413D01*
X146011856Y-92522872D01*
X146010193Y-92592722D01*
X145979762Y-92642646D01*
X145304229Y-93318181D01*
X145242906Y-93351666D01*
X145216548Y-93354500D01*
X144095742Y-93354500D01*
X144028703Y-93334815D01*
X143996788Y-93305227D01*
X143892979Y-93167761D01*
X143728562Y-93017876D01*
X143728560Y-93017874D01*
X143539404Y-92900754D01*
X143539395Y-92900750D01*
X143445956Y-92864552D01*
X143345475Y-92825625D01*
X143290075Y-92783054D01*
X143266484Y-92717288D01*
X143282195Y-92649207D01*
X143332219Y-92600428D01*
X143345466Y-92594377D01*
X143539401Y-92519247D01*
X143728562Y-92402124D01*
X143892981Y-92252236D01*
X144027058Y-92074689D01*
X144126229Y-91875528D01*
X144187115Y-91661536D01*
X144207643Y-91440000D01*
X144187115Y-91218464D01*
X144126229Y-91004472D01*
X144111684Y-90975261D01*
X144027061Y-90805316D01*
X144027056Y-90805308D01*
X143892979Y-90627761D01*
X143728562Y-90477876D01*
X143728560Y-90477874D01*
X143539404Y-90360754D01*
X143539395Y-90360750D01*
X143445956Y-90324552D01*
X143345475Y-90285625D01*
X143290075Y-90243054D01*
X143266484Y-90177288D01*
X143282195Y-90109207D01*
X143332219Y-90060428D01*
X143345466Y-90054377D01*
X143539401Y-89979247D01*
X143728562Y-89862124D01*
X143892981Y-89712236D01*
X144027058Y-89534689D01*
X144126229Y-89335528D01*
X144187115Y-89121536D01*
X144207643Y-88900000D01*
X144187115Y-88678464D01*
X144126229Y-88464472D01*
X144126224Y-88464461D01*
X144027061Y-88265316D01*
X144027056Y-88265308D01*
X143892981Y-88087764D01*
X143840081Y-88039539D01*
X143803800Y-87979827D01*
X143805561Y-87909980D01*
X143835939Y-87860221D01*
X143875410Y-87820750D01*
X143912427Y-87783733D01*
X143912427Y-87783731D01*
X143919488Y-87776671D01*
X143919494Y-87776664D01*
X146064020Y-85632137D01*
X146125341Y-85598654D01*
X146195033Y-85603638D01*
X146226017Y-85620559D01*
X146227669Y-85621796D01*
X146227671Y-85621797D01*
X146362517Y-85672091D01*
X146362516Y-85672091D01*
X146369444Y-85672835D01*
X146422127Y-85678500D01*
X148217872Y-85678499D01*
X148277483Y-85672091D01*
X148412331Y-85621796D01*
X148527546Y-85535546D01*
X148613796Y-85420331D01*
X148664091Y-85285483D01*
X148670500Y-85225873D01*
X148670499Y-83430128D01*
X148664091Y-83370517D01*
X148613796Y-83235669D01*
X148613795Y-83235668D01*
X148613793Y-83235664D01*
X148527547Y-83120455D01*
X148527544Y-83120452D01*
X148412335Y-83034206D01*
X148412328Y-83034202D01*
X148280917Y-82985189D01*
X148224983Y-82943318D01*
X148200566Y-82877853D01*
X148215418Y-82809580D01*
X148236563Y-82781332D01*
X148358495Y-82659401D01*
X148494035Y-82465830D01*
X148593903Y-82251663D01*
X148655063Y-82023408D01*
X148675659Y-81788000D01*
X148655063Y-81552592D01*
X148593903Y-81324337D01*
X148560234Y-81252135D01*
X153443500Y-81252135D01*
X153443500Y-83847870D01*
X153443501Y-83847876D01*
X153449908Y-83907483D01*
X153500202Y-84042328D01*
X153500206Y-84042335D01*
X153586452Y-84157544D01*
X153586455Y-84157547D01*
X153701664Y-84243793D01*
X153701671Y-84243797D01*
X153836517Y-84294091D01*
X153836516Y-84294091D01*
X153843444Y-84294835D01*
X153896127Y-84300500D01*
X156491872Y-84300499D01*
X156551483Y-84294091D01*
X156686331Y-84243796D01*
X156801546Y-84157546D01*
X156887796Y-84042331D01*
X156938091Y-83907483D01*
X156944500Y-83847873D01*
X156944499Y-81252128D01*
X156938091Y-81192517D01*
X156907377Y-81110169D01*
X156887797Y-81057671D01*
X156887793Y-81057664D01*
X156801547Y-80942455D01*
X156801544Y-80942452D01*
X156686335Y-80856206D01*
X156686328Y-80856202D01*
X156551482Y-80805908D01*
X156551483Y-80805908D01*
X156491883Y-80799501D01*
X156491881Y-80799500D01*
X156491873Y-80799500D01*
X156491864Y-80799500D01*
X153896129Y-80799500D01*
X153896123Y-80799501D01*
X153836516Y-80805908D01*
X153701671Y-80856202D01*
X153701664Y-80856206D01*
X153586455Y-80942452D01*
X153586452Y-80942455D01*
X153500206Y-81057664D01*
X153500202Y-81057671D01*
X153449908Y-81192517D01*
X153443501Y-81252116D01*
X153443501Y-81252123D01*
X153443500Y-81252135D01*
X148560234Y-81252135D01*
X148494035Y-81110171D01*
X148457829Y-81058462D01*
X148358494Y-80916597D01*
X148191402Y-80749506D01*
X148191396Y-80749501D01*
X148005842Y-80619575D01*
X147962217Y-80564998D01*
X147955023Y-80495500D01*
X147986546Y-80433145D01*
X148005842Y-80416425D01*
X148146587Y-80317874D01*
X148191401Y-80286495D01*
X148358495Y-80119401D01*
X148494035Y-79925830D01*
X148593903Y-79711663D01*
X148655063Y-79483408D01*
X148675659Y-79248000D01*
X148655063Y-79012592D01*
X148593903Y-78784337D01*
X148494035Y-78570171D01*
X148482226Y-78553305D01*
X148358494Y-78376597D01*
X148241740Y-78259844D01*
X153444000Y-78259844D01*
X153450401Y-78319372D01*
X153450403Y-78319379D01*
X153500645Y-78454086D01*
X153500649Y-78454093D01*
X153586809Y-78569187D01*
X153586812Y-78569190D01*
X153701906Y-78655350D01*
X153701913Y-78655354D01*
X153836620Y-78705596D01*
X153836627Y-78705598D01*
X153896155Y-78711999D01*
X153896172Y-78712000D01*
X154944000Y-78712000D01*
X155444000Y-78712000D01*
X156491828Y-78712000D01*
X156491844Y-78711999D01*
X156551372Y-78705598D01*
X156551379Y-78705596D01*
X156686086Y-78655354D01*
X156686093Y-78655350D01*
X156801187Y-78569190D01*
X156801190Y-78569187D01*
X156887350Y-78454093D01*
X156887354Y-78454086D01*
X156937596Y-78319379D01*
X156937598Y-78319372D01*
X156943999Y-78259844D01*
X156944000Y-78259827D01*
X156944000Y-77212000D01*
X155444000Y-77212000D01*
X155444000Y-78712000D01*
X154944000Y-78712000D01*
X154944000Y-77212000D01*
X153444000Y-77212000D01*
X153444000Y-78259844D01*
X148241740Y-78259844D01*
X148191402Y-78209506D01*
X148191401Y-78209505D01*
X148005405Y-78079269D01*
X147961781Y-78024692D01*
X147954588Y-77955193D01*
X147986110Y-77892839D01*
X148005405Y-77876119D01*
X148191082Y-77746105D01*
X148358105Y-77579082D01*
X148493600Y-77385578D01*
X148593429Y-77171492D01*
X148593432Y-77171486D01*
X148650636Y-76958000D01*
X147753012Y-76958000D01*
X147785925Y-76900993D01*
X147820000Y-76773826D01*
X147820000Y-76642174D01*
X147785925Y-76515007D01*
X147753012Y-76458000D01*
X148650636Y-76458000D01*
X148650635Y-76457999D01*
X148593432Y-76244513D01*
X148593429Y-76244507D01*
X148493600Y-76030422D01*
X148493599Y-76030420D01*
X148358113Y-75836926D01*
X148358108Y-75836920D01*
X148191082Y-75669894D01*
X148182886Y-75664155D01*
X153444000Y-75664155D01*
X153444000Y-76712000D01*
X154944000Y-76712000D01*
X155444000Y-76712000D01*
X156944000Y-76712000D01*
X156944000Y-75664172D01*
X156943999Y-75664155D01*
X156937598Y-75604627D01*
X156937596Y-75604620D01*
X156887354Y-75469913D01*
X156887350Y-75469906D01*
X156801190Y-75354812D01*
X156801187Y-75354809D01*
X156686093Y-75268649D01*
X156686086Y-75268645D01*
X156551379Y-75218403D01*
X156551372Y-75218401D01*
X156491844Y-75212000D01*
X155444000Y-75212000D01*
X155444000Y-76712000D01*
X154944000Y-76712000D01*
X154944000Y-75212000D01*
X153896155Y-75212000D01*
X153836627Y-75218401D01*
X153836620Y-75218403D01*
X153701913Y-75268645D01*
X153701906Y-75268649D01*
X153586812Y-75354809D01*
X153586809Y-75354812D01*
X153500649Y-75469906D01*
X153500645Y-75469913D01*
X153450403Y-75604620D01*
X153450401Y-75604627D01*
X153444000Y-75664155D01*
X148182886Y-75664155D01*
X147997578Y-75534399D01*
X147783492Y-75434570D01*
X147783486Y-75434567D01*
X147570000Y-75377364D01*
X147570000Y-76274988D01*
X147512993Y-76242075D01*
X147385826Y-76208000D01*
X147254174Y-76208000D01*
X147127007Y-76242075D01*
X147070000Y-76274988D01*
X147070000Y-75377364D01*
X147069999Y-75377364D01*
X146856513Y-75434567D01*
X146856507Y-75434570D01*
X146642422Y-75534399D01*
X146642420Y-75534400D01*
X146448926Y-75669886D01*
X146448920Y-75669891D01*
X146281891Y-75836920D01*
X146281886Y-75836926D01*
X146146400Y-76030420D01*
X146146399Y-76030422D01*
X146046570Y-76244507D01*
X146046567Y-76244513D01*
X145989364Y-76457999D01*
X145989364Y-76458000D01*
X146886988Y-76458000D01*
X146854075Y-76515007D01*
X146820000Y-76642174D01*
X146820000Y-76773826D01*
X146854075Y-76900993D01*
X146886988Y-76958000D01*
X145989364Y-76958000D01*
X146046567Y-77171486D01*
X146046570Y-77171492D01*
X146146399Y-77385578D01*
X146281894Y-77579082D01*
X146448917Y-77746105D01*
X146634595Y-77876119D01*
X146678219Y-77930696D01*
X146685412Y-78000195D01*
X146653890Y-78062549D01*
X146634595Y-78079269D01*
X146448594Y-78209508D01*
X146281505Y-78376597D01*
X146145965Y-78570169D01*
X146145964Y-78570171D01*
X146046098Y-78784335D01*
X146046094Y-78784344D01*
X145984938Y-79012586D01*
X145984936Y-79012596D01*
X145964341Y-79247999D01*
X145964341Y-79248000D01*
X145984936Y-79483403D01*
X145984938Y-79483413D01*
X146011856Y-79583872D01*
X146010193Y-79653722D01*
X145979762Y-79703646D01*
X145757579Y-79925830D01*
X145746270Y-79937139D01*
X145746267Y-79937142D01*
X145702703Y-79980705D01*
X145659140Y-80024268D01*
X145637733Y-80056308D01*
X145637731Y-80056311D01*
X145590690Y-80126710D01*
X145590685Y-80126719D01*
X145560021Y-80200751D01*
X145543538Y-80240543D01*
X145543538Y-80240545D01*
X145543537Y-80240548D01*
X145528156Y-80317876D01*
X145519500Y-80361396D01*
X145519500Y-81890547D01*
X145499815Y-81957586D01*
X145483181Y-81978228D01*
X144231705Y-83229703D01*
X144170382Y-83263188D01*
X144100690Y-83258204D01*
X144044757Y-83216332D01*
X144033026Y-83197296D01*
X144027058Y-83185311D01*
X143892981Y-83007764D01*
X143892979Y-83007761D01*
X143728562Y-82857876D01*
X143728560Y-82857874D01*
X143539404Y-82740754D01*
X143539395Y-82740750D01*
X143445956Y-82704552D01*
X143345475Y-82665625D01*
X143290075Y-82623054D01*
X143266484Y-82557288D01*
X143282195Y-82489207D01*
X143332219Y-82440428D01*
X143345466Y-82434377D01*
X143539401Y-82359247D01*
X143728562Y-82242124D01*
X143892981Y-82092236D01*
X144027058Y-81914689D01*
X144126229Y-81715528D01*
X144187115Y-81501536D01*
X144207643Y-81280000D01*
X144187115Y-81058464D01*
X144126229Y-80844472D01*
X144107027Y-80805909D01*
X144027061Y-80645316D01*
X144027056Y-80645308D01*
X143892979Y-80467761D01*
X143728562Y-80317876D01*
X143728560Y-80317874D01*
X143539404Y-80200754D01*
X143539398Y-80200752D01*
X143331940Y-80120382D01*
X143113243Y-80079500D01*
X142890757Y-80079500D01*
X142672060Y-80120382D01*
X142540864Y-80171207D01*
X142464601Y-80200752D01*
X142464595Y-80200754D01*
X142275439Y-80317874D01*
X142275437Y-80317876D01*
X142111020Y-80467761D01*
X141976943Y-80645308D01*
X141976938Y-80645316D01*
X141877775Y-80844461D01*
X141877769Y-80844476D01*
X141851266Y-80937627D01*
X141813987Y-80996721D01*
X141750677Y-81026278D01*
X141681438Y-81016916D01*
X141628251Y-80971606D01*
X141612734Y-80937627D01*
X141586230Y-80844476D01*
X141586229Y-80844472D01*
X141567027Y-80805909D01*
X141487061Y-80645316D01*
X141487056Y-80645308D01*
X141352979Y-80467761D01*
X141188562Y-80317876D01*
X141188560Y-80317874D01*
X140999404Y-80200754D01*
X140999398Y-80200752D01*
X140791940Y-80120382D01*
X140573243Y-80079500D01*
X140350757Y-80079500D01*
X140132060Y-80120382D01*
X140000864Y-80171207D01*
X139924601Y-80200752D01*
X139924595Y-80200754D01*
X139735439Y-80317874D01*
X139735437Y-80317876D01*
X139571020Y-80467761D01*
X139436943Y-80645308D01*
X139436938Y-80645316D01*
X139337775Y-80844461D01*
X139337769Y-80844476D01*
X139276885Y-81058462D01*
X139276884Y-81058464D01*
X139256357Y-81279999D01*
X139256357Y-81280000D01*
X139276884Y-81501535D01*
X139276885Y-81501537D01*
X139337769Y-81715523D01*
X139337775Y-81715538D01*
X139436938Y-81914683D01*
X139436943Y-81914691D01*
X139571020Y-82092238D01*
X139735437Y-82242123D01*
X139735439Y-82242125D01*
X139924595Y-82359245D01*
X139924596Y-82359245D01*
X139924599Y-82359247D01*
X140118524Y-82434374D01*
X140173924Y-82476946D01*
X140197515Y-82542713D01*
X140181804Y-82610793D01*
X140131780Y-82659572D01*
X140118533Y-82665622D01*
X139970488Y-82722975D01*
X139924601Y-82740752D01*
X139924595Y-82740754D01*
X139735439Y-82857874D01*
X139735437Y-82857876D01*
X139571020Y-83007761D01*
X139436943Y-83185308D01*
X139436938Y-83185316D01*
X139337775Y-83384461D01*
X139337769Y-83384476D01*
X139276885Y-83598462D01*
X139276884Y-83598464D01*
X139256357Y-83819999D01*
X139256357Y-83820000D01*
X139276884Y-84041535D01*
X139276885Y-84041537D01*
X139337769Y-84255523D01*
X139337775Y-84255538D01*
X139436938Y-84454683D01*
X139436943Y-84454691D01*
X139571020Y-84632238D01*
X139735437Y-84782123D01*
X139735439Y-84782125D01*
X139924595Y-84899245D01*
X139924596Y-84899245D01*
X139924599Y-84899247D01*
X140118524Y-84974374D01*
X140173924Y-85016946D01*
X140197515Y-85082713D01*
X140181804Y-85150793D01*
X140131780Y-85199572D01*
X140118533Y-85205622D01*
X139970488Y-85262975D01*
X139924601Y-85280752D01*
X139924595Y-85280754D01*
X139735439Y-85397874D01*
X139735437Y-85397876D01*
X139571020Y-85547761D01*
X139436943Y-85725308D01*
X139436938Y-85725316D01*
X139337775Y-85924461D01*
X139337769Y-85924476D01*
X139276885Y-86138462D01*
X139276884Y-86138464D01*
X139256357Y-86359999D01*
X139256357Y-86360000D01*
X139276884Y-86581535D01*
X139276885Y-86581537D01*
X139337769Y-86795523D01*
X139337775Y-86795538D01*
X139436938Y-86994683D01*
X139436943Y-86994691D01*
X139571020Y-87172238D01*
X139735437Y-87322123D01*
X139735439Y-87322125D01*
X139924595Y-87439245D01*
X139924596Y-87439245D01*
X139924599Y-87439247D01*
X140118524Y-87514374D01*
X140173924Y-87556946D01*
X140197515Y-87622713D01*
X140181804Y-87690793D01*
X140131780Y-87739572D01*
X140118533Y-87745622D01*
X139970488Y-87802975D01*
X139924601Y-87820752D01*
X139924595Y-87820754D01*
X139735439Y-87937874D01*
X139735437Y-87937876D01*
X139571020Y-88087761D01*
X139436943Y-88265308D01*
X139436938Y-88265316D01*
X139337775Y-88464461D01*
X139337769Y-88464476D01*
X139276885Y-88678462D01*
X139276884Y-88678464D01*
X139256357Y-88899999D01*
X139256357Y-88900000D01*
X139276884Y-89121535D01*
X139276885Y-89121537D01*
X139337769Y-89335523D01*
X139337775Y-89335538D01*
X139436938Y-89534683D01*
X139436943Y-89534691D01*
X139571020Y-89712238D01*
X139735437Y-89862123D01*
X139735439Y-89862125D01*
X139924595Y-89979245D01*
X139924596Y-89979245D01*
X139924599Y-89979247D01*
X140118524Y-90054374D01*
X140173924Y-90096946D01*
X140197515Y-90162713D01*
X140181804Y-90230793D01*
X140131780Y-90279572D01*
X140118533Y-90285622D01*
X139970488Y-90342975D01*
X139924601Y-90360752D01*
X139924595Y-90360754D01*
X139735439Y-90477874D01*
X139735437Y-90477876D01*
X139644593Y-90560690D01*
X139581789Y-90591306D01*
X139512402Y-90583108D01*
X139473375Y-90556733D01*
X124408909Y-75492267D01*
X124321784Y-75405142D01*
X124321783Y-75405141D01*
X124321782Y-75405140D01*
X124270560Y-75370915D01*
X124219338Y-75336689D01*
X124219337Y-75336688D01*
X124219334Y-75336686D01*
X124219331Y-75336685D01*
X124138843Y-75303347D01*
X124105504Y-75289537D01*
X124095478Y-75287543D01*
X124045080Y-75277518D01*
X123984661Y-75265500D01*
X123984658Y-75265500D01*
X123984657Y-75265500D01*
X103379452Y-75265500D01*
X103312413Y-75245815D01*
X103291771Y-75229181D01*
X101610270Y-73547680D01*
X101576785Y-73486357D01*
X101581769Y-73416665D01*
X101623641Y-73360732D01*
X101689105Y-73336315D01*
X101697951Y-73335999D01*
X101713972Y-73335999D01*
X101713986Y-73335998D01*
X101816697Y-73325505D01*
X101983119Y-73270358D01*
X101983124Y-73270356D01*
X102132345Y-73178315D01*
X102256315Y-73054345D01*
X102348356Y-72905124D01*
X102348358Y-72905119D01*
X102403505Y-72738697D01*
X102403506Y-72738690D01*
X102405825Y-72715994D01*
X102992357Y-72715994D01*
X102992357Y-72716005D01*
X103012890Y-72963812D01*
X103012892Y-72963824D01*
X103073936Y-73204881D01*
X103173826Y-73432606D01*
X103309833Y-73640782D01*
X103309836Y-73640785D01*
X103478256Y-73823738D01*
X103674491Y-73976474D01*
X103893190Y-74094828D01*
X104128386Y-74175571D01*
X104373665Y-74216500D01*
X104622335Y-74216500D01*
X104867614Y-74175571D01*
X105102810Y-74094828D01*
X105321509Y-73976474D01*
X105517744Y-73823738D01*
X105686164Y-73640785D01*
X105822173Y-73432607D01*
X105922063Y-73204881D01*
X105983108Y-72963821D01*
X105983109Y-72963812D01*
X106003643Y-72716005D01*
X106003643Y-72715994D01*
X109492357Y-72715994D01*
X109492357Y-72716005D01*
X109512890Y-72963812D01*
X109512892Y-72963824D01*
X109573936Y-73204881D01*
X109673826Y-73432606D01*
X109809833Y-73640782D01*
X109809836Y-73640785D01*
X109978256Y-73823738D01*
X110174491Y-73976474D01*
X110393190Y-74094828D01*
X110628386Y-74175571D01*
X110873665Y-74216500D01*
X111122335Y-74216500D01*
X111367614Y-74175571D01*
X111602810Y-74094828D01*
X111821509Y-73976474D01*
X112017744Y-73823738D01*
X112186164Y-73640785D01*
X112322173Y-73432607D01*
X112422063Y-73204881D01*
X112483108Y-72963821D01*
X112483109Y-72963812D01*
X112503643Y-72716005D01*
X112503643Y-72715994D01*
X112483109Y-72468187D01*
X112483107Y-72468175D01*
X112422063Y-72227118D01*
X112322173Y-71999393D01*
X112186166Y-71791217D01*
X112119883Y-71719215D01*
X112017744Y-71608262D01*
X111821509Y-71455526D01*
X111821507Y-71455525D01*
X111821506Y-71455524D01*
X111602811Y-71337172D01*
X111602802Y-71337169D01*
X111367616Y-71256429D01*
X111122335Y-71215500D01*
X110873665Y-71215500D01*
X110628383Y-71256429D01*
X110393197Y-71337169D01*
X110393188Y-71337172D01*
X110174493Y-71455524D01*
X109978257Y-71608261D01*
X109809833Y-71791217D01*
X109673826Y-71999393D01*
X109573936Y-72227118D01*
X109512892Y-72468175D01*
X109512890Y-72468187D01*
X109492357Y-72715994D01*
X106003643Y-72715994D01*
X105983109Y-72468187D01*
X105983107Y-72468175D01*
X105922063Y-72227118D01*
X105822173Y-71999393D01*
X105686166Y-71791217D01*
X105619883Y-71719215D01*
X105517744Y-71608262D01*
X105321509Y-71455526D01*
X105321507Y-71455525D01*
X105321506Y-71455524D01*
X105102811Y-71337172D01*
X105102802Y-71337169D01*
X104867616Y-71256429D01*
X104622335Y-71215500D01*
X104373665Y-71215500D01*
X104128383Y-71256429D01*
X103893197Y-71337169D01*
X103893188Y-71337172D01*
X103674493Y-71455524D01*
X103478257Y-71608261D01*
X103309833Y-71791217D01*
X103173826Y-71999393D01*
X103073936Y-72227118D01*
X103012892Y-72468175D01*
X103012890Y-72468187D01*
X102992357Y-72715994D01*
X102405825Y-72715994D01*
X102413999Y-72635986D01*
X102414000Y-72635973D01*
X102414000Y-72386000D01*
X101188000Y-72386000D01*
X101120961Y-72366315D01*
X101075206Y-72313511D01*
X101064000Y-72262000D01*
X101064000Y-71886000D01*
X101564000Y-71886000D01*
X102413999Y-71886000D01*
X102413999Y-71636028D01*
X102413998Y-71636013D01*
X102403505Y-71533302D01*
X102348358Y-71366880D01*
X102348356Y-71366875D01*
X102256315Y-71217654D01*
X102132345Y-71093684D01*
X101983124Y-71001643D01*
X101983119Y-71001641D01*
X101816697Y-70946494D01*
X101816690Y-70946493D01*
X101713986Y-70936000D01*
X101564000Y-70936000D01*
X101564000Y-71886000D01*
X101064000Y-71886000D01*
X101064000Y-70936000D01*
X100914027Y-70936000D01*
X100914012Y-70936001D01*
X100811302Y-70946494D01*
X100644880Y-71001641D01*
X100644875Y-71001643D01*
X100495657Y-71093682D01*
X100402034Y-71187305D01*
X100340710Y-71220789D01*
X100271019Y-71215805D01*
X100226672Y-71187304D01*
X100132657Y-71093289D01*
X100132656Y-71093288D01*
X99983334Y-71001186D01*
X99816797Y-70946001D01*
X99816795Y-70946000D01*
X99714010Y-70935500D01*
X98913998Y-70935500D01*
X98913980Y-70935501D01*
X98811203Y-70946000D01*
X98811200Y-70946001D01*
X98644668Y-71001185D01*
X98644663Y-71001187D01*
X98495342Y-71093289D01*
X98371289Y-71217342D01*
X98279187Y-71366663D01*
X98279185Y-71366668D01*
X98279115Y-71366880D01*
X98224001Y-71533203D01*
X98224001Y-71533204D01*
X98224000Y-71533204D01*
X98213500Y-71635983D01*
X98213500Y-72636001D01*
X98213501Y-72636019D01*
X98224000Y-72738796D01*
X98224001Y-72738799D01*
X98259829Y-72846919D01*
X98262231Y-72916747D01*
X98229804Y-72973604D01*
X95521229Y-75682179D01*
X95459906Y-75715664D01*
X95393286Y-75711780D01*
X95313613Y-75684428D01*
X95068335Y-75643500D01*
X94819665Y-75643500D01*
X94574383Y-75684429D01*
X94339197Y-75765169D01*
X94339188Y-75765172D01*
X94120493Y-75883524D01*
X93924257Y-76036261D01*
X93755833Y-76219217D01*
X93619824Y-76427396D01*
X93612405Y-76444311D01*
X93567449Y-76497797D01*
X93500713Y-76518486D01*
X93498850Y-76518500D01*
X89889150Y-76518500D01*
X89822111Y-76498815D01*
X89776356Y-76446011D01*
X89775595Y-76444311D01*
X89768175Y-76427396D01*
X89632166Y-76219217D01*
X89589884Y-76173287D01*
X89463744Y-76036262D01*
X89267509Y-75883526D01*
X89267507Y-75883525D01*
X89267506Y-75883524D01*
X89048811Y-75765172D01*
X89048802Y-75765169D01*
X88813616Y-75684429D01*
X88568335Y-75643500D01*
X88319665Y-75643500D01*
X88074383Y-75684429D01*
X87839197Y-75765169D01*
X87839188Y-75765172D01*
X87620493Y-75883524D01*
X87424257Y-76036261D01*
X87255833Y-76219217D01*
X87119826Y-76427393D01*
X87019936Y-76655118D01*
X86958892Y-76896175D01*
X86958890Y-76896187D01*
X86938357Y-77143994D01*
X86938357Y-77144005D01*
X86958890Y-77391812D01*
X86958892Y-77391824D01*
X87019936Y-77632881D01*
X87119826Y-77860606D01*
X87255833Y-78068782D01*
X87265487Y-78079269D01*
X87424256Y-78251738D01*
X87620491Y-78404474D01*
X87839190Y-78522828D01*
X88074386Y-78603571D01*
X88319665Y-78644500D01*
X88568335Y-78644500D01*
X88813614Y-78603571D01*
X89048810Y-78522828D01*
X89267509Y-78404474D01*
X89463744Y-78251738D01*
X89632164Y-78068785D01*
X89768173Y-77860607D01*
X89768175Y-77860603D01*
X89775595Y-77843689D01*
X89820551Y-77790203D01*
X89887287Y-77769514D01*
X89889150Y-77769500D01*
X93498850Y-77769500D01*
X93565889Y-77789185D01*
X93611644Y-77841989D01*
X93612405Y-77843689D01*
X93619824Y-77860603D01*
X93755833Y-78068782D01*
X93765487Y-78079269D01*
X93924256Y-78251738D01*
X94120491Y-78404474D01*
X94339190Y-78522828D01*
X94574386Y-78603571D01*
X94819665Y-78644500D01*
X95068335Y-78644500D01*
X95313614Y-78603571D01*
X95548810Y-78522828D01*
X95767509Y-78404474D01*
X95963744Y-78251738D01*
X96132164Y-78068785D01*
X96268173Y-77860607D01*
X96331610Y-77715986D01*
X98214001Y-77715986D01*
X98224494Y-77818697D01*
X98279641Y-77985119D01*
X98279643Y-77985124D01*
X98371684Y-78134345D01*
X98495654Y-78258315D01*
X98644875Y-78350356D01*
X98644880Y-78350358D01*
X98811302Y-78405505D01*
X98811309Y-78405506D01*
X98914019Y-78415999D01*
X99063999Y-78415999D01*
X99064000Y-78415998D01*
X99064000Y-77466000D01*
X98214001Y-77466000D01*
X98214001Y-77715986D01*
X96331610Y-77715986D01*
X96368063Y-77632881D01*
X96429108Y-77391821D01*
X96429109Y-77391812D01*
X96449643Y-77144005D01*
X96449643Y-77143994D01*
X96429109Y-76896187D01*
X96429108Y-76896183D01*
X96429108Y-76896179D01*
X96383484Y-76716013D01*
X98214000Y-76716013D01*
X98214000Y-76966000D01*
X99064000Y-76966000D01*
X99064000Y-76016000D01*
X98914027Y-76016000D01*
X98914012Y-76016001D01*
X98811302Y-76026494D01*
X98644880Y-76081641D01*
X98644875Y-76081643D01*
X98495654Y-76173684D01*
X98371684Y-76297654D01*
X98279643Y-76446875D01*
X98279641Y-76446880D01*
X98224494Y-76613302D01*
X98224493Y-76613309D01*
X98214000Y-76716013D01*
X96383484Y-76716013D01*
X96375136Y-76683049D01*
X96377760Y-76613230D01*
X96407658Y-76564930D01*
X99545322Y-73427267D01*
X99606641Y-73393785D01*
X99676333Y-73398769D01*
X99720680Y-73427270D01*
X102254234Y-75960824D01*
X102287719Y-76022147D01*
X102282735Y-76091839D01*
X102240863Y-76147772D01*
X102175399Y-76172189D01*
X102107126Y-76157337D01*
X102101457Y-76154044D01*
X101983340Y-76081189D01*
X101983335Y-76081187D01*
X101983334Y-76081186D01*
X101816797Y-76026001D01*
X101816795Y-76026000D01*
X101714010Y-76015500D01*
X100913998Y-76015500D01*
X100913980Y-76015501D01*
X100811203Y-76026000D01*
X100811200Y-76026001D01*
X100644668Y-76081185D01*
X100644663Y-76081187D01*
X100495345Y-76173287D01*
X100401327Y-76267305D01*
X100340003Y-76300789D01*
X100270312Y-76295805D01*
X100225965Y-76267304D01*
X100132345Y-76173684D01*
X99983124Y-76081643D01*
X99983119Y-76081641D01*
X99816697Y-76026494D01*
X99816690Y-76026493D01*
X99713986Y-76016000D01*
X99564000Y-76016000D01*
X99564000Y-78415999D01*
X99713972Y-78415999D01*
X99713986Y-78415998D01*
X99816697Y-78405505D01*
X99983119Y-78350358D01*
X99983124Y-78350356D01*
X100132342Y-78258317D01*
X100225964Y-78164695D01*
X100287287Y-78131210D01*
X100356979Y-78136194D01*
X100401327Y-78164695D01*
X100495344Y-78258712D01*
X100644666Y-78350814D01*
X100811203Y-78405999D01*
X100913991Y-78416500D01*
X101714008Y-78416499D01*
X101714016Y-78416498D01*
X101714019Y-78416498D01*
X101770302Y-78410748D01*
X101816797Y-78405999D01*
X101983334Y-78350814D01*
X102132656Y-78258712D01*
X102256712Y-78134656D01*
X102348814Y-77985334D01*
X102368311Y-77926493D01*
X102408084Y-77869051D01*
X102472600Y-77842228D01*
X102486017Y-77841500D01*
X103052850Y-77841500D01*
X103119889Y-77861185D01*
X103165644Y-77913989D01*
X103166405Y-77915689D01*
X103173824Y-77932603D01*
X103309833Y-78140782D01*
X103309836Y-78140785D01*
X103478256Y-78323738D01*
X103674491Y-78476474D01*
X103674493Y-78476475D01*
X103869125Y-78581805D01*
X103893190Y-78594828D01*
X104128386Y-78675571D01*
X104373665Y-78716500D01*
X104622335Y-78716500D01*
X104867614Y-78675571D01*
X105102810Y-78594828D01*
X105321509Y-78476474D01*
X105517744Y-78323738D01*
X105686164Y-78140785D01*
X105822173Y-77932607D01*
X105822231Y-77932475D01*
X105829595Y-77915689D01*
X105874551Y-77862203D01*
X105941287Y-77841514D01*
X105943150Y-77841500D01*
X109552850Y-77841500D01*
X109619889Y-77861185D01*
X109665644Y-77913989D01*
X109666405Y-77915689D01*
X109673824Y-77932603D01*
X109809833Y-78140782D01*
X109809836Y-78140785D01*
X109978256Y-78323738D01*
X110174491Y-78476474D01*
X110174493Y-78476475D01*
X110369125Y-78581805D01*
X110393190Y-78594828D01*
X110628386Y-78675571D01*
X110873665Y-78716500D01*
X111122335Y-78716500D01*
X111367614Y-78675571D01*
X111602810Y-78594828D01*
X111821509Y-78476474D01*
X112017744Y-78323738D01*
X112186164Y-78140785D01*
X112322173Y-77932607D01*
X112322231Y-77932475D01*
X112329595Y-77915689D01*
X112374551Y-77862203D01*
X112441287Y-77841514D01*
X112443150Y-77841500D01*
X123387548Y-77841500D01*
X123454587Y-77861185D01*
X123475229Y-77877819D01*
X139243107Y-93645697D01*
X139276592Y-93707020D01*
X139277266Y-93752742D01*
X139277414Y-93752756D01*
X139277287Y-93754125D01*
X139277317Y-93756153D01*
X139276884Y-93758465D01*
X139256357Y-93979999D01*
X139256357Y-93980000D01*
X139276884Y-94201535D01*
X139276885Y-94201537D01*
X139337769Y-94415523D01*
X139337775Y-94415538D01*
X139436938Y-94614683D01*
X139436943Y-94614691D01*
X139571020Y-94792238D01*
X139735437Y-94942123D01*
X139735439Y-94942125D01*
X139924595Y-95059245D01*
X139924596Y-95059245D01*
X139924599Y-95059247D01*
X140118524Y-95134374D01*
X140173924Y-95176946D01*
X140197515Y-95242713D01*
X140181804Y-95310793D01*
X140131780Y-95359572D01*
X140118533Y-95365622D01*
X139970488Y-95422975D01*
X139924601Y-95440752D01*
X139924595Y-95440754D01*
X139735439Y-95557874D01*
X139735437Y-95557876D01*
X139571020Y-95707761D01*
X139436943Y-95885308D01*
X139436938Y-95885316D01*
X139337775Y-96084461D01*
X139337769Y-96084476D01*
X139276885Y-96298462D01*
X139276884Y-96298464D01*
X139256357Y-96519999D01*
X139256357Y-96520000D01*
X139276884Y-96741535D01*
X139276885Y-96741537D01*
X139337769Y-96955523D01*
X139337774Y-96955534D01*
X139352560Y-96985229D01*
X139364820Y-97054015D01*
X139337946Y-97118509D01*
X139280470Y-97158237D01*
X139241559Y-97164500D01*
X118822441Y-97164500D01*
X118755402Y-97144815D01*
X118709647Y-97092011D01*
X118699703Y-97022853D01*
X118711440Y-96985229D01*
X118718696Y-96970656D01*
X118726229Y-96955528D01*
X118787115Y-96741536D01*
X118807643Y-96520000D01*
X118795803Y-96392229D01*
X118787115Y-96298464D01*
X118787114Y-96298462D01*
X118775293Y-96256916D01*
X118726229Y-96084472D01*
X118726224Y-96084461D01*
X118627061Y-95885316D01*
X118627056Y-95885308D01*
X118492979Y-95707761D01*
X118328562Y-95557876D01*
X118328560Y-95557874D01*
X118139404Y-95440754D01*
X118139395Y-95440750D01*
X118045956Y-95404552D01*
X117945475Y-95365625D01*
X117890075Y-95323054D01*
X117866484Y-95257288D01*
X117882195Y-95189207D01*
X117932219Y-95140428D01*
X117945466Y-95134377D01*
X118139401Y-95059247D01*
X118328562Y-94942124D01*
X118492981Y-94792236D01*
X118627058Y-94614689D01*
X118726229Y-94415528D01*
X118787115Y-94201536D01*
X118807643Y-93980000D01*
X118787115Y-93758464D01*
X118726229Y-93544472D01*
X118708017Y-93507897D01*
X118627061Y-93345316D01*
X118627056Y-93345308D01*
X118492979Y-93167761D01*
X118328562Y-93017876D01*
X118328560Y-93017874D01*
X118139404Y-92900754D01*
X118139395Y-92900750D01*
X118045956Y-92864552D01*
X117945475Y-92825625D01*
X117890075Y-92783054D01*
X117866484Y-92717288D01*
X117882195Y-92649207D01*
X117932219Y-92600428D01*
X117945466Y-92594377D01*
X118139401Y-92519247D01*
X118328562Y-92402124D01*
X118492981Y-92252236D01*
X118627058Y-92074689D01*
X118726229Y-91875528D01*
X118787115Y-91661536D01*
X118807643Y-91440000D01*
X118787115Y-91218464D01*
X118726229Y-91004472D01*
X118711684Y-90975261D01*
X118627061Y-90805316D01*
X118627056Y-90805308D01*
X118492979Y-90627761D01*
X118328562Y-90477876D01*
X118328560Y-90477874D01*
X118139404Y-90360754D01*
X118139395Y-90360750D01*
X118045956Y-90324552D01*
X117945475Y-90285625D01*
X117890075Y-90243054D01*
X117866484Y-90177288D01*
X117882195Y-90109207D01*
X117932219Y-90060428D01*
X117945466Y-90054377D01*
X118139401Y-89979247D01*
X118328562Y-89862124D01*
X118492981Y-89712236D01*
X118627058Y-89534689D01*
X118726229Y-89335528D01*
X118787115Y-89121536D01*
X118807643Y-88900000D01*
X118787115Y-88678464D01*
X118726229Y-88464472D01*
X118726224Y-88464461D01*
X118627061Y-88265316D01*
X118627056Y-88265308D01*
X118492979Y-88087761D01*
X118328562Y-87937876D01*
X118328560Y-87937874D01*
X118139404Y-87820754D01*
X118139395Y-87820750D01*
X118025576Y-87776657D01*
X117945475Y-87745625D01*
X117890075Y-87703054D01*
X117866484Y-87637288D01*
X117882195Y-87569207D01*
X117932219Y-87520428D01*
X117945466Y-87514377D01*
X118139401Y-87439247D01*
X118328562Y-87322124D01*
X118492981Y-87172236D01*
X118627058Y-86994689D01*
X118726229Y-86795528D01*
X118787115Y-86581536D01*
X118807643Y-86360000D01*
X118787115Y-86138464D01*
X118726229Y-85924472D01*
X118722474Y-85916930D01*
X118627061Y-85725316D01*
X118627056Y-85725308D01*
X118492979Y-85547761D01*
X118328562Y-85397876D01*
X118328560Y-85397874D01*
X118139404Y-85280754D01*
X118139395Y-85280750D01*
X118045956Y-85244552D01*
X117945475Y-85205625D01*
X117890075Y-85163054D01*
X117866484Y-85097288D01*
X117882195Y-85029207D01*
X117932219Y-84980428D01*
X117945466Y-84974377D01*
X118139401Y-84899247D01*
X118328562Y-84782124D01*
X118492981Y-84632236D01*
X118627058Y-84454689D01*
X118726229Y-84255528D01*
X118787115Y-84041536D01*
X118807643Y-83820000D01*
X118787115Y-83598464D01*
X118726229Y-83384472D01*
X118726224Y-83384461D01*
X118627061Y-83185316D01*
X118627056Y-83185308D01*
X118492979Y-83007761D01*
X118328562Y-82857876D01*
X118328560Y-82857874D01*
X118139404Y-82740754D01*
X118139395Y-82740750D01*
X118045956Y-82704552D01*
X117945475Y-82665625D01*
X117890075Y-82623054D01*
X117866484Y-82557288D01*
X117882195Y-82489207D01*
X117932219Y-82440428D01*
X117945466Y-82434377D01*
X118139401Y-82359247D01*
X118328562Y-82242124D01*
X118492981Y-82092236D01*
X118627058Y-81914689D01*
X118726229Y-81715528D01*
X118787115Y-81501536D01*
X118807643Y-81280000D01*
X118787115Y-81058464D01*
X118726229Y-80844472D01*
X118707027Y-80805909D01*
X118627061Y-80645316D01*
X118627056Y-80645308D01*
X118492979Y-80467761D01*
X118328562Y-80317876D01*
X118328560Y-80317874D01*
X118139404Y-80200754D01*
X118139398Y-80200752D01*
X117931940Y-80120382D01*
X117713243Y-80079500D01*
X117490757Y-80079500D01*
X117272060Y-80120382D01*
X117140864Y-80171207D01*
X117064601Y-80200752D01*
X117064595Y-80200754D01*
X116875439Y-80317874D01*
X116875437Y-80317876D01*
X116711020Y-80467761D01*
X116576943Y-80645308D01*
X116576938Y-80645316D01*
X116477775Y-80844461D01*
X116477769Y-80844476D01*
X116451266Y-80937627D01*
X116413987Y-80996721D01*
X116350677Y-81026278D01*
X116281438Y-81016916D01*
X116228251Y-80971606D01*
X116212734Y-80937627D01*
X116186230Y-80844476D01*
X116186229Y-80844472D01*
X116167027Y-80805909D01*
X116087061Y-80645316D01*
X116087056Y-80645308D01*
X115952979Y-80467761D01*
X115788562Y-80317876D01*
X115788560Y-80317874D01*
X115599404Y-80200754D01*
X115599398Y-80200752D01*
X115391940Y-80120382D01*
X115173243Y-80079500D01*
X114950757Y-80079500D01*
X114732060Y-80120382D01*
X114600864Y-80171207D01*
X114524601Y-80200752D01*
X114524595Y-80200754D01*
X114335439Y-80317874D01*
X114335437Y-80317876D01*
X114171020Y-80467761D01*
X114036943Y-80645308D01*
X114036938Y-80645316D01*
X113937775Y-80844461D01*
X113937769Y-80844476D01*
X113876885Y-81058462D01*
X113876884Y-81058464D01*
X113856357Y-81279999D01*
X113856357Y-81280000D01*
X113876884Y-81501535D01*
X113876885Y-81501537D01*
X113937769Y-81715523D01*
X113937775Y-81715538D01*
X114036938Y-81914683D01*
X114036943Y-81914691D01*
X114171020Y-82092238D01*
X114335437Y-82242123D01*
X114335439Y-82242125D01*
X114524595Y-82359245D01*
X114524596Y-82359245D01*
X114524599Y-82359247D01*
X114718524Y-82434374D01*
X114773924Y-82476946D01*
X114797515Y-82542713D01*
X114781804Y-82610793D01*
X114731780Y-82659572D01*
X114718533Y-82665622D01*
X114570488Y-82722975D01*
X114524601Y-82740752D01*
X114524595Y-82740754D01*
X114335439Y-82857874D01*
X114335437Y-82857876D01*
X114171020Y-83007761D01*
X114036943Y-83185308D01*
X114036938Y-83185316D01*
X113937775Y-83384461D01*
X113937769Y-83384476D01*
X113876885Y-83598462D01*
X113876884Y-83598464D01*
X113856357Y-83819999D01*
X113856357Y-83820000D01*
X113876884Y-84041535D01*
X113876885Y-84041537D01*
X113937769Y-84255523D01*
X113937775Y-84255538D01*
X114036938Y-84454683D01*
X114036943Y-84454691D01*
X114079295Y-84510773D01*
X114103987Y-84576134D01*
X114089422Y-84644469D01*
X114040225Y-84694081D01*
X113980341Y-84709500D01*
X90185453Y-84709500D01*
X90118414Y-84689815D01*
X90097772Y-84673181D01*
X85178818Y-79754227D01*
X85145333Y-79692904D01*
X85142499Y-79666546D01*
X85142499Y-79001998D01*
X85142498Y-79001981D01*
X85131999Y-78899203D01*
X85131998Y-78899200D01*
X85093935Y-78784335D01*
X85076814Y-78732666D01*
X84984712Y-78583344D01*
X84860656Y-78459288D01*
X84726402Y-78376480D01*
X84679679Y-78324533D01*
X84667500Y-78270942D01*
X84667500Y-78212591D01*
X84687185Y-78145552D01*
X84739989Y-78099797D01*
X84751238Y-78095310D01*
X84770280Y-78088772D01*
X84880810Y-78050828D01*
X85099509Y-77932474D01*
X85295744Y-77779738D01*
X85464164Y-77596785D01*
X85600173Y-77388607D01*
X85700063Y-77160881D01*
X85761108Y-76919821D01*
X85762668Y-76900993D01*
X85781643Y-76672005D01*
X85781643Y-76671994D01*
X85761109Y-76424187D01*
X85761107Y-76424175D01*
X85700063Y-76183118D01*
X85600173Y-75955393D01*
X85464166Y-75747217D01*
X85406365Y-75684429D01*
X85295744Y-75564262D01*
X85099509Y-75411526D01*
X85099507Y-75411525D01*
X85099506Y-75411524D01*
X84880811Y-75293172D01*
X84880802Y-75293169D01*
X84645616Y-75212429D01*
X84400335Y-75171500D01*
X84151665Y-75171500D01*
X83906383Y-75212429D01*
X83671197Y-75293169D01*
X83671188Y-75293172D01*
X83452493Y-75411524D01*
X83256257Y-75564261D01*
X83087833Y-75747217D01*
X82951824Y-75955396D01*
X82944405Y-75972311D01*
X82899449Y-76025797D01*
X82832713Y-76046486D01*
X82830850Y-76046500D01*
X79221150Y-76046500D01*
X79154111Y-76026815D01*
X79108356Y-75974011D01*
X79107595Y-75972311D01*
X79100175Y-75955396D01*
X78964166Y-75747217D01*
X78906365Y-75684429D01*
X78795744Y-75564262D01*
X78599509Y-75411526D01*
X78599507Y-75411525D01*
X78599506Y-75411524D01*
X78380811Y-75293172D01*
X78380802Y-75293169D01*
X78145616Y-75212429D01*
X77900335Y-75171500D01*
X77651665Y-75171500D01*
X77406383Y-75212429D01*
X77171197Y-75293169D01*
X77171188Y-75293172D01*
X76952493Y-75411524D01*
X76756257Y-75564261D01*
X76587833Y-75747217D01*
X76451826Y-75955393D01*
X76351936Y-76183118D01*
X76290892Y-76424175D01*
X76290890Y-76424187D01*
X76270357Y-76671994D01*
X76270357Y-76672005D01*
X76290890Y-76919812D01*
X76290892Y-76919824D01*
X76351936Y-77160881D01*
X76451826Y-77388606D01*
X76587833Y-77596782D01*
X76587836Y-77596785D01*
X76756256Y-77779738D01*
X76952491Y-77932474D01*
X77171190Y-78050828D01*
X77406386Y-78131571D01*
X77651665Y-78172500D01*
X77900335Y-78172500D01*
X78145614Y-78131571D01*
X78380810Y-78050828D01*
X78599509Y-77932474D01*
X78795744Y-77779738D01*
X78964164Y-77596785D01*
X79100173Y-77388607D01*
X79101502Y-77385578D01*
X79107595Y-77371689D01*
X79152551Y-77318203D01*
X79219287Y-77297514D01*
X79221150Y-77297500D01*
X82830850Y-77297500D01*
X82897889Y-77317185D01*
X82943644Y-77369989D01*
X82944405Y-77371689D01*
X82951824Y-77388603D01*
X83087833Y-77596782D01*
X83087836Y-77596785D01*
X83256256Y-77779738D01*
X83368663Y-77867228D01*
X83409475Y-77923936D01*
X83416500Y-77965080D01*
X83416500Y-78270942D01*
X83396815Y-78337981D01*
X83357598Y-78376479D01*
X83309740Y-78405999D01*
X83223345Y-78459287D01*
X83129327Y-78553305D01*
X83068003Y-78586789D01*
X82998312Y-78581805D01*
X82953965Y-78553304D01*
X82860345Y-78459684D01*
X82711124Y-78367643D01*
X82711119Y-78367641D01*
X82544697Y-78312494D01*
X82544690Y-78312493D01*
X82441986Y-78302000D01*
X82292000Y-78302000D01*
X82292000Y-80701999D01*
X82441972Y-80701999D01*
X82441986Y-80701998D01*
X82544697Y-80691505D01*
X82711119Y-80636358D01*
X82711124Y-80636356D01*
X82860342Y-80544317D01*
X82953964Y-80450695D01*
X83015287Y-80417210D01*
X83084979Y-80422194D01*
X83129327Y-80450695D01*
X83223344Y-80544712D01*
X83372666Y-80636814D01*
X83539203Y-80691999D01*
X83641991Y-80702500D01*
X84306546Y-80702499D01*
X84373585Y-80722183D01*
X84394227Y-80738818D01*
X89476263Y-85820855D01*
X89476267Y-85820858D01*
X89578710Y-85889309D01*
X89578711Y-85889309D01*
X89578715Y-85889312D01*
X89645396Y-85916931D01*
X89645398Y-85916933D01*
X89663609Y-85924476D01*
X89692548Y-85936463D01*
X89712597Y-85940451D01*
X89746196Y-85947134D01*
X89813392Y-85960501D01*
X89813394Y-85960501D01*
X89942721Y-85960501D01*
X89942741Y-85960500D01*
X113763318Y-85960500D01*
X113830357Y-85980185D01*
X113876112Y-86032989D01*
X113886056Y-86102147D01*
X113882584Y-86118435D01*
X113876884Y-86138464D01*
X113856357Y-86359999D01*
X113856357Y-86360000D01*
X113876884Y-86581535D01*
X113876885Y-86581537D01*
X113937769Y-86795523D01*
X113937775Y-86795538D01*
X114036938Y-86994683D01*
X114036943Y-86994691D01*
X114079295Y-87050773D01*
X114103987Y-87116134D01*
X114089422Y-87184469D01*
X114040225Y-87234081D01*
X113980341Y-87249500D01*
X83481389Y-87249500D01*
X83420971Y-87261518D01*
X83377743Y-87270116D01*
X83360546Y-87273537D01*
X83246712Y-87320689D01*
X83246706Y-87320693D01*
X83144266Y-87389142D01*
X83144262Y-87389145D01*
X79314227Y-91219181D01*
X79252904Y-91252666D01*
X79226546Y-91255500D01*
X78561998Y-91255500D01*
X78561980Y-91255501D01*
X78459203Y-91266000D01*
X78459200Y-91266001D01*
X78292668Y-91321185D01*
X78292663Y-91321187D01*
X78143345Y-91413287D01*
X78049327Y-91507305D01*
X77988003Y-91540789D01*
X77918312Y-91535805D01*
X77873965Y-91507304D01*
X77780345Y-91413684D01*
X77631124Y-91321643D01*
X77631119Y-91321641D01*
X77464697Y-91266494D01*
X77464690Y-91266493D01*
X77361986Y-91256000D01*
X77212000Y-91256000D01*
X77212000Y-93655999D01*
X77361972Y-93655999D01*
X77361986Y-93655998D01*
X77464697Y-93645505D01*
X77631119Y-93590358D01*
X77631124Y-93590356D01*
X77780342Y-93498317D01*
X77873964Y-93404695D01*
X77935287Y-93371210D01*
X78004979Y-93376194D01*
X78049327Y-93404695D01*
X78143344Y-93498712D01*
X78292666Y-93590814D01*
X78442505Y-93640465D01*
X78499949Y-93680238D01*
X78526772Y-93744753D01*
X78527500Y-93758171D01*
X78527500Y-95045500D01*
X78507815Y-95112539D01*
X78455011Y-95158294D01*
X78403500Y-95169500D01*
X77080129Y-95169500D01*
X77080123Y-95169501D01*
X77020516Y-95175908D01*
X76885671Y-95226202D01*
X76885664Y-95226206D01*
X76770455Y-95312452D01*
X76770452Y-95312455D01*
X76684206Y-95427664D01*
X76684202Y-95427671D01*
X76633908Y-95562517D01*
X76627501Y-95622116D01*
X76627500Y-95622135D01*
X76627500Y-97417870D01*
X76627501Y-97417876D01*
X76633908Y-97477483D01*
X76684202Y-97612328D01*
X76684206Y-97612335D01*
X76770452Y-97727544D01*
X76770455Y-97727547D01*
X76885664Y-97813793D01*
X76885671Y-97813797D01*
X77017081Y-97862810D01*
X77073015Y-97904681D01*
X77097432Y-97970145D01*
X77082580Y-98038418D01*
X77061430Y-98066673D01*
X76939503Y-98188600D01*
X76803965Y-98382169D01*
X76803964Y-98382171D01*
X76704098Y-98596335D01*
X76704094Y-98596344D01*
X76642938Y-98824586D01*
X76642936Y-98824596D01*
X76622341Y-99059999D01*
X76622341Y-99060000D01*
X76642936Y-99295403D01*
X76642938Y-99295413D01*
X76704094Y-99523655D01*
X76704096Y-99523659D01*
X76704097Y-99523663D01*
X76783725Y-99694425D01*
X76803965Y-99737830D01*
X76803967Y-99737834D01*
X76898373Y-99872659D01*
X76930871Y-99919071D01*
X76939501Y-99931395D01*
X76939506Y-99931402D01*
X77106597Y-100098493D01*
X77106603Y-100098498D01*
X77292158Y-100228425D01*
X77335783Y-100283002D01*
X77342977Y-100352500D01*
X77311454Y-100414855D01*
X77292158Y-100431575D01*
X77106597Y-100561505D01*
X76939505Y-100728597D01*
X76803965Y-100922169D01*
X76803964Y-100922171D01*
X76704098Y-101136335D01*
X76704094Y-101136344D01*
X76642938Y-101364586D01*
X76642936Y-101364596D01*
X76622341Y-101599999D01*
X76622341Y-101600000D01*
X76642936Y-101835403D01*
X76642938Y-101835413D01*
X76669856Y-101935872D01*
X76668193Y-102005722D01*
X76637762Y-102055646D01*
X75969479Y-102723930D01*
X75338269Y-103355140D01*
X75338267Y-103355142D01*
X75298224Y-103395185D01*
X75251142Y-103442266D01*
X75234209Y-103467608D01*
X75217389Y-103492782D01*
X75209014Y-103505316D01*
X75182687Y-103544715D01*
X75182685Y-103544718D01*
X75135540Y-103658538D01*
X75135537Y-103658547D01*
X75112864Y-103772540D01*
X75112862Y-103772546D01*
X75111500Y-103779391D01*
X74676000Y-103779391D01*
X74676000Y-92955986D01*
X75862001Y-92955986D01*
X75872494Y-93058697D01*
X75927641Y-93225119D01*
X75927643Y-93225124D01*
X76019684Y-93374345D01*
X76143654Y-93498315D01*
X76292875Y-93590356D01*
X76292880Y-93590358D01*
X76459302Y-93645505D01*
X76459309Y-93645506D01*
X76562019Y-93655999D01*
X76711999Y-93655999D01*
X76712000Y-93655998D01*
X76712000Y-92706000D01*
X75862001Y-92706000D01*
X75862001Y-92955986D01*
X74676000Y-92955986D01*
X74676000Y-91956013D01*
X75862000Y-91956013D01*
X75862000Y-92206000D01*
X76712000Y-92206000D01*
X76712000Y-91256000D01*
X76562027Y-91256000D01*
X76562012Y-91256001D01*
X76459302Y-91266494D01*
X76292880Y-91321641D01*
X76292875Y-91321643D01*
X76143654Y-91413684D01*
X76019684Y-91537654D01*
X75927643Y-91686875D01*
X75927641Y-91686880D01*
X75872494Y-91853302D01*
X75872493Y-91853309D01*
X75862000Y-91956013D01*
X74676000Y-91956013D01*
X74676000Y-80001986D01*
X80942001Y-80001986D01*
X80952494Y-80104697D01*
X81007641Y-80271119D01*
X81007643Y-80271124D01*
X81099684Y-80420345D01*
X81223654Y-80544315D01*
X81372875Y-80636356D01*
X81372880Y-80636358D01*
X81539302Y-80691505D01*
X81539309Y-80691506D01*
X81642019Y-80701999D01*
X81791999Y-80701999D01*
X81792000Y-80701998D01*
X81792000Y-79752000D01*
X80942001Y-79752000D01*
X80942001Y-80001986D01*
X74676000Y-80001986D01*
X74676000Y-79002013D01*
X80942000Y-79002013D01*
X80942000Y-79252000D01*
X81792000Y-79252000D01*
X81792000Y-78302000D01*
X81642027Y-78302000D01*
X81642012Y-78302001D01*
X81539302Y-78312494D01*
X81372880Y-78367641D01*
X81372875Y-78367643D01*
X81223654Y-78459684D01*
X81099684Y-78583654D01*
X81007643Y-78732875D01*
X81007641Y-78732880D01*
X80952494Y-78899302D01*
X80952493Y-78899309D01*
X80942000Y-79002013D01*
X74676000Y-79002013D01*
X74676000Y-72171994D01*
X76270357Y-72171994D01*
X76270357Y-72172005D01*
X76290890Y-72419812D01*
X76290892Y-72419824D01*
X76351936Y-72660881D01*
X76451826Y-72888606D01*
X76587833Y-73096782D01*
X76587836Y-73096785D01*
X76756256Y-73279738D01*
X76952491Y-73432474D01*
X77171190Y-73550828D01*
X77406386Y-73631571D01*
X77651665Y-73672500D01*
X77900335Y-73672500D01*
X78145614Y-73631571D01*
X78380810Y-73550828D01*
X78599509Y-73432474D01*
X78795744Y-73279738D01*
X78964164Y-73096785D01*
X79100173Y-72888607D01*
X79200063Y-72660881D01*
X79261108Y-72419821D01*
X79261109Y-72419812D01*
X79281643Y-72172005D01*
X79281643Y-72171994D01*
X82770357Y-72171994D01*
X82770357Y-72172005D01*
X82790890Y-72419812D01*
X82790892Y-72419824D01*
X82851936Y-72660881D01*
X82951826Y-72888606D01*
X83087833Y-73096782D01*
X83087836Y-73096785D01*
X83256256Y-73279738D01*
X83452491Y-73432474D01*
X83671190Y-73550828D01*
X83906386Y-73631571D01*
X84151665Y-73672500D01*
X84400335Y-73672500D01*
X84645614Y-73631571D01*
X84880810Y-73550828D01*
X85099509Y-73432474D01*
X85295744Y-73279738D01*
X85464164Y-73096785D01*
X85600173Y-72888607D01*
X85700063Y-72660881D01*
X85704339Y-72643994D01*
X86938357Y-72643994D01*
X86938357Y-72644005D01*
X86958890Y-72891812D01*
X86958892Y-72891824D01*
X87019936Y-73132881D01*
X87119826Y-73360606D01*
X87255833Y-73568782D01*
X87255836Y-73568785D01*
X87424256Y-73751738D01*
X87620491Y-73904474D01*
X87839190Y-74022828D01*
X88074386Y-74103571D01*
X88319665Y-74144500D01*
X88568335Y-74144500D01*
X88813614Y-74103571D01*
X89048810Y-74022828D01*
X89267509Y-73904474D01*
X89463744Y-73751738D01*
X89632164Y-73568785D01*
X89768173Y-73360607D01*
X89868063Y-73132881D01*
X89929108Y-72891821D01*
X89929109Y-72891812D01*
X89949643Y-72644005D01*
X89949643Y-72643994D01*
X93438357Y-72643994D01*
X93438357Y-72644005D01*
X93458890Y-72891812D01*
X93458892Y-72891824D01*
X93519936Y-73132881D01*
X93619826Y-73360606D01*
X93755833Y-73568782D01*
X93755836Y-73568785D01*
X93924256Y-73751738D01*
X94120491Y-73904474D01*
X94339190Y-74022828D01*
X94574386Y-74103571D01*
X94819665Y-74144500D01*
X95068335Y-74144500D01*
X95313614Y-74103571D01*
X95548810Y-74022828D01*
X95767509Y-73904474D01*
X95963744Y-73751738D01*
X96132164Y-73568785D01*
X96268173Y-73360607D01*
X96368063Y-73132881D01*
X96429108Y-72891821D01*
X96429109Y-72891812D01*
X96449643Y-72644005D01*
X96449643Y-72643994D01*
X96429109Y-72396187D01*
X96429107Y-72396175D01*
X96368063Y-72155118D01*
X96268173Y-71927393D01*
X96132166Y-71719217D01*
X96055571Y-71636013D01*
X95963744Y-71536262D01*
X95767509Y-71383526D01*
X95767507Y-71383525D01*
X95767506Y-71383524D01*
X95548811Y-71265172D01*
X95548802Y-71265169D01*
X95313616Y-71184429D01*
X95068335Y-71143500D01*
X94819665Y-71143500D01*
X94574383Y-71184429D01*
X94339197Y-71265169D01*
X94339188Y-71265172D01*
X94120493Y-71383524D01*
X93924257Y-71536261D01*
X93755833Y-71719217D01*
X93619826Y-71927393D01*
X93519936Y-72155118D01*
X93458892Y-72396175D01*
X93458890Y-72396187D01*
X93438357Y-72643994D01*
X89949643Y-72643994D01*
X89929109Y-72396187D01*
X89929107Y-72396175D01*
X89868063Y-72155118D01*
X89768173Y-71927393D01*
X89632166Y-71719217D01*
X89555571Y-71636013D01*
X89463744Y-71536262D01*
X89267509Y-71383526D01*
X89267507Y-71383525D01*
X89267506Y-71383524D01*
X89048811Y-71265172D01*
X89048802Y-71265169D01*
X88813616Y-71184429D01*
X88568335Y-71143500D01*
X88319665Y-71143500D01*
X88074383Y-71184429D01*
X87839197Y-71265169D01*
X87839188Y-71265172D01*
X87620493Y-71383524D01*
X87424257Y-71536261D01*
X87255833Y-71719217D01*
X87119826Y-71927393D01*
X87019936Y-72155118D01*
X86958892Y-72396175D01*
X86958890Y-72396187D01*
X86938357Y-72643994D01*
X85704339Y-72643994D01*
X85761108Y-72419821D01*
X85761109Y-72419812D01*
X85781643Y-72172005D01*
X85781643Y-72171994D01*
X85761109Y-71924187D01*
X85761107Y-71924175D01*
X85700063Y-71683118D01*
X85600173Y-71455393D01*
X85464166Y-71247217D01*
X85406365Y-71184429D01*
X85295744Y-71064262D01*
X85099509Y-70911526D01*
X85099507Y-70911525D01*
X85099506Y-70911524D01*
X84880811Y-70793172D01*
X84880802Y-70793169D01*
X84645616Y-70712429D01*
X84400335Y-70671500D01*
X84151665Y-70671500D01*
X83906383Y-70712429D01*
X83671197Y-70793169D01*
X83671188Y-70793172D01*
X83452493Y-70911524D01*
X83256257Y-71064261D01*
X83087833Y-71247217D01*
X82951826Y-71455393D01*
X82851936Y-71683118D01*
X82790892Y-71924175D01*
X82790890Y-71924187D01*
X82770357Y-72171994D01*
X79281643Y-72171994D01*
X79261109Y-71924187D01*
X79261107Y-71924175D01*
X79200063Y-71683118D01*
X79100173Y-71455393D01*
X78964166Y-71247217D01*
X78906365Y-71184429D01*
X78795744Y-71064262D01*
X78599509Y-70911526D01*
X78599507Y-70911525D01*
X78599506Y-70911524D01*
X78380811Y-70793172D01*
X78380802Y-70793169D01*
X78145616Y-70712429D01*
X77900335Y-70671500D01*
X77651665Y-70671500D01*
X77406383Y-70712429D01*
X77171197Y-70793169D01*
X77171188Y-70793172D01*
X76952493Y-70911524D01*
X76756257Y-71064261D01*
X76587833Y-71247217D01*
X76451826Y-71455393D01*
X76351936Y-71683118D01*
X76290892Y-71924175D01*
X76290890Y-71924187D01*
X76270357Y-72171994D01*
X74676000Y-72171994D01*
X74676000Y-69466372D01*
X74695685Y-69399333D01*
X74748489Y-69353578D01*
X74800369Y-69342373D01*
X159134374Y-69595628D01*
G37*
%TD.AperFunction*%
%TD*%
%TA.AperFunction,Conductor*%
%TO.N,/5V*%
G36*
X154883039Y-88411685D02*
G01*
X154928794Y-88464489D01*
X154940000Y-88516000D01*
X154940000Y-90881538D01*
X154920315Y-90948577D01*
X154867511Y-90994332D01*
X154798353Y-91004276D01*
X154741690Y-90980805D01*
X154712093Y-90958649D01*
X154712086Y-90958645D01*
X154577379Y-90908403D01*
X154577372Y-90908401D01*
X154517844Y-90902000D01*
X153920000Y-90902000D01*
X153920000Y-91886314D01*
X153915606Y-91881920D01*
X153824394Y-91829259D01*
X153722661Y-91802000D01*
X153617339Y-91802000D01*
X153515606Y-91829259D01*
X153424394Y-91881920D01*
X153420000Y-91886314D01*
X153420000Y-90902000D01*
X152822155Y-90902000D01*
X152762627Y-90908401D01*
X152762620Y-90908403D01*
X152627913Y-90958645D01*
X152627906Y-90958649D01*
X152512812Y-91044809D01*
X152512809Y-91044812D01*
X152426649Y-91159906D01*
X152426645Y-91159913D01*
X152376403Y-91294620D01*
X152376401Y-91294627D01*
X152370000Y-91354155D01*
X152370000Y-91952000D01*
X153354314Y-91952000D01*
X153349920Y-91956394D01*
X153297259Y-92047606D01*
X153270000Y-92149339D01*
X153270000Y-92254661D01*
X153297259Y-92356394D01*
X153349920Y-92447606D01*
X153354314Y-92452000D01*
X152370000Y-92452000D01*
X152370000Y-93049844D01*
X152376401Y-93109372D01*
X152376403Y-93109379D01*
X152426645Y-93244086D01*
X152426649Y-93244093D01*
X152512809Y-93359187D01*
X152512812Y-93359190D01*
X152627906Y-93445350D01*
X152627913Y-93445354D01*
X152762620Y-93495596D01*
X152762627Y-93495598D01*
X152822155Y-93501999D01*
X152822172Y-93502000D01*
X153420000Y-93502000D01*
X153420000Y-92517686D01*
X153424394Y-92522080D01*
X153515606Y-92574741D01*
X153617339Y-92602000D01*
X153722661Y-92602000D01*
X153824394Y-92574741D01*
X153915606Y-92522080D01*
X153920000Y-92517686D01*
X153920000Y-93502000D01*
X154517828Y-93502000D01*
X154517844Y-93501999D01*
X154577372Y-93495598D01*
X154577379Y-93495596D01*
X154712086Y-93445354D01*
X154712089Y-93445352D01*
X154741688Y-93423195D01*
X154807152Y-93398777D01*
X154875425Y-93413628D01*
X154924831Y-93463033D01*
X154940000Y-93522461D01*
X154940000Y-104314263D01*
X154920315Y-104381302D01*
X154867511Y-104427057D01*
X154798353Y-104437001D01*
X154756572Y-104423095D01*
X154752086Y-104420645D01*
X154617379Y-104370403D01*
X154617372Y-104370401D01*
X154557844Y-104364000D01*
X153960000Y-104364000D01*
X153960000Y-105348314D01*
X153955606Y-105343920D01*
X153864394Y-105291259D01*
X153762661Y-105264000D01*
X153657339Y-105264000D01*
X153555606Y-105291259D01*
X153464394Y-105343920D01*
X153460000Y-105348314D01*
X153460000Y-104364000D01*
X152862155Y-104364000D01*
X152802627Y-104370401D01*
X152802620Y-104370403D01*
X152667913Y-104420645D01*
X152667906Y-104420649D01*
X152552812Y-104506809D01*
X152552809Y-104506812D01*
X152466649Y-104621906D01*
X152466645Y-104621913D01*
X152416403Y-104756620D01*
X152416401Y-104756627D01*
X152410000Y-104816155D01*
X152410000Y-105414000D01*
X153394314Y-105414000D01*
X153389920Y-105418394D01*
X153337259Y-105509606D01*
X153310000Y-105611339D01*
X153310000Y-105716661D01*
X153337259Y-105818394D01*
X153389920Y-105909606D01*
X153394314Y-105914000D01*
X152410000Y-105914000D01*
X152410000Y-106511844D01*
X152416401Y-106571372D01*
X152416403Y-106571380D01*
X152466668Y-106706148D01*
X152471652Y-106775840D01*
X152438167Y-106837163D01*
X152376843Y-106870647D01*
X152307152Y-106865662D01*
X152280236Y-106851662D01*
X148336000Y-104140000D01*
X148231760Y-104140000D01*
X148164721Y-104120315D01*
X148118966Y-104067511D01*
X148109022Y-103998353D01*
X148138047Y-103934797D01*
X148160635Y-103914426D01*
X148191081Y-103893106D01*
X148358105Y-103726082D01*
X148493600Y-103532578D01*
X148593429Y-103318492D01*
X148593432Y-103318486D01*
X148650636Y-103105000D01*
X147753012Y-103105000D01*
X147785925Y-103047993D01*
X147820000Y-102920826D01*
X147820000Y-102789174D01*
X147785925Y-102662007D01*
X147753012Y-102605000D01*
X148650636Y-102605000D01*
X148650635Y-102604999D01*
X148593432Y-102391513D01*
X148593429Y-102391507D01*
X148493600Y-102177422D01*
X148493599Y-102177420D01*
X148358113Y-101983926D01*
X148358108Y-101983920D01*
X148191082Y-101816894D01*
X147997578Y-101681399D01*
X147783492Y-101581570D01*
X147783486Y-101581567D01*
X147570000Y-101524364D01*
X147570000Y-102421988D01*
X147512993Y-102389075D01*
X147385826Y-102355000D01*
X147254174Y-102355000D01*
X147127007Y-102389075D01*
X147070000Y-102421988D01*
X147070000Y-101524364D01*
X147069999Y-101524364D01*
X146856513Y-101581567D01*
X146856507Y-101581570D01*
X146642422Y-101681399D01*
X146642420Y-101681400D01*
X146448926Y-101816886D01*
X146448920Y-101816891D01*
X146281891Y-101983920D01*
X146281884Y-101983929D01*
X146275574Y-101992941D01*
X146220997Y-102036566D01*
X146151499Y-102043758D01*
X146089144Y-102012236D01*
X146053731Y-101952006D01*
X146050000Y-101921817D01*
X146050000Y-100330000D01*
X145569844Y-99849844D01*
X149380000Y-99849844D01*
X149386401Y-99909372D01*
X149386403Y-99909379D01*
X149436645Y-100044086D01*
X149436649Y-100044093D01*
X149522809Y-100159187D01*
X149522812Y-100159190D01*
X149637906Y-100245350D01*
X149637913Y-100245354D01*
X149772620Y-100295596D01*
X149772627Y-100295598D01*
X149832155Y-100301999D01*
X149832172Y-100302000D01*
X150880000Y-100302000D01*
X151380000Y-100302000D01*
X152427828Y-100302000D01*
X152427844Y-100301999D01*
X152487372Y-100295598D01*
X152487379Y-100295596D01*
X152622086Y-100245354D01*
X152622093Y-100245350D01*
X152737187Y-100159190D01*
X152737190Y-100159187D01*
X152823350Y-100044093D01*
X152823354Y-100044086D01*
X152873596Y-99909379D01*
X152873598Y-99909372D01*
X152879999Y-99849844D01*
X152880000Y-99849827D01*
X152880000Y-98802000D01*
X151380000Y-98802000D01*
X151380000Y-100302000D01*
X150880000Y-100302000D01*
X150880000Y-98802000D01*
X149380000Y-98802000D01*
X149380000Y-99849844D01*
X145569844Y-99849844D01*
X143721681Y-98001681D01*
X143688196Y-97940358D01*
X143693180Y-97870666D01*
X143735052Y-97814733D01*
X143800516Y-97790316D01*
X143809362Y-97790000D01*
X147320000Y-97790000D01*
X147855845Y-97254155D01*
X149380000Y-97254155D01*
X149380000Y-98302000D01*
X150880000Y-98302000D01*
X151380000Y-98302000D01*
X152880000Y-98302000D01*
X152880000Y-97254172D01*
X152879999Y-97254155D01*
X152873598Y-97194627D01*
X152873596Y-97194620D01*
X152823354Y-97059913D01*
X152823350Y-97059906D01*
X152737190Y-96944812D01*
X152737187Y-96944809D01*
X152622093Y-96858649D01*
X152622086Y-96858645D01*
X152487379Y-96808403D01*
X152487372Y-96808401D01*
X152427844Y-96802000D01*
X151380000Y-96802000D01*
X151380000Y-98302000D01*
X150880000Y-98302000D01*
X150880000Y-96802000D01*
X149832155Y-96802000D01*
X149772627Y-96808401D01*
X149772620Y-96808403D01*
X149637913Y-96858645D01*
X149637906Y-96858649D01*
X149522812Y-96944809D01*
X149522809Y-96944812D01*
X149436649Y-97059906D01*
X149436645Y-97059913D01*
X149386403Y-97194620D01*
X149386401Y-97194627D01*
X149380000Y-97254155D01*
X147855845Y-97254155D01*
X148590000Y-96520000D01*
X148590000Y-95892389D01*
X148609685Y-95825350D01*
X148613544Y-95819790D01*
X148613791Y-95819336D01*
X148613796Y-95819331D01*
X148664091Y-95684483D01*
X148670500Y-95624873D01*
X148670499Y-93829128D01*
X148664091Y-93769517D01*
X148613796Y-93634669D01*
X148613795Y-93634668D01*
X148609548Y-93626890D01*
X148611056Y-93626066D01*
X148590315Y-93570449D01*
X148590000Y-93561610D01*
X148590000Y-92681552D01*
X148594224Y-92649463D01*
X148655063Y-92422408D01*
X148675659Y-92187000D01*
X148655063Y-91951592D01*
X148622284Y-91829259D01*
X148594225Y-91724537D01*
X148590000Y-91692444D01*
X148590000Y-90932000D01*
X148231760Y-90932000D01*
X148164721Y-90912315D01*
X148118966Y-90859511D01*
X148109022Y-90790353D01*
X148138047Y-90726797D01*
X148160635Y-90706426D01*
X148191081Y-90685106D01*
X148358105Y-90518082D01*
X148493600Y-90324578D01*
X148593429Y-90110492D01*
X148593432Y-90110486D01*
X148650636Y-89897000D01*
X147753012Y-89897000D01*
X147785925Y-89839993D01*
X147820000Y-89712826D01*
X147820000Y-89581174D01*
X147785925Y-89454007D01*
X147753012Y-89397000D01*
X148650636Y-89397000D01*
X148650635Y-89396999D01*
X148593432Y-89183513D01*
X148593429Y-89183507D01*
X148493600Y-88969422D01*
X148493599Y-88969420D01*
X148358113Y-88775926D01*
X148358108Y-88775920D01*
X148187250Y-88605062D01*
X148188683Y-88603628D01*
X148154879Y-88552825D01*
X148153767Y-88482964D01*
X148190600Y-88423592D01*
X148253686Y-88393559D01*
X148273285Y-88392000D01*
X154816000Y-88392000D01*
X154883039Y-88411685D01*
G37*
%TD.AperFunction*%
%TD*%
%TA.AperFunction,Conductor*%
%TO.N,/BATT*%
G36*
X103588002Y-97301685D02*
G01*
X103633757Y-97354489D01*
X103643701Y-97423647D01*
X103640299Y-97436978D01*
X103640687Y-97437070D01*
X103638901Y-97444627D01*
X103632500Y-97504155D01*
X103632500Y-98302000D01*
X104594252Y-98302000D01*
X104572482Y-98339708D01*
X104535000Y-98479591D01*
X104535000Y-98624409D01*
X104572482Y-98764292D01*
X104594252Y-98802000D01*
X103632500Y-98802000D01*
X103632500Y-99599844D01*
X103638901Y-99659372D01*
X103638903Y-99659379D01*
X103689145Y-99794085D01*
X103724336Y-99841096D01*
X103750640Y-99865584D01*
X103768000Y-99928860D01*
X103768000Y-102316999D01*
X103905472Y-102316999D01*
X103905486Y-102316998D01*
X104008197Y-102306505D01*
X104174619Y-102251358D01*
X104174624Y-102251356D01*
X104323845Y-102159315D01*
X104436319Y-102046842D01*
X104497642Y-102013357D01*
X104567334Y-102018341D01*
X104623267Y-102060213D01*
X104647684Y-102125677D01*
X104648000Y-102134523D01*
X104648000Y-102616001D01*
X104696403Y-102797511D01*
X105647830Y-106365364D01*
X105659813Y-106410298D01*
X105664000Y-106442248D01*
X105664000Y-106530610D01*
X105644315Y-106597649D01*
X105640454Y-106603209D01*
X105640202Y-106603671D01*
X105590997Y-106735598D01*
X105549126Y-106791532D01*
X105483661Y-106815949D01*
X105415388Y-106801097D01*
X105387134Y-106779946D01*
X105265082Y-106657894D01*
X105071578Y-106522399D01*
X104857492Y-106422570D01*
X104857486Y-106422567D01*
X104644000Y-106365364D01*
X104644000Y-107262988D01*
X104586993Y-107230075D01*
X104459826Y-107196000D01*
X104328174Y-107196000D01*
X104201007Y-107230075D01*
X104144000Y-107262988D01*
X104144000Y-106365364D01*
X104143999Y-106365364D01*
X103930513Y-106422567D01*
X103930507Y-106422570D01*
X103716422Y-106522399D01*
X103716420Y-106522400D01*
X103522926Y-106657886D01*
X103522920Y-106657891D01*
X103355891Y-106824920D01*
X103355886Y-106824926D01*
X103220400Y-107018420D01*
X103220399Y-107018422D01*
X103120570Y-107232507D01*
X103120567Y-107232513D01*
X103063364Y-107445999D01*
X103063364Y-107446000D01*
X103960988Y-107446000D01*
X103928075Y-107503007D01*
X103894000Y-107630174D01*
X103894000Y-107761826D01*
X103928075Y-107888993D01*
X103960988Y-107946000D01*
X103063364Y-107946000D01*
X103120567Y-108159486D01*
X103120570Y-108159492D01*
X103220399Y-108373578D01*
X103355894Y-108567082D01*
X103522920Y-108734108D01*
X103531944Y-108740427D01*
X103575567Y-108795004D01*
X103582759Y-108864503D01*
X103551235Y-108926857D01*
X103491005Y-108962270D01*
X103460818Y-108966000D01*
X103183988Y-108966000D01*
X103116949Y-108946315D01*
X103086766Y-108918967D01*
X101189483Y-106522400D01*
X98298000Y-102870000D01*
X98297999Y-102870000D01*
X93850000Y-102870000D01*
X93782961Y-102850315D01*
X93737206Y-102797511D01*
X93726000Y-102746000D01*
X93726000Y-102322182D01*
X93745685Y-102255143D01*
X93798489Y-102209388D01*
X93867647Y-102199444D01*
X93915097Y-102216643D01*
X93971375Y-102251356D01*
X93971380Y-102251358D01*
X94137802Y-102306505D01*
X94137809Y-102306506D01*
X94240519Y-102316999D01*
X94377999Y-102316999D01*
X94378000Y-102316998D01*
X94378000Y-100966000D01*
X94397685Y-100898961D01*
X94450489Y-100853206D01*
X94502000Y-100842000D01*
X94754000Y-100842000D01*
X94821039Y-100861685D01*
X94866794Y-100914489D01*
X94878000Y-100966000D01*
X94878000Y-102316999D01*
X95015472Y-102316999D01*
X95015486Y-102316998D01*
X95118197Y-102306505D01*
X95284619Y-102251358D01*
X95284624Y-102251356D01*
X95433845Y-102159315D01*
X95557818Y-102035342D01*
X95559665Y-102032348D01*
X95561469Y-102030724D01*
X95562298Y-102029677D01*
X95562476Y-102029818D01*
X95611610Y-101985621D01*
X95680573Y-101974396D01*
X95744656Y-102002236D01*
X95770743Y-102032341D01*
X95772788Y-102035656D01*
X95896844Y-102159712D01*
X96046166Y-102251814D01*
X96212703Y-102306999D01*
X96315491Y-102317500D01*
X97090508Y-102317499D01*
X97090516Y-102317498D01*
X97090519Y-102317498D01*
X97146802Y-102311748D01*
X97193297Y-102306999D01*
X97359834Y-102251814D01*
X97509156Y-102159712D01*
X97633212Y-102035656D01*
X97725314Y-101886334D01*
X97780499Y-101719797D01*
X97791000Y-101617009D01*
X97791000Y-101616986D01*
X102430501Y-101616986D01*
X102440994Y-101719697D01*
X102496141Y-101886119D01*
X102496143Y-101886124D01*
X102588184Y-102035345D01*
X102712154Y-102159315D01*
X102861375Y-102251356D01*
X102861380Y-102251358D01*
X103027802Y-102306505D01*
X103027809Y-102306506D01*
X103130519Y-102316999D01*
X103267999Y-102316999D01*
X103268000Y-102316998D01*
X103268000Y-101342000D01*
X102430501Y-101342000D01*
X102430501Y-101616986D01*
X97791000Y-101616986D01*
X97790999Y-100567013D01*
X102430500Y-100567013D01*
X102430500Y-100842000D01*
X103268000Y-100842000D01*
X103268000Y-99867000D01*
X103130527Y-99867000D01*
X103130512Y-99867001D01*
X103027802Y-99877494D01*
X102861380Y-99932641D01*
X102861375Y-99932643D01*
X102712154Y-100024684D01*
X102588184Y-100148654D01*
X102496143Y-100297875D01*
X102496141Y-100297880D01*
X102440994Y-100464302D01*
X102440993Y-100464309D01*
X102430500Y-100567013D01*
X97790999Y-100567013D01*
X97790999Y-100566992D01*
X97780499Y-100464203D01*
X97725314Y-100297666D01*
X97633212Y-100148344D01*
X97509156Y-100024288D01*
X97365050Y-99935403D01*
X97359836Y-99932187D01*
X97359831Y-99932185D01*
X97349797Y-99928860D01*
X97193297Y-99877001D01*
X97193295Y-99877000D01*
X97090510Y-99866500D01*
X96315498Y-99866500D01*
X96315480Y-99866501D01*
X96212703Y-99877000D01*
X96212700Y-99877001D01*
X96043706Y-99933001D01*
X95973878Y-99935403D01*
X95913836Y-99899671D01*
X95882643Y-99837151D01*
X95890204Y-99767691D01*
X95931820Y-99714974D01*
X95942243Y-99707401D01*
X96103902Y-99545742D01*
X96238288Y-99360776D01*
X96342082Y-99157070D01*
X96412734Y-98939628D01*
X96434532Y-98802000D01*
X95486748Y-98802000D01*
X95508518Y-98764292D01*
X95546000Y-98624409D01*
X95546000Y-98479591D01*
X95508518Y-98339708D01*
X95486748Y-98302000D01*
X96434532Y-98302000D01*
X96412734Y-98164371D01*
X96342082Y-97946929D01*
X96238288Y-97743223D01*
X96103902Y-97558257D01*
X96039326Y-97493681D01*
X96005841Y-97432358D01*
X96010825Y-97362666D01*
X96052697Y-97306733D01*
X96118161Y-97282316D01*
X96127007Y-97282000D01*
X103520963Y-97282000D01*
X103588002Y-97301685D01*
G37*
%TD.AperFunction*%
%TD*%
M02*
