%TF.GenerationSoftware,KiCad,Pcbnew,8.0.6*%
%TF.CreationDate,2024-11-19T15:42:56-05:00*%
%TF.ProjectId,airflow_device,61697266-6c6f-4775-9f64-65766963652e,rev?*%
%TF.SameCoordinates,Original*%
%TF.FileFunction,Drillmap*%
%TF.FilePolarity,Positive*%
%FSLAX45Y45*%
G04 Gerber Fmt 4.5, Leading zero omitted, Abs format (unit mm)*
G04 Created by KiCad (PCBNEW 8.0.6) date 2024-11-19 15:42:56*
%MOMM*%
%LPD*%
G01*
G04 APERTURE LIST*
%ADD10C,0.200000*%
%ADD11C,0.100000*%
%ADD12C,0.110000*%
G04 APERTURE END LIST*
D10*
X7467600Y-6934200D02*
X15925800Y-6934200D01*
X15925800Y-11201400D01*
X7467600Y-11201400D01*
X7467600Y-6934200D01*
D11*
X9650300Y-10089200D02*
X9690300Y-10129200D01*
X9690300Y-10089200D02*
X9650300Y-10129200D01*
X15499400Y-8235000D02*
X15539400Y-8275000D01*
X15539400Y-8235000D02*
X15499400Y-8275000D01*
X11546200Y-8128000D02*
G75*
G02*
X11466200Y-8128000I-40000J0D01*
G01*
X11466200Y-8128000D02*
G75*
G02*
X11546200Y-8128000I40000J0D01*
G01*
X11546200Y-8382000D02*
G75*
G02*
X11466200Y-8382000I-40000J0D01*
G01*
X11466200Y-8382000D02*
G75*
G02*
X11546200Y-8382000I40000J0D01*
G01*
X11546200Y-8636000D02*
G75*
G02*
X11466200Y-8636000I-40000J0D01*
G01*
X11466200Y-8636000D02*
G75*
G02*
X11546200Y-8636000I40000J0D01*
G01*
X11546200Y-8890000D02*
G75*
G02*
X11466200Y-8890000I-40000J0D01*
G01*
X11466200Y-8890000D02*
G75*
G02*
X11546200Y-8890000I40000J0D01*
G01*
X11546200Y-9144000D02*
G75*
G02*
X11466200Y-9144000I-40000J0D01*
G01*
X11466200Y-9144000D02*
G75*
G02*
X11546200Y-9144000I40000J0D01*
G01*
X11546200Y-9398000D02*
G75*
G02*
X11466200Y-9398000I-40000J0D01*
G01*
X11466200Y-9398000D02*
G75*
G02*
X11546200Y-9398000I40000J0D01*
G01*
X11546200Y-9652000D02*
G75*
G02*
X11466200Y-9652000I-40000J0D01*
G01*
X11466200Y-9652000D02*
G75*
G02*
X11546200Y-9652000I40000J0D01*
G01*
X11546200Y-9906000D02*
G75*
G02*
X11466200Y-9906000I-40000J0D01*
G01*
X11466200Y-9906000D02*
G75*
G02*
X11546200Y-9906000I40000J0D01*
G01*
X11546200Y-10160000D02*
G75*
G02*
X11466200Y-10160000I-40000J0D01*
G01*
X11466200Y-10160000D02*
G75*
G02*
X11546200Y-10160000I40000J0D01*
G01*
X11546200Y-10414000D02*
G75*
G02*
X11466200Y-10414000I-40000J0D01*
G01*
X11466200Y-10414000D02*
G75*
G02*
X11546200Y-10414000I40000J0D01*
G01*
X11800200Y-8128000D02*
G75*
G02*
X11720200Y-8128000I-40000J0D01*
G01*
X11720200Y-8128000D02*
G75*
G02*
X11800200Y-8128000I40000J0D01*
G01*
X11800200Y-8382000D02*
G75*
G02*
X11720200Y-8382000I-40000J0D01*
G01*
X11720200Y-8382000D02*
G75*
G02*
X11800200Y-8382000I40000J0D01*
G01*
X11800200Y-8636000D02*
G75*
G02*
X11720200Y-8636000I-40000J0D01*
G01*
X11720200Y-8636000D02*
G75*
G02*
X11800200Y-8636000I40000J0D01*
G01*
X11800200Y-8890000D02*
G75*
G02*
X11720200Y-8890000I-40000J0D01*
G01*
X11720200Y-8890000D02*
G75*
G02*
X11800200Y-8890000I40000J0D01*
G01*
X11800200Y-9144000D02*
G75*
G02*
X11720200Y-9144000I-40000J0D01*
G01*
X11720200Y-9144000D02*
G75*
G02*
X11800200Y-9144000I40000J0D01*
G01*
X11800200Y-9398000D02*
G75*
G02*
X11720200Y-9398000I-40000J0D01*
G01*
X11720200Y-9398000D02*
G75*
G02*
X11800200Y-9398000I40000J0D01*
G01*
X11800200Y-9652000D02*
G75*
G02*
X11720200Y-9652000I-40000J0D01*
G01*
X11720200Y-9652000D02*
G75*
G02*
X11800200Y-9652000I40000J0D01*
G01*
X11800200Y-9906000D02*
G75*
G02*
X11720200Y-9906000I-40000J0D01*
G01*
X11720200Y-9906000D02*
G75*
G02*
X11800200Y-9906000I40000J0D01*
G01*
X11800200Y-10160000D02*
G75*
G02*
X11720200Y-10160000I-40000J0D01*
G01*
X11720200Y-10160000D02*
G75*
G02*
X11800200Y-10160000I40000J0D01*
G01*
X11800200Y-10414000D02*
G75*
G02*
X11720200Y-10414000I-40000J0D01*
G01*
X11720200Y-10414000D02*
G75*
G02*
X11800200Y-10414000I40000J0D01*
G01*
X14086200Y-8128000D02*
G75*
G02*
X14006200Y-8128000I-40000J0D01*
G01*
X14006200Y-8128000D02*
G75*
G02*
X14086200Y-8128000I40000J0D01*
G01*
X14086200Y-8382000D02*
G75*
G02*
X14006200Y-8382000I-40000J0D01*
G01*
X14006200Y-8382000D02*
G75*
G02*
X14086200Y-8382000I40000J0D01*
G01*
X14086200Y-8636000D02*
G75*
G02*
X14006200Y-8636000I-40000J0D01*
G01*
X14006200Y-8636000D02*
G75*
G02*
X14086200Y-8636000I40000J0D01*
G01*
X14086200Y-8890000D02*
G75*
G02*
X14006200Y-8890000I-40000J0D01*
G01*
X14006200Y-8890000D02*
G75*
G02*
X14086200Y-8890000I40000J0D01*
G01*
X14086200Y-9144000D02*
G75*
G02*
X14006200Y-9144000I-40000J0D01*
G01*
X14006200Y-9144000D02*
G75*
G02*
X14086200Y-9144000I40000J0D01*
G01*
X14086200Y-9398000D02*
G75*
G02*
X14006200Y-9398000I-40000J0D01*
G01*
X14006200Y-9398000D02*
G75*
G02*
X14086200Y-9398000I40000J0D01*
G01*
X14086200Y-9652000D02*
G75*
G02*
X14006200Y-9652000I-40000J0D01*
G01*
X14006200Y-9652000D02*
G75*
G02*
X14086200Y-9652000I40000J0D01*
G01*
X14086200Y-9906000D02*
G75*
G02*
X14006200Y-9906000I-40000J0D01*
G01*
X14006200Y-9906000D02*
G75*
G02*
X14086200Y-9906000I40000J0D01*
G01*
X14086200Y-10160000D02*
G75*
G02*
X14006200Y-10160000I-40000J0D01*
G01*
X14006200Y-10160000D02*
G75*
G02*
X14086200Y-10160000I40000J0D01*
G01*
X14086200Y-10414000D02*
G75*
G02*
X14006200Y-10414000I-40000J0D01*
G01*
X14006200Y-10414000D02*
G75*
G02*
X14086200Y-10414000I40000J0D01*
G01*
X14340200Y-8128000D02*
G75*
G02*
X14260200Y-8128000I-40000J0D01*
G01*
X14260200Y-8128000D02*
G75*
G02*
X14340200Y-8128000I40000J0D01*
G01*
X14340200Y-8382000D02*
G75*
G02*
X14260200Y-8382000I-40000J0D01*
G01*
X14260200Y-8382000D02*
G75*
G02*
X14340200Y-8382000I40000J0D01*
G01*
X14340200Y-8636000D02*
G75*
G02*
X14260200Y-8636000I-40000J0D01*
G01*
X14260200Y-8636000D02*
G75*
G02*
X14340200Y-8636000I40000J0D01*
G01*
X14340200Y-8890000D02*
G75*
G02*
X14260200Y-8890000I-40000J0D01*
G01*
X14260200Y-8890000D02*
G75*
G02*
X14340200Y-8890000I40000J0D01*
G01*
X14340200Y-9144000D02*
G75*
G02*
X14260200Y-9144000I-40000J0D01*
G01*
X14260200Y-9144000D02*
G75*
G02*
X14340200Y-9144000I40000J0D01*
G01*
X14340200Y-9398000D02*
G75*
G02*
X14260200Y-9398000I-40000J0D01*
G01*
X14260200Y-9398000D02*
G75*
G02*
X14340200Y-9398000I40000J0D01*
G01*
X14340200Y-9652000D02*
G75*
G02*
X14260200Y-9652000I-40000J0D01*
G01*
X14260200Y-9652000D02*
G75*
G02*
X14340200Y-9652000I40000J0D01*
G01*
X14340200Y-9906000D02*
G75*
G02*
X14260200Y-9906000I-40000J0D01*
G01*
X14260200Y-9906000D02*
G75*
G02*
X14340200Y-9906000I40000J0D01*
G01*
X14340200Y-10160000D02*
G75*
G02*
X14260200Y-10160000I-40000J0D01*
G01*
X14260200Y-10160000D02*
G75*
G02*
X14340200Y-10160000I40000J0D01*
G01*
X14340200Y-10414000D02*
G75*
G02*
X14260200Y-10414000I-40000J0D01*
G01*
X14260200Y-10414000D02*
G75*
G02*
X14340200Y-10414000I40000J0D01*
G01*
X15407000Y-9220200D02*
G75*
G02*
X15327000Y-9220200I-40000J0D01*
G01*
X15327000Y-9220200D02*
G75*
G02*
X15407000Y-9220200I40000J0D01*
G01*
X15411000Y-10566400D02*
G75*
G02*
X15331000Y-10566400I-40000J0D01*
G01*
X15331000Y-10566400D02*
G75*
G02*
X15411000Y-10566400I40000J0D01*
G01*
X15657000Y-9220200D02*
G75*
G02*
X15577000Y-9220200I-40000J0D01*
G01*
X15577000Y-9220200D02*
G75*
G02*
X15657000Y-9220200I40000J0D01*
G01*
X15661000Y-10566400D02*
G75*
G02*
X15581000Y-10566400I-40000J0D01*
G01*
X15581000Y-10566400D02*
G75*
G02*
X15661000Y-10566400I40000J0D01*
G01*
X7696200Y-10584900D02*
X7696200Y-10674900D01*
X7651200Y-10629900D02*
X7741200Y-10629900D01*
X7950200Y-10584900D02*
X7950200Y-10674900D01*
X7905200Y-10629900D02*
X7995200Y-10629900D01*
X8509000Y-10584900D02*
X8509000Y-10674900D01*
X8464000Y-10629900D02*
X8554000Y-10629900D01*
X8763000Y-10584900D02*
X8763000Y-10674900D01*
X8718000Y-10629900D02*
X8808000Y-10629900D01*
X9296400Y-10584900D02*
X9296400Y-10674900D01*
X9251400Y-10629900D02*
X9341400Y-10629900D01*
X9550400Y-10584900D02*
X9550400Y-10674900D01*
X9505400Y-10629900D02*
X9595400Y-10629900D01*
X7833156Y-9687356D02*
X7833156Y-9616644D01*
X7762444Y-9616644D01*
X7762444Y-9687356D01*
X7833156Y-9687356D01*
X7833156Y-9941356D02*
X7833156Y-9870644D01*
X7762444Y-9870644D01*
X7762444Y-9941356D01*
X7833156Y-9941356D01*
X7833156Y-10195356D02*
X7833156Y-10124644D01*
X7762444Y-10124644D01*
X7762444Y-10195356D01*
X7833156Y-10195356D01*
X10474756Y-10804956D02*
X10474756Y-10734244D01*
X10404044Y-10734244D01*
X10404044Y-10804956D01*
X10474756Y-10804956D01*
X10728756Y-10804956D02*
X10728756Y-10734244D01*
X10658044Y-10734244D01*
X10658044Y-10804956D01*
X10728756Y-10804956D01*
X14767356Y-7706156D02*
X14767356Y-7635444D01*
X14696644Y-7635444D01*
X14696644Y-7706156D01*
X14767356Y-7706156D01*
X14767356Y-7960156D02*
X14767356Y-7889444D01*
X14696644Y-7889444D01*
X14696644Y-7960156D01*
X14767356Y-7960156D01*
X14767356Y-8214156D02*
X14767356Y-8143444D01*
X14696644Y-8143444D01*
X14696644Y-8214156D01*
X14767356Y-8214156D01*
X14767356Y-8468156D02*
X14767356Y-8397444D01*
X14696644Y-8397444D01*
X14696644Y-8468156D01*
X14767356Y-8468156D01*
X14767356Y-9000056D02*
X14767356Y-8929344D01*
X14696644Y-8929344D01*
X14696644Y-9000056D01*
X14767356Y-9000056D01*
X14767356Y-9254056D02*
X14767356Y-9183344D01*
X14696644Y-9183344D01*
X14696644Y-9254056D01*
X14767356Y-9254056D01*
X14767356Y-9508056D02*
X14767356Y-9437344D01*
X14696644Y-9437344D01*
X14696644Y-9508056D01*
X14767356Y-9508056D01*
X14767356Y-10320856D02*
X14767356Y-10250144D01*
X14696644Y-10250144D01*
X14696644Y-10320856D01*
X14767356Y-10320856D01*
X14767356Y-10574856D02*
X14767356Y-10504144D01*
X14696644Y-10504144D01*
X14696644Y-10574856D01*
X14767356Y-10574856D01*
X14767356Y-10828856D02*
X14767356Y-10758144D01*
X14696644Y-10758144D01*
X14696644Y-10828856D01*
X14767356Y-10828856D01*
D12*
X7777600Y-7272200D02*
X7832600Y-7217200D01*
X7777600Y-7162200D01*
X7722600Y-7217200D01*
X7777600Y-7272200D01*
X7777600Y-7722200D02*
X7832600Y-7667200D01*
X7777600Y-7612200D01*
X7722600Y-7667200D01*
X7777600Y-7722200D01*
X8427600Y-7272200D02*
X8482600Y-7217200D01*
X8427600Y-7162200D01*
X8372600Y-7217200D01*
X8427600Y-7272200D01*
X8427600Y-7722200D02*
X8482600Y-7667200D01*
X8427600Y-7612200D01*
X8372600Y-7667200D01*
X8427600Y-7722200D01*
X8844400Y-7319400D02*
X8899400Y-7264400D01*
X8844400Y-7209400D01*
X8789400Y-7264400D01*
X8844400Y-7319400D01*
X8844400Y-7769400D02*
X8899400Y-7714400D01*
X8844400Y-7659400D01*
X8789400Y-7714400D01*
X8844400Y-7769400D01*
X8991600Y-9910200D02*
X9046600Y-9855200D01*
X8991600Y-9800200D01*
X8936600Y-9855200D01*
X8991600Y-9910200D01*
X9245600Y-9910200D02*
X9300600Y-9855200D01*
X9245600Y-9800200D01*
X9190600Y-9855200D01*
X9245600Y-9910200D01*
X9494400Y-7319400D02*
X9549400Y-7264400D01*
X9494400Y-7209400D01*
X9439400Y-7264400D01*
X9494400Y-7319400D01*
X9494400Y-7769400D02*
X9549400Y-7714400D01*
X9494400Y-7659400D01*
X9439400Y-7714400D01*
X9494400Y-7769400D01*
X9499600Y-9910200D02*
X9554600Y-9855200D01*
X9499600Y-9800200D01*
X9444600Y-9855200D01*
X9499600Y-9910200D01*
X10449800Y-7326600D02*
X10504800Y-7271600D01*
X10449800Y-7216600D01*
X10394800Y-7271600D01*
X10449800Y-7326600D01*
X10449800Y-7776600D02*
X10504800Y-7721600D01*
X10449800Y-7666600D01*
X10394800Y-7721600D01*
X10449800Y-7776600D01*
X10508500Y-9910200D02*
X10563500Y-9855200D01*
X10508500Y-9800200D01*
X10453500Y-9855200D01*
X10508500Y-9910200D01*
X10762500Y-9910200D02*
X10817500Y-9855200D01*
X10762500Y-9800200D01*
X10707500Y-9855200D01*
X10762500Y-9910200D01*
X11016500Y-9910200D02*
X11071500Y-9855200D01*
X11016500Y-9800200D01*
X10961500Y-9855200D01*
X11016500Y-9910200D01*
X11099800Y-7326600D02*
X11154800Y-7271600D01*
X11099800Y-7216600D01*
X11044800Y-7271600D01*
X11099800Y-7326600D01*
X11099800Y-7776600D02*
X11154800Y-7721600D01*
X11099800Y-7666600D01*
X11044800Y-7721600D01*
X11099800Y-7776600D01*
D10*
X7718377Y-11522884D02*
X7718377Y-11322884D01*
X7718377Y-11322884D02*
X7765996Y-11322884D01*
X7765996Y-11322884D02*
X7794567Y-11332408D01*
X7794567Y-11332408D02*
X7813615Y-11351455D01*
X7813615Y-11351455D02*
X7823139Y-11370503D01*
X7823139Y-11370503D02*
X7832662Y-11408598D01*
X7832662Y-11408598D02*
X7832662Y-11437169D01*
X7832662Y-11437169D02*
X7823139Y-11475265D01*
X7823139Y-11475265D02*
X7813615Y-11494312D01*
X7813615Y-11494312D02*
X7794567Y-11513360D01*
X7794567Y-11513360D02*
X7765996Y-11522884D01*
X7765996Y-11522884D02*
X7718377Y-11522884D01*
X7918377Y-11522884D02*
X7918377Y-11389550D01*
X7918377Y-11427646D02*
X7927901Y-11408598D01*
X7927901Y-11408598D02*
X7937424Y-11399074D01*
X7937424Y-11399074D02*
X7956472Y-11389550D01*
X7956472Y-11389550D02*
X7975520Y-11389550D01*
X8042186Y-11522884D02*
X8042186Y-11389550D01*
X8042186Y-11322884D02*
X8032662Y-11332408D01*
X8032662Y-11332408D02*
X8042186Y-11341931D01*
X8042186Y-11341931D02*
X8051710Y-11332408D01*
X8051710Y-11332408D02*
X8042186Y-11322884D01*
X8042186Y-11322884D02*
X8042186Y-11341931D01*
X8165996Y-11522884D02*
X8146948Y-11513360D01*
X8146948Y-11513360D02*
X8137424Y-11494312D01*
X8137424Y-11494312D02*
X8137424Y-11322884D01*
X8270758Y-11522884D02*
X8251710Y-11513360D01*
X8251710Y-11513360D02*
X8242186Y-11494312D01*
X8242186Y-11494312D02*
X8242186Y-11322884D01*
X8499329Y-11522884D02*
X8499329Y-11322884D01*
X8499329Y-11322884D02*
X8565996Y-11465741D01*
X8565996Y-11465741D02*
X8632663Y-11322884D01*
X8632663Y-11322884D02*
X8632663Y-11522884D01*
X8813615Y-11522884D02*
X8813615Y-11418122D01*
X8813615Y-11418122D02*
X8804091Y-11399074D01*
X8804091Y-11399074D02*
X8785044Y-11389550D01*
X8785044Y-11389550D02*
X8746948Y-11389550D01*
X8746948Y-11389550D02*
X8727901Y-11399074D01*
X8813615Y-11513360D02*
X8794567Y-11522884D01*
X8794567Y-11522884D02*
X8746948Y-11522884D01*
X8746948Y-11522884D02*
X8727901Y-11513360D01*
X8727901Y-11513360D02*
X8718377Y-11494312D01*
X8718377Y-11494312D02*
X8718377Y-11475265D01*
X8718377Y-11475265D02*
X8727901Y-11456217D01*
X8727901Y-11456217D02*
X8746948Y-11446693D01*
X8746948Y-11446693D02*
X8794567Y-11446693D01*
X8794567Y-11446693D02*
X8813615Y-11437169D01*
X8908853Y-11389550D02*
X8908853Y-11589550D01*
X8908853Y-11399074D02*
X8927901Y-11389550D01*
X8927901Y-11389550D02*
X8965996Y-11389550D01*
X8965996Y-11389550D02*
X8985044Y-11399074D01*
X8985044Y-11399074D02*
X8994567Y-11408598D01*
X8994567Y-11408598D02*
X9004091Y-11427646D01*
X9004091Y-11427646D02*
X9004091Y-11484788D01*
X9004091Y-11484788D02*
X8994567Y-11503836D01*
X8994567Y-11503836D02*
X8985044Y-11513360D01*
X8985044Y-11513360D02*
X8965996Y-11522884D01*
X8965996Y-11522884D02*
X8927901Y-11522884D01*
X8927901Y-11522884D02*
X8908853Y-11513360D01*
X9089805Y-11503836D02*
X9099329Y-11513360D01*
X9099329Y-11513360D02*
X9089805Y-11522884D01*
X9089805Y-11522884D02*
X9080282Y-11513360D01*
X9080282Y-11513360D02*
X9089805Y-11503836D01*
X9089805Y-11503836D02*
X9089805Y-11522884D01*
X9089805Y-11399074D02*
X9099329Y-11408598D01*
X9099329Y-11408598D02*
X9089805Y-11418122D01*
X9089805Y-11418122D02*
X9080282Y-11408598D01*
X9080282Y-11408598D02*
X9089805Y-11399074D01*
X9089805Y-11399074D02*
X9089805Y-11418122D01*
D11*
X7417600Y-11831400D02*
X7457600Y-11871400D01*
X7457600Y-11831400D02*
X7417600Y-11871400D01*
D10*
X7756472Y-11742884D02*
X7775520Y-11742884D01*
X7775520Y-11742884D02*
X7794567Y-11752408D01*
X7794567Y-11752408D02*
X7804091Y-11761931D01*
X7804091Y-11761931D02*
X7813615Y-11780979D01*
X7813615Y-11780979D02*
X7823139Y-11819074D01*
X7823139Y-11819074D02*
X7823139Y-11866693D01*
X7823139Y-11866693D02*
X7813615Y-11904788D01*
X7813615Y-11904788D02*
X7804091Y-11923836D01*
X7804091Y-11923836D02*
X7794567Y-11933360D01*
X7794567Y-11933360D02*
X7775520Y-11942884D01*
X7775520Y-11942884D02*
X7756472Y-11942884D01*
X7756472Y-11942884D02*
X7737424Y-11933360D01*
X7737424Y-11933360D02*
X7727901Y-11923836D01*
X7727901Y-11923836D02*
X7718377Y-11904788D01*
X7718377Y-11904788D02*
X7708853Y-11866693D01*
X7708853Y-11866693D02*
X7708853Y-11819074D01*
X7708853Y-11819074D02*
X7718377Y-11780979D01*
X7718377Y-11780979D02*
X7727901Y-11761931D01*
X7727901Y-11761931D02*
X7737424Y-11752408D01*
X7737424Y-11752408D02*
X7756472Y-11742884D01*
X7908853Y-11923836D02*
X7918377Y-11933360D01*
X7918377Y-11933360D02*
X7908853Y-11942884D01*
X7908853Y-11942884D02*
X7899329Y-11933360D01*
X7899329Y-11933360D02*
X7908853Y-11923836D01*
X7908853Y-11923836D02*
X7908853Y-11942884D01*
X8089805Y-11809550D02*
X8089805Y-11942884D01*
X8042186Y-11733360D02*
X7994567Y-11876217D01*
X7994567Y-11876217D02*
X8118377Y-11876217D01*
X8232662Y-11742884D02*
X8251710Y-11742884D01*
X8251710Y-11742884D02*
X8270758Y-11752408D01*
X8270758Y-11752408D02*
X8280282Y-11761931D01*
X8280282Y-11761931D02*
X8289805Y-11780979D01*
X8289805Y-11780979D02*
X8299329Y-11819074D01*
X8299329Y-11819074D02*
X8299329Y-11866693D01*
X8299329Y-11866693D02*
X8289805Y-11904788D01*
X8289805Y-11904788D02*
X8280282Y-11923836D01*
X8280282Y-11923836D02*
X8270758Y-11933360D01*
X8270758Y-11933360D02*
X8251710Y-11942884D01*
X8251710Y-11942884D02*
X8232662Y-11942884D01*
X8232662Y-11942884D02*
X8213615Y-11933360D01*
X8213615Y-11933360D02*
X8204091Y-11923836D01*
X8204091Y-11923836D02*
X8194567Y-11904788D01*
X8194567Y-11904788D02*
X8185043Y-11866693D01*
X8185043Y-11866693D02*
X8185043Y-11819074D01*
X8185043Y-11819074D02*
X8194567Y-11780979D01*
X8194567Y-11780979D02*
X8204091Y-11761931D01*
X8204091Y-11761931D02*
X8213615Y-11752408D01*
X8213615Y-11752408D02*
X8232662Y-11742884D01*
X8423139Y-11742884D02*
X8442186Y-11742884D01*
X8442186Y-11742884D02*
X8461234Y-11752408D01*
X8461234Y-11752408D02*
X8470758Y-11761931D01*
X8470758Y-11761931D02*
X8480282Y-11780979D01*
X8480282Y-11780979D02*
X8489805Y-11819074D01*
X8489805Y-11819074D02*
X8489805Y-11866693D01*
X8489805Y-11866693D02*
X8480282Y-11904788D01*
X8480282Y-11904788D02*
X8470758Y-11923836D01*
X8470758Y-11923836D02*
X8461234Y-11933360D01*
X8461234Y-11933360D02*
X8442186Y-11942884D01*
X8442186Y-11942884D02*
X8423139Y-11942884D01*
X8423139Y-11942884D02*
X8404091Y-11933360D01*
X8404091Y-11933360D02*
X8394567Y-11923836D01*
X8394567Y-11923836D02*
X8385043Y-11904788D01*
X8385043Y-11904788D02*
X8375520Y-11866693D01*
X8375520Y-11866693D02*
X8375520Y-11819074D01*
X8375520Y-11819074D02*
X8385043Y-11780979D01*
X8385043Y-11780979D02*
X8394567Y-11761931D01*
X8394567Y-11761931D02*
X8404091Y-11752408D01*
X8404091Y-11752408D02*
X8423139Y-11742884D01*
X8575520Y-11942884D02*
X8575520Y-11809550D01*
X8575520Y-11828598D02*
X8585044Y-11819074D01*
X8585044Y-11819074D02*
X8604091Y-11809550D01*
X8604091Y-11809550D02*
X8632663Y-11809550D01*
X8632663Y-11809550D02*
X8651710Y-11819074D01*
X8651710Y-11819074D02*
X8661234Y-11838122D01*
X8661234Y-11838122D02*
X8661234Y-11942884D01*
X8661234Y-11838122D02*
X8670758Y-11819074D01*
X8670758Y-11819074D02*
X8689805Y-11809550D01*
X8689805Y-11809550D02*
X8718377Y-11809550D01*
X8718377Y-11809550D02*
X8737425Y-11819074D01*
X8737425Y-11819074D02*
X8746948Y-11838122D01*
X8746948Y-11838122D02*
X8746948Y-11942884D01*
X8842186Y-11942884D02*
X8842186Y-11809550D01*
X8842186Y-11828598D02*
X8851710Y-11819074D01*
X8851710Y-11819074D02*
X8870758Y-11809550D01*
X8870758Y-11809550D02*
X8899329Y-11809550D01*
X8899329Y-11809550D02*
X8918377Y-11819074D01*
X8918377Y-11819074D02*
X8927901Y-11838122D01*
X8927901Y-11838122D02*
X8927901Y-11942884D01*
X8927901Y-11838122D02*
X8937425Y-11819074D01*
X8937425Y-11819074D02*
X8956472Y-11809550D01*
X8956472Y-11809550D02*
X8985044Y-11809550D01*
X8985044Y-11809550D02*
X9004091Y-11819074D01*
X9004091Y-11819074D02*
X9013615Y-11838122D01*
X9013615Y-11838122D02*
X9013615Y-11942884D01*
X9404091Y-11733360D02*
X9232663Y-11990503D01*
X9661234Y-11742884D02*
X9680282Y-11742884D01*
X9680282Y-11742884D02*
X9699329Y-11752408D01*
X9699329Y-11752408D02*
X9708853Y-11761931D01*
X9708853Y-11761931D02*
X9718377Y-11780979D01*
X9718377Y-11780979D02*
X9727901Y-11819074D01*
X9727901Y-11819074D02*
X9727901Y-11866693D01*
X9727901Y-11866693D02*
X9718377Y-11904788D01*
X9718377Y-11904788D02*
X9708853Y-11923836D01*
X9708853Y-11923836D02*
X9699329Y-11933360D01*
X9699329Y-11933360D02*
X9680282Y-11942884D01*
X9680282Y-11942884D02*
X9661234Y-11942884D01*
X9661234Y-11942884D02*
X9642187Y-11933360D01*
X9642187Y-11933360D02*
X9632663Y-11923836D01*
X9632663Y-11923836D02*
X9623139Y-11904788D01*
X9623139Y-11904788D02*
X9613615Y-11866693D01*
X9613615Y-11866693D02*
X9613615Y-11819074D01*
X9613615Y-11819074D02*
X9623139Y-11780979D01*
X9623139Y-11780979D02*
X9632663Y-11761931D01*
X9632663Y-11761931D02*
X9642187Y-11752408D01*
X9642187Y-11752408D02*
X9661234Y-11742884D01*
X9813615Y-11923836D02*
X9823139Y-11933360D01*
X9823139Y-11933360D02*
X9813615Y-11942884D01*
X9813615Y-11942884D02*
X9804091Y-11933360D01*
X9804091Y-11933360D02*
X9813615Y-11923836D01*
X9813615Y-11923836D02*
X9813615Y-11942884D01*
X9946948Y-11742884D02*
X9965996Y-11742884D01*
X9965996Y-11742884D02*
X9985044Y-11752408D01*
X9985044Y-11752408D02*
X9994568Y-11761931D01*
X9994568Y-11761931D02*
X10004091Y-11780979D01*
X10004091Y-11780979D02*
X10013615Y-11819074D01*
X10013615Y-11819074D02*
X10013615Y-11866693D01*
X10013615Y-11866693D02*
X10004091Y-11904788D01*
X10004091Y-11904788D02*
X9994568Y-11923836D01*
X9994568Y-11923836D02*
X9985044Y-11933360D01*
X9985044Y-11933360D02*
X9965996Y-11942884D01*
X9965996Y-11942884D02*
X9946948Y-11942884D01*
X9946948Y-11942884D02*
X9927901Y-11933360D01*
X9927901Y-11933360D02*
X9918377Y-11923836D01*
X9918377Y-11923836D02*
X9908853Y-11904788D01*
X9908853Y-11904788D02*
X9899329Y-11866693D01*
X9899329Y-11866693D02*
X9899329Y-11819074D01*
X9899329Y-11819074D02*
X9908853Y-11780979D01*
X9908853Y-11780979D02*
X9918377Y-11761931D01*
X9918377Y-11761931D02*
X9927901Y-11752408D01*
X9927901Y-11752408D02*
X9946948Y-11742884D01*
X10204091Y-11942884D02*
X10089806Y-11942884D01*
X10146948Y-11942884D02*
X10146948Y-11742884D01*
X10146948Y-11742884D02*
X10127901Y-11771455D01*
X10127901Y-11771455D02*
X10108853Y-11790503D01*
X10108853Y-11790503D02*
X10089806Y-11800027D01*
X10385044Y-11742884D02*
X10289806Y-11742884D01*
X10289806Y-11742884D02*
X10280282Y-11838122D01*
X10280282Y-11838122D02*
X10289806Y-11828598D01*
X10289806Y-11828598D02*
X10308853Y-11819074D01*
X10308853Y-11819074D02*
X10356472Y-11819074D01*
X10356472Y-11819074D02*
X10375520Y-11828598D01*
X10375520Y-11828598D02*
X10385044Y-11838122D01*
X10385044Y-11838122D02*
X10394568Y-11857169D01*
X10394568Y-11857169D02*
X10394568Y-11904788D01*
X10394568Y-11904788D02*
X10385044Y-11923836D01*
X10385044Y-11923836D02*
X10375520Y-11933360D01*
X10375520Y-11933360D02*
X10356472Y-11942884D01*
X10356472Y-11942884D02*
X10308853Y-11942884D01*
X10308853Y-11942884D02*
X10289806Y-11933360D01*
X10289806Y-11933360D02*
X10280282Y-11923836D01*
X10461234Y-11742884D02*
X10594568Y-11742884D01*
X10594568Y-11742884D02*
X10508853Y-11942884D01*
X10661234Y-11742884D02*
X10661234Y-11780979D01*
X10737425Y-11742884D02*
X10737425Y-11780979D01*
X11032663Y-12019074D02*
X11023139Y-12009550D01*
X11023139Y-12009550D02*
X11004091Y-11980979D01*
X11004091Y-11980979D02*
X10994568Y-11961931D01*
X10994568Y-11961931D02*
X10985044Y-11933360D01*
X10985044Y-11933360D02*
X10975520Y-11885741D01*
X10975520Y-11885741D02*
X10975520Y-11847646D01*
X10975520Y-11847646D02*
X10985044Y-11800027D01*
X10985044Y-11800027D02*
X10994568Y-11771455D01*
X10994568Y-11771455D02*
X11004091Y-11752408D01*
X11004091Y-11752408D02*
X11023139Y-11723836D01*
X11023139Y-11723836D02*
X11032663Y-11714312D01*
X11099330Y-11761931D02*
X11108853Y-11752408D01*
X11108853Y-11752408D02*
X11127901Y-11742884D01*
X11127901Y-11742884D02*
X11175520Y-11742884D01*
X11175520Y-11742884D02*
X11194568Y-11752408D01*
X11194568Y-11752408D02*
X11204091Y-11761931D01*
X11204091Y-11761931D02*
X11213615Y-11780979D01*
X11213615Y-11780979D02*
X11213615Y-11800027D01*
X11213615Y-11800027D02*
X11204091Y-11828598D01*
X11204091Y-11828598D02*
X11089806Y-11942884D01*
X11089806Y-11942884D02*
X11213615Y-11942884D01*
X11451710Y-11942884D02*
X11451710Y-11742884D01*
X11537425Y-11942884D02*
X11537425Y-11838122D01*
X11537425Y-11838122D02*
X11527901Y-11819074D01*
X11527901Y-11819074D02*
X11508853Y-11809550D01*
X11508853Y-11809550D02*
X11480282Y-11809550D01*
X11480282Y-11809550D02*
X11461234Y-11819074D01*
X11461234Y-11819074D02*
X11451710Y-11828598D01*
X11661234Y-11942884D02*
X11642187Y-11933360D01*
X11642187Y-11933360D02*
X11632663Y-11923836D01*
X11632663Y-11923836D02*
X11623139Y-11904788D01*
X11623139Y-11904788D02*
X11623139Y-11847646D01*
X11623139Y-11847646D02*
X11632663Y-11828598D01*
X11632663Y-11828598D02*
X11642187Y-11819074D01*
X11642187Y-11819074D02*
X11661234Y-11809550D01*
X11661234Y-11809550D02*
X11689806Y-11809550D01*
X11689806Y-11809550D02*
X11708853Y-11819074D01*
X11708853Y-11819074D02*
X11718377Y-11828598D01*
X11718377Y-11828598D02*
X11727901Y-11847646D01*
X11727901Y-11847646D02*
X11727901Y-11904788D01*
X11727901Y-11904788D02*
X11718377Y-11923836D01*
X11718377Y-11923836D02*
X11708853Y-11933360D01*
X11708853Y-11933360D02*
X11689806Y-11942884D01*
X11689806Y-11942884D02*
X11661234Y-11942884D01*
X11842187Y-11942884D02*
X11823139Y-11933360D01*
X11823139Y-11933360D02*
X11813615Y-11914312D01*
X11813615Y-11914312D02*
X11813615Y-11742884D01*
X11994568Y-11933360D02*
X11975520Y-11942884D01*
X11975520Y-11942884D02*
X11937425Y-11942884D01*
X11937425Y-11942884D02*
X11918377Y-11933360D01*
X11918377Y-11933360D02*
X11908853Y-11914312D01*
X11908853Y-11914312D02*
X11908853Y-11838122D01*
X11908853Y-11838122D02*
X11918377Y-11819074D01*
X11918377Y-11819074D02*
X11937425Y-11809550D01*
X11937425Y-11809550D02*
X11975520Y-11809550D01*
X11975520Y-11809550D02*
X11994568Y-11819074D01*
X11994568Y-11819074D02*
X12004091Y-11838122D01*
X12004091Y-11838122D02*
X12004091Y-11857169D01*
X12004091Y-11857169D02*
X11908853Y-11876217D01*
X12080282Y-11933360D02*
X12099330Y-11942884D01*
X12099330Y-11942884D02*
X12137425Y-11942884D01*
X12137425Y-11942884D02*
X12156472Y-11933360D01*
X12156472Y-11933360D02*
X12165996Y-11914312D01*
X12165996Y-11914312D02*
X12165996Y-11904788D01*
X12165996Y-11904788D02*
X12156472Y-11885741D01*
X12156472Y-11885741D02*
X12137425Y-11876217D01*
X12137425Y-11876217D02*
X12108853Y-11876217D01*
X12108853Y-11876217D02*
X12089806Y-11866693D01*
X12089806Y-11866693D02*
X12080282Y-11847646D01*
X12080282Y-11847646D02*
X12080282Y-11838122D01*
X12080282Y-11838122D02*
X12089806Y-11819074D01*
X12089806Y-11819074D02*
X12108853Y-11809550D01*
X12108853Y-11809550D02*
X12137425Y-11809550D01*
X12137425Y-11809550D02*
X12156472Y-11819074D01*
X12232663Y-12019074D02*
X12242187Y-12009550D01*
X12242187Y-12009550D02*
X12261234Y-11980979D01*
X12261234Y-11980979D02*
X12270758Y-11961931D01*
X12270758Y-11961931D02*
X12280282Y-11933360D01*
X12280282Y-11933360D02*
X12289806Y-11885741D01*
X12289806Y-11885741D02*
X12289806Y-11847646D01*
X12289806Y-11847646D02*
X12280282Y-11800027D01*
X12280282Y-11800027D02*
X12270758Y-11771455D01*
X12270758Y-11771455D02*
X12261234Y-11752408D01*
X12261234Y-11752408D02*
X12242187Y-11723836D01*
X12242187Y-11723836D02*
X12232663Y-11714312D01*
D11*
X7457600Y-12115400D02*
G75*
G02*
X7377600Y-12115400I-40000J0D01*
G01*
X7377600Y-12115400D02*
G75*
G02*
X7457600Y-12115400I40000J0D01*
G01*
D10*
X7756472Y-12006884D02*
X7775520Y-12006884D01*
X7775520Y-12006884D02*
X7794567Y-12016408D01*
X7794567Y-12016408D02*
X7804091Y-12025931D01*
X7804091Y-12025931D02*
X7813615Y-12044979D01*
X7813615Y-12044979D02*
X7823139Y-12083074D01*
X7823139Y-12083074D02*
X7823139Y-12130693D01*
X7823139Y-12130693D02*
X7813615Y-12168788D01*
X7813615Y-12168788D02*
X7804091Y-12187836D01*
X7804091Y-12187836D02*
X7794567Y-12197360D01*
X7794567Y-12197360D02*
X7775520Y-12206884D01*
X7775520Y-12206884D02*
X7756472Y-12206884D01*
X7756472Y-12206884D02*
X7737424Y-12197360D01*
X7737424Y-12197360D02*
X7727901Y-12187836D01*
X7727901Y-12187836D02*
X7718377Y-12168788D01*
X7718377Y-12168788D02*
X7708853Y-12130693D01*
X7708853Y-12130693D02*
X7708853Y-12083074D01*
X7708853Y-12083074D02*
X7718377Y-12044979D01*
X7718377Y-12044979D02*
X7727901Y-12025931D01*
X7727901Y-12025931D02*
X7737424Y-12016408D01*
X7737424Y-12016408D02*
X7756472Y-12006884D01*
X7908853Y-12187836D02*
X7918377Y-12197360D01*
X7918377Y-12197360D02*
X7908853Y-12206884D01*
X7908853Y-12206884D02*
X7899329Y-12197360D01*
X7899329Y-12197360D02*
X7908853Y-12187836D01*
X7908853Y-12187836D02*
X7908853Y-12206884D01*
X8032662Y-12092598D02*
X8013615Y-12083074D01*
X8013615Y-12083074D02*
X8004091Y-12073550D01*
X8004091Y-12073550D02*
X7994567Y-12054503D01*
X7994567Y-12054503D02*
X7994567Y-12044979D01*
X7994567Y-12044979D02*
X8004091Y-12025931D01*
X8004091Y-12025931D02*
X8013615Y-12016408D01*
X8013615Y-12016408D02*
X8032662Y-12006884D01*
X8032662Y-12006884D02*
X8070758Y-12006884D01*
X8070758Y-12006884D02*
X8089805Y-12016408D01*
X8089805Y-12016408D02*
X8099329Y-12025931D01*
X8099329Y-12025931D02*
X8108853Y-12044979D01*
X8108853Y-12044979D02*
X8108853Y-12054503D01*
X8108853Y-12054503D02*
X8099329Y-12073550D01*
X8099329Y-12073550D02*
X8089805Y-12083074D01*
X8089805Y-12083074D02*
X8070758Y-12092598D01*
X8070758Y-12092598D02*
X8032662Y-12092598D01*
X8032662Y-12092598D02*
X8013615Y-12102122D01*
X8013615Y-12102122D02*
X8004091Y-12111646D01*
X8004091Y-12111646D02*
X7994567Y-12130693D01*
X7994567Y-12130693D02*
X7994567Y-12168788D01*
X7994567Y-12168788D02*
X8004091Y-12187836D01*
X8004091Y-12187836D02*
X8013615Y-12197360D01*
X8013615Y-12197360D02*
X8032662Y-12206884D01*
X8032662Y-12206884D02*
X8070758Y-12206884D01*
X8070758Y-12206884D02*
X8089805Y-12197360D01*
X8089805Y-12197360D02*
X8099329Y-12187836D01*
X8099329Y-12187836D02*
X8108853Y-12168788D01*
X8108853Y-12168788D02*
X8108853Y-12130693D01*
X8108853Y-12130693D02*
X8099329Y-12111646D01*
X8099329Y-12111646D02*
X8089805Y-12102122D01*
X8089805Y-12102122D02*
X8070758Y-12092598D01*
X8232662Y-12006884D02*
X8251710Y-12006884D01*
X8251710Y-12006884D02*
X8270758Y-12016408D01*
X8270758Y-12016408D02*
X8280282Y-12025931D01*
X8280282Y-12025931D02*
X8289805Y-12044979D01*
X8289805Y-12044979D02*
X8299329Y-12083074D01*
X8299329Y-12083074D02*
X8299329Y-12130693D01*
X8299329Y-12130693D02*
X8289805Y-12168788D01*
X8289805Y-12168788D02*
X8280282Y-12187836D01*
X8280282Y-12187836D02*
X8270758Y-12197360D01*
X8270758Y-12197360D02*
X8251710Y-12206884D01*
X8251710Y-12206884D02*
X8232662Y-12206884D01*
X8232662Y-12206884D02*
X8213615Y-12197360D01*
X8213615Y-12197360D02*
X8204091Y-12187836D01*
X8204091Y-12187836D02*
X8194567Y-12168788D01*
X8194567Y-12168788D02*
X8185043Y-12130693D01*
X8185043Y-12130693D02*
X8185043Y-12083074D01*
X8185043Y-12083074D02*
X8194567Y-12044979D01*
X8194567Y-12044979D02*
X8204091Y-12025931D01*
X8204091Y-12025931D02*
X8213615Y-12016408D01*
X8213615Y-12016408D02*
X8232662Y-12006884D01*
X8423139Y-12006884D02*
X8442186Y-12006884D01*
X8442186Y-12006884D02*
X8461234Y-12016408D01*
X8461234Y-12016408D02*
X8470758Y-12025931D01*
X8470758Y-12025931D02*
X8480282Y-12044979D01*
X8480282Y-12044979D02*
X8489805Y-12083074D01*
X8489805Y-12083074D02*
X8489805Y-12130693D01*
X8489805Y-12130693D02*
X8480282Y-12168788D01*
X8480282Y-12168788D02*
X8470758Y-12187836D01*
X8470758Y-12187836D02*
X8461234Y-12197360D01*
X8461234Y-12197360D02*
X8442186Y-12206884D01*
X8442186Y-12206884D02*
X8423139Y-12206884D01*
X8423139Y-12206884D02*
X8404091Y-12197360D01*
X8404091Y-12197360D02*
X8394567Y-12187836D01*
X8394567Y-12187836D02*
X8385043Y-12168788D01*
X8385043Y-12168788D02*
X8375520Y-12130693D01*
X8375520Y-12130693D02*
X8375520Y-12083074D01*
X8375520Y-12083074D02*
X8385043Y-12044979D01*
X8385043Y-12044979D02*
X8394567Y-12025931D01*
X8394567Y-12025931D02*
X8404091Y-12016408D01*
X8404091Y-12016408D02*
X8423139Y-12006884D01*
X8575520Y-12206884D02*
X8575520Y-12073550D01*
X8575520Y-12092598D02*
X8585044Y-12083074D01*
X8585044Y-12083074D02*
X8604091Y-12073550D01*
X8604091Y-12073550D02*
X8632663Y-12073550D01*
X8632663Y-12073550D02*
X8651710Y-12083074D01*
X8651710Y-12083074D02*
X8661234Y-12102122D01*
X8661234Y-12102122D02*
X8661234Y-12206884D01*
X8661234Y-12102122D02*
X8670758Y-12083074D01*
X8670758Y-12083074D02*
X8689805Y-12073550D01*
X8689805Y-12073550D02*
X8718377Y-12073550D01*
X8718377Y-12073550D02*
X8737425Y-12083074D01*
X8737425Y-12083074D02*
X8746948Y-12102122D01*
X8746948Y-12102122D02*
X8746948Y-12206884D01*
X8842186Y-12206884D02*
X8842186Y-12073550D01*
X8842186Y-12092598D02*
X8851710Y-12083074D01*
X8851710Y-12083074D02*
X8870758Y-12073550D01*
X8870758Y-12073550D02*
X8899329Y-12073550D01*
X8899329Y-12073550D02*
X8918377Y-12083074D01*
X8918377Y-12083074D02*
X8927901Y-12102122D01*
X8927901Y-12102122D02*
X8927901Y-12206884D01*
X8927901Y-12102122D02*
X8937425Y-12083074D01*
X8937425Y-12083074D02*
X8956472Y-12073550D01*
X8956472Y-12073550D02*
X8985044Y-12073550D01*
X8985044Y-12073550D02*
X9004091Y-12083074D01*
X9004091Y-12083074D02*
X9013615Y-12102122D01*
X9013615Y-12102122D02*
X9013615Y-12206884D01*
X9404091Y-11997360D02*
X9232663Y-12254503D01*
X9661234Y-12006884D02*
X9680282Y-12006884D01*
X9680282Y-12006884D02*
X9699329Y-12016408D01*
X9699329Y-12016408D02*
X9708853Y-12025931D01*
X9708853Y-12025931D02*
X9718377Y-12044979D01*
X9718377Y-12044979D02*
X9727901Y-12083074D01*
X9727901Y-12083074D02*
X9727901Y-12130693D01*
X9727901Y-12130693D02*
X9718377Y-12168788D01*
X9718377Y-12168788D02*
X9708853Y-12187836D01*
X9708853Y-12187836D02*
X9699329Y-12197360D01*
X9699329Y-12197360D02*
X9680282Y-12206884D01*
X9680282Y-12206884D02*
X9661234Y-12206884D01*
X9661234Y-12206884D02*
X9642187Y-12197360D01*
X9642187Y-12197360D02*
X9632663Y-12187836D01*
X9632663Y-12187836D02*
X9623139Y-12168788D01*
X9623139Y-12168788D02*
X9613615Y-12130693D01*
X9613615Y-12130693D02*
X9613615Y-12083074D01*
X9613615Y-12083074D02*
X9623139Y-12044979D01*
X9623139Y-12044979D02*
X9632663Y-12025931D01*
X9632663Y-12025931D02*
X9642187Y-12016408D01*
X9642187Y-12016408D02*
X9661234Y-12006884D01*
X9813615Y-12187836D02*
X9823139Y-12197360D01*
X9823139Y-12197360D02*
X9813615Y-12206884D01*
X9813615Y-12206884D02*
X9804091Y-12197360D01*
X9804091Y-12197360D02*
X9813615Y-12187836D01*
X9813615Y-12187836D02*
X9813615Y-12206884D01*
X9946948Y-12006884D02*
X9965996Y-12006884D01*
X9965996Y-12006884D02*
X9985044Y-12016408D01*
X9985044Y-12016408D02*
X9994568Y-12025931D01*
X9994568Y-12025931D02*
X10004091Y-12044979D01*
X10004091Y-12044979D02*
X10013615Y-12083074D01*
X10013615Y-12083074D02*
X10013615Y-12130693D01*
X10013615Y-12130693D02*
X10004091Y-12168788D01*
X10004091Y-12168788D02*
X9994568Y-12187836D01*
X9994568Y-12187836D02*
X9985044Y-12197360D01*
X9985044Y-12197360D02*
X9965996Y-12206884D01*
X9965996Y-12206884D02*
X9946948Y-12206884D01*
X9946948Y-12206884D02*
X9927901Y-12197360D01*
X9927901Y-12197360D02*
X9918377Y-12187836D01*
X9918377Y-12187836D02*
X9908853Y-12168788D01*
X9908853Y-12168788D02*
X9899329Y-12130693D01*
X9899329Y-12130693D02*
X9899329Y-12083074D01*
X9899329Y-12083074D02*
X9908853Y-12044979D01*
X9908853Y-12044979D02*
X9918377Y-12025931D01*
X9918377Y-12025931D02*
X9927901Y-12016408D01*
X9927901Y-12016408D02*
X9946948Y-12006884D01*
X10080282Y-12006884D02*
X10204091Y-12006884D01*
X10204091Y-12006884D02*
X10137425Y-12083074D01*
X10137425Y-12083074D02*
X10165996Y-12083074D01*
X10165996Y-12083074D02*
X10185044Y-12092598D01*
X10185044Y-12092598D02*
X10194568Y-12102122D01*
X10194568Y-12102122D02*
X10204091Y-12121169D01*
X10204091Y-12121169D02*
X10204091Y-12168788D01*
X10204091Y-12168788D02*
X10194568Y-12187836D01*
X10194568Y-12187836D02*
X10185044Y-12197360D01*
X10185044Y-12197360D02*
X10165996Y-12206884D01*
X10165996Y-12206884D02*
X10108853Y-12206884D01*
X10108853Y-12206884D02*
X10089806Y-12197360D01*
X10089806Y-12197360D02*
X10080282Y-12187836D01*
X10394568Y-12206884D02*
X10280282Y-12206884D01*
X10337425Y-12206884D02*
X10337425Y-12006884D01*
X10337425Y-12006884D02*
X10318377Y-12035455D01*
X10318377Y-12035455D02*
X10299329Y-12054503D01*
X10299329Y-12054503D02*
X10280282Y-12064027D01*
X10575520Y-12006884D02*
X10480282Y-12006884D01*
X10480282Y-12006884D02*
X10470758Y-12102122D01*
X10470758Y-12102122D02*
X10480282Y-12092598D01*
X10480282Y-12092598D02*
X10499329Y-12083074D01*
X10499329Y-12083074D02*
X10546949Y-12083074D01*
X10546949Y-12083074D02*
X10565996Y-12092598D01*
X10565996Y-12092598D02*
X10575520Y-12102122D01*
X10575520Y-12102122D02*
X10585044Y-12121169D01*
X10585044Y-12121169D02*
X10585044Y-12168788D01*
X10585044Y-12168788D02*
X10575520Y-12187836D01*
X10575520Y-12187836D02*
X10565996Y-12197360D01*
X10565996Y-12197360D02*
X10546949Y-12206884D01*
X10546949Y-12206884D02*
X10499329Y-12206884D01*
X10499329Y-12206884D02*
X10480282Y-12197360D01*
X10480282Y-12197360D02*
X10470758Y-12187836D01*
X10661234Y-12006884D02*
X10661234Y-12044979D01*
X10737425Y-12006884D02*
X10737425Y-12044979D01*
X11032663Y-12283074D02*
X11023139Y-12273550D01*
X11023139Y-12273550D02*
X11004091Y-12244979D01*
X11004091Y-12244979D02*
X10994568Y-12225931D01*
X10994568Y-12225931D02*
X10985044Y-12197360D01*
X10985044Y-12197360D02*
X10975520Y-12149741D01*
X10975520Y-12149741D02*
X10975520Y-12111646D01*
X10975520Y-12111646D02*
X10985044Y-12064027D01*
X10985044Y-12064027D02*
X10994568Y-12035455D01*
X10994568Y-12035455D02*
X11004091Y-12016408D01*
X11004091Y-12016408D02*
X11023139Y-11987836D01*
X11023139Y-11987836D02*
X11032663Y-11978312D01*
X11194568Y-12073550D02*
X11194568Y-12206884D01*
X11146949Y-11997360D02*
X11099330Y-12140217D01*
X11099330Y-12140217D02*
X11223139Y-12140217D01*
X11385044Y-12073550D02*
X11385044Y-12206884D01*
X11337425Y-11997360D02*
X11289806Y-12140217D01*
X11289806Y-12140217D02*
X11413615Y-12140217D01*
X11642187Y-12206884D02*
X11642187Y-12006884D01*
X11727901Y-12206884D02*
X11727901Y-12102122D01*
X11727901Y-12102122D02*
X11718377Y-12083074D01*
X11718377Y-12083074D02*
X11699330Y-12073550D01*
X11699330Y-12073550D02*
X11670758Y-12073550D01*
X11670758Y-12073550D02*
X11651710Y-12083074D01*
X11651710Y-12083074D02*
X11642187Y-12092598D01*
X11851710Y-12206884D02*
X11832663Y-12197360D01*
X11832663Y-12197360D02*
X11823139Y-12187836D01*
X11823139Y-12187836D02*
X11813615Y-12168788D01*
X11813615Y-12168788D02*
X11813615Y-12111646D01*
X11813615Y-12111646D02*
X11823139Y-12092598D01*
X11823139Y-12092598D02*
X11832663Y-12083074D01*
X11832663Y-12083074D02*
X11851710Y-12073550D01*
X11851710Y-12073550D02*
X11880282Y-12073550D01*
X11880282Y-12073550D02*
X11899330Y-12083074D01*
X11899330Y-12083074D02*
X11908853Y-12092598D01*
X11908853Y-12092598D02*
X11918377Y-12111646D01*
X11918377Y-12111646D02*
X11918377Y-12168788D01*
X11918377Y-12168788D02*
X11908853Y-12187836D01*
X11908853Y-12187836D02*
X11899330Y-12197360D01*
X11899330Y-12197360D02*
X11880282Y-12206884D01*
X11880282Y-12206884D02*
X11851710Y-12206884D01*
X12032663Y-12206884D02*
X12013615Y-12197360D01*
X12013615Y-12197360D02*
X12004091Y-12178312D01*
X12004091Y-12178312D02*
X12004091Y-12006884D01*
X12185044Y-12197360D02*
X12165996Y-12206884D01*
X12165996Y-12206884D02*
X12127901Y-12206884D01*
X12127901Y-12206884D02*
X12108853Y-12197360D01*
X12108853Y-12197360D02*
X12099330Y-12178312D01*
X12099330Y-12178312D02*
X12099330Y-12102122D01*
X12099330Y-12102122D02*
X12108853Y-12083074D01*
X12108853Y-12083074D02*
X12127901Y-12073550D01*
X12127901Y-12073550D02*
X12165996Y-12073550D01*
X12165996Y-12073550D02*
X12185044Y-12083074D01*
X12185044Y-12083074D02*
X12194568Y-12102122D01*
X12194568Y-12102122D02*
X12194568Y-12121169D01*
X12194568Y-12121169D02*
X12099330Y-12140217D01*
X12270758Y-12197360D02*
X12289806Y-12206884D01*
X12289806Y-12206884D02*
X12327901Y-12206884D01*
X12327901Y-12206884D02*
X12346949Y-12197360D01*
X12346949Y-12197360D02*
X12356472Y-12178312D01*
X12356472Y-12178312D02*
X12356472Y-12168788D01*
X12356472Y-12168788D02*
X12346949Y-12149741D01*
X12346949Y-12149741D02*
X12327901Y-12140217D01*
X12327901Y-12140217D02*
X12299330Y-12140217D01*
X12299330Y-12140217D02*
X12280282Y-12130693D01*
X12280282Y-12130693D02*
X12270758Y-12111646D01*
X12270758Y-12111646D02*
X12270758Y-12102122D01*
X12270758Y-12102122D02*
X12280282Y-12083074D01*
X12280282Y-12083074D02*
X12299330Y-12073550D01*
X12299330Y-12073550D02*
X12327901Y-12073550D01*
X12327901Y-12073550D02*
X12346949Y-12083074D01*
X12423139Y-12283074D02*
X12432663Y-12273550D01*
X12432663Y-12273550D02*
X12451711Y-12244979D01*
X12451711Y-12244979D02*
X12461234Y-12225931D01*
X12461234Y-12225931D02*
X12470758Y-12197360D01*
X12470758Y-12197360D02*
X12480282Y-12149741D01*
X12480282Y-12149741D02*
X12480282Y-12111646D01*
X12480282Y-12111646D02*
X12470758Y-12064027D01*
X12470758Y-12064027D02*
X12461234Y-12035455D01*
X12461234Y-12035455D02*
X12451711Y-12016408D01*
X12451711Y-12016408D02*
X12432663Y-11987836D01*
X12432663Y-11987836D02*
X12423139Y-11978312D01*
D11*
X7412600Y-12334400D02*
X7412600Y-12424400D01*
X7367600Y-12379400D02*
X7457600Y-12379400D01*
D10*
X7756472Y-12270884D02*
X7775520Y-12270884D01*
X7775520Y-12270884D02*
X7794567Y-12280408D01*
X7794567Y-12280408D02*
X7804091Y-12289931D01*
X7804091Y-12289931D02*
X7813615Y-12308979D01*
X7813615Y-12308979D02*
X7823139Y-12347074D01*
X7823139Y-12347074D02*
X7823139Y-12394693D01*
X7823139Y-12394693D02*
X7813615Y-12432788D01*
X7813615Y-12432788D02*
X7804091Y-12451836D01*
X7804091Y-12451836D02*
X7794567Y-12461360D01*
X7794567Y-12461360D02*
X7775520Y-12470884D01*
X7775520Y-12470884D02*
X7756472Y-12470884D01*
X7756472Y-12470884D02*
X7737424Y-12461360D01*
X7737424Y-12461360D02*
X7727901Y-12451836D01*
X7727901Y-12451836D02*
X7718377Y-12432788D01*
X7718377Y-12432788D02*
X7708853Y-12394693D01*
X7708853Y-12394693D02*
X7708853Y-12347074D01*
X7708853Y-12347074D02*
X7718377Y-12308979D01*
X7718377Y-12308979D02*
X7727901Y-12289931D01*
X7727901Y-12289931D02*
X7737424Y-12280408D01*
X7737424Y-12280408D02*
X7756472Y-12270884D01*
X7908853Y-12451836D02*
X7918377Y-12461360D01*
X7918377Y-12461360D02*
X7908853Y-12470884D01*
X7908853Y-12470884D02*
X7899329Y-12461360D01*
X7899329Y-12461360D02*
X7908853Y-12451836D01*
X7908853Y-12451836D02*
X7908853Y-12470884D01*
X8013615Y-12470884D02*
X8051710Y-12470884D01*
X8051710Y-12470884D02*
X8070758Y-12461360D01*
X8070758Y-12461360D02*
X8080282Y-12451836D01*
X8080282Y-12451836D02*
X8099329Y-12423265D01*
X8099329Y-12423265D02*
X8108853Y-12385169D01*
X8108853Y-12385169D02*
X8108853Y-12308979D01*
X8108853Y-12308979D02*
X8099329Y-12289931D01*
X8099329Y-12289931D02*
X8089805Y-12280408D01*
X8089805Y-12280408D02*
X8070758Y-12270884D01*
X8070758Y-12270884D02*
X8032662Y-12270884D01*
X8032662Y-12270884D02*
X8013615Y-12280408D01*
X8013615Y-12280408D02*
X8004091Y-12289931D01*
X8004091Y-12289931D02*
X7994567Y-12308979D01*
X7994567Y-12308979D02*
X7994567Y-12356598D01*
X7994567Y-12356598D02*
X8004091Y-12375646D01*
X8004091Y-12375646D02*
X8013615Y-12385169D01*
X8013615Y-12385169D02*
X8032662Y-12394693D01*
X8032662Y-12394693D02*
X8070758Y-12394693D01*
X8070758Y-12394693D02*
X8089805Y-12385169D01*
X8089805Y-12385169D02*
X8099329Y-12375646D01*
X8099329Y-12375646D02*
X8108853Y-12356598D01*
X8232662Y-12270884D02*
X8251710Y-12270884D01*
X8251710Y-12270884D02*
X8270758Y-12280408D01*
X8270758Y-12280408D02*
X8280282Y-12289931D01*
X8280282Y-12289931D02*
X8289805Y-12308979D01*
X8289805Y-12308979D02*
X8299329Y-12347074D01*
X8299329Y-12347074D02*
X8299329Y-12394693D01*
X8299329Y-12394693D02*
X8289805Y-12432788D01*
X8289805Y-12432788D02*
X8280282Y-12451836D01*
X8280282Y-12451836D02*
X8270758Y-12461360D01*
X8270758Y-12461360D02*
X8251710Y-12470884D01*
X8251710Y-12470884D02*
X8232662Y-12470884D01*
X8232662Y-12470884D02*
X8213615Y-12461360D01*
X8213615Y-12461360D02*
X8204091Y-12451836D01*
X8204091Y-12451836D02*
X8194567Y-12432788D01*
X8194567Y-12432788D02*
X8185043Y-12394693D01*
X8185043Y-12394693D02*
X8185043Y-12347074D01*
X8185043Y-12347074D02*
X8194567Y-12308979D01*
X8194567Y-12308979D02*
X8204091Y-12289931D01*
X8204091Y-12289931D02*
X8213615Y-12280408D01*
X8213615Y-12280408D02*
X8232662Y-12270884D01*
X8423139Y-12270884D02*
X8442186Y-12270884D01*
X8442186Y-12270884D02*
X8461234Y-12280408D01*
X8461234Y-12280408D02*
X8470758Y-12289931D01*
X8470758Y-12289931D02*
X8480282Y-12308979D01*
X8480282Y-12308979D02*
X8489805Y-12347074D01*
X8489805Y-12347074D02*
X8489805Y-12394693D01*
X8489805Y-12394693D02*
X8480282Y-12432788D01*
X8480282Y-12432788D02*
X8470758Y-12451836D01*
X8470758Y-12451836D02*
X8461234Y-12461360D01*
X8461234Y-12461360D02*
X8442186Y-12470884D01*
X8442186Y-12470884D02*
X8423139Y-12470884D01*
X8423139Y-12470884D02*
X8404091Y-12461360D01*
X8404091Y-12461360D02*
X8394567Y-12451836D01*
X8394567Y-12451836D02*
X8385043Y-12432788D01*
X8385043Y-12432788D02*
X8375520Y-12394693D01*
X8375520Y-12394693D02*
X8375520Y-12347074D01*
X8375520Y-12347074D02*
X8385043Y-12308979D01*
X8385043Y-12308979D02*
X8394567Y-12289931D01*
X8394567Y-12289931D02*
X8404091Y-12280408D01*
X8404091Y-12280408D02*
X8423139Y-12270884D01*
X8575520Y-12470884D02*
X8575520Y-12337550D01*
X8575520Y-12356598D02*
X8585044Y-12347074D01*
X8585044Y-12347074D02*
X8604091Y-12337550D01*
X8604091Y-12337550D02*
X8632663Y-12337550D01*
X8632663Y-12337550D02*
X8651710Y-12347074D01*
X8651710Y-12347074D02*
X8661234Y-12366122D01*
X8661234Y-12366122D02*
X8661234Y-12470884D01*
X8661234Y-12366122D02*
X8670758Y-12347074D01*
X8670758Y-12347074D02*
X8689805Y-12337550D01*
X8689805Y-12337550D02*
X8718377Y-12337550D01*
X8718377Y-12337550D02*
X8737425Y-12347074D01*
X8737425Y-12347074D02*
X8746948Y-12366122D01*
X8746948Y-12366122D02*
X8746948Y-12470884D01*
X8842186Y-12470884D02*
X8842186Y-12337550D01*
X8842186Y-12356598D02*
X8851710Y-12347074D01*
X8851710Y-12347074D02*
X8870758Y-12337550D01*
X8870758Y-12337550D02*
X8899329Y-12337550D01*
X8899329Y-12337550D02*
X8918377Y-12347074D01*
X8918377Y-12347074D02*
X8927901Y-12366122D01*
X8927901Y-12366122D02*
X8927901Y-12470884D01*
X8927901Y-12366122D02*
X8937425Y-12347074D01*
X8937425Y-12347074D02*
X8956472Y-12337550D01*
X8956472Y-12337550D02*
X8985044Y-12337550D01*
X8985044Y-12337550D02*
X9004091Y-12347074D01*
X9004091Y-12347074D02*
X9013615Y-12366122D01*
X9013615Y-12366122D02*
X9013615Y-12470884D01*
X9404091Y-12261360D02*
X9232663Y-12518503D01*
X9661234Y-12270884D02*
X9680282Y-12270884D01*
X9680282Y-12270884D02*
X9699329Y-12280408D01*
X9699329Y-12280408D02*
X9708853Y-12289931D01*
X9708853Y-12289931D02*
X9718377Y-12308979D01*
X9718377Y-12308979D02*
X9727901Y-12347074D01*
X9727901Y-12347074D02*
X9727901Y-12394693D01*
X9727901Y-12394693D02*
X9718377Y-12432788D01*
X9718377Y-12432788D02*
X9708853Y-12451836D01*
X9708853Y-12451836D02*
X9699329Y-12461360D01*
X9699329Y-12461360D02*
X9680282Y-12470884D01*
X9680282Y-12470884D02*
X9661234Y-12470884D01*
X9661234Y-12470884D02*
X9642187Y-12461360D01*
X9642187Y-12461360D02*
X9632663Y-12451836D01*
X9632663Y-12451836D02*
X9623139Y-12432788D01*
X9623139Y-12432788D02*
X9613615Y-12394693D01*
X9613615Y-12394693D02*
X9613615Y-12347074D01*
X9613615Y-12347074D02*
X9623139Y-12308979D01*
X9623139Y-12308979D02*
X9632663Y-12289931D01*
X9632663Y-12289931D02*
X9642187Y-12280408D01*
X9642187Y-12280408D02*
X9661234Y-12270884D01*
X9813615Y-12451836D02*
X9823139Y-12461360D01*
X9823139Y-12461360D02*
X9813615Y-12470884D01*
X9813615Y-12470884D02*
X9804091Y-12461360D01*
X9804091Y-12461360D02*
X9813615Y-12451836D01*
X9813615Y-12451836D02*
X9813615Y-12470884D01*
X9946948Y-12270884D02*
X9965996Y-12270884D01*
X9965996Y-12270884D02*
X9985044Y-12280408D01*
X9985044Y-12280408D02*
X9994568Y-12289931D01*
X9994568Y-12289931D02*
X10004091Y-12308979D01*
X10004091Y-12308979D02*
X10013615Y-12347074D01*
X10013615Y-12347074D02*
X10013615Y-12394693D01*
X10013615Y-12394693D02*
X10004091Y-12432788D01*
X10004091Y-12432788D02*
X9994568Y-12451836D01*
X9994568Y-12451836D02*
X9985044Y-12461360D01*
X9985044Y-12461360D02*
X9965996Y-12470884D01*
X9965996Y-12470884D02*
X9946948Y-12470884D01*
X9946948Y-12470884D02*
X9927901Y-12461360D01*
X9927901Y-12461360D02*
X9918377Y-12451836D01*
X9918377Y-12451836D02*
X9908853Y-12432788D01*
X9908853Y-12432788D02*
X9899329Y-12394693D01*
X9899329Y-12394693D02*
X9899329Y-12347074D01*
X9899329Y-12347074D02*
X9908853Y-12308979D01*
X9908853Y-12308979D02*
X9918377Y-12289931D01*
X9918377Y-12289931D02*
X9927901Y-12280408D01*
X9927901Y-12280408D02*
X9946948Y-12270884D01*
X10080282Y-12270884D02*
X10204091Y-12270884D01*
X10204091Y-12270884D02*
X10137425Y-12347074D01*
X10137425Y-12347074D02*
X10165996Y-12347074D01*
X10165996Y-12347074D02*
X10185044Y-12356598D01*
X10185044Y-12356598D02*
X10194568Y-12366122D01*
X10194568Y-12366122D02*
X10204091Y-12385169D01*
X10204091Y-12385169D02*
X10204091Y-12432788D01*
X10204091Y-12432788D02*
X10194568Y-12451836D01*
X10194568Y-12451836D02*
X10185044Y-12461360D01*
X10185044Y-12461360D02*
X10165996Y-12470884D01*
X10165996Y-12470884D02*
X10108853Y-12470884D01*
X10108853Y-12470884D02*
X10089806Y-12461360D01*
X10089806Y-12461360D02*
X10080282Y-12451836D01*
X10385044Y-12270884D02*
X10289806Y-12270884D01*
X10289806Y-12270884D02*
X10280282Y-12366122D01*
X10280282Y-12366122D02*
X10289806Y-12356598D01*
X10289806Y-12356598D02*
X10308853Y-12347074D01*
X10308853Y-12347074D02*
X10356472Y-12347074D01*
X10356472Y-12347074D02*
X10375520Y-12356598D01*
X10375520Y-12356598D02*
X10385044Y-12366122D01*
X10385044Y-12366122D02*
X10394568Y-12385169D01*
X10394568Y-12385169D02*
X10394568Y-12432788D01*
X10394568Y-12432788D02*
X10385044Y-12451836D01*
X10385044Y-12451836D02*
X10375520Y-12461360D01*
X10375520Y-12461360D02*
X10356472Y-12470884D01*
X10356472Y-12470884D02*
X10308853Y-12470884D01*
X10308853Y-12470884D02*
X10289806Y-12461360D01*
X10289806Y-12461360D02*
X10280282Y-12451836D01*
X10565996Y-12337550D02*
X10565996Y-12470884D01*
X10518377Y-12261360D02*
X10470758Y-12404217D01*
X10470758Y-12404217D02*
X10594568Y-12404217D01*
X10661234Y-12270884D02*
X10661234Y-12308979D01*
X10737425Y-12270884D02*
X10737425Y-12308979D01*
X11032663Y-12547074D02*
X11023139Y-12537550D01*
X11023139Y-12537550D02*
X11004091Y-12508979D01*
X11004091Y-12508979D02*
X10994568Y-12489931D01*
X10994568Y-12489931D02*
X10985044Y-12461360D01*
X10985044Y-12461360D02*
X10975520Y-12413741D01*
X10975520Y-12413741D02*
X10975520Y-12375646D01*
X10975520Y-12375646D02*
X10985044Y-12328027D01*
X10985044Y-12328027D02*
X10994568Y-12299455D01*
X10994568Y-12299455D02*
X11004091Y-12280408D01*
X11004091Y-12280408D02*
X11023139Y-12251836D01*
X11023139Y-12251836D02*
X11032663Y-12242312D01*
X11194568Y-12270884D02*
X11156472Y-12270884D01*
X11156472Y-12270884D02*
X11137425Y-12280408D01*
X11137425Y-12280408D02*
X11127901Y-12289931D01*
X11127901Y-12289931D02*
X11108853Y-12318503D01*
X11108853Y-12318503D02*
X11099330Y-12356598D01*
X11099330Y-12356598D02*
X11099330Y-12432788D01*
X11099330Y-12432788D02*
X11108853Y-12451836D01*
X11108853Y-12451836D02*
X11118377Y-12461360D01*
X11118377Y-12461360D02*
X11137425Y-12470884D01*
X11137425Y-12470884D02*
X11175520Y-12470884D01*
X11175520Y-12470884D02*
X11194568Y-12461360D01*
X11194568Y-12461360D02*
X11204091Y-12451836D01*
X11204091Y-12451836D02*
X11213615Y-12432788D01*
X11213615Y-12432788D02*
X11213615Y-12385169D01*
X11213615Y-12385169D02*
X11204091Y-12366122D01*
X11204091Y-12366122D02*
X11194568Y-12356598D01*
X11194568Y-12356598D02*
X11175520Y-12347074D01*
X11175520Y-12347074D02*
X11137425Y-12347074D01*
X11137425Y-12347074D02*
X11118377Y-12356598D01*
X11118377Y-12356598D02*
X11108853Y-12366122D01*
X11108853Y-12366122D02*
X11099330Y-12385169D01*
X11451710Y-12470884D02*
X11451710Y-12270884D01*
X11537425Y-12470884D02*
X11537425Y-12366122D01*
X11537425Y-12366122D02*
X11527901Y-12347074D01*
X11527901Y-12347074D02*
X11508853Y-12337550D01*
X11508853Y-12337550D02*
X11480282Y-12337550D01*
X11480282Y-12337550D02*
X11461234Y-12347074D01*
X11461234Y-12347074D02*
X11451710Y-12356598D01*
X11661234Y-12470884D02*
X11642187Y-12461360D01*
X11642187Y-12461360D02*
X11632663Y-12451836D01*
X11632663Y-12451836D02*
X11623139Y-12432788D01*
X11623139Y-12432788D02*
X11623139Y-12375646D01*
X11623139Y-12375646D02*
X11632663Y-12356598D01*
X11632663Y-12356598D02*
X11642187Y-12347074D01*
X11642187Y-12347074D02*
X11661234Y-12337550D01*
X11661234Y-12337550D02*
X11689806Y-12337550D01*
X11689806Y-12337550D02*
X11708853Y-12347074D01*
X11708853Y-12347074D02*
X11718377Y-12356598D01*
X11718377Y-12356598D02*
X11727901Y-12375646D01*
X11727901Y-12375646D02*
X11727901Y-12432788D01*
X11727901Y-12432788D02*
X11718377Y-12451836D01*
X11718377Y-12451836D02*
X11708853Y-12461360D01*
X11708853Y-12461360D02*
X11689806Y-12470884D01*
X11689806Y-12470884D02*
X11661234Y-12470884D01*
X11842187Y-12470884D02*
X11823139Y-12461360D01*
X11823139Y-12461360D02*
X11813615Y-12442312D01*
X11813615Y-12442312D02*
X11813615Y-12270884D01*
X11994568Y-12461360D02*
X11975520Y-12470884D01*
X11975520Y-12470884D02*
X11937425Y-12470884D01*
X11937425Y-12470884D02*
X11918377Y-12461360D01*
X11918377Y-12461360D02*
X11908853Y-12442312D01*
X11908853Y-12442312D02*
X11908853Y-12366122D01*
X11908853Y-12366122D02*
X11918377Y-12347074D01*
X11918377Y-12347074D02*
X11937425Y-12337550D01*
X11937425Y-12337550D02*
X11975520Y-12337550D01*
X11975520Y-12337550D02*
X11994568Y-12347074D01*
X11994568Y-12347074D02*
X12004091Y-12366122D01*
X12004091Y-12366122D02*
X12004091Y-12385169D01*
X12004091Y-12385169D02*
X11908853Y-12404217D01*
X12080282Y-12461360D02*
X12099330Y-12470884D01*
X12099330Y-12470884D02*
X12137425Y-12470884D01*
X12137425Y-12470884D02*
X12156472Y-12461360D01*
X12156472Y-12461360D02*
X12165996Y-12442312D01*
X12165996Y-12442312D02*
X12165996Y-12432788D01*
X12165996Y-12432788D02*
X12156472Y-12413741D01*
X12156472Y-12413741D02*
X12137425Y-12404217D01*
X12137425Y-12404217D02*
X12108853Y-12404217D01*
X12108853Y-12404217D02*
X12089806Y-12394693D01*
X12089806Y-12394693D02*
X12080282Y-12375646D01*
X12080282Y-12375646D02*
X12080282Y-12366122D01*
X12080282Y-12366122D02*
X12089806Y-12347074D01*
X12089806Y-12347074D02*
X12108853Y-12337550D01*
X12108853Y-12337550D02*
X12137425Y-12337550D01*
X12137425Y-12337550D02*
X12156472Y-12347074D01*
X12232663Y-12547074D02*
X12242187Y-12537550D01*
X12242187Y-12537550D02*
X12261234Y-12508979D01*
X12261234Y-12508979D02*
X12270758Y-12489931D01*
X12270758Y-12489931D02*
X12280282Y-12461360D01*
X12280282Y-12461360D02*
X12289806Y-12413741D01*
X12289806Y-12413741D02*
X12289806Y-12375646D01*
X12289806Y-12375646D02*
X12280282Y-12328027D01*
X12280282Y-12328027D02*
X12270758Y-12299455D01*
X12270758Y-12299455D02*
X12261234Y-12280408D01*
X12261234Y-12280408D02*
X12242187Y-12251836D01*
X12242187Y-12251836D02*
X12232663Y-12242312D01*
D11*
X7442956Y-12678756D02*
X7442956Y-12608044D01*
X7372244Y-12608044D01*
X7372244Y-12678756D01*
X7442956Y-12678756D01*
D10*
X7823139Y-12734884D02*
X7708853Y-12734884D01*
X7765996Y-12734884D02*
X7765996Y-12534884D01*
X7765996Y-12534884D02*
X7746948Y-12563455D01*
X7746948Y-12563455D02*
X7727901Y-12582503D01*
X7727901Y-12582503D02*
X7708853Y-12592027D01*
X7908853Y-12715836D02*
X7918377Y-12725360D01*
X7918377Y-12725360D02*
X7908853Y-12734884D01*
X7908853Y-12734884D02*
X7899329Y-12725360D01*
X7899329Y-12725360D02*
X7908853Y-12715836D01*
X7908853Y-12715836D02*
X7908853Y-12734884D01*
X8042186Y-12534884D02*
X8061234Y-12534884D01*
X8061234Y-12534884D02*
X8080282Y-12544408D01*
X8080282Y-12544408D02*
X8089805Y-12553931D01*
X8089805Y-12553931D02*
X8099329Y-12572979D01*
X8099329Y-12572979D02*
X8108853Y-12611074D01*
X8108853Y-12611074D02*
X8108853Y-12658693D01*
X8108853Y-12658693D02*
X8099329Y-12696788D01*
X8099329Y-12696788D02*
X8089805Y-12715836D01*
X8089805Y-12715836D02*
X8080282Y-12725360D01*
X8080282Y-12725360D02*
X8061234Y-12734884D01*
X8061234Y-12734884D02*
X8042186Y-12734884D01*
X8042186Y-12734884D02*
X8023139Y-12725360D01*
X8023139Y-12725360D02*
X8013615Y-12715836D01*
X8013615Y-12715836D02*
X8004091Y-12696788D01*
X8004091Y-12696788D02*
X7994567Y-12658693D01*
X7994567Y-12658693D02*
X7994567Y-12611074D01*
X7994567Y-12611074D02*
X8004091Y-12572979D01*
X8004091Y-12572979D02*
X8013615Y-12553931D01*
X8013615Y-12553931D02*
X8023139Y-12544408D01*
X8023139Y-12544408D02*
X8042186Y-12534884D01*
X8232662Y-12534884D02*
X8251710Y-12534884D01*
X8251710Y-12534884D02*
X8270758Y-12544408D01*
X8270758Y-12544408D02*
X8280282Y-12553931D01*
X8280282Y-12553931D02*
X8289805Y-12572979D01*
X8289805Y-12572979D02*
X8299329Y-12611074D01*
X8299329Y-12611074D02*
X8299329Y-12658693D01*
X8299329Y-12658693D02*
X8289805Y-12696788D01*
X8289805Y-12696788D02*
X8280282Y-12715836D01*
X8280282Y-12715836D02*
X8270758Y-12725360D01*
X8270758Y-12725360D02*
X8251710Y-12734884D01*
X8251710Y-12734884D02*
X8232662Y-12734884D01*
X8232662Y-12734884D02*
X8213615Y-12725360D01*
X8213615Y-12725360D02*
X8204091Y-12715836D01*
X8204091Y-12715836D02*
X8194567Y-12696788D01*
X8194567Y-12696788D02*
X8185043Y-12658693D01*
X8185043Y-12658693D02*
X8185043Y-12611074D01*
X8185043Y-12611074D02*
X8194567Y-12572979D01*
X8194567Y-12572979D02*
X8204091Y-12553931D01*
X8204091Y-12553931D02*
X8213615Y-12544408D01*
X8213615Y-12544408D02*
X8232662Y-12534884D01*
X8423139Y-12534884D02*
X8442186Y-12534884D01*
X8442186Y-12534884D02*
X8461234Y-12544408D01*
X8461234Y-12544408D02*
X8470758Y-12553931D01*
X8470758Y-12553931D02*
X8480282Y-12572979D01*
X8480282Y-12572979D02*
X8489805Y-12611074D01*
X8489805Y-12611074D02*
X8489805Y-12658693D01*
X8489805Y-12658693D02*
X8480282Y-12696788D01*
X8480282Y-12696788D02*
X8470758Y-12715836D01*
X8470758Y-12715836D02*
X8461234Y-12725360D01*
X8461234Y-12725360D02*
X8442186Y-12734884D01*
X8442186Y-12734884D02*
X8423139Y-12734884D01*
X8423139Y-12734884D02*
X8404091Y-12725360D01*
X8404091Y-12725360D02*
X8394567Y-12715836D01*
X8394567Y-12715836D02*
X8385043Y-12696788D01*
X8385043Y-12696788D02*
X8375520Y-12658693D01*
X8375520Y-12658693D02*
X8375520Y-12611074D01*
X8375520Y-12611074D02*
X8385043Y-12572979D01*
X8385043Y-12572979D02*
X8394567Y-12553931D01*
X8394567Y-12553931D02*
X8404091Y-12544408D01*
X8404091Y-12544408D02*
X8423139Y-12534884D01*
X8575520Y-12734884D02*
X8575520Y-12601550D01*
X8575520Y-12620598D02*
X8585044Y-12611074D01*
X8585044Y-12611074D02*
X8604091Y-12601550D01*
X8604091Y-12601550D02*
X8632663Y-12601550D01*
X8632663Y-12601550D02*
X8651710Y-12611074D01*
X8651710Y-12611074D02*
X8661234Y-12630122D01*
X8661234Y-12630122D02*
X8661234Y-12734884D01*
X8661234Y-12630122D02*
X8670758Y-12611074D01*
X8670758Y-12611074D02*
X8689805Y-12601550D01*
X8689805Y-12601550D02*
X8718377Y-12601550D01*
X8718377Y-12601550D02*
X8737425Y-12611074D01*
X8737425Y-12611074D02*
X8746948Y-12630122D01*
X8746948Y-12630122D02*
X8746948Y-12734884D01*
X8842186Y-12734884D02*
X8842186Y-12601550D01*
X8842186Y-12620598D02*
X8851710Y-12611074D01*
X8851710Y-12611074D02*
X8870758Y-12601550D01*
X8870758Y-12601550D02*
X8899329Y-12601550D01*
X8899329Y-12601550D02*
X8918377Y-12611074D01*
X8918377Y-12611074D02*
X8927901Y-12630122D01*
X8927901Y-12630122D02*
X8927901Y-12734884D01*
X8927901Y-12630122D02*
X8937425Y-12611074D01*
X8937425Y-12611074D02*
X8956472Y-12601550D01*
X8956472Y-12601550D02*
X8985044Y-12601550D01*
X8985044Y-12601550D02*
X9004091Y-12611074D01*
X9004091Y-12611074D02*
X9013615Y-12630122D01*
X9013615Y-12630122D02*
X9013615Y-12734884D01*
X9404091Y-12525360D02*
X9232663Y-12782503D01*
X9661234Y-12534884D02*
X9680282Y-12534884D01*
X9680282Y-12534884D02*
X9699329Y-12544408D01*
X9699329Y-12544408D02*
X9708853Y-12553931D01*
X9708853Y-12553931D02*
X9718377Y-12572979D01*
X9718377Y-12572979D02*
X9727901Y-12611074D01*
X9727901Y-12611074D02*
X9727901Y-12658693D01*
X9727901Y-12658693D02*
X9718377Y-12696788D01*
X9718377Y-12696788D02*
X9708853Y-12715836D01*
X9708853Y-12715836D02*
X9699329Y-12725360D01*
X9699329Y-12725360D02*
X9680282Y-12734884D01*
X9680282Y-12734884D02*
X9661234Y-12734884D01*
X9661234Y-12734884D02*
X9642187Y-12725360D01*
X9642187Y-12725360D02*
X9632663Y-12715836D01*
X9632663Y-12715836D02*
X9623139Y-12696788D01*
X9623139Y-12696788D02*
X9613615Y-12658693D01*
X9613615Y-12658693D02*
X9613615Y-12611074D01*
X9613615Y-12611074D02*
X9623139Y-12572979D01*
X9623139Y-12572979D02*
X9632663Y-12553931D01*
X9632663Y-12553931D02*
X9642187Y-12544408D01*
X9642187Y-12544408D02*
X9661234Y-12534884D01*
X9813615Y-12715836D02*
X9823139Y-12725360D01*
X9823139Y-12725360D02*
X9813615Y-12734884D01*
X9813615Y-12734884D02*
X9804091Y-12725360D01*
X9804091Y-12725360D02*
X9813615Y-12715836D01*
X9813615Y-12715836D02*
X9813615Y-12734884D01*
X9946948Y-12534884D02*
X9965996Y-12534884D01*
X9965996Y-12534884D02*
X9985044Y-12544408D01*
X9985044Y-12544408D02*
X9994568Y-12553931D01*
X9994568Y-12553931D02*
X10004091Y-12572979D01*
X10004091Y-12572979D02*
X10013615Y-12611074D01*
X10013615Y-12611074D02*
X10013615Y-12658693D01*
X10013615Y-12658693D02*
X10004091Y-12696788D01*
X10004091Y-12696788D02*
X9994568Y-12715836D01*
X9994568Y-12715836D02*
X9985044Y-12725360D01*
X9985044Y-12725360D02*
X9965996Y-12734884D01*
X9965996Y-12734884D02*
X9946948Y-12734884D01*
X9946948Y-12734884D02*
X9927901Y-12725360D01*
X9927901Y-12725360D02*
X9918377Y-12715836D01*
X9918377Y-12715836D02*
X9908853Y-12696788D01*
X9908853Y-12696788D02*
X9899329Y-12658693D01*
X9899329Y-12658693D02*
X9899329Y-12611074D01*
X9899329Y-12611074D02*
X9908853Y-12572979D01*
X9908853Y-12572979D02*
X9918377Y-12553931D01*
X9918377Y-12553931D02*
X9927901Y-12544408D01*
X9927901Y-12544408D02*
X9946948Y-12534884D01*
X10080282Y-12534884D02*
X10204091Y-12534884D01*
X10204091Y-12534884D02*
X10137425Y-12611074D01*
X10137425Y-12611074D02*
X10165996Y-12611074D01*
X10165996Y-12611074D02*
X10185044Y-12620598D01*
X10185044Y-12620598D02*
X10194568Y-12630122D01*
X10194568Y-12630122D02*
X10204091Y-12649169D01*
X10204091Y-12649169D02*
X10204091Y-12696788D01*
X10204091Y-12696788D02*
X10194568Y-12715836D01*
X10194568Y-12715836D02*
X10185044Y-12725360D01*
X10185044Y-12725360D02*
X10165996Y-12734884D01*
X10165996Y-12734884D02*
X10108853Y-12734884D01*
X10108853Y-12734884D02*
X10089806Y-12725360D01*
X10089806Y-12725360D02*
X10080282Y-12715836D01*
X10299329Y-12734884D02*
X10337425Y-12734884D01*
X10337425Y-12734884D02*
X10356472Y-12725360D01*
X10356472Y-12725360D02*
X10365996Y-12715836D01*
X10365996Y-12715836D02*
X10385044Y-12687265D01*
X10385044Y-12687265D02*
X10394568Y-12649169D01*
X10394568Y-12649169D02*
X10394568Y-12572979D01*
X10394568Y-12572979D02*
X10385044Y-12553931D01*
X10385044Y-12553931D02*
X10375520Y-12544408D01*
X10375520Y-12544408D02*
X10356472Y-12534884D01*
X10356472Y-12534884D02*
X10318377Y-12534884D01*
X10318377Y-12534884D02*
X10299329Y-12544408D01*
X10299329Y-12544408D02*
X10289806Y-12553931D01*
X10289806Y-12553931D02*
X10280282Y-12572979D01*
X10280282Y-12572979D02*
X10280282Y-12620598D01*
X10280282Y-12620598D02*
X10289806Y-12639646D01*
X10289806Y-12639646D02*
X10299329Y-12649169D01*
X10299329Y-12649169D02*
X10318377Y-12658693D01*
X10318377Y-12658693D02*
X10356472Y-12658693D01*
X10356472Y-12658693D02*
X10375520Y-12649169D01*
X10375520Y-12649169D02*
X10385044Y-12639646D01*
X10385044Y-12639646D02*
X10394568Y-12620598D01*
X10565996Y-12601550D02*
X10565996Y-12734884D01*
X10518377Y-12525360D02*
X10470758Y-12668217D01*
X10470758Y-12668217D02*
X10594568Y-12668217D01*
X10661234Y-12534884D02*
X10661234Y-12572979D01*
X10737425Y-12534884D02*
X10737425Y-12572979D01*
X11032663Y-12811074D02*
X11023139Y-12801550D01*
X11023139Y-12801550D02*
X11004091Y-12772979D01*
X11004091Y-12772979D02*
X10994568Y-12753931D01*
X10994568Y-12753931D02*
X10985044Y-12725360D01*
X10985044Y-12725360D02*
X10975520Y-12677741D01*
X10975520Y-12677741D02*
X10975520Y-12639646D01*
X10975520Y-12639646D02*
X10985044Y-12592027D01*
X10985044Y-12592027D02*
X10994568Y-12563455D01*
X10994568Y-12563455D02*
X11004091Y-12544408D01*
X11004091Y-12544408D02*
X11023139Y-12515836D01*
X11023139Y-12515836D02*
X11032663Y-12506312D01*
X11213615Y-12734884D02*
X11099330Y-12734884D01*
X11156472Y-12734884D02*
X11156472Y-12534884D01*
X11156472Y-12534884D02*
X11137425Y-12563455D01*
X11137425Y-12563455D02*
X11118377Y-12582503D01*
X11118377Y-12582503D02*
X11099330Y-12592027D01*
X11394568Y-12534884D02*
X11299329Y-12534884D01*
X11299329Y-12534884D02*
X11289806Y-12630122D01*
X11289806Y-12630122D02*
X11299329Y-12620598D01*
X11299329Y-12620598D02*
X11318377Y-12611074D01*
X11318377Y-12611074D02*
X11365996Y-12611074D01*
X11365996Y-12611074D02*
X11385044Y-12620598D01*
X11385044Y-12620598D02*
X11394568Y-12630122D01*
X11394568Y-12630122D02*
X11404091Y-12649169D01*
X11404091Y-12649169D02*
X11404091Y-12696788D01*
X11404091Y-12696788D02*
X11394568Y-12715836D01*
X11394568Y-12715836D02*
X11385044Y-12725360D01*
X11385044Y-12725360D02*
X11365996Y-12734884D01*
X11365996Y-12734884D02*
X11318377Y-12734884D01*
X11318377Y-12734884D02*
X11299329Y-12725360D01*
X11299329Y-12725360D02*
X11289806Y-12715836D01*
X11642187Y-12734884D02*
X11642187Y-12534884D01*
X11727901Y-12734884D02*
X11727901Y-12630122D01*
X11727901Y-12630122D02*
X11718377Y-12611074D01*
X11718377Y-12611074D02*
X11699330Y-12601550D01*
X11699330Y-12601550D02*
X11670758Y-12601550D01*
X11670758Y-12601550D02*
X11651710Y-12611074D01*
X11651710Y-12611074D02*
X11642187Y-12620598D01*
X11851710Y-12734884D02*
X11832663Y-12725360D01*
X11832663Y-12725360D02*
X11823139Y-12715836D01*
X11823139Y-12715836D02*
X11813615Y-12696788D01*
X11813615Y-12696788D02*
X11813615Y-12639646D01*
X11813615Y-12639646D02*
X11823139Y-12620598D01*
X11823139Y-12620598D02*
X11832663Y-12611074D01*
X11832663Y-12611074D02*
X11851710Y-12601550D01*
X11851710Y-12601550D02*
X11880282Y-12601550D01*
X11880282Y-12601550D02*
X11899330Y-12611074D01*
X11899330Y-12611074D02*
X11908853Y-12620598D01*
X11908853Y-12620598D02*
X11918377Y-12639646D01*
X11918377Y-12639646D02*
X11918377Y-12696788D01*
X11918377Y-12696788D02*
X11908853Y-12715836D01*
X11908853Y-12715836D02*
X11899330Y-12725360D01*
X11899330Y-12725360D02*
X11880282Y-12734884D01*
X11880282Y-12734884D02*
X11851710Y-12734884D01*
X12032663Y-12734884D02*
X12013615Y-12725360D01*
X12013615Y-12725360D02*
X12004091Y-12706312D01*
X12004091Y-12706312D02*
X12004091Y-12534884D01*
X12185044Y-12725360D02*
X12165996Y-12734884D01*
X12165996Y-12734884D02*
X12127901Y-12734884D01*
X12127901Y-12734884D02*
X12108853Y-12725360D01*
X12108853Y-12725360D02*
X12099330Y-12706312D01*
X12099330Y-12706312D02*
X12099330Y-12630122D01*
X12099330Y-12630122D02*
X12108853Y-12611074D01*
X12108853Y-12611074D02*
X12127901Y-12601550D01*
X12127901Y-12601550D02*
X12165996Y-12601550D01*
X12165996Y-12601550D02*
X12185044Y-12611074D01*
X12185044Y-12611074D02*
X12194568Y-12630122D01*
X12194568Y-12630122D02*
X12194568Y-12649169D01*
X12194568Y-12649169D02*
X12099330Y-12668217D01*
X12270758Y-12725360D02*
X12289806Y-12734884D01*
X12289806Y-12734884D02*
X12327901Y-12734884D01*
X12327901Y-12734884D02*
X12346949Y-12725360D01*
X12346949Y-12725360D02*
X12356472Y-12706312D01*
X12356472Y-12706312D02*
X12356472Y-12696788D01*
X12356472Y-12696788D02*
X12346949Y-12677741D01*
X12346949Y-12677741D02*
X12327901Y-12668217D01*
X12327901Y-12668217D02*
X12299330Y-12668217D01*
X12299330Y-12668217D02*
X12280282Y-12658693D01*
X12280282Y-12658693D02*
X12270758Y-12639646D01*
X12270758Y-12639646D02*
X12270758Y-12630122D01*
X12270758Y-12630122D02*
X12280282Y-12611074D01*
X12280282Y-12611074D02*
X12299330Y-12601550D01*
X12299330Y-12601550D02*
X12327901Y-12601550D01*
X12327901Y-12601550D02*
X12346949Y-12611074D01*
X12423139Y-12811074D02*
X12432663Y-12801550D01*
X12432663Y-12801550D02*
X12451711Y-12772979D01*
X12451711Y-12772979D02*
X12461234Y-12753931D01*
X12461234Y-12753931D02*
X12470758Y-12725360D01*
X12470758Y-12725360D02*
X12480282Y-12677741D01*
X12480282Y-12677741D02*
X12480282Y-12639646D01*
X12480282Y-12639646D02*
X12470758Y-12592027D01*
X12470758Y-12592027D02*
X12461234Y-12563455D01*
X12461234Y-12563455D02*
X12451711Y-12544408D01*
X12451711Y-12544408D02*
X12432663Y-12515836D01*
X12432663Y-12515836D02*
X12423139Y-12506312D01*
D12*
X7402600Y-12962400D02*
X7457600Y-12907400D01*
X7402600Y-12852400D01*
X7347600Y-12907400D01*
X7402600Y-12962400D01*
D10*
X7823139Y-12998884D02*
X7708853Y-12998884D01*
X7765996Y-12998884D02*
X7765996Y-12798884D01*
X7765996Y-12798884D02*
X7746948Y-12827455D01*
X7746948Y-12827455D02*
X7727901Y-12846503D01*
X7727901Y-12846503D02*
X7708853Y-12856027D01*
X7908853Y-12979836D02*
X7918377Y-12989360D01*
X7918377Y-12989360D02*
X7908853Y-12998884D01*
X7908853Y-12998884D02*
X7899329Y-12989360D01*
X7899329Y-12989360D02*
X7908853Y-12979836D01*
X7908853Y-12979836D02*
X7908853Y-12998884D01*
X8108853Y-12998884D02*
X7994567Y-12998884D01*
X8051710Y-12998884D02*
X8051710Y-12798884D01*
X8051710Y-12798884D02*
X8032662Y-12827455D01*
X8032662Y-12827455D02*
X8013615Y-12846503D01*
X8013615Y-12846503D02*
X7994567Y-12856027D01*
X8232662Y-12798884D02*
X8251710Y-12798884D01*
X8251710Y-12798884D02*
X8270758Y-12808408D01*
X8270758Y-12808408D02*
X8280282Y-12817931D01*
X8280282Y-12817931D02*
X8289805Y-12836979D01*
X8289805Y-12836979D02*
X8299329Y-12875074D01*
X8299329Y-12875074D02*
X8299329Y-12922693D01*
X8299329Y-12922693D02*
X8289805Y-12960788D01*
X8289805Y-12960788D02*
X8280282Y-12979836D01*
X8280282Y-12979836D02*
X8270758Y-12989360D01*
X8270758Y-12989360D02*
X8251710Y-12998884D01*
X8251710Y-12998884D02*
X8232662Y-12998884D01*
X8232662Y-12998884D02*
X8213615Y-12989360D01*
X8213615Y-12989360D02*
X8204091Y-12979836D01*
X8204091Y-12979836D02*
X8194567Y-12960788D01*
X8194567Y-12960788D02*
X8185043Y-12922693D01*
X8185043Y-12922693D02*
X8185043Y-12875074D01*
X8185043Y-12875074D02*
X8194567Y-12836979D01*
X8194567Y-12836979D02*
X8204091Y-12817931D01*
X8204091Y-12817931D02*
X8213615Y-12808408D01*
X8213615Y-12808408D02*
X8232662Y-12798884D01*
X8423139Y-12798884D02*
X8442186Y-12798884D01*
X8442186Y-12798884D02*
X8461234Y-12808408D01*
X8461234Y-12808408D02*
X8470758Y-12817931D01*
X8470758Y-12817931D02*
X8480282Y-12836979D01*
X8480282Y-12836979D02*
X8489805Y-12875074D01*
X8489805Y-12875074D02*
X8489805Y-12922693D01*
X8489805Y-12922693D02*
X8480282Y-12960788D01*
X8480282Y-12960788D02*
X8470758Y-12979836D01*
X8470758Y-12979836D02*
X8461234Y-12989360D01*
X8461234Y-12989360D02*
X8442186Y-12998884D01*
X8442186Y-12998884D02*
X8423139Y-12998884D01*
X8423139Y-12998884D02*
X8404091Y-12989360D01*
X8404091Y-12989360D02*
X8394567Y-12979836D01*
X8394567Y-12979836D02*
X8385043Y-12960788D01*
X8385043Y-12960788D02*
X8375520Y-12922693D01*
X8375520Y-12922693D02*
X8375520Y-12875074D01*
X8375520Y-12875074D02*
X8385043Y-12836979D01*
X8385043Y-12836979D02*
X8394567Y-12817931D01*
X8394567Y-12817931D02*
X8404091Y-12808408D01*
X8404091Y-12808408D02*
X8423139Y-12798884D01*
X8575520Y-12998884D02*
X8575520Y-12865550D01*
X8575520Y-12884598D02*
X8585044Y-12875074D01*
X8585044Y-12875074D02*
X8604091Y-12865550D01*
X8604091Y-12865550D02*
X8632663Y-12865550D01*
X8632663Y-12865550D02*
X8651710Y-12875074D01*
X8651710Y-12875074D02*
X8661234Y-12894122D01*
X8661234Y-12894122D02*
X8661234Y-12998884D01*
X8661234Y-12894122D02*
X8670758Y-12875074D01*
X8670758Y-12875074D02*
X8689805Y-12865550D01*
X8689805Y-12865550D02*
X8718377Y-12865550D01*
X8718377Y-12865550D02*
X8737425Y-12875074D01*
X8737425Y-12875074D02*
X8746948Y-12894122D01*
X8746948Y-12894122D02*
X8746948Y-12998884D01*
X8842186Y-12998884D02*
X8842186Y-12865550D01*
X8842186Y-12884598D02*
X8851710Y-12875074D01*
X8851710Y-12875074D02*
X8870758Y-12865550D01*
X8870758Y-12865550D02*
X8899329Y-12865550D01*
X8899329Y-12865550D02*
X8918377Y-12875074D01*
X8918377Y-12875074D02*
X8927901Y-12894122D01*
X8927901Y-12894122D02*
X8927901Y-12998884D01*
X8927901Y-12894122D02*
X8937425Y-12875074D01*
X8937425Y-12875074D02*
X8956472Y-12865550D01*
X8956472Y-12865550D02*
X8985044Y-12865550D01*
X8985044Y-12865550D02*
X9004091Y-12875074D01*
X9004091Y-12875074D02*
X9013615Y-12894122D01*
X9013615Y-12894122D02*
X9013615Y-12998884D01*
X9404091Y-12789360D02*
X9232663Y-13046503D01*
X9661234Y-12798884D02*
X9680282Y-12798884D01*
X9680282Y-12798884D02*
X9699329Y-12808408D01*
X9699329Y-12808408D02*
X9708853Y-12817931D01*
X9708853Y-12817931D02*
X9718377Y-12836979D01*
X9718377Y-12836979D02*
X9727901Y-12875074D01*
X9727901Y-12875074D02*
X9727901Y-12922693D01*
X9727901Y-12922693D02*
X9718377Y-12960788D01*
X9718377Y-12960788D02*
X9708853Y-12979836D01*
X9708853Y-12979836D02*
X9699329Y-12989360D01*
X9699329Y-12989360D02*
X9680282Y-12998884D01*
X9680282Y-12998884D02*
X9661234Y-12998884D01*
X9661234Y-12998884D02*
X9642187Y-12989360D01*
X9642187Y-12989360D02*
X9632663Y-12979836D01*
X9632663Y-12979836D02*
X9623139Y-12960788D01*
X9623139Y-12960788D02*
X9613615Y-12922693D01*
X9613615Y-12922693D02*
X9613615Y-12875074D01*
X9613615Y-12875074D02*
X9623139Y-12836979D01*
X9623139Y-12836979D02*
X9632663Y-12817931D01*
X9632663Y-12817931D02*
X9642187Y-12808408D01*
X9642187Y-12808408D02*
X9661234Y-12798884D01*
X9813615Y-12979836D02*
X9823139Y-12989360D01*
X9823139Y-12989360D02*
X9813615Y-12998884D01*
X9813615Y-12998884D02*
X9804091Y-12989360D01*
X9804091Y-12989360D02*
X9813615Y-12979836D01*
X9813615Y-12979836D02*
X9813615Y-12998884D01*
X9946948Y-12798884D02*
X9965996Y-12798884D01*
X9965996Y-12798884D02*
X9985044Y-12808408D01*
X9985044Y-12808408D02*
X9994568Y-12817931D01*
X9994568Y-12817931D02*
X10004091Y-12836979D01*
X10004091Y-12836979D02*
X10013615Y-12875074D01*
X10013615Y-12875074D02*
X10013615Y-12922693D01*
X10013615Y-12922693D02*
X10004091Y-12960788D01*
X10004091Y-12960788D02*
X9994568Y-12979836D01*
X9994568Y-12979836D02*
X9985044Y-12989360D01*
X9985044Y-12989360D02*
X9965996Y-12998884D01*
X9965996Y-12998884D02*
X9946948Y-12998884D01*
X9946948Y-12998884D02*
X9927901Y-12989360D01*
X9927901Y-12989360D02*
X9918377Y-12979836D01*
X9918377Y-12979836D02*
X9908853Y-12960788D01*
X9908853Y-12960788D02*
X9899329Y-12922693D01*
X9899329Y-12922693D02*
X9899329Y-12875074D01*
X9899329Y-12875074D02*
X9908853Y-12836979D01*
X9908853Y-12836979D02*
X9918377Y-12817931D01*
X9918377Y-12817931D02*
X9927901Y-12808408D01*
X9927901Y-12808408D02*
X9946948Y-12798884D01*
X10185044Y-12865550D02*
X10185044Y-12998884D01*
X10137425Y-12789360D02*
X10089806Y-12932217D01*
X10089806Y-12932217D02*
X10213615Y-12932217D01*
X10270758Y-12798884D02*
X10394568Y-12798884D01*
X10394568Y-12798884D02*
X10327901Y-12875074D01*
X10327901Y-12875074D02*
X10356472Y-12875074D01*
X10356472Y-12875074D02*
X10375520Y-12884598D01*
X10375520Y-12884598D02*
X10385044Y-12894122D01*
X10385044Y-12894122D02*
X10394568Y-12913169D01*
X10394568Y-12913169D02*
X10394568Y-12960788D01*
X10394568Y-12960788D02*
X10385044Y-12979836D01*
X10385044Y-12979836D02*
X10375520Y-12989360D01*
X10375520Y-12989360D02*
X10356472Y-12998884D01*
X10356472Y-12998884D02*
X10299329Y-12998884D01*
X10299329Y-12998884D02*
X10280282Y-12989360D01*
X10280282Y-12989360D02*
X10270758Y-12979836D01*
X10461234Y-12798884D02*
X10585044Y-12798884D01*
X10585044Y-12798884D02*
X10518377Y-12875074D01*
X10518377Y-12875074D02*
X10546949Y-12875074D01*
X10546949Y-12875074D02*
X10565996Y-12884598D01*
X10565996Y-12884598D02*
X10575520Y-12894122D01*
X10575520Y-12894122D02*
X10585044Y-12913169D01*
X10585044Y-12913169D02*
X10585044Y-12960788D01*
X10585044Y-12960788D02*
X10575520Y-12979836D01*
X10575520Y-12979836D02*
X10565996Y-12989360D01*
X10565996Y-12989360D02*
X10546949Y-12998884D01*
X10546949Y-12998884D02*
X10489806Y-12998884D01*
X10489806Y-12998884D02*
X10470758Y-12989360D01*
X10470758Y-12989360D02*
X10461234Y-12979836D01*
X10661234Y-12798884D02*
X10661234Y-12836979D01*
X10737425Y-12798884D02*
X10737425Y-12836979D01*
X11032663Y-13075074D02*
X11023139Y-13065550D01*
X11023139Y-13065550D02*
X11004091Y-13036979D01*
X11004091Y-13036979D02*
X10994568Y-13017931D01*
X10994568Y-13017931D02*
X10985044Y-12989360D01*
X10985044Y-12989360D02*
X10975520Y-12941741D01*
X10975520Y-12941741D02*
X10975520Y-12903646D01*
X10975520Y-12903646D02*
X10985044Y-12856027D01*
X10985044Y-12856027D02*
X10994568Y-12827455D01*
X10994568Y-12827455D02*
X11004091Y-12808408D01*
X11004091Y-12808408D02*
X11023139Y-12779836D01*
X11023139Y-12779836D02*
X11032663Y-12770312D01*
X11213615Y-12998884D02*
X11099330Y-12998884D01*
X11156472Y-12998884D02*
X11156472Y-12798884D01*
X11156472Y-12798884D02*
X11137425Y-12827455D01*
X11137425Y-12827455D02*
X11118377Y-12846503D01*
X11118377Y-12846503D02*
X11099330Y-12856027D01*
X11327901Y-12884598D02*
X11308853Y-12875074D01*
X11308853Y-12875074D02*
X11299329Y-12865550D01*
X11299329Y-12865550D02*
X11289806Y-12846503D01*
X11289806Y-12846503D02*
X11289806Y-12836979D01*
X11289806Y-12836979D02*
X11299329Y-12817931D01*
X11299329Y-12817931D02*
X11308853Y-12808408D01*
X11308853Y-12808408D02*
X11327901Y-12798884D01*
X11327901Y-12798884D02*
X11365996Y-12798884D01*
X11365996Y-12798884D02*
X11385044Y-12808408D01*
X11385044Y-12808408D02*
X11394568Y-12817931D01*
X11394568Y-12817931D02*
X11404091Y-12836979D01*
X11404091Y-12836979D02*
X11404091Y-12846503D01*
X11404091Y-12846503D02*
X11394568Y-12865550D01*
X11394568Y-12865550D02*
X11385044Y-12875074D01*
X11385044Y-12875074D02*
X11365996Y-12884598D01*
X11365996Y-12884598D02*
X11327901Y-12884598D01*
X11327901Y-12884598D02*
X11308853Y-12894122D01*
X11308853Y-12894122D02*
X11299329Y-12903646D01*
X11299329Y-12903646D02*
X11289806Y-12922693D01*
X11289806Y-12922693D02*
X11289806Y-12960788D01*
X11289806Y-12960788D02*
X11299329Y-12979836D01*
X11299329Y-12979836D02*
X11308853Y-12989360D01*
X11308853Y-12989360D02*
X11327901Y-12998884D01*
X11327901Y-12998884D02*
X11365996Y-12998884D01*
X11365996Y-12998884D02*
X11385044Y-12989360D01*
X11385044Y-12989360D02*
X11394568Y-12979836D01*
X11394568Y-12979836D02*
X11404091Y-12960788D01*
X11404091Y-12960788D02*
X11404091Y-12922693D01*
X11404091Y-12922693D02*
X11394568Y-12903646D01*
X11394568Y-12903646D02*
X11385044Y-12894122D01*
X11385044Y-12894122D02*
X11365996Y-12884598D01*
X11642187Y-12998884D02*
X11642187Y-12798884D01*
X11727901Y-12998884D02*
X11727901Y-12894122D01*
X11727901Y-12894122D02*
X11718377Y-12875074D01*
X11718377Y-12875074D02*
X11699330Y-12865550D01*
X11699330Y-12865550D02*
X11670758Y-12865550D01*
X11670758Y-12865550D02*
X11651710Y-12875074D01*
X11651710Y-12875074D02*
X11642187Y-12884598D01*
X11851710Y-12998884D02*
X11832663Y-12989360D01*
X11832663Y-12989360D02*
X11823139Y-12979836D01*
X11823139Y-12979836D02*
X11813615Y-12960788D01*
X11813615Y-12960788D02*
X11813615Y-12903646D01*
X11813615Y-12903646D02*
X11823139Y-12884598D01*
X11823139Y-12884598D02*
X11832663Y-12875074D01*
X11832663Y-12875074D02*
X11851710Y-12865550D01*
X11851710Y-12865550D02*
X11880282Y-12865550D01*
X11880282Y-12865550D02*
X11899330Y-12875074D01*
X11899330Y-12875074D02*
X11908853Y-12884598D01*
X11908853Y-12884598D02*
X11918377Y-12903646D01*
X11918377Y-12903646D02*
X11918377Y-12960788D01*
X11918377Y-12960788D02*
X11908853Y-12979836D01*
X11908853Y-12979836D02*
X11899330Y-12989360D01*
X11899330Y-12989360D02*
X11880282Y-12998884D01*
X11880282Y-12998884D02*
X11851710Y-12998884D01*
X12032663Y-12998884D02*
X12013615Y-12989360D01*
X12013615Y-12989360D02*
X12004091Y-12970312D01*
X12004091Y-12970312D02*
X12004091Y-12798884D01*
X12185044Y-12989360D02*
X12165996Y-12998884D01*
X12165996Y-12998884D02*
X12127901Y-12998884D01*
X12127901Y-12998884D02*
X12108853Y-12989360D01*
X12108853Y-12989360D02*
X12099330Y-12970312D01*
X12099330Y-12970312D02*
X12099330Y-12894122D01*
X12099330Y-12894122D02*
X12108853Y-12875074D01*
X12108853Y-12875074D02*
X12127901Y-12865550D01*
X12127901Y-12865550D02*
X12165996Y-12865550D01*
X12165996Y-12865550D02*
X12185044Y-12875074D01*
X12185044Y-12875074D02*
X12194568Y-12894122D01*
X12194568Y-12894122D02*
X12194568Y-12913169D01*
X12194568Y-12913169D02*
X12099330Y-12932217D01*
X12270758Y-12989360D02*
X12289806Y-12998884D01*
X12289806Y-12998884D02*
X12327901Y-12998884D01*
X12327901Y-12998884D02*
X12346949Y-12989360D01*
X12346949Y-12989360D02*
X12356472Y-12970312D01*
X12356472Y-12970312D02*
X12356472Y-12960788D01*
X12356472Y-12960788D02*
X12346949Y-12941741D01*
X12346949Y-12941741D02*
X12327901Y-12932217D01*
X12327901Y-12932217D02*
X12299330Y-12932217D01*
X12299330Y-12932217D02*
X12280282Y-12922693D01*
X12280282Y-12922693D02*
X12270758Y-12903646D01*
X12270758Y-12903646D02*
X12270758Y-12894122D01*
X12270758Y-12894122D02*
X12280282Y-12875074D01*
X12280282Y-12875074D02*
X12299330Y-12865550D01*
X12299330Y-12865550D02*
X12327901Y-12865550D01*
X12327901Y-12865550D02*
X12346949Y-12875074D01*
X12423139Y-13075074D02*
X12432663Y-13065550D01*
X12432663Y-13065550D02*
X12451711Y-13036979D01*
X12451711Y-13036979D02*
X12461234Y-13017931D01*
X12461234Y-13017931D02*
X12470758Y-12989360D01*
X12470758Y-12989360D02*
X12480282Y-12941741D01*
X12480282Y-12941741D02*
X12480282Y-12903646D01*
X12480282Y-12903646D02*
X12470758Y-12856027D01*
X12470758Y-12856027D02*
X12461234Y-12827455D01*
X12461234Y-12827455D02*
X12451711Y-12808408D01*
X12451711Y-12808408D02*
X12432663Y-12779836D01*
X12432663Y-12779836D02*
X12423139Y-12770312D01*
M02*
