M48
; DRILL file {KiCad 8.0.6} date 2024-11-19T15:42:54-0500
; FORMAT={-:-/ absolute / inch / decimal}
; #@! TF.CreationDate,2024-11-19T15:42:54-05:00
; #@! TF.GenerationSoftware,Kicad,Pcbnew,8.0.6
; #@! TF.FileFunction,Plated,1,2,PTH
FMAT,2
INCH
; #@! TA.AperFunction,Plated,PTH,ViaDrill
T1C0.0157
; #@! TA.AperFunction,Plated,PTH,ComponentDrill
T2C0.0315
; #@! TA.AperFunction,Plated,PTH,ComponentDrill
T3C0.0354
; #@! TA.AperFunction,Plated,PTH,ComponentDrill
T4C0.0394
; #@! TA.AperFunction,Plated,PTH,ComponentDrill
T5C0.0433
%
G90
G05
T1
X3.8072Y-3.98
X6.11Y-3.25
T2
X4.53Y-3.2
X4.53Y-3.3
X4.53Y-3.4
X4.53Y-3.5
X4.53Y-3.6
X4.53Y-3.7
X4.53Y-3.8
X4.53Y-3.9
X4.53Y-4.0
X4.53Y-4.1
X4.63Y-3.2
X4.63Y-3.3
X4.63Y-3.4
X4.63Y-3.5
X4.63Y-3.6
X4.63Y-3.7
X4.63Y-3.8
X4.63Y-3.9
X4.63Y-4.0
X4.63Y-4.1
X5.53Y-3.2
X5.53Y-3.3
X5.53Y-3.4
X5.53Y-3.5
X5.53Y-3.6
X5.53Y-3.7
X5.53Y-3.8
X5.53Y-3.9
X5.53Y-4.0
X5.53Y-4.1
X5.63Y-3.2
X5.63Y-3.3
X5.63Y-3.4
X5.63Y-3.5
X5.63Y-3.6
X5.63Y-3.7
X5.63Y-3.8
X5.63Y-3.9
X5.63Y-4.0
X5.63Y-4.1
X6.05Y-3.63
X6.0516Y-4.16
X6.1484Y-3.63
X6.15Y-4.16
T3
X3.03Y-4.185
X3.13Y-4.185
X3.35Y-4.185
X3.45Y-4.185
X3.66Y-4.185
X3.76Y-4.185
T4
X3.07Y-3.8
X3.07Y-3.9
X3.07Y-4.0
X4.11Y-4.24
X4.21Y-4.24
X5.8Y-3.02
X5.8Y-3.12
X5.8Y-3.22
X5.8Y-3.32
X5.8Y-3.5294
X5.8Y-3.6294
X5.8Y-3.7294
X5.8Y-4.0494
X5.8Y-4.1494
X5.8Y-4.2494
T5
X3.062Y-2.8414
X3.062Y-3.0186
X3.318Y-2.8414
X3.318Y-3.0186
X3.482Y-2.86
X3.482Y-3.0372
X3.54Y-3.88
X3.64Y-3.88
X3.738Y-2.86
X3.738Y-3.0372
X3.74Y-3.88
X4.1141Y-2.8628
X4.1141Y-3.04
X4.1372Y-3.88
X4.2372Y-3.88
X4.3372Y-3.88
X4.37Y-2.8628
X4.37Y-3.04
M30
