%TF.GenerationSoftware,KiCad,Pcbnew,8.0.6*%
%TF.CreationDate,2024-11-19T15:42:44-05:00*%
%TF.ProjectId,airflow_device,61697266-6c6f-4775-9f64-65766963652e,rev?*%
%TF.SameCoordinates,Original*%
%TF.FileFunction,Legend,Top*%
%TF.FilePolarity,Positive*%
%FSLAX46Y46*%
G04 Gerber Fmt 4.6, Leading zero omitted, Abs format (unit mm)*
G04 Created by KiCad (PCBNEW 8.0.6) date 2024-11-19 15:42:44*
%MOMM*%
%LPD*%
G01*
G04 APERTURE LIST*
%ADD10C,0.150000*%
%ADD11C,0.100000*%
%ADD12C,0.120000*%
G04 APERTURE END LIST*
D10*
X149510588Y-83910438D02*
X149415350Y-83862819D01*
X149415350Y-83862819D02*
X149272493Y-83862819D01*
X149272493Y-83862819D02*
X149129636Y-83910438D01*
X149129636Y-83910438D02*
X149034398Y-84005676D01*
X149034398Y-84005676D02*
X148986779Y-84100914D01*
X148986779Y-84100914D02*
X148939160Y-84291390D01*
X148939160Y-84291390D02*
X148939160Y-84434247D01*
X148939160Y-84434247D02*
X148986779Y-84624723D01*
X148986779Y-84624723D02*
X149034398Y-84719961D01*
X149034398Y-84719961D02*
X149129636Y-84815200D01*
X149129636Y-84815200D02*
X149272493Y-84862819D01*
X149272493Y-84862819D02*
X149367731Y-84862819D01*
X149367731Y-84862819D02*
X149510588Y-84815200D01*
X149510588Y-84815200D02*
X149558207Y-84767580D01*
X149558207Y-84767580D02*
X149558207Y-84434247D01*
X149558207Y-84434247D02*
X149367731Y-84434247D01*
X149986779Y-84862819D02*
X149986779Y-83862819D01*
X149986779Y-83862819D02*
X150558207Y-84862819D01*
X150558207Y-84862819D02*
X150558207Y-83862819D01*
X151034398Y-84862819D02*
X151034398Y-83862819D01*
X151034398Y-83862819D02*
X151272493Y-83862819D01*
X151272493Y-83862819D02*
X151415350Y-83910438D01*
X151415350Y-83910438D02*
X151510588Y-84005676D01*
X151510588Y-84005676D02*
X151558207Y-84100914D01*
X151558207Y-84100914D02*
X151605826Y-84291390D01*
X151605826Y-84291390D02*
X151605826Y-84434247D01*
X151605826Y-84434247D02*
X151558207Y-84624723D01*
X151558207Y-84624723D02*
X151510588Y-84719961D01*
X151510588Y-84719961D02*
X151415350Y-84815200D01*
X151415350Y-84815200D02*
X151272493Y-84862819D01*
X151272493Y-84862819D02*
X151034398Y-84862819D01*
X148831541Y-76085819D02*
X149450588Y-76085819D01*
X149450588Y-76085819D02*
X149117255Y-76466771D01*
X149117255Y-76466771D02*
X149260112Y-76466771D01*
X149260112Y-76466771D02*
X149355350Y-76514390D01*
X149355350Y-76514390D02*
X149402969Y-76562009D01*
X149402969Y-76562009D02*
X149450588Y-76657247D01*
X149450588Y-76657247D02*
X149450588Y-76895342D01*
X149450588Y-76895342D02*
X149402969Y-76990580D01*
X149402969Y-76990580D02*
X149355350Y-77038200D01*
X149355350Y-77038200D02*
X149260112Y-77085819D01*
X149260112Y-77085819D02*
X148974398Y-77085819D01*
X148974398Y-77085819D02*
X148879160Y-77038200D01*
X148879160Y-77038200D02*
X148831541Y-76990580D01*
X149879160Y-76990580D02*
X149926779Y-77038200D01*
X149926779Y-77038200D02*
X149879160Y-77085819D01*
X149879160Y-77085819D02*
X149831541Y-77038200D01*
X149831541Y-77038200D02*
X149879160Y-76990580D01*
X149879160Y-76990580D02*
X149879160Y-77085819D01*
X150260112Y-76085819D02*
X150879159Y-76085819D01*
X150879159Y-76085819D02*
X150545826Y-76466771D01*
X150545826Y-76466771D02*
X150688683Y-76466771D01*
X150688683Y-76466771D02*
X150783921Y-76514390D01*
X150783921Y-76514390D02*
X150831540Y-76562009D01*
X150831540Y-76562009D02*
X150879159Y-76657247D01*
X150879159Y-76657247D02*
X150879159Y-76895342D01*
X150879159Y-76895342D02*
X150831540Y-76990580D01*
X150831540Y-76990580D02*
X150783921Y-77038200D01*
X150783921Y-77038200D02*
X150688683Y-77085819D01*
X150688683Y-77085819D02*
X150402969Y-77085819D01*
X150402969Y-77085819D02*
X150307731Y-77038200D01*
X150307731Y-77038200D02*
X150260112Y-76990580D01*
X151164874Y-76085819D02*
X151498207Y-77085819D01*
X151498207Y-77085819D02*
X151831540Y-76085819D01*
X148879160Y-82118200D02*
X149022017Y-82165819D01*
X149022017Y-82165819D02*
X149260112Y-82165819D01*
X149260112Y-82165819D02*
X149355350Y-82118200D01*
X149355350Y-82118200D02*
X149402969Y-82070580D01*
X149402969Y-82070580D02*
X149450588Y-81975342D01*
X149450588Y-81975342D02*
X149450588Y-81880104D01*
X149450588Y-81880104D02*
X149402969Y-81784866D01*
X149402969Y-81784866D02*
X149355350Y-81737247D01*
X149355350Y-81737247D02*
X149260112Y-81689628D01*
X149260112Y-81689628D02*
X149069636Y-81642009D01*
X149069636Y-81642009D02*
X148974398Y-81594390D01*
X148974398Y-81594390D02*
X148926779Y-81546771D01*
X148926779Y-81546771D02*
X148879160Y-81451533D01*
X148879160Y-81451533D02*
X148879160Y-81356295D01*
X148879160Y-81356295D02*
X148926779Y-81261057D01*
X148926779Y-81261057D02*
X148974398Y-81213438D01*
X148974398Y-81213438D02*
X149069636Y-81165819D01*
X149069636Y-81165819D02*
X149307731Y-81165819D01*
X149307731Y-81165819D02*
X149450588Y-81213438D01*
X149879160Y-82165819D02*
X149879160Y-81165819D01*
X149879160Y-81165819D02*
X150117255Y-81165819D01*
X150117255Y-81165819D02*
X150260112Y-81213438D01*
X150260112Y-81213438D02*
X150355350Y-81308676D01*
X150355350Y-81308676D02*
X150402969Y-81403914D01*
X150402969Y-81403914D02*
X150450588Y-81594390D01*
X150450588Y-81594390D02*
X150450588Y-81737247D01*
X150450588Y-81737247D02*
X150402969Y-81927723D01*
X150402969Y-81927723D02*
X150355350Y-82022961D01*
X150355350Y-82022961D02*
X150260112Y-82118200D01*
X150260112Y-82118200D02*
X150117255Y-82165819D01*
X150117255Y-82165819D02*
X149879160Y-82165819D01*
X150831541Y-81880104D02*
X151307731Y-81880104D01*
X150736303Y-82165819D02*
X151069636Y-81165819D01*
X151069636Y-81165819D02*
X151402969Y-82165819D01*
X148879160Y-79578200D02*
X149022017Y-79625819D01*
X149022017Y-79625819D02*
X149260112Y-79625819D01*
X149260112Y-79625819D02*
X149355350Y-79578200D01*
X149355350Y-79578200D02*
X149402969Y-79530580D01*
X149402969Y-79530580D02*
X149450588Y-79435342D01*
X149450588Y-79435342D02*
X149450588Y-79340104D01*
X149450588Y-79340104D02*
X149402969Y-79244866D01*
X149402969Y-79244866D02*
X149355350Y-79197247D01*
X149355350Y-79197247D02*
X149260112Y-79149628D01*
X149260112Y-79149628D02*
X149069636Y-79102009D01*
X149069636Y-79102009D02*
X148974398Y-79054390D01*
X148974398Y-79054390D02*
X148926779Y-79006771D01*
X148926779Y-79006771D02*
X148879160Y-78911533D01*
X148879160Y-78911533D02*
X148879160Y-78816295D01*
X148879160Y-78816295D02*
X148926779Y-78721057D01*
X148926779Y-78721057D02*
X148974398Y-78673438D01*
X148974398Y-78673438D02*
X149069636Y-78625819D01*
X149069636Y-78625819D02*
X149307731Y-78625819D01*
X149307731Y-78625819D02*
X149450588Y-78673438D01*
X150450588Y-79530580D02*
X150402969Y-79578200D01*
X150402969Y-79578200D02*
X150260112Y-79625819D01*
X150260112Y-79625819D02*
X150164874Y-79625819D01*
X150164874Y-79625819D02*
X150022017Y-79578200D01*
X150022017Y-79578200D02*
X149926779Y-79482961D01*
X149926779Y-79482961D02*
X149879160Y-79387723D01*
X149879160Y-79387723D02*
X149831541Y-79197247D01*
X149831541Y-79197247D02*
X149831541Y-79054390D01*
X149831541Y-79054390D02*
X149879160Y-78863914D01*
X149879160Y-78863914D02*
X149926779Y-78768676D01*
X149926779Y-78768676D02*
X150022017Y-78673438D01*
X150022017Y-78673438D02*
X150164874Y-78625819D01*
X150164874Y-78625819D02*
X150260112Y-78625819D01*
X150260112Y-78625819D02*
X150402969Y-78673438D01*
X150402969Y-78673438D02*
X150450588Y-78721057D01*
X151355350Y-79625819D02*
X150879160Y-79625819D01*
X150879160Y-79625819D02*
X150879160Y-78625819D01*
X124460095Y-93434819D02*
X124460095Y-94244342D01*
X124460095Y-94244342D02*
X124507714Y-94339580D01*
X124507714Y-94339580D02*
X124555333Y-94387200D01*
X124555333Y-94387200D02*
X124650571Y-94434819D01*
X124650571Y-94434819D02*
X124841047Y-94434819D01*
X124841047Y-94434819D02*
X124936285Y-94387200D01*
X124936285Y-94387200D02*
X124983904Y-94339580D01*
X124983904Y-94339580D02*
X125031523Y-94244342D01*
X125031523Y-94244342D02*
X125031523Y-93434819D01*
X126031523Y-94434819D02*
X125460095Y-94434819D01*
X125745809Y-94434819D02*
X125745809Y-93434819D01*
X125745809Y-93434819D02*
X125650571Y-93577676D01*
X125650571Y-93577676D02*
X125555333Y-93672914D01*
X125555333Y-93672914D02*
X125460095Y-93720533D01*
X117054380Y-108404819D02*
X116721047Y-107928628D01*
X116482952Y-108404819D02*
X116482952Y-107404819D01*
X116482952Y-107404819D02*
X116863904Y-107404819D01*
X116863904Y-107404819D02*
X116959142Y-107452438D01*
X116959142Y-107452438D02*
X117006761Y-107500057D01*
X117006761Y-107500057D02*
X117054380Y-107595295D01*
X117054380Y-107595295D02*
X117054380Y-107738152D01*
X117054380Y-107738152D02*
X117006761Y-107833390D01*
X117006761Y-107833390D02*
X116959142Y-107881009D01*
X116959142Y-107881009D02*
X116863904Y-107928628D01*
X116863904Y-107928628D02*
X116482952Y-107928628D01*
X117435333Y-108357200D02*
X117578190Y-108404819D01*
X117578190Y-108404819D02*
X117816285Y-108404819D01*
X117816285Y-108404819D02*
X117911523Y-108357200D01*
X117911523Y-108357200D02*
X117959142Y-108309580D01*
X117959142Y-108309580D02*
X118006761Y-108214342D01*
X118006761Y-108214342D02*
X118006761Y-108119104D01*
X118006761Y-108119104D02*
X117959142Y-108023866D01*
X117959142Y-108023866D02*
X117911523Y-107976247D01*
X117911523Y-107976247D02*
X117816285Y-107928628D01*
X117816285Y-107928628D02*
X117625809Y-107881009D01*
X117625809Y-107881009D02*
X117530571Y-107833390D01*
X117530571Y-107833390D02*
X117482952Y-107785771D01*
X117482952Y-107785771D02*
X117435333Y-107690533D01*
X117435333Y-107690533D02*
X117435333Y-107595295D01*
X117435333Y-107595295D02*
X117482952Y-107500057D01*
X117482952Y-107500057D02*
X117530571Y-107452438D01*
X117530571Y-107452438D02*
X117625809Y-107404819D01*
X117625809Y-107404819D02*
X117863904Y-107404819D01*
X117863904Y-107404819D02*
X118006761Y-107452438D01*
X118292476Y-107404819D02*
X118863904Y-107404819D01*
X118578190Y-108404819D02*
X118578190Y-107404819D01*
X153124819Y-98996476D02*
X153124819Y-99472666D01*
X153124819Y-99472666D02*
X153601009Y-99520285D01*
X153601009Y-99520285D02*
X153553390Y-99472666D01*
X153553390Y-99472666D02*
X153505771Y-99377428D01*
X153505771Y-99377428D02*
X153505771Y-99139333D01*
X153505771Y-99139333D02*
X153553390Y-99044095D01*
X153553390Y-99044095D02*
X153601009Y-98996476D01*
X153601009Y-98996476D02*
X153696247Y-98948857D01*
X153696247Y-98948857D02*
X153934342Y-98948857D01*
X153934342Y-98948857D02*
X154029580Y-98996476D01*
X154029580Y-98996476D02*
X154077200Y-99044095D01*
X154077200Y-99044095D02*
X154124819Y-99139333D01*
X154124819Y-99139333D02*
X154124819Y-99377428D01*
X154124819Y-99377428D02*
X154077200Y-99472666D01*
X154077200Y-99472666D02*
X154029580Y-99520285D01*
X153124819Y-98663142D02*
X154124819Y-98329809D01*
X154124819Y-98329809D02*
X153124819Y-97996476D01*
X153717810Y-78666819D02*
X154336857Y-78666819D01*
X154336857Y-78666819D02*
X154003524Y-79047771D01*
X154003524Y-79047771D02*
X154146381Y-79047771D01*
X154146381Y-79047771D02*
X154241619Y-79095390D01*
X154241619Y-79095390D02*
X154289238Y-79143009D01*
X154289238Y-79143009D02*
X154336857Y-79238247D01*
X154336857Y-79238247D02*
X154336857Y-79476342D01*
X154336857Y-79476342D02*
X154289238Y-79571580D01*
X154289238Y-79571580D02*
X154241619Y-79619200D01*
X154241619Y-79619200D02*
X154146381Y-79666819D01*
X154146381Y-79666819D02*
X153860667Y-79666819D01*
X153860667Y-79666819D02*
X153765429Y-79619200D01*
X153765429Y-79619200D02*
X153717810Y-79571580D01*
X154765429Y-79571580D02*
X154813048Y-79619200D01*
X154813048Y-79619200D02*
X154765429Y-79666819D01*
X154765429Y-79666819D02*
X154717810Y-79619200D01*
X154717810Y-79619200D02*
X154765429Y-79571580D01*
X154765429Y-79571580D02*
X154765429Y-79666819D01*
X155146381Y-78666819D02*
X155765428Y-78666819D01*
X155765428Y-78666819D02*
X155432095Y-79047771D01*
X155432095Y-79047771D02*
X155574952Y-79047771D01*
X155574952Y-79047771D02*
X155670190Y-79095390D01*
X155670190Y-79095390D02*
X155717809Y-79143009D01*
X155717809Y-79143009D02*
X155765428Y-79238247D01*
X155765428Y-79238247D02*
X155765428Y-79476342D01*
X155765428Y-79476342D02*
X155717809Y-79571580D01*
X155717809Y-79571580D02*
X155670190Y-79619200D01*
X155670190Y-79619200D02*
X155574952Y-79666819D01*
X155574952Y-79666819D02*
X155289238Y-79666819D01*
X155289238Y-79666819D02*
X155194000Y-79619200D01*
X155194000Y-79619200D02*
X155146381Y-79571580D01*
X156051143Y-78666819D02*
X156384476Y-79666819D01*
X156384476Y-79666819D02*
X156717809Y-78666819D01*
X154793333Y-101023580D02*
X154745714Y-101071200D01*
X154745714Y-101071200D02*
X154602857Y-101118819D01*
X154602857Y-101118819D02*
X154507619Y-101118819D01*
X154507619Y-101118819D02*
X154364762Y-101071200D01*
X154364762Y-101071200D02*
X154269524Y-100975961D01*
X154269524Y-100975961D02*
X154221905Y-100880723D01*
X154221905Y-100880723D02*
X154174286Y-100690247D01*
X154174286Y-100690247D02*
X154174286Y-100547390D01*
X154174286Y-100547390D02*
X154221905Y-100356914D01*
X154221905Y-100356914D02*
X154269524Y-100261676D01*
X154269524Y-100261676D02*
X154364762Y-100166438D01*
X154364762Y-100166438D02*
X154507619Y-100118819D01*
X154507619Y-100118819D02*
X154602857Y-100118819D01*
X154602857Y-100118819D02*
X154745714Y-100166438D01*
X154745714Y-100166438D02*
X154793333Y-100214057D01*
X155650476Y-100118819D02*
X155460000Y-100118819D01*
X155460000Y-100118819D02*
X155364762Y-100166438D01*
X155364762Y-100166438D02*
X155317143Y-100214057D01*
X155317143Y-100214057D02*
X155221905Y-100356914D01*
X155221905Y-100356914D02*
X155174286Y-100547390D01*
X155174286Y-100547390D02*
X155174286Y-100928342D01*
X155174286Y-100928342D02*
X155221905Y-101023580D01*
X155221905Y-101023580D02*
X155269524Y-101071200D01*
X155269524Y-101071200D02*
X155364762Y-101118819D01*
X155364762Y-101118819D02*
X155555238Y-101118819D01*
X155555238Y-101118819D02*
X155650476Y-101071200D01*
X155650476Y-101071200D02*
X155698095Y-101023580D01*
X155698095Y-101023580D02*
X155745714Y-100928342D01*
X155745714Y-100928342D02*
X155745714Y-100690247D01*
X155745714Y-100690247D02*
X155698095Y-100595009D01*
X155698095Y-100595009D02*
X155650476Y-100547390D01*
X155650476Y-100547390D02*
X155555238Y-100499771D01*
X155555238Y-100499771D02*
X155364762Y-100499771D01*
X155364762Y-100499771D02*
X155269524Y-100547390D01*
X155269524Y-100547390D02*
X155221905Y-100595009D01*
X155221905Y-100595009D02*
X155174286Y-100690247D01*
X154753333Y-87561580D02*
X154705714Y-87609200D01*
X154705714Y-87609200D02*
X154562857Y-87656819D01*
X154562857Y-87656819D02*
X154467619Y-87656819D01*
X154467619Y-87656819D02*
X154324762Y-87609200D01*
X154324762Y-87609200D02*
X154229524Y-87513961D01*
X154229524Y-87513961D02*
X154181905Y-87418723D01*
X154181905Y-87418723D02*
X154134286Y-87228247D01*
X154134286Y-87228247D02*
X154134286Y-87085390D01*
X154134286Y-87085390D02*
X154181905Y-86894914D01*
X154181905Y-86894914D02*
X154229524Y-86799676D01*
X154229524Y-86799676D02*
X154324762Y-86704438D01*
X154324762Y-86704438D02*
X154467619Y-86656819D01*
X154467619Y-86656819D02*
X154562857Y-86656819D01*
X154562857Y-86656819D02*
X154705714Y-86704438D01*
X154705714Y-86704438D02*
X154753333Y-86752057D01*
X155705714Y-87656819D02*
X155134286Y-87656819D01*
X155420000Y-87656819D02*
X155420000Y-86656819D01*
X155420000Y-86656819D02*
X155324762Y-86799676D01*
X155324762Y-86799676D02*
X155229524Y-86894914D01*
X155229524Y-86894914D02*
X155134286Y-86942533D01*
X83941833Y-102721580D02*
X83894214Y-102769200D01*
X83894214Y-102769200D02*
X83751357Y-102816819D01*
X83751357Y-102816819D02*
X83656119Y-102816819D01*
X83656119Y-102816819D02*
X83513262Y-102769200D01*
X83513262Y-102769200D02*
X83418024Y-102673961D01*
X83418024Y-102673961D02*
X83370405Y-102578723D01*
X83370405Y-102578723D02*
X83322786Y-102388247D01*
X83322786Y-102388247D02*
X83322786Y-102245390D01*
X83322786Y-102245390D02*
X83370405Y-102054914D01*
X83370405Y-102054914D02*
X83418024Y-101959676D01*
X83418024Y-101959676D02*
X83513262Y-101864438D01*
X83513262Y-101864438D02*
X83656119Y-101816819D01*
X83656119Y-101816819D02*
X83751357Y-101816819D01*
X83751357Y-101816819D02*
X83894214Y-101864438D01*
X83894214Y-101864438D02*
X83941833Y-101912057D01*
X84846595Y-101816819D02*
X84370405Y-101816819D01*
X84370405Y-101816819D02*
X84322786Y-102293009D01*
X84322786Y-102293009D02*
X84370405Y-102245390D01*
X84370405Y-102245390D02*
X84465643Y-102197771D01*
X84465643Y-102197771D02*
X84703738Y-102197771D01*
X84703738Y-102197771D02*
X84798976Y-102245390D01*
X84798976Y-102245390D02*
X84846595Y-102293009D01*
X84846595Y-102293009D02*
X84894214Y-102388247D01*
X84894214Y-102388247D02*
X84894214Y-102626342D01*
X84894214Y-102626342D02*
X84846595Y-102721580D01*
X84846595Y-102721580D02*
X84798976Y-102769200D01*
X84798976Y-102769200D02*
X84703738Y-102816819D01*
X84703738Y-102816819D02*
X84465643Y-102816819D01*
X84465643Y-102816819D02*
X84370405Y-102769200D01*
X84370405Y-102769200D02*
X84322786Y-102721580D01*
X88498071Y-103451819D02*
X87926643Y-103451819D01*
X88212357Y-103451819D02*
X88212357Y-102451819D01*
X88212357Y-102451819D02*
X88117119Y-102594676D01*
X88117119Y-102594676D02*
X88021881Y-102689914D01*
X88021881Y-102689914D02*
X87926643Y-102737533D01*
X89117119Y-102451819D02*
X89212357Y-102451819D01*
X89212357Y-102451819D02*
X89307595Y-102499438D01*
X89307595Y-102499438D02*
X89355214Y-102547057D01*
X89355214Y-102547057D02*
X89402833Y-102642295D01*
X89402833Y-102642295D02*
X89450452Y-102832771D01*
X89450452Y-102832771D02*
X89450452Y-103070866D01*
X89450452Y-103070866D02*
X89402833Y-103261342D01*
X89402833Y-103261342D02*
X89355214Y-103356580D01*
X89355214Y-103356580D02*
X89307595Y-103404200D01*
X89307595Y-103404200D02*
X89212357Y-103451819D01*
X89212357Y-103451819D02*
X89117119Y-103451819D01*
X89117119Y-103451819D02*
X89021881Y-103404200D01*
X89021881Y-103404200D02*
X88974262Y-103356580D01*
X88974262Y-103356580D02*
X88926643Y-103261342D01*
X88926643Y-103261342D02*
X88879024Y-103070866D01*
X88879024Y-103070866D02*
X88879024Y-102832771D01*
X88879024Y-102832771D02*
X88926643Y-102642295D01*
X88926643Y-102642295D02*
X88974262Y-102547057D01*
X88974262Y-102547057D02*
X89021881Y-102499438D01*
X89021881Y-102499438D02*
X89117119Y-102451819D01*
X90307595Y-102785152D02*
X90307595Y-103451819D01*
X89879024Y-102785152D02*
X89879024Y-103308961D01*
X89879024Y-103308961D02*
X89926643Y-103404200D01*
X89926643Y-103404200D02*
X90021881Y-103451819D01*
X90021881Y-103451819D02*
X90164738Y-103451819D01*
X90164738Y-103451819D02*
X90259976Y-103404200D01*
X90259976Y-103404200D02*
X90307595Y-103356580D01*
X91117119Y-102928009D02*
X90783786Y-102928009D01*
X90783786Y-103451819D02*
X90783786Y-102451819D01*
X90783786Y-102451819D02*
X91259976Y-102451819D01*
X77795333Y-91260819D02*
X77462000Y-90784628D01*
X77223905Y-91260819D02*
X77223905Y-90260819D01*
X77223905Y-90260819D02*
X77604857Y-90260819D01*
X77604857Y-90260819D02*
X77700095Y-90308438D01*
X77700095Y-90308438D02*
X77747714Y-90356057D01*
X77747714Y-90356057D02*
X77795333Y-90451295D01*
X77795333Y-90451295D02*
X77795333Y-90594152D01*
X77795333Y-90594152D02*
X77747714Y-90689390D01*
X77747714Y-90689390D02*
X77700095Y-90737009D01*
X77700095Y-90737009D02*
X77604857Y-90784628D01*
X77604857Y-90784628D02*
X77223905Y-90784628D01*
X78652476Y-90260819D02*
X78462000Y-90260819D01*
X78462000Y-90260819D02*
X78366762Y-90308438D01*
X78366762Y-90308438D02*
X78319143Y-90356057D01*
X78319143Y-90356057D02*
X78223905Y-90498914D01*
X78223905Y-90498914D02*
X78176286Y-90689390D01*
X78176286Y-90689390D02*
X78176286Y-91070342D01*
X78176286Y-91070342D02*
X78223905Y-91165580D01*
X78223905Y-91165580D02*
X78271524Y-91213200D01*
X78271524Y-91213200D02*
X78366762Y-91260819D01*
X78366762Y-91260819D02*
X78557238Y-91260819D01*
X78557238Y-91260819D02*
X78652476Y-91213200D01*
X78652476Y-91213200D02*
X78700095Y-91165580D01*
X78700095Y-91165580D02*
X78747714Y-91070342D01*
X78747714Y-91070342D02*
X78747714Y-90832247D01*
X78747714Y-90832247D02*
X78700095Y-90737009D01*
X78700095Y-90737009D02*
X78652476Y-90689390D01*
X78652476Y-90689390D02*
X78557238Y-90641771D01*
X78557238Y-90641771D02*
X78366762Y-90641771D01*
X78366762Y-90641771D02*
X78271524Y-90689390D01*
X78271524Y-90689390D02*
X78223905Y-90737009D01*
X78223905Y-90737009D02*
X78176286Y-90832247D01*
X93495905Y-103793819D02*
X93495905Y-102793819D01*
X93495905Y-102793819D02*
X93734000Y-102793819D01*
X93734000Y-102793819D02*
X93876857Y-102841438D01*
X93876857Y-102841438D02*
X93972095Y-102936676D01*
X93972095Y-102936676D02*
X94019714Y-103031914D01*
X94019714Y-103031914D02*
X94067333Y-103222390D01*
X94067333Y-103222390D02*
X94067333Y-103365247D01*
X94067333Y-103365247D02*
X94019714Y-103555723D01*
X94019714Y-103555723D02*
X93972095Y-103650961D01*
X93972095Y-103650961D02*
X93876857Y-103746200D01*
X93876857Y-103746200D02*
X93734000Y-103793819D01*
X93734000Y-103793819D02*
X93495905Y-103793819D01*
X94448286Y-102889057D02*
X94495905Y-102841438D01*
X94495905Y-102841438D02*
X94591143Y-102793819D01*
X94591143Y-102793819D02*
X94829238Y-102793819D01*
X94829238Y-102793819D02*
X94924476Y-102841438D01*
X94924476Y-102841438D02*
X94972095Y-102889057D01*
X94972095Y-102889057D02*
X95019714Y-102984295D01*
X95019714Y-102984295D02*
X95019714Y-103079533D01*
X95019714Y-103079533D02*
X94972095Y-103222390D01*
X94972095Y-103222390D02*
X94400667Y-103793819D01*
X94400667Y-103793819D02*
X95019714Y-103793819D01*
X91694095Y-100546819D02*
X91694095Y-101356342D01*
X91694095Y-101356342D02*
X91741714Y-101451580D01*
X91741714Y-101451580D02*
X91789333Y-101499200D01*
X91789333Y-101499200D02*
X91884571Y-101546819D01*
X91884571Y-101546819D02*
X92075047Y-101546819D01*
X92075047Y-101546819D02*
X92170285Y-101499200D01*
X92170285Y-101499200D02*
X92217904Y-101451580D01*
X92217904Y-101451580D02*
X92265523Y-101356342D01*
X92265523Y-101356342D02*
X92265523Y-100546819D01*
X92694095Y-100642057D02*
X92741714Y-100594438D01*
X92741714Y-100594438D02*
X92836952Y-100546819D01*
X92836952Y-100546819D02*
X93075047Y-100546819D01*
X93075047Y-100546819D02*
X93170285Y-100594438D01*
X93170285Y-100594438D02*
X93217904Y-100642057D01*
X93217904Y-100642057D02*
X93265523Y-100737295D01*
X93265523Y-100737295D02*
X93265523Y-100832533D01*
X93265523Y-100832533D02*
X93217904Y-100975390D01*
X93217904Y-100975390D02*
X92646476Y-101546819D01*
X92646476Y-101546819D02*
X93265523Y-101546819D01*
X87479808Y-93561819D02*
X88098855Y-93561819D01*
X88098855Y-93561819D02*
X87765522Y-93942771D01*
X87765522Y-93942771D02*
X87908379Y-93942771D01*
X87908379Y-93942771D02*
X88003617Y-93990390D01*
X88003617Y-93990390D02*
X88051236Y-94038009D01*
X88051236Y-94038009D02*
X88098855Y-94133247D01*
X88098855Y-94133247D02*
X88098855Y-94371342D01*
X88098855Y-94371342D02*
X88051236Y-94466580D01*
X88051236Y-94466580D02*
X88003617Y-94514200D01*
X88003617Y-94514200D02*
X87908379Y-94561819D01*
X87908379Y-94561819D02*
X87622665Y-94561819D01*
X87622665Y-94561819D02*
X87527427Y-94514200D01*
X87527427Y-94514200D02*
X87479808Y-94466580D01*
X88432189Y-93895152D02*
X88670284Y-94561819D01*
X88670284Y-94561819D02*
X88908379Y-93895152D01*
X89194094Y-93561819D02*
X89813141Y-93561819D01*
X89813141Y-93561819D02*
X89479808Y-93942771D01*
X89479808Y-93942771D02*
X89622665Y-93942771D01*
X89622665Y-93942771D02*
X89717903Y-93990390D01*
X89717903Y-93990390D02*
X89765522Y-94038009D01*
X89765522Y-94038009D02*
X89813141Y-94133247D01*
X89813141Y-94133247D02*
X89813141Y-94371342D01*
X89813141Y-94371342D02*
X89765522Y-94466580D01*
X89765522Y-94466580D02*
X89717903Y-94514200D01*
X89717903Y-94514200D02*
X89622665Y-94561819D01*
X89622665Y-94561819D02*
X89336951Y-94561819D01*
X89336951Y-94561819D02*
X89241713Y-94514200D01*
X89241713Y-94514200D02*
X89194094Y-94466580D01*
X91003618Y-94561819D02*
X91003618Y-93895152D01*
X91003618Y-94085628D02*
X91051237Y-93990390D01*
X91051237Y-93990390D02*
X91098856Y-93942771D01*
X91098856Y-93942771D02*
X91194094Y-93895152D01*
X91194094Y-93895152D02*
X91289332Y-93895152D01*
X92003618Y-94514200D02*
X91908380Y-94561819D01*
X91908380Y-94561819D02*
X91717904Y-94561819D01*
X91717904Y-94561819D02*
X91622666Y-94514200D01*
X91622666Y-94514200D02*
X91575047Y-94418961D01*
X91575047Y-94418961D02*
X91575047Y-94038009D01*
X91575047Y-94038009D02*
X91622666Y-93942771D01*
X91622666Y-93942771D02*
X91717904Y-93895152D01*
X91717904Y-93895152D02*
X91908380Y-93895152D01*
X91908380Y-93895152D02*
X92003618Y-93942771D01*
X92003618Y-93942771D02*
X92051237Y-94038009D01*
X92051237Y-94038009D02*
X92051237Y-94133247D01*
X92051237Y-94133247D02*
X91575047Y-94228485D01*
X92908380Y-93895152D02*
X92908380Y-94704676D01*
X92908380Y-94704676D02*
X92860761Y-94799914D01*
X92860761Y-94799914D02*
X92813142Y-94847533D01*
X92813142Y-94847533D02*
X92717904Y-94895152D01*
X92717904Y-94895152D02*
X92575047Y-94895152D01*
X92575047Y-94895152D02*
X92479809Y-94847533D01*
X92908380Y-94514200D02*
X92813142Y-94561819D01*
X92813142Y-94561819D02*
X92622666Y-94561819D01*
X92622666Y-94561819D02*
X92527428Y-94514200D01*
X92527428Y-94514200D02*
X92479809Y-94466580D01*
X92479809Y-94466580D02*
X92432190Y-94371342D01*
X92432190Y-94371342D02*
X92432190Y-94085628D01*
X92432190Y-94085628D02*
X92479809Y-93990390D01*
X92479809Y-93990390D02*
X92527428Y-93942771D01*
X92527428Y-93942771D02*
X92622666Y-93895152D01*
X92622666Y-93895152D02*
X92813142Y-93895152D01*
X92813142Y-93895152D02*
X92908380Y-93942771D01*
X93813142Y-93895152D02*
X93813142Y-94561819D01*
X93384571Y-93895152D02*
X93384571Y-94418961D01*
X93384571Y-94418961D02*
X93432190Y-94514200D01*
X93432190Y-94514200D02*
X93527428Y-94561819D01*
X93527428Y-94561819D02*
X93670285Y-94561819D01*
X93670285Y-94561819D02*
X93765523Y-94514200D01*
X93765523Y-94514200D02*
X93813142Y-94466580D01*
X94432190Y-94561819D02*
X94336952Y-94514200D01*
X94336952Y-94514200D02*
X94289333Y-94418961D01*
X94289333Y-94418961D02*
X94289333Y-93561819D01*
X95241714Y-94561819D02*
X95241714Y-94038009D01*
X95241714Y-94038009D02*
X95194095Y-93942771D01*
X95194095Y-93942771D02*
X95098857Y-93895152D01*
X95098857Y-93895152D02*
X94908381Y-93895152D01*
X94908381Y-93895152D02*
X94813143Y-93942771D01*
X95241714Y-94514200D02*
X95146476Y-94561819D01*
X95146476Y-94561819D02*
X94908381Y-94561819D01*
X94908381Y-94561819D02*
X94813143Y-94514200D01*
X94813143Y-94514200D02*
X94765524Y-94418961D01*
X94765524Y-94418961D02*
X94765524Y-94323723D01*
X94765524Y-94323723D02*
X94813143Y-94228485D01*
X94813143Y-94228485D02*
X94908381Y-94180866D01*
X94908381Y-94180866D02*
X95146476Y-94180866D01*
X95146476Y-94180866D02*
X95241714Y-94133247D01*
X95575048Y-93895152D02*
X95956000Y-93895152D01*
X95717905Y-93561819D02*
X95717905Y-94418961D01*
X95717905Y-94418961D02*
X95765524Y-94514200D01*
X95765524Y-94514200D02*
X95860762Y-94561819D01*
X95860762Y-94561819D02*
X95956000Y-94561819D01*
X96432191Y-94561819D02*
X96336953Y-94514200D01*
X96336953Y-94514200D02*
X96289334Y-94466580D01*
X96289334Y-94466580D02*
X96241715Y-94371342D01*
X96241715Y-94371342D02*
X96241715Y-94085628D01*
X96241715Y-94085628D02*
X96289334Y-93990390D01*
X96289334Y-93990390D02*
X96336953Y-93942771D01*
X96336953Y-93942771D02*
X96432191Y-93895152D01*
X96432191Y-93895152D02*
X96575048Y-93895152D01*
X96575048Y-93895152D02*
X96670286Y-93942771D01*
X96670286Y-93942771D02*
X96717905Y-93990390D01*
X96717905Y-93990390D02*
X96765524Y-94085628D01*
X96765524Y-94085628D02*
X96765524Y-94371342D01*
X96765524Y-94371342D02*
X96717905Y-94466580D01*
X96717905Y-94466580D02*
X96670286Y-94514200D01*
X96670286Y-94514200D02*
X96575048Y-94561819D01*
X96575048Y-94561819D02*
X96432191Y-94561819D01*
X97194096Y-94561819D02*
X97194096Y-93895152D01*
X97194096Y-94085628D02*
X97241715Y-93990390D01*
X97241715Y-93990390D02*
X97289334Y-93942771D01*
X97289334Y-93942771D02*
X97384572Y-93895152D01*
X97384572Y-93895152D02*
X97479810Y-93895152D01*
X92035333Y-111706819D02*
X91702000Y-111230628D01*
X91463905Y-111706819D02*
X91463905Y-110706819D01*
X91463905Y-110706819D02*
X91844857Y-110706819D01*
X91844857Y-110706819D02*
X91940095Y-110754438D01*
X91940095Y-110754438D02*
X91987714Y-110802057D01*
X91987714Y-110802057D02*
X92035333Y-110897295D01*
X92035333Y-110897295D02*
X92035333Y-111040152D01*
X92035333Y-111040152D02*
X91987714Y-111135390D01*
X91987714Y-111135390D02*
X91940095Y-111183009D01*
X91940095Y-111183009D02*
X91844857Y-111230628D01*
X91844857Y-111230628D02*
X91463905Y-111230628D01*
X92892476Y-111040152D02*
X92892476Y-111706819D01*
X92654381Y-110659200D02*
X92416286Y-111373485D01*
X92416286Y-111373485D02*
X93035333Y-111373485D01*
X100147333Y-71066819D02*
X99814000Y-70590628D01*
X99575905Y-71066819D02*
X99575905Y-70066819D01*
X99575905Y-70066819D02*
X99956857Y-70066819D01*
X99956857Y-70066819D02*
X100052095Y-70114438D01*
X100052095Y-70114438D02*
X100099714Y-70162057D01*
X100099714Y-70162057D02*
X100147333Y-70257295D01*
X100147333Y-70257295D02*
X100147333Y-70400152D01*
X100147333Y-70400152D02*
X100099714Y-70495390D01*
X100099714Y-70495390D02*
X100052095Y-70543009D01*
X100052095Y-70543009D02*
X99956857Y-70590628D01*
X99956857Y-70590628D02*
X99575905Y-70590628D01*
X100528286Y-70162057D02*
X100575905Y-70114438D01*
X100575905Y-70114438D02*
X100671143Y-70066819D01*
X100671143Y-70066819D02*
X100909238Y-70066819D01*
X100909238Y-70066819D02*
X101004476Y-70114438D01*
X101004476Y-70114438D02*
X101052095Y-70162057D01*
X101052095Y-70162057D02*
X101099714Y-70257295D01*
X101099714Y-70257295D02*
X101099714Y-70352533D01*
X101099714Y-70352533D02*
X101052095Y-70495390D01*
X101052095Y-70495390D02*
X100480667Y-71066819D01*
X100480667Y-71066819D02*
X101099714Y-71066819D01*
X99385428Y-73448152D02*
X99385428Y-74114819D01*
X99147333Y-73067200D02*
X98909238Y-73781485D01*
X98909238Y-73781485D02*
X99528285Y-73781485D01*
X99909238Y-74019580D02*
X99956857Y-74067200D01*
X99956857Y-74067200D02*
X99909238Y-74114819D01*
X99909238Y-74114819D02*
X99861619Y-74067200D01*
X99861619Y-74067200D02*
X99909238Y-74019580D01*
X99909238Y-74019580D02*
X99909238Y-74114819D01*
X100290190Y-73114819D02*
X100956856Y-73114819D01*
X100956856Y-73114819D02*
X100528285Y-74114819D01*
X101337809Y-74114819D02*
X101337809Y-73114819D01*
X101433047Y-73733866D02*
X101718761Y-74114819D01*
X101718761Y-73448152D02*
X101337809Y-73829104D01*
X76287333Y-111706819D02*
X75954000Y-111230628D01*
X75715905Y-111706819D02*
X75715905Y-110706819D01*
X75715905Y-110706819D02*
X76096857Y-110706819D01*
X76096857Y-110706819D02*
X76192095Y-110754438D01*
X76192095Y-110754438D02*
X76239714Y-110802057D01*
X76239714Y-110802057D02*
X76287333Y-110897295D01*
X76287333Y-110897295D02*
X76287333Y-111040152D01*
X76287333Y-111040152D02*
X76239714Y-111135390D01*
X76239714Y-111135390D02*
X76192095Y-111183009D01*
X76192095Y-111183009D02*
X76096857Y-111230628D01*
X76096857Y-111230628D02*
X75715905Y-111230628D01*
X77192095Y-110706819D02*
X76715905Y-110706819D01*
X76715905Y-110706819D02*
X76668286Y-111183009D01*
X76668286Y-111183009D02*
X76715905Y-111135390D01*
X76715905Y-111135390D02*
X76811143Y-111087771D01*
X76811143Y-111087771D02*
X77049238Y-111087771D01*
X77049238Y-111087771D02*
X77144476Y-111135390D01*
X77144476Y-111135390D02*
X77192095Y-111183009D01*
X77192095Y-111183009D02*
X77239714Y-111278247D01*
X77239714Y-111278247D02*
X77239714Y-111516342D01*
X77239714Y-111516342D02*
X77192095Y-111611580D01*
X77192095Y-111611580D02*
X77144476Y-111659200D01*
X77144476Y-111659200D02*
X77049238Y-111706819D01*
X77049238Y-111706819D02*
X76811143Y-111706819D01*
X76811143Y-111706819D02*
X76715905Y-111659200D01*
X76715905Y-111659200D02*
X76668286Y-111611580D01*
X90360667Y-71051200D02*
X90503524Y-71098819D01*
X90503524Y-71098819D02*
X90741619Y-71098819D01*
X90741619Y-71098819D02*
X90836857Y-71051200D01*
X90836857Y-71051200D02*
X90884476Y-71003580D01*
X90884476Y-71003580D02*
X90932095Y-70908342D01*
X90932095Y-70908342D02*
X90932095Y-70813104D01*
X90932095Y-70813104D02*
X90884476Y-70717866D01*
X90884476Y-70717866D02*
X90836857Y-70670247D01*
X90836857Y-70670247D02*
X90741619Y-70622628D01*
X90741619Y-70622628D02*
X90551143Y-70575009D01*
X90551143Y-70575009D02*
X90455905Y-70527390D01*
X90455905Y-70527390D02*
X90408286Y-70479771D01*
X90408286Y-70479771D02*
X90360667Y-70384533D01*
X90360667Y-70384533D02*
X90360667Y-70289295D01*
X90360667Y-70289295D02*
X90408286Y-70194057D01*
X90408286Y-70194057D02*
X90455905Y-70146438D01*
X90455905Y-70146438D02*
X90551143Y-70098819D01*
X90551143Y-70098819D02*
X90789238Y-70098819D01*
X90789238Y-70098819D02*
X90932095Y-70146438D01*
X91265429Y-70098819D02*
X91503524Y-71098819D01*
X91503524Y-71098819D02*
X91694000Y-70384533D01*
X91694000Y-70384533D02*
X91884476Y-71098819D01*
X91884476Y-71098819D02*
X92122572Y-70098819D01*
X92455905Y-70194057D02*
X92503524Y-70146438D01*
X92503524Y-70146438D02*
X92598762Y-70098819D01*
X92598762Y-70098819D02*
X92836857Y-70098819D01*
X92836857Y-70098819D02*
X92932095Y-70146438D01*
X92932095Y-70146438D02*
X92979714Y-70194057D01*
X92979714Y-70194057D02*
X93027333Y-70289295D01*
X93027333Y-70289295D02*
X93027333Y-70384533D01*
X93027333Y-70384533D02*
X92979714Y-70527390D01*
X92979714Y-70527390D02*
X92408286Y-71098819D01*
X92408286Y-71098819D02*
X93027333Y-71098819D01*
X79692667Y-70579200D02*
X79835524Y-70626819D01*
X79835524Y-70626819D02*
X80073619Y-70626819D01*
X80073619Y-70626819D02*
X80168857Y-70579200D01*
X80168857Y-70579200D02*
X80216476Y-70531580D01*
X80216476Y-70531580D02*
X80264095Y-70436342D01*
X80264095Y-70436342D02*
X80264095Y-70341104D01*
X80264095Y-70341104D02*
X80216476Y-70245866D01*
X80216476Y-70245866D02*
X80168857Y-70198247D01*
X80168857Y-70198247D02*
X80073619Y-70150628D01*
X80073619Y-70150628D02*
X79883143Y-70103009D01*
X79883143Y-70103009D02*
X79787905Y-70055390D01*
X79787905Y-70055390D02*
X79740286Y-70007771D01*
X79740286Y-70007771D02*
X79692667Y-69912533D01*
X79692667Y-69912533D02*
X79692667Y-69817295D01*
X79692667Y-69817295D02*
X79740286Y-69722057D01*
X79740286Y-69722057D02*
X79787905Y-69674438D01*
X79787905Y-69674438D02*
X79883143Y-69626819D01*
X79883143Y-69626819D02*
X80121238Y-69626819D01*
X80121238Y-69626819D02*
X80264095Y-69674438D01*
X80597429Y-69626819D02*
X80835524Y-70626819D01*
X80835524Y-70626819D02*
X81026000Y-69912533D01*
X81026000Y-69912533D02*
X81216476Y-70626819D01*
X81216476Y-70626819D02*
X81454572Y-69626819D01*
X82264095Y-69960152D02*
X82264095Y-70626819D01*
X82026000Y-69579200D02*
X81787905Y-70293485D01*
X81787905Y-70293485D02*
X82406952Y-70293485D01*
X85685333Y-79956819D02*
X85352000Y-79480628D01*
X85113905Y-79956819D02*
X85113905Y-78956819D01*
X85113905Y-78956819D02*
X85494857Y-78956819D01*
X85494857Y-78956819D02*
X85590095Y-79004438D01*
X85590095Y-79004438D02*
X85637714Y-79052057D01*
X85637714Y-79052057D02*
X85685333Y-79147295D01*
X85685333Y-79147295D02*
X85685333Y-79290152D01*
X85685333Y-79290152D02*
X85637714Y-79385390D01*
X85637714Y-79385390D02*
X85590095Y-79433009D01*
X85590095Y-79433009D02*
X85494857Y-79480628D01*
X85494857Y-79480628D02*
X85113905Y-79480628D01*
X86018667Y-78956819D02*
X86685333Y-78956819D01*
X86685333Y-78956819D02*
X86256762Y-79956819D01*
X146986666Y-109719819D02*
X146986666Y-110434104D01*
X146986666Y-110434104D02*
X146939047Y-110576961D01*
X146939047Y-110576961D02*
X146843809Y-110672200D01*
X146843809Y-110672200D02*
X146700952Y-110719819D01*
X146700952Y-110719819D02*
X146605714Y-110719819D01*
X147415238Y-109815057D02*
X147462857Y-109767438D01*
X147462857Y-109767438D02*
X147558095Y-109719819D01*
X147558095Y-109719819D02*
X147796190Y-109719819D01*
X147796190Y-109719819D02*
X147891428Y-109767438D01*
X147891428Y-109767438D02*
X147939047Y-109815057D01*
X147939047Y-109815057D02*
X147986666Y-109910295D01*
X147986666Y-109910295D02*
X147986666Y-110005533D01*
X147986666Y-110005533D02*
X147939047Y-110148390D01*
X147939047Y-110148390D02*
X147367619Y-110719819D01*
X147367619Y-110719819D02*
X147986666Y-110719819D01*
X149362438Y-109799762D02*
X149314819Y-109895000D01*
X149314819Y-109895000D02*
X149314819Y-110037857D01*
X149314819Y-110037857D02*
X149362438Y-110180714D01*
X149362438Y-110180714D02*
X149457676Y-110275952D01*
X149457676Y-110275952D02*
X149552914Y-110323571D01*
X149552914Y-110323571D02*
X149743390Y-110371190D01*
X149743390Y-110371190D02*
X149886247Y-110371190D01*
X149886247Y-110371190D02*
X150076723Y-110323571D01*
X150076723Y-110323571D02*
X150171961Y-110275952D01*
X150171961Y-110275952D02*
X150267200Y-110180714D01*
X150267200Y-110180714D02*
X150314819Y-110037857D01*
X150314819Y-110037857D02*
X150314819Y-109942619D01*
X150314819Y-109942619D02*
X150267200Y-109799762D01*
X150267200Y-109799762D02*
X150219580Y-109752143D01*
X150219580Y-109752143D02*
X149886247Y-109752143D01*
X149886247Y-109752143D02*
X149886247Y-109942619D01*
X150314819Y-109323571D02*
X149648152Y-109323571D01*
X149838628Y-109323571D02*
X149743390Y-109275952D01*
X149743390Y-109275952D02*
X149695771Y-109228333D01*
X149695771Y-109228333D02*
X149648152Y-109133095D01*
X149648152Y-109133095D02*
X149648152Y-109037857D01*
X150314819Y-108704523D02*
X149648152Y-108704523D01*
X149314819Y-108704523D02*
X149362438Y-108752142D01*
X149362438Y-108752142D02*
X149410057Y-108704523D01*
X149410057Y-108704523D02*
X149362438Y-108656904D01*
X149362438Y-108656904D02*
X149314819Y-108704523D01*
X149314819Y-108704523D02*
X149410057Y-108704523D01*
X150314819Y-107799762D02*
X149314819Y-107799762D01*
X150267200Y-107799762D02*
X150314819Y-107895000D01*
X150314819Y-107895000D02*
X150314819Y-108085476D01*
X150314819Y-108085476D02*
X150267200Y-108180714D01*
X150267200Y-108180714D02*
X150219580Y-108228333D01*
X150219580Y-108228333D02*
X150124342Y-108275952D01*
X150124342Y-108275952D02*
X149838628Y-108275952D01*
X149838628Y-108275952D02*
X149743390Y-108228333D01*
X149743390Y-108228333D02*
X149695771Y-108180714D01*
X149695771Y-108180714D02*
X149648152Y-108085476D01*
X149648152Y-108085476D02*
X149648152Y-107895000D01*
X149648152Y-107895000D02*
X149695771Y-107799762D01*
X150267200Y-106942619D02*
X150314819Y-107037857D01*
X150314819Y-107037857D02*
X150314819Y-107228333D01*
X150314819Y-107228333D02*
X150267200Y-107323571D01*
X150267200Y-107323571D02*
X150171961Y-107371190D01*
X150171961Y-107371190D02*
X149791009Y-107371190D01*
X149791009Y-107371190D02*
X149695771Y-107323571D01*
X149695771Y-107323571D02*
X149648152Y-107228333D01*
X149648152Y-107228333D02*
X149648152Y-107037857D01*
X149648152Y-107037857D02*
X149695771Y-106942619D01*
X149695771Y-106942619D02*
X149791009Y-106895000D01*
X149791009Y-106895000D02*
X149886247Y-106895000D01*
X149886247Y-106895000D02*
X149981485Y-107371190D01*
X149648152Y-106561666D02*
X150314819Y-106323571D01*
X149648152Y-106085476D02*
X150314819Y-106323571D01*
X150314819Y-106323571D02*
X150552914Y-106418809D01*
X150552914Y-106418809D02*
X150600533Y-106466428D01*
X150600533Y-106466428D02*
X150648152Y-106561666D01*
X150267200Y-105323571D02*
X150314819Y-105418809D01*
X150314819Y-105418809D02*
X150314819Y-105609285D01*
X150314819Y-105609285D02*
X150267200Y-105704523D01*
X150267200Y-105704523D02*
X150171961Y-105752142D01*
X150171961Y-105752142D02*
X149791009Y-105752142D01*
X149791009Y-105752142D02*
X149695771Y-105704523D01*
X149695771Y-105704523D02*
X149648152Y-105609285D01*
X149648152Y-105609285D02*
X149648152Y-105418809D01*
X149648152Y-105418809D02*
X149695771Y-105323571D01*
X149695771Y-105323571D02*
X149791009Y-105275952D01*
X149791009Y-105275952D02*
X149886247Y-105275952D01*
X149886247Y-105275952D02*
X149981485Y-105752142D01*
X150267200Y-104133094D02*
X150314819Y-103990237D01*
X150314819Y-103990237D02*
X150314819Y-103752142D01*
X150314819Y-103752142D02*
X150267200Y-103656904D01*
X150267200Y-103656904D02*
X150219580Y-103609285D01*
X150219580Y-103609285D02*
X150124342Y-103561666D01*
X150124342Y-103561666D02*
X150029104Y-103561666D01*
X150029104Y-103561666D02*
X149933866Y-103609285D01*
X149933866Y-103609285D02*
X149886247Y-103656904D01*
X149886247Y-103656904D02*
X149838628Y-103752142D01*
X149838628Y-103752142D02*
X149791009Y-103942618D01*
X149791009Y-103942618D02*
X149743390Y-104037856D01*
X149743390Y-104037856D02*
X149695771Y-104085475D01*
X149695771Y-104085475D02*
X149600533Y-104133094D01*
X149600533Y-104133094D02*
X149505295Y-104133094D01*
X149505295Y-104133094D02*
X149410057Y-104085475D01*
X149410057Y-104085475D02*
X149362438Y-104037856D01*
X149362438Y-104037856D02*
X149314819Y-103942618D01*
X149314819Y-103942618D02*
X149314819Y-103704523D01*
X149314819Y-103704523D02*
X149362438Y-103561666D01*
X150267200Y-102752142D02*
X150314819Y-102847380D01*
X150314819Y-102847380D02*
X150314819Y-103037856D01*
X150314819Y-103037856D02*
X150267200Y-103133094D01*
X150267200Y-103133094D02*
X150171961Y-103180713D01*
X150171961Y-103180713D02*
X149791009Y-103180713D01*
X149791009Y-103180713D02*
X149695771Y-103133094D01*
X149695771Y-103133094D02*
X149648152Y-103037856D01*
X149648152Y-103037856D02*
X149648152Y-102847380D01*
X149648152Y-102847380D02*
X149695771Y-102752142D01*
X149695771Y-102752142D02*
X149791009Y-102704523D01*
X149791009Y-102704523D02*
X149886247Y-102704523D01*
X149886247Y-102704523D02*
X149981485Y-103180713D01*
X150314819Y-102275951D02*
X149648152Y-102275951D01*
X149838628Y-102275951D02*
X149743390Y-102228332D01*
X149743390Y-102228332D02*
X149695771Y-102180713D01*
X149695771Y-102180713D02*
X149648152Y-102085475D01*
X149648152Y-102085475D02*
X149648152Y-101990237D01*
X149648152Y-101752141D02*
X150314819Y-101514046D01*
X150314819Y-101514046D02*
X149648152Y-101275951D01*
X150314819Y-100752141D02*
X150267200Y-100847379D01*
X150267200Y-100847379D02*
X150219580Y-100894998D01*
X150219580Y-100894998D02*
X150124342Y-100942617D01*
X150124342Y-100942617D02*
X149838628Y-100942617D01*
X149838628Y-100942617D02*
X149743390Y-100894998D01*
X149743390Y-100894998D02*
X149695771Y-100847379D01*
X149695771Y-100847379D02*
X149648152Y-100752141D01*
X149648152Y-100752141D02*
X149648152Y-100609284D01*
X149648152Y-100609284D02*
X149695771Y-100514046D01*
X149695771Y-100514046D02*
X149743390Y-100466427D01*
X149743390Y-100466427D02*
X149838628Y-100418808D01*
X149838628Y-100418808D02*
X150124342Y-100418808D01*
X150124342Y-100418808D02*
X150219580Y-100466427D01*
X150219580Y-100466427D02*
X150267200Y-100514046D01*
X150267200Y-100514046D02*
X150314819Y-100609284D01*
X150314819Y-100609284D02*
X150314819Y-100752141D01*
X109158819Y-108029333D02*
X109873104Y-108029333D01*
X109873104Y-108029333D02*
X110015961Y-108076952D01*
X110015961Y-108076952D02*
X110111200Y-108172190D01*
X110111200Y-108172190D02*
X110158819Y-108315047D01*
X110158819Y-108315047D02*
X110158819Y-108410285D01*
X109492152Y-107124571D02*
X110158819Y-107124571D01*
X109111200Y-107362666D02*
X109825485Y-107600761D01*
X109825485Y-107600761D02*
X109825485Y-106981714D01*
D11*
X104396217Y-105139609D02*
X104539074Y-105187228D01*
X104539074Y-105187228D02*
X104586693Y-105234847D01*
X104586693Y-105234847D02*
X104634312Y-105330085D01*
X104634312Y-105330085D02*
X104634312Y-105472942D01*
X104634312Y-105472942D02*
X104586693Y-105568180D01*
X104586693Y-105568180D02*
X104539074Y-105615800D01*
X104539074Y-105615800D02*
X104443836Y-105663419D01*
X104443836Y-105663419D02*
X104062884Y-105663419D01*
X104062884Y-105663419D02*
X104062884Y-104663419D01*
X104062884Y-104663419D02*
X104396217Y-104663419D01*
X104396217Y-104663419D02*
X104491455Y-104711038D01*
X104491455Y-104711038D02*
X104539074Y-104758657D01*
X104539074Y-104758657D02*
X104586693Y-104853895D01*
X104586693Y-104853895D02*
X104586693Y-104949133D01*
X104586693Y-104949133D02*
X104539074Y-105044371D01*
X104539074Y-105044371D02*
X104491455Y-105091990D01*
X104491455Y-105091990D02*
X104396217Y-105139609D01*
X104396217Y-105139609D02*
X104062884Y-105139609D01*
X105015265Y-105377704D02*
X105491455Y-105377704D01*
X104920027Y-105663419D02*
X105253360Y-104663419D01*
X105253360Y-104663419D02*
X105586693Y-105663419D01*
X105777170Y-104663419D02*
X106348598Y-104663419D01*
X106062884Y-105663419D02*
X106062884Y-104663419D01*
X106539075Y-104663419D02*
X107110503Y-104663419D01*
X106824789Y-105663419D02*
X106824789Y-104663419D01*
X106807533Y-109269884D02*
X106807533Y-110031789D01*
X104267533Y-109269884D02*
X104267533Y-110031789D01*
X103886580Y-109650836D02*
X104648485Y-109650836D01*
D10*
X106414667Y-71123200D02*
X106557524Y-71170819D01*
X106557524Y-71170819D02*
X106795619Y-71170819D01*
X106795619Y-71170819D02*
X106890857Y-71123200D01*
X106890857Y-71123200D02*
X106938476Y-71075580D01*
X106938476Y-71075580D02*
X106986095Y-70980342D01*
X106986095Y-70980342D02*
X106986095Y-70885104D01*
X106986095Y-70885104D02*
X106938476Y-70789866D01*
X106938476Y-70789866D02*
X106890857Y-70742247D01*
X106890857Y-70742247D02*
X106795619Y-70694628D01*
X106795619Y-70694628D02*
X106605143Y-70647009D01*
X106605143Y-70647009D02*
X106509905Y-70599390D01*
X106509905Y-70599390D02*
X106462286Y-70551771D01*
X106462286Y-70551771D02*
X106414667Y-70456533D01*
X106414667Y-70456533D02*
X106414667Y-70361295D01*
X106414667Y-70361295D02*
X106462286Y-70266057D01*
X106462286Y-70266057D02*
X106509905Y-70218438D01*
X106509905Y-70218438D02*
X106605143Y-70170819D01*
X106605143Y-70170819D02*
X106843238Y-70170819D01*
X106843238Y-70170819D02*
X106986095Y-70218438D01*
X107319429Y-70170819D02*
X107557524Y-71170819D01*
X107557524Y-71170819D02*
X107748000Y-70456533D01*
X107748000Y-70456533D02*
X107938476Y-71170819D01*
X107938476Y-71170819D02*
X108176572Y-70170819D01*
X108462286Y-70170819D02*
X109081333Y-70170819D01*
X109081333Y-70170819D02*
X108748000Y-70551771D01*
X108748000Y-70551771D02*
X108890857Y-70551771D01*
X108890857Y-70551771D02*
X108986095Y-70599390D01*
X108986095Y-70599390D02*
X109033714Y-70647009D01*
X109033714Y-70647009D02*
X109081333Y-70742247D01*
X109081333Y-70742247D02*
X109081333Y-70980342D01*
X109081333Y-70980342D02*
X109033714Y-71075580D01*
X109033714Y-71075580D02*
X108986095Y-71123200D01*
X108986095Y-71123200D02*
X108890857Y-71170819D01*
X108890857Y-71170819D02*
X108605143Y-71170819D01*
X108605143Y-71170819D02*
X108509905Y-71123200D01*
X108509905Y-71123200D02*
X108462286Y-71075580D01*
X146986666Y-96511819D02*
X146986666Y-97226104D01*
X146986666Y-97226104D02*
X146939047Y-97368961D01*
X146939047Y-97368961D02*
X146843809Y-97464200D01*
X146843809Y-97464200D02*
X146700952Y-97511819D01*
X146700952Y-97511819D02*
X146605714Y-97511819D01*
X147367619Y-96511819D02*
X147986666Y-96511819D01*
X147986666Y-96511819D02*
X147653333Y-96892771D01*
X147653333Y-96892771D02*
X147796190Y-96892771D01*
X147796190Y-96892771D02*
X147891428Y-96940390D01*
X147891428Y-96940390D02*
X147939047Y-96988009D01*
X147939047Y-96988009D02*
X147986666Y-97083247D01*
X147986666Y-97083247D02*
X147986666Y-97321342D01*
X147986666Y-97321342D02*
X147939047Y-97416580D01*
X147939047Y-97416580D02*
X147891428Y-97464200D01*
X147891428Y-97464200D02*
X147796190Y-97511819D01*
X147796190Y-97511819D02*
X147510476Y-97511819D01*
X147510476Y-97511819D02*
X147415238Y-97464200D01*
X147415238Y-97464200D02*
X147367619Y-97416580D01*
X149314819Y-96115571D02*
X150314819Y-95782238D01*
X150314819Y-95782238D02*
X149314819Y-95448905D01*
X150267200Y-94734619D02*
X150314819Y-94829857D01*
X150314819Y-94829857D02*
X150314819Y-95020333D01*
X150314819Y-95020333D02*
X150267200Y-95115571D01*
X150267200Y-95115571D02*
X150171961Y-95163190D01*
X150171961Y-95163190D02*
X149791009Y-95163190D01*
X149791009Y-95163190D02*
X149695771Y-95115571D01*
X149695771Y-95115571D02*
X149648152Y-95020333D01*
X149648152Y-95020333D02*
X149648152Y-94829857D01*
X149648152Y-94829857D02*
X149695771Y-94734619D01*
X149695771Y-94734619D02*
X149791009Y-94687000D01*
X149791009Y-94687000D02*
X149886247Y-94687000D01*
X149886247Y-94687000D02*
X149981485Y-95163190D01*
X149648152Y-94258428D02*
X150314819Y-94258428D01*
X149743390Y-94258428D02*
X149695771Y-94210809D01*
X149695771Y-94210809D02*
X149648152Y-94115571D01*
X149648152Y-94115571D02*
X149648152Y-93972714D01*
X149648152Y-93972714D02*
X149695771Y-93877476D01*
X149695771Y-93877476D02*
X149791009Y-93829857D01*
X149791009Y-93829857D02*
X150314819Y-93829857D01*
X149648152Y-93496523D02*
X149648152Y-93115571D01*
X149314819Y-93353666D02*
X150171961Y-93353666D01*
X150171961Y-93353666D02*
X150267200Y-93306047D01*
X150267200Y-93306047D02*
X150314819Y-93210809D01*
X150314819Y-93210809D02*
X150314819Y-93115571D01*
X150267200Y-92067951D02*
X150314819Y-91925094D01*
X150314819Y-91925094D02*
X150314819Y-91686999D01*
X150314819Y-91686999D02*
X150267200Y-91591761D01*
X150267200Y-91591761D02*
X150219580Y-91544142D01*
X150219580Y-91544142D02*
X150124342Y-91496523D01*
X150124342Y-91496523D02*
X150029104Y-91496523D01*
X150029104Y-91496523D02*
X149933866Y-91544142D01*
X149933866Y-91544142D02*
X149886247Y-91591761D01*
X149886247Y-91591761D02*
X149838628Y-91686999D01*
X149838628Y-91686999D02*
X149791009Y-91877475D01*
X149791009Y-91877475D02*
X149743390Y-91972713D01*
X149743390Y-91972713D02*
X149695771Y-92020332D01*
X149695771Y-92020332D02*
X149600533Y-92067951D01*
X149600533Y-92067951D02*
X149505295Y-92067951D01*
X149505295Y-92067951D02*
X149410057Y-92020332D01*
X149410057Y-92020332D02*
X149362438Y-91972713D01*
X149362438Y-91972713D02*
X149314819Y-91877475D01*
X149314819Y-91877475D02*
X149314819Y-91639380D01*
X149314819Y-91639380D02*
X149362438Y-91496523D01*
X150267200Y-90686999D02*
X150314819Y-90782237D01*
X150314819Y-90782237D02*
X150314819Y-90972713D01*
X150314819Y-90972713D02*
X150267200Y-91067951D01*
X150267200Y-91067951D02*
X150171961Y-91115570D01*
X150171961Y-91115570D02*
X149791009Y-91115570D01*
X149791009Y-91115570D02*
X149695771Y-91067951D01*
X149695771Y-91067951D02*
X149648152Y-90972713D01*
X149648152Y-90972713D02*
X149648152Y-90782237D01*
X149648152Y-90782237D02*
X149695771Y-90686999D01*
X149695771Y-90686999D02*
X149791009Y-90639380D01*
X149791009Y-90639380D02*
X149886247Y-90639380D01*
X149886247Y-90639380D02*
X149981485Y-91115570D01*
X150314819Y-90210808D02*
X149648152Y-90210808D01*
X149838628Y-90210808D02*
X149743390Y-90163189D01*
X149743390Y-90163189D02*
X149695771Y-90115570D01*
X149695771Y-90115570D02*
X149648152Y-90020332D01*
X149648152Y-90020332D02*
X149648152Y-89925094D01*
X149648152Y-89686998D02*
X150314819Y-89448903D01*
X150314819Y-89448903D02*
X149648152Y-89210808D01*
X150314819Y-88686998D02*
X150267200Y-88782236D01*
X150267200Y-88782236D02*
X150219580Y-88829855D01*
X150219580Y-88829855D02*
X150124342Y-88877474D01*
X150124342Y-88877474D02*
X149838628Y-88877474D01*
X149838628Y-88877474D02*
X149743390Y-88829855D01*
X149743390Y-88829855D02*
X149695771Y-88782236D01*
X149695771Y-88782236D02*
X149648152Y-88686998D01*
X149648152Y-88686998D02*
X149648152Y-88544141D01*
X149648152Y-88544141D02*
X149695771Y-88448903D01*
X149695771Y-88448903D02*
X149743390Y-88401284D01*
X149743390Y-88401284D02*
X149838628Y-88353665D01*
X149838628Y-88353665D02*
X150124342Y-88353665D01*
X150124342Y-88353665D02*
X150219580Y-88401284D01*
X150219580Y-88401284D02*
X150267200Y-88448903D01*
X150267200Y-88448903D02*
X150314819Y-88544141D01*
X150314819Y-88544141D02*
X150314819Y-88686998D01*
X101213833Y-101451580D02*
X101166214Y-101499200D01*
X101166214Y-101499200D02*
X101023357Y-101546819D01*
X101023357Y-101546819D02*
X100928119Y-101546819D01*
X100928119Y-101546819D02*
X100785262Y-101499200D01*
X100785262Y-101499200D02*
X100690024Y-101403961D01*
X100690024Y-101403961D02*
X100642405Y-101308723D01*
X100642405Y-101308723D02*
X100594786Y-101118247D01*
X100594786Y-101118247D02*
X100594786Y-100975390D01*
X100594786Y-100975390D02*
X100642405Y-100784914D01*
X100642405Y-100784914D02*
X100690024Y-100689676D01*
X100690024Y-100689676D02*
X100785262Y-100594438D01*
X100785262Y-100594438D02*
X100928119Y-100546819D01*
X100928119Y-100546819D02*
X101023357Y-100546819D01*
X101023357Y-100546819D02*
X101166214Y-100594438D01*
X101166214Y-100594438D02*
X101213833Y-100642057D01*
X101594786Y-100642057D02*
X101642405Y-100594438D01*
X101642405Y-100594438D02*
X101737643Y-100546819D01*
X101737643Y-100546819D02*
X101975738Y-100546819D01*
X101975738Y-100546819D02*
X102070976Y-100594438D01*
X102070976Y-100594438D02*
X102118595Y-100642057D01*
X102118595Y-100642057D02*
X102166214Y-100737295D01*
X102166214Y-100737295D02*
X102166214Y-100832533D01*
X102166214Y-100832533D02*
X102118595Y-100975390D01*
X102118595Y-100975390D02*
X101547167Y-101546819D01*
X101547167Y-101546819D02*
X102166214Y-101546819D01*
X102436452Y-102226819D02*
X102531690Y-102226819D01*
X102531690Y-102226819D02*
X102626928Y-102274438D01*
X102626928Y-102274438D02*
X102674547Y-102322057D01*
X102674547Y-102322057D02*
X102722166Y-102417295D01*
X102722166Y-102417295D02*
X102769785Y-102607771D01*
X102769785Y-102607771D02*
X102769785Y-102845866D01*
X102769785Y-102845866D02*
X102722166Y-103036342D01*
X102722166Y-103036342D02*
X102674547Y-103131580D01*
X102674547Y-103131580D02*
X102626928Y-103179200D01*
X102626928Y-103179200D02*
X102531690Y-103226819D01*
X102531690Y-103226819D02*
X102436452Y-103226819D01*
X102436452Y-103226819D02*
X102341214Y-103179200D01*
X102341214Y-103179200D02*
X102293595Y-103131580D01*
X102293595Y-103131580D02*
X102245976Y-103036342D01*
X102245976Y-103036342D02*
X102198357Y-102845866D01*
X102198357Y-102845866D02*
X102198357Y-102607771D01*
X102198357Y-102607771D02*
X102245976Y-102417295D01*
X102245976Y-102417295D02*
X102293595Y-102322057D01*
X102293595Y-102322057D02*
X102341214Y-102274438D01*
X102341214Y-102274438D02*
X102436452Y-102226819D01*
X103198357Y-103131580D02*
X103245976Y-103179200D01*
X103245976Y-103179200D02*
X103198357Y-103226819D01*
X103198357Y-103226819D02*
X103150738Y-103179200D01*
X103150738Y-103179200D02*
X103198357Y-103131580D01*
X103198357Y-103131580D02*
X103198357Y-103226819D01*
X104103118Y-102560152D02*
X104103118Y-103226819D01*
X103865023Y-102179200D02*
X103626928Y-102893485D01*
X103626928Y-102893485D02*
X104245975Y-102893485D01*
X104531690Y-102226819D02*
X105198356Y-102226819D01*
X105198356Y-102226819D02*
X104769785Y-103226819D01*
X106007880Y-102560152D02*
X106007880Y-103226819D01*
X105579309Y-102560152D02*
X105579309Y-103083961D01*
X105579309Y-103083961D02*
X105626928Y-103179200D01*
X105626928Y-103179200D02*
X105722166Y-103226819D01*
X105722166Y-103226819D02*
X105865023Y-103226819D01*
X105865023Y-103226819D02*
X105960261Y-103179200D01*
X105960261Y-103179200D02*
X106007880Y-103131580D01*
X106817404Y-102703009D02*
X106484071Y-102703009D01*
X106484071Y-103226819D02*
X106484071Y-102226819D01*
X106484071Y-102226819D02*
X106960261Y-102226819D01*
X146986666Y-86112819D02*
X146986666Y-86827104D01*
X146986666Y-86827104D02*
X146939047Y-86969961D01*
X146939047Y-86969961D02*
X146843809Y-87065200D01*
X146843809Y-87065200D02*
X146700952Y-87112819D01*
X146700952Y-87112819D02*
X146605714Y-87112819D01*
X147986666Y-87112819D02*
X147415238Y-87112819D01*
X147700952Y-87112819D02*
X147700952Y-86112819D01*
X147700952Y-86112819D02*
X147605714Y-86255676D01*
X147605714Y-86255676D02*
X147510476Y-86350914D01*
X147510476Y-86350914D02*
X147415238Y-86398533D01*
X110577333Y-104499580D02*
X110529714Y-104547200D01*
X110529714Y-104547200D02*
X110386857Y-104594819D01*
X110386857Y-104594819D02*
X110291619Y-104594819D01*
X110291619Y-104594819D02*
X110148762Y-104547200D01*
X110148762Y-104547200D02*
X110053524Y-104451961D01*
X110053524Y-104451961D02*
X110005905Y-104356723D01*
X110005905Y-104356723D02*
X109958286Y-104166247D01*
X109958286Y-104166247D02*
X109958286Y-104023390D01*
X109958286Y-104023390D02*
X110005905Y-103832914D01*
X110005905Y-103832914D02*
X110053524Y-103737676D01*
X110053524Y-103737676D02*
X110148762Y-103642438D01*
X110148762Y-103642438D02*
X110291619Y-103594819D01*
X110291619Y-103594819D02*
X110386857Y-103594819D01*
X110386857Y-103594819D02*
X110529714Y-103642438D01*
X110529714Y-103642438D02*
X110577333Y-103690057D01*
X110910667Y-103594819D02*
X111529714Y-103594819D01*
X111529714Y-103594819D02*
X111196381Y-103975771D01*
X111196381Y-103975771D02*
X111339238Y-103975771D01*
X111339238Y-103975771D02*
X111434476Y-104023390D01*
X111434476Y-104023390D02*
X111482095Y-104071009D01*
X111482095Y-104071009D02*
X111529714Y-104166247D01*
X111529714Y-104166247D02*
X111529714Y-104404342D01*
X111529714Y-104404342D02*
X111482095Y-104499580D01*
X111482095Y-104499580D02*
X111434476Y-104547200D01*
X111434476Y-104547200D02*
X111339238Y-104594819D01*
X111339238Y-104594819D02*
X111053524Y-104594819D01*
X111053524Y-104594819D02*
X110958286Y-104547200D01*
X110958286Y-104547200D02*
X110910667Y-104499580D01*
X109305643Y-102322057D02*
X109353262Y-102274438D01*
X109353262Y-102274438D02*
X109448500Y-102226819D01*
X109448500Y-102226819D02*
X109686595Y-102226819D01*
X109686595Y-102226819D02*
X109781833Y-102274438D01*
X109781833Y-102274438D02*
X109829452Y-102322057D01*
X109829452Y-102322057D02*
X109877071Y-102417295D01*
X109877071Y-102417295D02*
X109877071Y-102512533D01*
X109877071Y-102512533D02*
X109829452Y-102655390D01*
X109829452Y-102655390D02*
X109258024Y-103226819D01*
X109258024Y-103226819D02*
X109877071Y-103226819D01*
X110258024Y-102322057D02*
X110305643Y-102274438D01*
X110305643Y-102274438D02*
X110400881Y-102226819D01*
X110400881Y-102226819D02*
X110638976Y-102226819D01*
X110638976Y-102226819D02*
X110734214Y-102274438D01*
X110734214Y-102274438D02*
X110781833Y-102322057D01*
X110781833Y-102322057D02*
X110829452Y-102417295D01*
X110829452Y-102417295D02*
X110829452Y-102512533D01*
X110829452Y-102512533D02*
X110781833Y-102655390D01*
X110781833Y-102655390D02*
X110210405Y-103226819D01*
X110210405Y-103226819D02*
X110829452Y-103226819D01*
X111686595Y-102560152D02*
X111686595Y-103226819D01*
X111258024Y-102560152D02*
X111258024Y-103083961D01*
X111258024Y-103083961D02*
X111305643Y-103179200D01*
X111305643Y-103179200D02*
X111400881Y-103226819D01*
X111400881Y-103226819D02*
X111543738Y-103226819D01*
X111543738Y-103226819D02*
X111638976Y-103179200D01*
X111638976Y-103179200D02*
X111686595Y-103131580D01*
X112496119Y-102703009D02*
X112162786Y-102703009D01*
X112162786Y-103226819D02*
X112162786Y-102226819D01*
X112162786Y-102226819D02*
X112638976Y-102226819D01*
X106863095Y-100546819D02*
X106863095Y-101356342D01*
X106863095Y-101356342D02*
X106910714Y-101451580D01*
X106910714Y-101451580D02*
X106958333Y-101499200D01*
X106958333Y-101499200D02*
X107053571Y-101546819D01*
X107053571Y-101546819D02*
X107244047Y-101546819D01*
X107244047Y-101546819D02*
X107339285Y-101499200D01*
X107339285Y-101499200D02*
X107386904Y-101451580D01*
X107386904Y-101451580D02*
X107434523Y-101356342D01*
X107434523Y-101356342D02*
X107434523Y-100546819D01*
X107815476Y-100546819D02*
X108434523Y-100546819D01*
X108434523Y-100546819D02*
X108101190Y-100927771D01*
X108101190Y-100927771D02*
X108244047Y-100927771D01*
X108244047Y-100927771D02*
X108339285Y-100975390D01*
X108339285Y-100975390D02*
X108386904Y-101023009D01*
X108386904Y-101023009D02*
X108434523Y-101118247D01*
X108434523Y-101118247D02*
X108434523Y-101356342D01*
X108434523Y-101356342D02*
X108386904Y-101451580D01*
X108386904Y-101451580D02*
X108339285Y-101499200D01*
X108339285Y-101499200D02*
X108244047Y-101546819D01*
X108244047Y-101546819D02*
X107958333Y-101546819D01*
X107958333Y-101546819D02*
X107863095Y-101499200D01*
X107863095Y-101499200D02*
X107815476Y-101451580D01*
X105458333Y-94561819D02*
X104982143Y-94561819D01*
X104982143Y-94561819D02*
X104982143Y-93561819D01*
X105791667Y-94561819D02*
X105791667Y-93561819D01*
X105791667Y-93561819D02*
X106125000Y-94276104D01*
X106125000Y-94276104D02*
X106458333Y-93561819D01*
X106458333Y-93561819D02*
X106458333Y-94561819D01*
X106886905Y-93657057D02*
X106934524Y-93609438D01*
X106934524Y-93609438D02*
X107029762Y-93561819D01*
X107029762Y-93561819D02*
X107267857Y-93561819D01*
X107267857Y-93561819D02*
X107363095Y-93609438D01*
X107363095Y-93609438D02*
X107410714Y-93657057D01*
X107410714Y-93657057D02*
X107458333Y-93752295D01*
X107458333Y-93752295D02*
X107458333Y-93847533D01*
X107458333Y-93847533D02*
X107410714Y-93990390D01*
X107410714Y-93990390D02*
X106839286Y-94561819D01*
X106839286Y-94561819D02*
X107458333Y-94561819D01*
X107934524Y-94561819D02*
X108125000Y-94561819D01*
X108125000Y-94561819D02*
X108220238Y-94514200D01*
X108220238Y-94514200D02*
X108267857Y-94466580D01*
X108267857Y-94466580D02*
X108363095Y-94323723D01*
X108363095Y-94323723D02*
X108410714Y-94133247D01*
X108410714Y-94133247D02*
X108410714Y-93752295D01*
X108410714Y-93752295D02*
X108363095Y-93657057D01*
X108363095Y-93657057D02*
X108315476Y-93609438D01*
X108315476Y-93609438D02*
X108220238Y-93561819D01*
X108220238Y-93561819D02*
X108029762Y-93561819D01*
X108029762Y-93561819D02*
X107934524Y-93609438D01*
X107934524Y-93609438D02*
X107886905Y-93657057D01*
X107886905Y-93657057D02*
X107839286Y-93752295D01*
X107839286Y-93752295D02*
X107839286Y-93990390D01*
X107839286Y-93990390D02*
X107886905Y-94085628D01*
X107886905Y-94085628D02*
X107934524Y-94133247D01*
X107934524Y-94133247D02*
X108029762Y-94180866D01*
X108029762Y-94180866D02*
X108220238Y-94180866D01*
X108220238Y-94180866D02*
X108315476Y-94133247D01*
X108315476Y-94133247D02*
X108363095Y-94085628D01*
X108363095Y-94085628D02*
X108410714Y-93990390D01*
X109267857Y-93895152D02*
X109267857Y-94561819D01*
X109029762Y-93514200D02*
X108791667Y-94228485D01*
X108791667Y-94228485D02*
X109410714Y-94228485D01*
X109982143Y-93561819D02*
X110077381Y-93561819D01*
X110077381Y-93561819D02*
X110172619Y-93609438D01*
X110172619Y-93609438D02*
X110220238Y-93657057D01*
X110220238Y-93657057D02*
X110267857Y-93752295D01*
X110267857Y-93752295D02*
X110315476Y-93942771D01*
X110315476Y-93942771D02*
X110315476Y-94180866D01*
X110315476Y-94180866D02*
X110267857Y-94371342D01*
X110267857Y-94371342D02*
X110220238Y-94466580D01*
X110220238Y-94466580D02*
X110172619Y-94514200D01*
X110172619Y-94514200D02*
X110077381Y-94561819D01*
X110077381Y-94561819D02*
X109982143Y-94561819D01*
X109982143Y-94561819D02*
X109886905Y-94514200D01*
X109886905Y-94514200D02*
X109839286Y-94466580D01*
X109839286Y-94466580D02*
X109791667Y-94371342D01*
X109791667Y-94371342D02*
X109744048Y-94180866D01*
X109744048Y-94180866D02*
X109744048Y-93942771D01*
X109744048Y-93942771D02*
X109791667Y-93752295D01*
X109791667Y-93752295D02*
X109839286Y-93657057D01*
X109839286Y-93657057D02*
X109886905Y-93609438D01*
X109886905Y-93609438D02*
X109982143Y-93561819D01*
X98673833Y-101451580D02*
X98626214Y-101499200D01*
X98626214Y-101499200D02*
X98483357Y-101546819D01*
X98483357Y-101546819D02*
X98388119Y-101546819D01*
X98388119Y-101546819D02*
X98245262Y-101499200D01*
X98245262Y-101499200D02*
X98150024Y-101403961D01*
X98150024Y-101403961D02*
X98102405Y-101308723D01*
X98102405Y-101308723D02*
X98054786Y-101118247D01*
X98054786Y-101118247D02*
X98054786Y-100975390D01*
X98054786Y-100975390D02*
X98102405Y-100784914D01*
X98102405Y-100784914D02*
X98150024Y-100689676D01*
X98150024Y-100689676D02*
X98245262Y-100594438D01*
X98245262Y-100594438D02*
X98388119Y-100546819D01*
X98388119Y-100546819D02*
X98483357Y-100546819D01*
X98483357Y-100546819D02*
X98626214Y-100594438D01*
X98626214Y-100594438D02*
X98673833Y-100642057D01*
X99530976Y-100880152D02*
X99530976Y-101546819D01*
X99292881Y-100499200D02*
X99054786Y-101213485D01*
X99054786Y-101213485D02*
X99673833Y-101213485D01*
X97194857Y-102721580D02*
X97242476Y-102769200D01*
X97242476Y-102769200D02*
X97194857Y-102816819D01*
X97194857Y-102816819D02*
X97147238Y-102769200D01*
X97147238Y-102769200D02*
X97194857Y-102721580D01*
X97194857Y-102721580D02*
X97194857Y-102816819D01*
X98194856Y-102816819D02*
X97623428Y-102816819D01*
X97909142Y-102816819D02*
X97909142Y-101816819D01*
X97909142Y-101816819D02*
X97813904Y-101959676D01*
X97813904Y-101959676D02*
X97718666Y-102054914D01*
X97718666Y-102054914D02*
X97623428Y-102102533D01*
X99051999Y-102150152D02*
X99051999Y-102816819D01*
X98623428Y-102150152D02*
X98623428Y-102673961D01*
X98623428Y-102673961D02*
X98671047Y-102769200D01*
X98671047Y-102769200D02*
X98766285Y-102816819D01*
X98766285Y-102816819D02*
X98909142Y-102816819D01*
X98909142Y-102816819D02*
X99004380Y-102769200D01*
X99004380Y-102769200D02*
X99051999Y-102721580D01*
X99861523Y-102293009D02*
X99528190Y-102293009D01*
X99528190Y-102816819D02*
X99528190Y-101816819D01*
X99528190Y-101816819D02*
X100004380Y-101816819D01*
X100147333Y-76020819D02*
X99814000Y-75544628D01*
X99575905Y-76020819D02*
X99575905Y-75020819D01*
X99575905Y-75020819D02*
X99956857Y-75020819D01*
X99956857Y-75020819D02*
X100052095Y-75068438D01*
X100052095Y-75068438D02*
X100099714Y-75116057D01*
X100099714Y-75116057D02*
X100147333Y-75211295D01*
X100147333Y-75211295D02*
X100147333Y-75354152D01*
X100147333Y-75354152D02*
X100099714Y-75449390D01*
X100099714Y-75449390D02*
X100052095Y-75497009D01*
X100052095Y-75497009D02*
X99956857Y-75544628D01*
X99956857Y-75544628D02*
X99575905Y-75544628D01*
X100480667Y-75020819D02*
X101099714Y-75020819D01*
X101099714Y-75020819D02*
X100766381Y-75401771D01*
X100766381Y-75401771D02*
X100909238Y-75401771D01*
X100909238Y-75401771D02*
X101004476Y-75449390D01*
X101004476Y-75449390D02*
X101052095Y-75497009D01*
X101052095Y-75497009D02*
X101099714Y-75592247D01*
X101099714Y-75592247D02*
X101099714Y-75830342D01*
X101099714Y-75830342D02*
X101052095Y-75925580D01*
X101052095Y-75925580D02*
X101004476Y-75973200D01*
X101004476Y-75973200D02*
X100909238Y-76020819D01*
X100909238Y-76020819D02*
X100623524Y-76020819D01*
X100623524Y-76020819D02*
X100528286Y-75973200D01*
X100528286Y-75973200D02*
X100480667Y-75925580D01*
X76644667Y-94597200D02*
X76787524Y-94644819D01*
X76787524Y-94644819D02*
X77025619Y-94644819D01*
X77025619Y-94644819D02*
X77120857Y-94597200D01*
X77120857Y-94597200D02*
X77168476Y-94549580D01*
X77168476Y-94549580D02*
X77216095Y-94454342D01*
X77216095Y-94454342D02*
X77216095Y-94359104D01*
X77216095Y-94359104D02*
X77168476Y-94263866D01*
X77168476Y-94263866D02*
X77120857Y-94216247D01*
X77120857Y-94216247D02*
X77025619Y-94168628D01*
X77025619Y-94168628D02*
X76835143Y-94121009D01*
X76835143Y-94121009D02*
X76739905Y-94073390D01*
X76739905Y-94073390D02*
X76692286Y-94025771D01*
X76692286Y-94025771D02*
X76644667Y-93930533D01*
X76644667Y-93930533D02*
X76644667Y-93835295D01*
X76644667Y-93835295D02*
X76692286Y-93740057D01*
X76692286Y-93740057D02*
X76739905Y-93692438D01*
X76739905Y-93692438D02*
X76835143Y-93644819D01*
X76835143Y-93644819D02*
X77073238Y-93644819D01*
X77073238Y-93644819D02*
X77216095Y-93692438D01*
X77549429Y-93644819D02*
X77787524Y-94644819D01*
X77787524Y-94644819D02*
X77978000Y-93930533D01*
X77978000Y-93930533D02*
X78168476Y-94644819D01*
X78168476Y-94644819D02*
X78406572Y-93644819D01*
X79311333Y-94644819D02*
X78739905Y-94644819D01*
X79025619Y-94644819D02*
X79025619Y-93644819D01*
X79025619Y-93644819D02*
X78930381Y-93787676D01*
X78930381Y-93787676D02*
X78835143Y-93882914D01*
X78835143Y-93882914D02*
X78739905Y-93930533D01*
X85621905Y-103793819D02*
X85621905Y-102793819D01*
X85621905Y-102793819D02*
X85860000Y-102793819D01*
X85860000Y-102793819D02*
X86002857Y-102841438D01*
X86002857Y-102841438D02*
X86098095Y-102936676D01*
X86098095Y-102936676D02*
X86145714Y-103031914D01*
X86145714Y-103031914D02*
X86193333Y-103222390D01*
X86193333Y-103222390D02*
X86193333Y-103365247D01*
X86193333Y-103365247D02*
X86145714Y-103555723D01*
X86145714Y-103555723D02*
X86098095Y-103650961D01*
X86098095Y-103650961D02*
X86002857Y-103746200D01*
X86002857Y-103746200D02*
X85860000Y-103793819D01*
X85860000Y-103793819D02*
X85621905Y-103793819D01*
X87145714Y-103793819D02*
X86574286Y-103793819D01*
X86860000Y-103793819D02*
X86860000Y-102793819D01*
X86860000Y-102793819D02*
X86764762Y-102936676D01*
X86764762Y-102936676D02*
X86669524Y-103031914D01*
X86669524Y-103031914D02*
X86574286Y-103079533D01*
D12*
%TO.C,U1*%
X113792000Y-76200000D02*
X113792000Y-105410000D01*
X113792000Y-105410000D02*
X116332000Y-105410000D01*
X116332000Y-73660000D02*
X113792000Y-76200000D01*
X116332000Y-73660000D02*
X117602000Y-73660000D01*
X116332000Y-105410000D02*
X116332000Y-110490000D01*
X116332000Y-110490000D02*
X144272000Y-110490000D01*
X123952000Y-107950000D02*
X134112000Y-107950000D01*
X123952000Y-110490000D02*
X123952000Y-107950000D01*
X134112000Y-107950000D02*
X134112000Y-110490000D01*
X141732000Y-73660000D02*
X117602000Y-73660000D01*
X141732000Y-73660000D02*
X144272000Y-76200000D01*
X144272000Y-76200000D02*
X144272000Y-110490000D01*
D11*
X116332000Y-109220000D02*
X115062000Y-109220000D01*
X115062000Y-106680000D01*
X116332000Y-106680000D01*
X116332000Y-109220000D01*
G36*
X116332000Y-109220000D02*
G01*
X115062000Y-109220000D01*
X115062000Y-106680000D01*
X116332000Y-106680000D01*
X116332000Y-109220000D01*
G37*
D12*
%TO.C,TP3*%
X153744000Y-81100000D02*
X156644000Y-81100000D01*
X153744000Y-84000000D02*
X153744000Y-81100000D01*
X156644000Y-81100000D02*
X156644000Y-84000000D01*
X156644000Y-84000000D02*
X153744000Y-84000000D01*
%TO.C,TP2*%
X152580000Y-100002000D02*
X149680000Y-100002000D01*
X152580000Y-97102000D02*
X152580000Y-100002000D01*
X149680000Y-100002000D02*
X149680000Y-97102000D01*
X149680000Y-97102000D02*
X152580000Y-97102000D01*
%TO.C,TP1*%
X153744000Y-75512000D02*
X156644000Y-75512000D01*
X153744000Y-78412000D02*
X153744000Y-75512000D01*
X156644000Y-75512000D02*
X156644000Y-78412000D01*
X156644000Y-78412000D02*
X153744000Y-78412000D01*
%TO.C,C6*%
X150817789Y-103489000D02*
X151567789Y-103489000D01*
X151192789Y-103114000D02*
X151192789Y-103864000D01*
X154960000Y-101834000D02*
X154960000Y-109494000D01*
X155000000Y-101834000D02*
X155000000Y-109494000D01*
X155040000Y-101834000D02*
X155040000Y-109494000D01*
X155080000Y-101835000D02*
X155080000Y-109493000D01*
X155120000Y-101837000D02*
X155120000Y-109491000D01*
X155160000Y-101839000D02*
X155160000Y-109489000D01*
X155200000Y-101841000D02*
X155200000Y-104624000D01*
X155200000Y-106704000D02*
X155200000Y-109487000D01*
X155240000Y-101844000D02*
X155240000Y-104624000D01*
X155240000Y-106704000D02*
X155240000Y-109484000D01*
X155280000Y-101847000D02*
X155280000Y-104624000D01*
X155280000Y-106704000D02*
X155280000Y-109481000D01*
X155320000Y-101850000D02*
X155320000Y-104624000D01*
X155320000Y-106704000D02*
X155320000Y-109478000D01*
X155360000Y-101854000D02*
X155360000Y-104624000D01*
X155360000Y-106704000D02*
X155360000Y-109474000D01*
X155400000Y-101859000D02*
X155400000Y-104624000D01*
X155400000Y-106704000D02*
X155400000Y-109469000D01*
X155440000Y-101863000D02*
X155440000Y-104624000D01*
X155440000Y-106704000D02*
X155440000Y-109465000D01*
X155480000Y-101869000D02*
X155480000Y-104624000D01*
X155480000Y-106704000D02*
X155480000Y-109459000D01*
X155520000Y-101874000D02*
X155520000Y-104624000D01*
X155520000Y-106704000D02*
X155520000Y-109454000D01*
X155560000Y-101880000D02*
X155560000Y-104624000D01*
X155560000Y-106704000D02*
X155560000Y-109448000D01*
X155600000Y-101887000D02*
X155600000Y-104624000D01*
X155600000Y-106704000D02*
X155600000Y-109441000D01*
X155640000Y-101894000D02*
X155640000Y-104624000D01*
X155640000Y-106704000D02*
X155640000Y-109434000D01*
X155681000Y-101901000D02*
X155681000Y-104624000D01*
X155681000Y-106704000D02*
X155681000Y-109427000D01*
X155721000Y-101909000D02*
X155721000Y-104624000D01*
X155721000Y-106704000D02*
X155721000Y-109419000D01*
X155761000Y-101917000D02*
X155761000Y-104624000D01*
X155761000Y-106704000D02*
X155761000Y-109411000D01*
X155801000Y-101926000D02*
X155801000Y-104624000D01*
X155801000Y-106704000D02*
X155801000Y-109402000D01*
X155841000Y-101935000D02*
X155841000Y-104624000D01*
X155841000Y-106704000D02*
X155841000Y-109393000D01*
X155881000Y-101944000D02*
X155881000Y-104624000D01*
X155881000Y-106704000D02*
X155881000Y-109384000D01*
X155921000Y-101954000D02*
X155921000Y-104624000D01*
X155921000Y-106704000D02*
X155921000Y-109374000D01*
X155961000Y-101965000D02*
X155961000Y-104624000D01*
X155961000Y-106704000D02*
X155961000Y-109363000D01*
X156001000Y-101976000D02*
X156001000Y-104624000D01*
X156001000Y-106704000D02*
X156001000Y-109352000D01*
X156041000Y-101987000D02*
X156041000Y-104624000D01*
X156041000Y-106704000D02*
X156041000Y-109341000D01*
X156081000Y-101999000D02*
X156081000Y-104624000D01*
X156081000Y-106704000D02*
X156081000Y-109329000D01*
X156121000Y-102011000D02*
X156121000Y-104624000D01*
X156121000Y-106704000D02*
X156121000Y-109317000D01*
X156161000Y-102024000D02*
X156161000Y-104624000D01*
X156161000Y-106704000D02*
X156161000Y-109304000D01*
X156201000Y-102038000D02*
X156201000Y-104624000D01*
X156201000Y-106704000D02*
X156201000Y-109290000D01*
X156241000Y-102051000D02*
X156241000Y-104624000D01*
X156241000Y-106704000D02*
X156241000Y-109277000D01*
X156281000Y-102066000D02*
X156281000Y-104624000D01*
X156281000Y-106704000D02*
X156281000Y-109262000D01*
X156321000Y-102080000D02*
X156321000Y-104624000D01*
X156321000Y-106704000D02*
X156321000Y-109248000D01*
X156361000Y-102096000D02*
X156361000Y-104624000D01*
X156361000Y-106704000D02*
X156361000Y-109232000D01*
X156401000Y-102111000D02*
X156401000Y-104624000D01*
X156401000Y-106704000D02*
X156401000Y-109217000D01*
X156441000Y-102128000D02*
X156441000Y-104624000D01*
X156441000Y-106704000D02*
X156441000Y-109200000D01*
X156481000Y-102144000D02*
X156481000Y-104624000D01*
X156481000Y-106704000D02*
X156481000Y-109184000D01*
X156521000Y-102162000D02*
X156521000Y-104624000D01*
X156521000Y-106704000D02*
X156521000Y-109166000D01*
X156561000Y-102180000D02*
X156561000Y-104624000D01*
X156561000Y-106704000D02*
X156561000Y-109148000D01*
X156601000Y-102198000D02*
X156601000Y-104624000D01*
X156601000Y-106704000D02*
X156601000Y-109130000D01*
X156641000Y-102217000D02*
X156641000Y-104624000D01*
X156641000Y-106704000D02*
X156641000Y-109111000D01*
X156681000Y-102237000D02*
X156681000Y-104624000D01*
X156681000Y-106704000D02*
X156681000Y-109091000D01*
X156721000Y-102257000D02*
X156721000Y-104624000D01*
X156721000Y-106704000D02*
X156721000Y-109071000D01*
X156761000Y-102278000D02*
X156761000Y-104624000D01*
X156761000Y-106704000D02*
X156761000Y-109050000D01*
X156801000Y-102299000D02*
X156801000Y-104624000D01*
X156801000Y-106704000D02*
X156801000Y-109029000D01*
X156841000Y-102321000D02*
X156841000Y-104624000D01*
X156841000Y-106704000D02*
X156841000Y-109007000D01*
X156881000Y-102343000D02*
X156881000Y-104624000D01*
X156881000Y-106704000D02*
X156881000Y-108985000D01*
X156921000Y-102367000D02*
X156921000Y-104624000D01*
X156921000Y-106704000D02*
X156921000Y-108961000D01*
X156961000Y-102390000D02*
X156961000Y-104624000D01*
X156961000Y-106704000D02*
X156961000Y-108938000D01*
X157001000Y-102415000D02*
X157001000Y-104624000D01*
X157001000Y-106704000D02*
X157001000Y-108913000D01*
X157041000Y-102440000D02*
X157041000Y-104624000D01*
X157041000Y-106704000D02*
X157041000Y-108888000D01*
X157081000Y-102466000D02*
X157081000Y-104624000D01*
X157081000Y-106704000D02*
X157081000Y-108862000D01*
X157121000Y-102492000D02*
X157121000Y-104624000D01*
X157121000Y-106704000D02*
X157121000Y-108836000D01*
X157161000Y-102520000D02*
X157161000Y-104624000D01*
X157161000Y-106704000D02*
X157161000Y-108808000D01*
X157201000Y-102548000D02*
X157201000Y-104624000D01*
X157201000Y-106704000D02*
X157201000Y-108780000D01*
X157241000Y-102576000D02*
X157241000Y-104624000D01*
X157241000Y-106704000D02*
X157241000Y-108752000D01*
X157281000Y-102606000D02*
X157281000Y-108722000D01*
X157321000Y-102636000D02*
X157321000Y-108692000D01*
X157361000Y-102668000D02*
X157361000Y-108660000D01*
X157401000Y-102700000D02*
X157401000Y-108628000D01*
X157441000Y-102733000D02*
X157441000Y-108595000D01*
X157481000Y-102766000D02*
X157481000Y-108562000D01*
X157521000Y-102801000D02*
X157521000Y-108527000D01*
X157561000Y-102837000D02*
X157561000Y-108491000D01*
X157601000Y-102874000D02*
X157601000Y-108454000D01*
X157641000Y-102912000D02*
X157641000Y-108416000D01*
X157681000Y-102951000D02*
X157681000Y-108377000D01*
X157721000Y-102991000D02*
X157721000Y-108337000D01*
X157761000Y-103032000D02*
X157761000Y-108296000D01*
X157801000Y-103075000D02*
X157801000Y-108253000D01*
X157841000Y-103118000D02*
X157841000Y-108210000D01*
X157881000Y-103164000D02*
X157881000Y-108164000D01*
X157921000Y-103210000D02*
X157921000Y-108118000D01*
X157961000Y-103259000D02*
X157961000Y-108069000D01*
X158001000Y-103309000D02*
X158001000Y-108019000D01*
X158041000Y-103360000D02*
X158041000Y-107968000D01*
X158081000Y-103414000D02*
X158081000Y-107914000D01*
X158121000Y-103469000D02*
X158121000Y-107859000D01*
X158161000Y-103527000D02*
X158161000Y-107801000D01*
X158201000Y-103587000D02*
X158201000Y-107741000D01*
X158241000Y-103650000D02*
X158241000Y-107678000D01*
X158281000Y-103715000D02*
X158281000Y-107613000D01*
X158321000Y-103783000D02*
X158321000Y-107545000D01*
X158361000Y-103855000D02*
X158361000Y-107473000D01*
X158401000Y-103931000D02*
X158401000Y-107397000D01*
X158441000Y-104010000D02*
X158441000Y-107318000D01*
X158481000Y-104095000D02*
X158481000Y-107233000D01*
X158521000Y-104186000D02*
X158521000Y-107142000D01*
X158561000Y-104283000D02*
X158561000Y-107045000D01*
X158601000Y-104389000D02*
X158601000Y-106939000D01*
X158641000Y-104506000D02*
X158641000Y-106822000D01*
X158681000Y-104636000D02*
X158681000Y-106692000D01*
X158721000Y-104787000D02*
X158721000Y-106541000D01*
X158761000Y-104971000D02*
X158761000Y-106357000D01*
X158801000Y-105223000D02*
X158801000Y-106105000D01*
X158830000Y-105664000D02*
G75*
G02*
X151090000Y-105664000I-3870000J0D01*
G01*
X151090000Y-105664000D02*
G75*
G02*
X158830000Y-105664000I3870000J0D01*
G01*
%TO.C,C1*%
X150777789Y-90027000D02*
X151527789Y-90027000D01*
X151152789Y-89652000D02*
X151152789Y-90402000D01*
X154920000Y-88372000D02*
X154920000Y-96032000D01*
X154960000Y-88372000D02*
X154960000Y-96032000D01*
X155000000Y-88372000D02*
X155000000Y-96032000D01*
X155040000Y-88373000D02*
X155040000Y-96031000D01*
X155080000Y-88375000D02*
X155080000Y-96029000D01*
X155120000Y-88377000D02*
X155120000Y-96027000D01*
X155160000Y-88379000D02*
X155160000Y-91162000D01*
X155160000Y-93242000D02*
X155160000Y-96025000D01*
X155200000Y-88382000D02*
X155200000Y-91162000D01*
X155200000Y-93242000D02*
X155200000Y-96022000D01*
X155240000Y-88385000D02*
X155240000Y-91162000D01*
X155240000Y-93242000D02*
X155240000Y-96019000D01*
X155280000Y-88388000D02*
X155280000Y-91162000D01*
X155280000Y-93242000D02*
X155280000Y-96016000D01*
X155320000Y-88392000D02*
X155320000Y-91162000D01*
X155320000Y-93242000D02*
X155320000Y-96012000D01*
X155360000Y-88397000D02*
X155360000Y-91162000D01*
X155360000Y-93242000D02*
X155360000Y-96007000D01*
X155400000Y-88401000D02*
X155400000Y-91162000D01*
X155400000Y-93242000D02*
X155400000Y-96003000D01*
X155440000Y-88407000D02*
X155440000Y-91162000D01*
X155440000Y-93242000D02*
X155440000Y-95997000D01*
X155480000Y-88412000D02*
X155480000Y-91162000D01*
X155480000Y-93242000D02*
X155480000Y-95992000D01*
X155520000Y-88418000D02*
X155520000Y-91162000D01*
X155520000Y-93242000D02*
X155520000Y-95986000D01*
X155560000Y-88425000D02*
X155560000Y-91162000D01*
X155560000Y-93242000D02*
X155560000Y-95979000D01*
X155600000Y-88432000D02*
X155600000Y-91162000D01*
X155600000Y-93242000D02*
X155600000Y-95972000D01*
X155641000Y-88439000D02*
X155641000Y-91162000D01*
X155641000Y-93242000D02*
X155641000Y-95965000D01*
X155681000Y-88447000D02*
X155681000Y-91162000D01*
X155681000Y-93242000D02*
X155681000Y-95957000D01*
X155721000Y-88455000D02*
X155721000Y-91162000D01*
X155721000Y-93242000D02*
X155721000Y-95949000D01*
X155761000Y-88464000D02*
X155761000Y-91162000D01*
X155761000Y-93242000D02*
X155761000Y-95940000D01*
X155801000Y-88473000D02*
X155801000Y-91162000D01*
X155801000Y-93242000D02*
X155801000Y-95931000D01*
X155841000Y-88482000D02*
X155841000Y-91162000D01*
X155841000Y-93242000D02*
X155841000Y-95922000D01*
X155881000Y-88492000D02*
X155881000Y-91162000D01*
X155881000Y-93242000D02*
X155881000Y-95912000D01*
X155921000Y-88503000D02*
X155921000Y-91162000D01*
X155921000Y-93242000D02*
X155921000Y-95901000D01*
X155961000Y-88514000D02*
X155961000Y-91162000D01*
X155961000Y-93242000D02*
X155961000Y-95890000D01*
X156001000Y-88525000D02*
X156001000Y-91162000D01*
X156001000Y-93242000D02*
X156001000Y-95879000D01*
X156041000Y-88537000D02*
X156041000Y-91162000D01*
X156041000Y-93242000D02*
X156041000Y-95867000D01*
X156081000Y-88549000D02*
X156081000Y-91162000D01*
X156081000Y-93242000D02*
X156081000Y-95855000D01*
X156121000Y-88562000D02*
X156121000Y-91162000D01*
X156121000Y-93242000D02*
X156121000Y-95842000D01*
X156161000Y-88576000D02*
X156161000Y-91162000D01*
X156161000Y-93242000D02*
X156161000Y-95828000D01*
X156201000Y-88589000D02*
X156201000Y-91162000D01*
X156201000Y-93242000D02*
X156201000Y-95815000D01*
X156241000Y-88604000D02*
X156241000Y-91162000D01*
X156241000Y-93242000D02*
X156241000Y-95800000D01*
X156281000Y-88618000D02*
X156281000Y-91162000D01*
X156281000Y-93242000D02*
X156281000Y-95786000D01*
X156321000Y-88634000D02*
X156321000Y-91162000D01*
X156321000Y-93242000D02*
X156321000Y-95770000D01*
X156361000Y-88649000D02*
X156361000Y-91162000D01*
X156361000Y-93242000D02*
X156361000Y-95755000D01*
X156401000Y-88666000D02*
X156401000Y-91162000D01*
X156401000Y-93242000D02*
X156401000Y-95738000D01*
X156441000Y-88682000D02*
X156441000Y-91162000D01*
X156441000Y-93242000D02*
X156441000Y-95722000D01*
X156481000Y-88700000D02*
X156481000Y-91162000D01*
X156481000Y-93242000D02*
X156481000Y-95704000D01*
X156521000Y-88718000D02*
X156521000Y-91162000D01*
X156521000Y-93242000D02*
X156521000Y-95686000D01*
X156561000Y-88736000D02*
X156561000Y-91162000D01*
X156561000Y-93242000D02*
X156561000Y-95668000D01*
X156601000Y-88755000D02*
X156601000Y-91162000D01*
X156601000Y-93242000D02*
X156601000Y-95649000D01*
X156641000Y-88775000D02*
X156641000Y-91162000D01*
X156641000Y-93242000D02*
X156641000Y-95629000D01*
X156681000Y-88795000D02*
X156681000Y-91162000D01*
X156681000Y-93242000D02*
X156681000Y-95609000D01*
X156721000Y-88816000D02*
X156721000Y-91162000D01*
X156721000Y-93242000D02*
X156721000Y-95588000D01*
X156761000Y-88837000D02*
X156761000Y-91162000D01*
X156761000Y-93242000D02*
X156761000Y-95567000D01*
X156801000Y-88859000D02*
X156801000Y-91162000D01*
X156801000Y-93242000D02*
X156801000Y-95545000D01*
X156841000Y-88881000D02*
X156841000Y-91162000D01*
X156841000Y-93242000D02*
X156841000Y-95523000D01*
X156881000Y-88905000D02*
X156881000Y-91162000D01*
X156881000Y-93242000D02*
X156881000Y-95499000D01*
X156921000Y-88928000D02*
X156921000Y-91162000D01*
X156921000Y-93242000D02*
X156921000Y-95476000D01*
X156961000Y-88953000D02*
X156961000Y-91162000D01*
X156961000Y-93242000D02*
X156961000Y-95451000D01*
X157001000Y-88978000D02*
X157001000Y-91162000D01*
X157001000Y-93242000D02*
X157001000Y-95426000D01*
X157041000Y-89004000D02*
X157041000Y-91162000D01*
X157041000Y-93242000D02*
X157041000Y-95400000D01*
X157081000Y-89030000D02*
X157081000Y-91162000D01*
X157081000Y-93242000D02*
X157081000Y-95374000D01*
X157121000Y-89058000D02*
X157121000Y-91162000D01*
X157121000Y-93242000D02*
X157121000Y-95346000D01*
X157161000Y-89086000D02*
X157161000Y-91162000D01*
X157161000Y-93242000D02*
X157161000Y-95318000D01*
X157201000Y-89114000D02*
X157201000Y-91162000D01*
X157201000Y-93242000D02*
X157201000Y-95290000D01*
X157241000Y-89144000D02*
X157241000Y-95260000D01*
X157281000Y-89174000D02*
X157281000Y-95230000D01*
X157321000Y-89206000D02*
X157321000Y-95198000D01*
X157361000Y-89238000D02*
X157361000Y-95166000D01*
X157401000Y-89271000D02*
X157401000Y-95133000D01*
X157441000Y-89304000D02*
X157441000Y-95100000D01*
X157481000Y-89339000D02*
X157481000Y-95065000D01*
X157521000Y-89375000D02*
X157521000Y-95029000D01*
X157561000Y-89412000D02*
X157561000Y-94992000D01*
X157601000Y-89450000D02*
X157601000Y-94954000D01*
X157641000Y-89489000D02*
X157641000Y-94915000D01*
X157681000Y-89529000D02*
X157681000Y-94875000D01*
X157721000Y-89570000D02*
X157721000Y-94834000D01*
X157761000Y-89613000D02*
X157761000Y-94791000D01*
X157801000Y-89656000D02*
X157801000Y-94748000D01*
X157841000Y-89702000D02*
X157841000Y-94702000D01*
X157881000Y-89748000D02*
X157881000Y-94656000D01*
X157921000Y-89797000D02*
X157921000Y-94607000D01*
X157961000Y-89847000D02*
X157961000Y-94557000D01*
X158001000Y-89898000D02*
X158001000Y-94506000D01*
X158041000Y-89952000D02*
X158041000Y-94452000D01*
X158081000Y-90007000D02*
X158081000Y-94397000D01*
X158121000Y-90065000D02*
X158121000Y-94339000D01*
X158161000Y-90125000D02*
X158161000Y-94279000D01*
X158201000Y-90188000D02*
X158201000Y-94216000D01*
X158241000Y-90253000D02*
X158241000Y-94151000D01*
X158281000Y-90321000D02*
X158281000Y-94083000D01*
X158321000Y-90393000D02*
X158321000Y-94011000D01*
X158361000Y-90469000D02*
X158361000Y-93935000D01*
X158401000Y-90548000D02*
X158401000Y-93856000D01*
X158441000Y-90633000D02*
X158441000Y-93771000D01*
X158481000Y-90724000D02*
X158481000Y-93680000D01*
X158521000Y-90821000D02*
X158521000Y-93583000D01*
X158561000Y-90927000D02*
X158561000Y-93477000D01*
X158601000Y-91044000D02*
X158601000Y-93360000D01*
X158641000Y-91174000D02*
X158641000Y-93230000D01*
X158681000Y-91325000D02*
X158681000Y-93079000D01*
X158721000Y-91509000D02*
X158721000Y-92895000D01*
X158761000Y-91761000D02*
X158761000Y-92643000D01*
X158790000Y-92202000D02*
G75*
G02*
X151050000Y-92202000I-3870000J0D01*
G01*
X151050000Y-92202000D02*
G75*
G02*
X158790000Y-92202000I3870000J0D01*
G01*
%TO.C,C5*%
X89830752Y-100357000D02*
X89308248Y-100357000D01*
X89830752Y-101827000D02*
X89308248Y-101827000D01*
%TO.C,R6*%
X77734936Y-91721000D02*
X78189064Y-91721000D01*
X77734936Y-93191000D02*
X78189064Y-93191000D01*
%TO.C,D2*%
X92674000Y-105063000D02*
X92674000Y-105219000D01*
X92674000Y-107379000D02*
X92674000Y-107535000D01*
X92674000Y-105063484D02*
G75*
G02*
X95906335Y-105220392I1560000J-1235516D01*
G01*
X93193039Y-105219000D02*
G75*
G02*
X95275130Y-105219163I1040961J-1080000D01*
G01*
X95275130Y-107378837D02*
G75*
G02*
X93193039Y-107379000I-1041130J1079837D01*
G01*
X95906335Y-107377608D02*
G75*
G02*
X92674000Y-107534516I-1672335J1078608D01*
G01*
%TO.C,U2*%
X87336000Y-95282000D02*
X87336000Y-99923000D01*
X87336000Y-95282000D02*
X97576000Y-95282000D01*
X87336000Y-96792000D02*
X97576000Y-96792000D01*
X87336000Y-99923000D02*
X97576000Y-99923000D01*
X90606000Y-95282000D02*
X90606000Y-96792000D01*
X94307000Y-95282000D02*
X94307000Y-96792000D01*
X97576000Y-95282000D02*
X97576000Y-99923000D01*
%TO.C,R4*%
X93736936Y-108866000D02*
X94191064Y-108866000D01*
X93736936Y-110336000D02*
X94191064Y-110336000D01*
%TO.C,R2*%
X100541064Y-71401000D02*
X100086936Y-71401000D01*
X100541064Y-72871000D02*
X100086936Y-72871000D01*
%TO.C,R5*%
X78020936Y-108866000D02*
X78475064Y-108866000D01*
X78020936Y-110336000D02*
X78475064Y-110336000D01*
%TO.C,SW2*%
X88194000Y-74144000D02*
X88194000Y-75644000D01*
X89444000Y-78144000D02*
X93944000Y-78144000D01*
X93944000Y-71644000D02*
X89444000Y-71644000D01*
X95194000Y-75644000D02*
X95194000Y-74144000D01*
%TO.C,SW4*%
X77526000Y-73672000D02*
X77526000Y-75172000D01*
X78776000Y-77672000D02*
X83276000Y-77672000D01*
X83276000Y-71172000D02*
X78776000Y-71172000D01*
X84526000Y-75172000D02*
X84526000Y-73672000D01*
%TO.C,R7*%
X82814936Y-78767000D02*
X83269064Y-78767000D01*
X82814936Y-80237000D02*
X83269064Y-80237000D01*
%TO.C,J2*%
X145990000Y-106665000D02*
X145990000Y-101525000D01*
X148650000Y-101525000D02*
X145990000Y-101525000D01*
X148650000Y-106665000D02*
X145990000Y-106665000D01*
X148650000Y-106665000D02*
X148650000Y-101525000D01*
X148650000Y-107935000D02*
X148650000Y-109265000D01*
X148650000Y-109265000D02*
X147320000Y-109265000D01*
%TO.C,J4*%
X103064000Y-106366000D02*
X103064000Y-109026000D01*
X105664000Y-106366000D02*
X103064000Y-106366000D01*
X105664000Y-106366000D02*
X105664000Y-109026000D01*
X105664000Y-109026000D02*
X103064000Y-109026000D01*
X108264000Y-107696000D02*
X108264000Y-109026000D01*
X108264000Y-109026000D02*
X106934000Y-109026000D01*
%TO.C,SW3*%
X104248000Y-74216000D02*
X104248000Y-75716000D01*
X105498000Y-78216000D02*
X109998000Y-78216000D01*
X109998000Y-71716000D02*
X105498000Y-71716000D01*
X111248000Y-75716000D02*
X111248000Y-74216000D01*
%TO.C,J3*%
X145990000Y-93457000D02*
X145990000Y-88317000D01*
X148650000Y-88317000D02*
X145990000Y-88317000D01*
X148650000Y-93457000D02*
X145990000Y-93457000D01*
X148650000Y-93457000D02*
X148650000Y-88317000D01*
X148650000Y-94727000D02*
X148650000Y-96057000D01*
X148650000Y-96057000D02*
X147320000Y-96057000D01*
%TO.C,C2*%
X104294248Y-100357000D02*
X104816752Y-100357000D01*
X104294248Y-101827000D02*
X104816752Y-101827000D01*
%TO.C,J1*%
X145990000Y-83058000D02*
X145990000Y-75378000D01*
X148650000Y-75378000D02*
X145990000Y-75378000D01*
X148650000Y-83058000D02*
X145990000Y-83058000D01*
X148650000Y-83058000D02*
X148650000Y-75378000D01*
X148650000Y-84328000D02*
X148650000Y-85658000D01*
X148650000Y-85658000D02*
X147320000Y-85658000D01*
%TO.C,C3*%
X110687248Y-100357000D02*
X111209752Y-100357000D01*
X110687248Y-101827000D02*
X111209752Y-101827000D01*
%TO.C,D3*%
X76672000Y-105063000D02*
X76672000Y-105219000D01*
X76672000Y-107379000D02*
X76672000Y-107535000D01*
X76672000Y-105063484D02*
G75*
G02*
X79904335Y-105220392I1560000J-1235516D01*
G01*
X77191039Y-105219000D02*
G75*
G02*
X79273130Y-105219163I1040961J-1080000D01*
G01*
X79273130Y-107378837D02*
G75*
G02*
X77191039Y-107379000I-1041130J1079837D01*
G01*
X79904335Y-107377608D02*
G75*
G02*
X76672000Y-107534516I-1672335J1078608D01*
G01*
%TO.C,U3*%
X102505000Y-95282000D02*
X102505000Y-99923000D01*
X102505000Y-95282000D02*
X112745000Y-95282000D01*
X102505000Y-96792000D02*
X112745000Y-96792000D01*
X102505000Y-99923000D02*
X112745000Y-99923000D01*
X105775000Y-95282000D02*
X105775000Y-96792000D01*
X109476000Y-95282000D02*
X109476000Y-96792000D01*
X112745000Y-95282000D02*
X112745000Y-99923000D01*
%TO.C,C4*%
X95404248Y-100357000D02*
X95926752Y-100357000D01*
X95404248Y-101827000D02*
X95926752Y-101827000D01*
%TO.C,R3*%
X100086936Y-76481000D02*
X100541064Y-76481000D01*
X100086936Y-77951000D02*
X100541064Y-77951000D01*
%TO.C,SW1*%
X76648000Y-95190000D02*
X77978000Y-95190000D01*
X76648000Y-96520000D02*
X76648000Y-95190000D01*
X76648000Y-97790000D02*
X76648000Y-102930000D01*
X76648000Y-97790000D02*
X79308000Y-97790000D01*
X76648000Y-102930000D02*
X79308000Y-102930000D01*
X79308000Y-97790000D02*
X79308000Y-102930000D01*
%TO.C,D1*%
X84800000Y-105063000D02*
X84800000Y-105219000D01*
X84800000Y-107379000D02*
X84800000Y-107535000D01*
X84800000Y-105063484D02*
G75*
G02*
X88032335Y-105220392I1560000J-1235516D01*
G01*
X85319039Y-105219000D02*
G75*
G02*
X87401130Y-105219163I1040961J-1080000D01*
G01*
X87401130Y-107378837D02*
G75*
G02*
X85319039Y-107379000I-1041130J1079837D01*
G01*
X88032335Y-107377608D02*
G75*
G02*
X84800000Y-107534516I-1672335J1078608D01*
G01*
%TD*%
M02*
