%TF.GenerationSoftware,KiCad,Pcbnew,8.0.6*%
%TF.CreationDate,2024-11-19T15:42:44-05:00*%
%TF.ProjectId,airflow_device,61697266-6c6f-4775-9f64-65766963652e,rev?*%
%TF.SameCoordinates,Original*%
%TF.FileFunction,Copper,L2,Bot*%
%TF.FilePolarity,Positive*%
%FSLAX46Y46*%
G04 Gerber Fmt 4.6, Leading zero omitted, Abs format (unit mm)*
G04 Created by KiCad (PCBNEW 8.0.6) date 2024-11-19 15:42:44*
%MOMM*%
%LPD*%
G01*
G04 APERTURE LIST*
%TA.AperFunction,ComponentPad*%
%ADD10C,1.400000*%
%TD*%
%TA.AperFunction,ComponentPad*%
%ADD11R,1.600000X1.600000*%
%TD*%
%TA.AperFunction,ComponentPad*%
%ADD12C,1.600000*%
%TD*%
%TA.AperFunction,ComponentPad*%
%ADD13R,1.800000X1.800000*%
%TD*%
%TA.AperFunction,ComponentPad*%
%ADD14C,1.800000*%
%TD*%
%TA.AperFunction,ComponentPad*%
%ADD15R,1.905000X2.000000*%
%TD*%
%TA.AperFunction,ComponentPad*%
%ADD16O,1.905000X2.000000*%
%TD*%
%TA.AperFunction,ComponentPad*%
%ADD17C,2.000000*%
%TD*%
%TA.AperFunction,ComponentPad*%
%ADD18R,1.700000X1.700000*%
%TD*%
%TA.AperFunction,ComponentPad*%
%ADD19O,1.700000X1.700000*%
%TD*%
%TA.AperFunction,ViaPad*%
%ADD20C,0.800000*%
%TD*%
G04 APERTURE END LIST*
D10*
%TO.P,U1,1,GND*%
%TO.N,GND*%
X115062000Y-81280000D03*
%TO.P,U1,2,RST*%
%TO.N,unconnected-(U1-RST-Pad2)*%
X117602000Y-81280000D03*
%TO.P,U1,3,NC*%
%TO.N,unconnected-(U1-NC-Pad3)*%
X115062000Y-83820000D03*
%TO.P,U1,4,IO_36/SVP/A0*%
%TO.N,unconnected-(U1-IO_36{slash}SVP{slash}A0-Pad4)*%
X117602000Y-83820000D03*
%TO.P,U1,5,IO_39/SVN*%
%TO.N,unconnected-(U1-IO_39{slash}SVN-Pad5)*%
X115062000Y-86360000D03*
%TO.P,U1,6,IO_26/D0*%
%TO.N,Net-(U1-IO_26{slash}D0)*%
X117602000Y-86360000D03*
%TO.P,U1,7,IO_35*%
%TO.N,unconnected-(U1-IO_35-Pad7)*%
X115062000Y-88900000D03*
%TO.P,U1,8,IO_18/D5*%
%TO.N,Net-(D1-A)*%
X117602000Y-88900000D03*
%TO.P,U1,9,IO_33*%
%TO.N,unconnected-(U1-IO_33-Pad9)*%
X115062000Y-91440000D03*
%TO.P,U1,10,IO_19/D6*%
%TO.N,Net-(U1-IO_19{slash}D6)*%
X117602000Y-91440000D03*
%TO.P,U1,11,IO_34*%
%TO.N,unconnected-(U1-IO_34-Pad11)*%
X115062000Y-93980000D03*
%TO.P,U1,12,IO_23/D7*%
%TO.N,unconnected-(U1-IO_23{slash}D7-Pad12)*%
X117602000Y-93980000D03*
%TO.P,U1,13,IO_14/TMS*%
%TO.N,unconnected-(U1-IO_14{slash}TMS-Pad13)*%
X115062000Y-96520000D03*
%TO.P,U1,14,IO_05/D8*%
%TO.N,Net-(U1-IO_05{slash}D8)*%
X117602000Y-96520000D03*
%TO.P,U1,15,NC*%
%TO.N,unconnected-(U1-NC-Pad15)*%
X115062000Y-99060000D03*
%TO.P,U1,16,3V3*%
%TO.N,/3v3*%
X117602000Y-99060000D03*
%TO.P,U1,17,IO_09/SD2*%
%TO.N,unconnected-(U1-IO_09{slash}SD2-Pad17)*%
X115062000Y-101600000D03*
%TO.P,U1,18,IO_13/TCK*%
%TO.N,unconnected-(U1-IO_13{slash}TCK-Pad18)*%
X117602000Y-101600000D03*
%TO.P,U1,19,CMD*%
%TO.N,unconnected-(U1-CMD-Pad19)*%
X115062000Y-104140000D03*
%TO.P,U1,20,IO_10/SD3*%
%TO.N,unconnected-(U1-IO_10{slash}SD3-Pad20)*%
X117602000Y-104140000D03*
%TO.P,U1,21,TXD*%
%TO.N,unconnected-(U1-TXD-Pad21)*%
X140462000Y-81280000D03*
%TO.P,U1,22,GND*%
%TO.N,GND*%
X143002000Y-81280000D03*
%TO.P,U1,23,RXD*%
%TO.N,unconnected-(U1-RXD-Pad23)*%
X140462000Y-83820000D03*
%TO.P,U1,24,IO_27*%
%TO.N,unconnected-(U1-IO_27-Pad24)*%
X143002000Y-83820000D03*
%TO.P,U1,25,IO_22/D1/SCL*%
%TO.N,/SCL*%
X140462000Y-86360000D03*
%TO.P,U1,26,IO_25*%
%TO.N,unconnected-(U1-IO_25-Pad26)*%
X143002000Y-86360000D03*
%TO.P,U1,27,IO_21/D2/SDA*%
%TO.N,/SDA*%
X140462000Y-88900000D03*
%TO.P,U1,28,IO_32*%
%TO.N,unconnected-(U1-IO_32-Pad28)*%
X143002000Y-88900000D03*
%TO.P,U1,29,IO_17/D3*%
%TO.N,Net-(U1-IO_17{slash}D3)*%
X140462000Y-91440000D03*
%TO.P,U1,30,IO_12/TDI*%
%TO.N,unconnected-(U1-IO_12{slash}TDI-Pad30)*%
X143002000Y-91440000D03*
%TO.P,U1,31,IO_16/D4*%
%TO.N,Net-(U1-IO_16{slash}D4)*%
X140462000Y-93980000D03*
%TO.P,U1,32,IO_04*%
%TO.N,Net-(J3-SIG)*%
X143002000Y-93980000D03*
%TO.P,U1,33,GND*%
%TO.N,GND*%
X140462000Y-96520000D03*
%TO.P,U1,34,IO_00*%
%TO.N,unconnected-(U1-IO_00-Pad34)*%
X143002000Y-96520000D03*
%TO.P,U1,35,VCC_(USB)*%
%TO.N,unconnected-(U1-VCC_(USB)-Pad35)*%
X140462000Y-99060000D03*
%TO.P,U1,36,IO_02*%
%TO.N,Net-(J2-SIG)*%
X143002000Y-99060000D03*
%TO.P,U1,37,TD0*%
%TO.N,unconnected-(U1-TD0-Pad37)*%
X140462000Y-101600000D03*
%TO.P,U1,38,SD1*%
%TO.N,unconnected-(U1-SD1-Pad38)*%
X143002000Y-101600000D03*
%TO.P,U1,39,SD0*%
%TO.N,unconnected-(U1-SD0-Pad39)*%
X140462000Y-104140000D03*
%TO.P,U1,40,CLK*%
%TO.N,unconnected-(U1-CLK-Pad40)*%
X143002000Y-104140000D03*
%TD*%
D11*
%TO.P,C6,2*%
%TO.N,/5V*%
X153710000Y-105664000D03*
D12*
%TO.P,C6,1*%
%TO.N,GND*%
X156210000Y-105664000D03*
%TD*%
D11*
%TO.P,C1,2*%
%TO.N,/5V*%
X153670000Y-92202000D03*
D12*
%TO.P,C1,1*%
%TO.N,GND*%
X156170000Y-92202000D03*
%TD*%
D13*
%TO.P,D2,1,K*%
%TO.N,GND*%
X92964000Y-106299000D03*
D14*
%TO.P,D2,2,A*%
%TO.N,Net-(D2-A)*%
X95504000Y-106299000D03*
%TD*%
D15*
%TO.P,U2,1,GND*%
%TO.N,GND*%
X89916000Y-98552000D03*
D16*
%TO.P,U2,2,VO*%
%TO.N,/3v3*%
X92456000Y-98552000D03*
%TO.P,U2,3,VI*%
%TO.N,/BATT*%
X94996000Y-98552000D03*
%TD*%
D17*
%TO.P,SW2,1,1*%
%TO.N,GND*%
X88444000Y-72644000D03*
X94944000Y-72644000D03*
%TO.P,SW2,2,2*%
%TO.N,Net-(U1-IO_17{slash}D3)*%
X88444000Y-77144000D03*
X94944000Y-77144000D03*
%TD*%
%TO.P,SW4,1,1*%
%TO.N,GND*%
X77776000Y-72172000D03*
X84276000Y-72172000D03*
%TO.P,SW4,2,2*%
%TO.N,Net-(U1-IO_26{slash}D0)*%
X77776000Y-76672000D03*
X84276000Y-76672000D03*
%TD*%
D18*
%TO.P,J2,1,GND*%
%TO.N,GND*%
X147320000Y-107935000D03*
D19*
%TO.P,J2,2,SIG*%
%TO.N,Net-(J2-SIG)*%
X147320000Y-105395000D03*
%TO.P,J2,3,Vin*%
%TO.N,/5V*%
X147320000Y-102855000D03*
%TD*%
D18*
%TO.P,J4,1,GND*%
%TO.N,GND*%
X106934000Y-107696000D03*
D19*
%TO.P,J4,2,BATT*%
%TO.N,/BATT*%
X104394000Y-107696000D03*
%TD*%
D17*
%TO.P,SW3,1,1*%
%TO.N,GND*%
X104498000Y-72716000D03*
X110998000Y-72716000D03*
%TO.P,SW3,2,2*%
%TO.N,Net-(U1-IO_16{slash}D4)*%
X104498000Y-77216000D03*
X110998000Y-77216000D03*
%TD*%
D18*
%TO.P,J3,1,GND*%
%TO.N,GND*%
X147320000Y-94727000D03*
D19*
%TO.P,J3,2,SIG*%
%TO.N,Net-(J3-SIG)*%
X147320000Y-92187000D03*
%TO.P,J3,3,Vin*%
%TO.N,/5V*%
X147320000Y-89647000D03*
%TD*%
D18*
%TO.P,J1,1,GND*%
%TO.N,GND*%
X147320000Y-84328000D03*
D19*
%TO.P,J1,2,SDA*%
%TO.N,/SDA*%
X147320000Y-81788000D03*
%TO.P,J1,3,SCL*%
%TO.N,/SCL*%
X147320000Y-79248000D03*
%TO.P,J1,4,Vin*%
%TO.N,/3v3*%
X147320000Y-76708000D03*
%TD*%
D13*
%TO.P,D3,1,K*%
%TO.N,GND*%
X76962000Y-106299000D03*
D14*
%TO.P,D3,2,A*%
%TO.N,Net-(D3-A)*%
X79502000Y-106299000D03*
%TD*%
D15*
%TO.P,U3,1,Vin*%
%TO.N,/BATT*%
X105085000Y-98552000D03*
D16*
%TO.P,U3,2,GND*%
%TO.N,GND*%
X107625000Y-98552000D03*
%TO.P,U3,3,Vout*%
%TO.N,/5V*%
X110165000Y-98552000D03*
%TD*%
D18*
%TO.P,SW1,1,A*%
%TO.N,unconnected-(SW1-A-Pad1)*%
X77978000Y-96520000D03*
D19*
%TO.P,SW1,2,B*%
%TO.N,GND*%
X77978000Y-99060000D03*
%TO.P,SW1,3,C*%
%TO.N,Net-(D1-A)*%
X77978000Y-101600000D03*
%TD*%
D13*
%TO.P,D1,1,K*%
%TO.N,GND*%
X85090000Y-106299000D03*
D14*
%TO.P,D1,2,A*%
%TO.N,Net-(D1-A)*%
X87630000Y-106299000D03*
%TD*%
D20*
%TO.N,GND*%
X155194000Y-82550000D03*
X96703000Y-101092000D03*
%TD*%
%TA.AperFunction,Conductor*%
%TO.N,GND*%
G36*
X116070861Y-81935308D02*
G01*
X116086631Y-81914425D01*
X116086633Y-81914422D01*
X116185760Y-81715349D01*
X116212473Y-81621461D01*
X116249752Y-81562367D01*
X116313061Y-81532809D01*
X116382301Y-81542170D01*
X116435488Y-81587480D01*
X116451006Y-81621459D01*
X116477770Y-81715525D01*
X116477775Y-81715538D01*
X116576938Y-81914683D01*
X116576943Y-81914691D01*
X116711020Y-82092238D01*
X116875437Y-82242123D01*
X116875439Y-82242125D01*
X117064595Y-82359245D01*
X117064596Y-82359245D01*
X117064599Y-82359247D01*
X117258524Y-82434374D01*
X117313924Y-82476946D01*
X117337515Y-82542713D01*
X117321804Y-82610793D01*
X117271780Y-82659572D01*
X117258533Y-82665622D01*
X117110488Y-82722975D01*
X117064601Y-82740752D01*
X117064595Y-82740754D01*
X116875439Y-82857874D01*
X116875437Y-82857876D01*
X116711020Y-83007761D01*
X116576943Y-83185308D01*
X116576938Y-83185316D01*
X116477775Y-83384461D01*
X116477769Y-83384476D01*
X116451266Y-83477627D01*
X116413987Y-83536721D01*
X116350677Y-83566278D01*
X116281438Y-83556916D01*
X116228251Y-83511606D01*
X116212734Y-83477627D01*
X116186230Y-83384476D01*
X116186229Y-83384472D01*
X116179335Y-83370627D01*
X116087061Y-83185316D01*
X116087056Y-83185308D01*
X115952979Y-83007761D01*
X115788562Y-82857876D01*
X115788560Y-82857874D01*
X115599404Y-82740754D01*
X115599398Y-82740751D01*
X115469967Y-82690610D01*
X115404784Y-82665358D01*
X115349385Y-82622786D01*
X115325794Y-82557019D01*
X115341505Y-82488939D01*
X115391529Y-82440160D01*
X115404786Y-82434105D01*
X115599177Y-82358797D01*
X115599181Y-82358795D01*
X115715326Y-82286879D01*
X115108448Y-81680000D01*
X115114661Y-81680000D01*
X115216394Y-81652741D01*
X115307606Y-81600080D01*
X115382080Y-81525606D01*
X115434741Y-81434394D01*
X115462000Y-81332661D01*
X115462000Y-81326447D01*
X116070861Y-81935308D01*
G37*
%TD.AperFunction*%
%TA.AperFunction,Conductor*%
G36*
X141470861Y-97175308D02*
G01*
X141486631Y-97154425D01*
X141486633Y-97154422D01*
X141585760Y-96955349D01*
X141612473Y-96861461D01*
X141649752Y-96802367D01*
X141713061Y-96772809D01*
X141782301Y-96782170D01*
X141835488Y-96827480D01*
X141851006Y-96861459D01*
X141877770Y-96955525D01*
X141877775Y-96955538D01*
X141976938Y-97154683D01*
X141976943Y-97154691D01*
X142111020Y-97332238D01*
X142275437Y-97482123D01*
X142275439Y-97482125D01*
X142464595Y-97599245D01*
X142464596Y-97599245D01*
X142464599Y-97599247D01*
X142658524Y-97674374D01*
X142713924Y-97716946D01*
X142737515Y-97782713D01*
X142721804Y-97850793D01*
X142671780Y-97899572D01*
X142658533Y-97905622D01*
X142510488Y-97962975D01*
X142464601Y-97980752D01*
X142464595Y-97980754D01*
X142275439Y-98097874D01*
X142275437Y-98097876D01*
X142111020Y-98247761D01*
X141976943Y-98425308D01*
X141976938Y-98425316D01*
X141877775Y-98624461D01*
X141877769Y-98624476D01*
X141851266Y-98717627D01*
X141813987Y-98776721D01*
X141750677Y-98806278D01*
X141681438Y-98796916D01*
X141628251Y-98751606D01*
X141612734Y-98717627D01*
X141586230Y-98624476D01*
X141586229Y-98624472D01*
X141554126Y-98560000D01*
X141487061Y-98425316D01*
X141487056Y-98425308D01*
X141352979Y-98247761D01*
X141188562Y-98097876D01*
X141188560Y-98097874D01*
X140999404Y-97980754D01*
X140999398Y-97980751D01*
X140869967Y-97930610D01*
X140804784Y-97905358D01*
X140749385Y-97862786D01*
X140725794Y-97797019D01*
X140741505Y-97728939D01*
X140791529Y-97680160D01*
X140804786Y-97674105D01*
X140999177Y-97598797D01*
X140999181Y-97598795D01*
X141115326Y-97526879D01*
X140508448Y-96920000D01*
X140514661Y-96920000D01*
X140616394Y-96892741D01*
X140707606Y-96840080D01*
X140782080Y-96765606D01*
X140834741Y-96674394D01*
X140862000Y-96572661D01*
X140862000Y-96566447D01*
X141470861Y-97175308D01*
G37*
%TD.AperFunction*%
%TA.AperFunction,Conductor*%
G36*
X141782562Y-94243083D02*
G01*
X141835749Y-94288393D01*
X141851265Y-94322370D01*
X141857531Y-94344395D01*
X141877769Y-94415523D01*
X141877775Y-94415538D01*
X141976938Y-94614683D01*
X141976943Y-94614691D01*
X142111020Y-94792238D01*
X142275437Y-94942123D01*
X142275439Y-94942125D01*
X142464595Y-95059245D01*
X142464596Y-95059245D01*
X142464599Y-95059247D01*
X142658524Y-95134374D01*
X142713924Y-95176946D01*
X142737515Y-95242713D01*
X142721804Y-95310793D01*
X142671780Y-95359572D01*
X142658533Y-95365622D01*
X142510488Y-95422975D01*
X142464601Y-95440752D01*
X142464595Y-95440754D01*
X142275439Y-95557874D01*
X142275437Y-95557876D01*
X142111020Y-95707761D01*
X141976943Y-95885308D01*
X141976938Y-95885316D01*
X141877775Y-96084461D01*
X141877770Y-96084474D01*
X141851006Y-96178540D01*
X141813726Y-96237633D01*
X141750417Y-96267190D01*
X141681177Y-96257828D01*
X141627991Y-96212518D01*
X141612473Y-96178538D01*
X141585760Y-96084650D01*
X141486635Y-95885580D01*
X141486630Y-95885572D01*
X141470860Y-95864690D01*
X140862000Y-96473551D01*
X140862000Y-96467339D01*
X140834741Y-96365606D01*
X140782080Y-96274394D01*
X140707606Y-96199920D01*
X140616394Y-96147259D01*
X140514661Y-96120000D01*
X140508448Y-96120000D01*
X141115327Y-95513119D01*
X140999178Y-95441202D01*
X140999177Y-95441201D01*
X140804786Y-95365894D01*
X140749384Y-95323321D01*
X140725794Y-95257554D01*
X140741505Y-95189474D01*
X140791529Y-95140695D01*
X140804772Y-95134646D01*
X140999401Y-95059247D01*
X141188562Y-94942124D01*
X141352981Y-94792236D01*
X141487058Y-94614689D01*
X141586229Y-94415528D01*
X141612734Y-94322371D01*
X141650013Y-94263278D01*
X141713323Y-94233721D01*
X141782562Y-94243083D01*
G37*
%TD.AperFunction*%
%TA.AperFunction,Conductor*%
G36*
X142602000Y-81332661D02*
G01*
X142629259Y-81434394D01*
X142681920Y-81525606D01*
X142756394Y-81600080D01*
X142847606Y-81652741D01*
X142949339Y-81680000D01*
X142955553Y-81680000D01*
X142348672Y-82286879D01*
X142348672Y-82286880D01*
X142464821Y-82358797D01*
X142464822Y-82358798D01*
X142659213Y-82434105D01*
X142714614Y-82476678D01*
X142738205Y-82542445D01*
X142722494Y-82610525D01*
X142672470Y-82659304D01*
X142659213Y-82665359D01*
X142464601Y-82740751D01*
X142464595Y-82740754D01*
X142275439Y-82857874D01*
X142275437Y-82857876D01*
X142111020Y-83007761D01*
X141976943Y-83185308D01*
X141976938Y-83185316D01*
X141877775Y-83384461D01*
X141877769Y-83384476D01*
X141851266Y-83477627D01*
X141813987Y-83536721D01*
X141750677Y-83566278D01*
X141681438Y-83556916D01*
X141628251Y-83511606D01*
X141612734Y-83477627D01*
X141586230Y-83384476D01*
X141586229Y-83384472D01*
X141579335Y-83370627D01*
X141487061Y-83185316D01*
X141487056Y-83185308D01*
X141352979Y-83007761D01*
X141188562Y-82857876D01*
X141188560Y-82857874D01*
X140999404Y-82740754D01*
X140999395Y-82740750D01*
X140905956Y-82704552D01*
X140805475Y-82665625D01*
X140750075Y-82623054D01*
X140726484Y-82557288D01*
X140742195Y-82489207D01*
X140792219Y-82440428D01*
X140805466Y-82434377D01*
X140999401Y-82359247D01*
X141188562Y-82242124D01*
X141352981Y-82092236D01*
X141487058Y-81914689D01*
X141586229Y-81715528D01*
X141612995Y-81621455D01*
X141650272Y-81562367D01*
X141713581Y-81532809D01*
X141782821Y-81542171D01*
X141836007Y-81587480D01*
X141851525Y-81621460D01*
X141878236Y-81715342D01*
X141878239Y-81715348D01*
X141977369Y-81914428D01*
X141993137Y-81935308D01*
X141993138Y-81935308D01*
X142602000Y-81326446D01*
X142602000Y-81332661D01*
G37*
%TD.AperFunction*%
%TA.AperFunction,Conductor*%
G36*
X159201039Y-69361685D02*
G01*
X159246794Y-69414489D01*
X159258000Y-69466000D01*
X159258000Y-111636372D01*
X159238315Y-111703411D01*
X159185511Y-111749166D01*
X159134372Y-111760371D01*
X74800372Y-112013626D01*
X74733274Y-111994143D01*
X74687361Y-111941477D01*
X74676000Y-111889627D01*
X74676000Y-105351155D01*
X75562000Y-105351155D01*
X75562000Y-106049000D01*
X76586722Y-106049000D01*
X76542667Y-106125306D01*
X76512000Y-106239756D01*
X76512000Y-106358244D01*
X76542667Y-106472694D01*
X76586722Y-106549000D01*
X75562000Y-106549000D01*
X75562000Y-107246844D01*
X75568401Y-107306372D01*
X75568403Y-107306379D01*
X75618645Y-107441086D01*
X75618649Y-107441093D01*
X75704809Y-107556187D01*
X75704812Y-107556190D01*
X75819906Y-107642350D01*
X75819913Y-107642354D01*
X75954620Y-107692596D01*
X75954627Y-107692598D01*
X76014155Y-107698999D01*
X76014172Y-107699000D01*
X76712000Y-107699000D01*
X76712000Y-106674277D01*
X76788306Y-106718333D01*
X76902756Y-106749000D01*
X77021244Y-106749000D01*
X77135694Y-106718333D01*
X77212000Y-106674277D01*
X77212000Y-107699000D01*
X77909828Y-107699000D01*
X77909844Y-107698999D01*
X77969372Y-107692598D01*
X77969379Y-107692596D01*
X78104086Y-107642354D01*
X78104093Y-107642350D01*
X78219187Y-107556190D01*
X78219190Y-107556187D01*
X78305350Y-107441093D01*
X78305355Y-107441084D01*
X78334075Y-107364081D01*
X78375945Y-107308147D01*
X78441409Y-107283729D01*
X78509682Y-107298580D01*
X78541484Y-107323428D01*
X78550216Y-107332913D01*
X78550219Y-107332915D01*
X78550222Y-107332918D01*
X78733365Y-107475464D01*
X78733371Y-107475468D01*
X78733374Y-107475470D01*
X78937497Y-107585936D01*
X79051487Y-107625068D01*
X79157015Y-107661297D01*
X79157017Y-107661297D01*
X79157019Y-107661298D01*
X79385951Y-107699500D01*
X79385952Y-107699500D01*
X79618048Y-107699500D01*
X79618049Y-107699500D01*
X79846981Y-107661298D01*
X80066503Y-107585936D01*
X80270626Y-107475470D01*
X80278843Y-107469075D01*
X80413739Y-107364081D01*
X80453784Y-107332913D01*
X80610979Y-107162153D01*
X80737924Y-106967849D01*
X80831157Y-106755300D01*
X80888134Y-106530305D01*
X80888825Y-106521964D01*
X80907300Y-106299006D01*
X80907300Y-106298993D01*
X80888135Y-106067702D01*
X80888133Y-106067691D01*
X80831157Y-105842699D01*
X80737924Y-105630151D01*
X80610983Y-105435852D01*
X80610980Y-105435849D01*
X80610979Y-105435847D01*
X80533015Y-105351155D01*
X83690000Y-105351155D01*
X83690000Y-106049000D01*
X84714722Y-106049000D01*
X84670667Y-106125306D01*
X84640000Y-106239756D01*
X84640000Y-106358244D01*
X84670667Y-106472694D01*
X84714722Y-106549000D01*
X83690000Y-106549000D01*
X83690000Y-107246844D01*
X83696401Y-107306372D01*
X83696403Y-107306379D01*
X83746645Y-107441086D01*
X83746649Y-107441093D01*
X83832809Y-107556187D01*
X83832812Y-107556190D01*
X83947906Y-107642350D01*
X83947913Y-107642354D01*
X84082620Y-107692596D01*
X84082627Y-107692598D01*
X84142155Y-107698999D01*
X84142172Y-107699000D01*
X84840000Y-107699000D01*
X84840000Y-106674277D01*
X84916306Y-106718333D01*
X85030756Y-106749000D01*
X85149244Y-106749000D01*
X85263694Y-106718333D01*
X85340000Y-106674277D01*
X85340000Y-107699000D01*
X86037828Y-107699000D01*
X86037844Y-107698999D01*
X86097372Y-107692598D01*
X86097379Y-107692596D01*
X86232086Y-107642354D01*
X86232093Y-107642350D01*
X86347187Y-107556190D01*
X86347190Y-107556187D01*
X86433350Y-107441093D01*
X86433355Y-107441084D01*
X86462075Y-107364081D01*
X86503945Y-107308147D01*
X86569409Y-107283729D01*
X86637682Y-107298580D01*
X86669484Y-107323428D01*
X86678216Y-107332913D01*
X86678219Y-107332915D01*
X86678222Y-107332918D01*
X86861365Y-107475464D01*
X86861371Y-107475468D01*
X86861374Y-107475470D01*
X87065497Y-107585936D01*
X87179487Y-107625068D01*
X87285015Y-107661297D01*
X87285017Y-107661297D01*
X87285019Y-107661298D01*
X87513951Y-107699500D01*
X87513952Y-107699500D01*
X87746048Y-107699500D01*
X87746049Y-107699500D01*
X87974981Y-107661298D01*
X88194503Y-107585936D01*
X88398626Y-107475470D01*
X88406843Y-107469075D01*
X88541739Y-107364081D01*
X88581784Y-107332913D01*
X88738979Y-107162153D01*
X88865924Y-106967849D01*
X88959157Y-106755300D01*
X89016134Y-106530305D01*
X89016825Y-106521964D01*
X89035300Y-106299006D01*
X89035300Y-106298993D01*
X89016135Y-106067702D01*
X89016133Y-106067691D01*
X88959157Y-105842699D01*
X88865924Y-105630151D01*
X88738983Y-105435852D01*
X88738980Y-105435849D01*
X88738979Y-105435847D01*
X88661015Y-105351155D01*
X91564000Y-105351155D01*
X91564000Y-106049000D01*
X92588722Y-106049000D01*
X92544667Y-106125306D01*
X92514000Y-106239756D01*
X92514000Y-106358244D01*
X92544667Y-106472694D01*
X92588722Y-106549000D01*
X91564000Y-106549000D01*
X91564000Y-107246844D01*
X91570401Y-107306372D01*
X91570403Y-107306379D01*
X91620645Y-107441086D01*
X91620649Y-107441093D01*
X91706809Y-107556187D01*
X91706812Y-107556190D01*
X91821906Y-107642350D01*
X91821913Y-107642354D01*
X91956620Y-107692596D01*
X91956627Y-107692598D01*
X92016155Y-107698999D01*
X92016172Y-107699000D01*
X92714000Y-107699000D01*
X92714000Y-106674277D01*
X92790306Y-106718333D01*
X92904756Y-106749000D01*
X93023244Y-106749000D01*
X93137694Y-106718333D01*
X93214000Y-106674277D01*
X93214000Y-107699000D01*
X93911828Y-107699000D01*
X93911844Y-107698999D01*
X93971372Y-107692598D01*
X93971379Y-107692596D01*
X94106086Y-107642354D01*
X94106093Y-107642350D01*
X94221187Y-107556190D01*
X94221190Y-107556187D01*
X94307350Y-107441093D01*
X94307355Y-107441084D01*
X94336075Y-107364081D01*
X94377945Y-107308147D01*
X94443409Y-107283729D01*
X94511682Y-107298580D01*
X94543484Y-107323428D01*
X94552216Y-107332913D01*
X94552219Y-107332915D01*
X94552222Y-107332918D01*
X94735365Y-107475464D01*
X94735371Y-107475468D01*
X94735374Y-107475470D01*
X94939497Y-107585936D01*
X95053487Y-107625068D01*
X95159015Y-107661297D01*
X95159017Y-107661297D01*
X95159019Y-107661298D01*
X95387951Y-107699500D01*
X95387952Y-107699500D01*
X95620048Y-107699500D01*
X95620049Y-107699500D01*
X95641029Y-107695999D01*
X103038341Y-107695999D01*
X103038341Y-107696000D01*
X103058936Y-107931403D01*
X103058938Y-107931413D01*
X103120094Y-108159655D01*
X103120096Y-108159659D01*
X103120097Y-108159663D01*
X103158495Y-108242007D01*
X103219965Y-108373830D01*
X103219967Y-108373834D01*
X103328281Y-108528521D01*
X103355505Y-108567401D01*
X103522599Y-108734495D01*
X103599135Y-108788086D01*
X103716165Y-108870032D01*
X103716167Y-108870033D01*
X103716170Y-108870035D01*
X103930337Y-108969903D01*
X104158592Y-109031063D01*
X104329319Y-109046000D01*
X104393999Y-109051659D01*
X104394000Y-109051659D01*
X104394001Y-109051659D01*
X104458681Y-109046000D01*
X104629408Y-109031063D01*
X104857663Y-108969903D01*
X105071830Y-108870035D01*
X105265401Y-108734495D01*
X105387717Y-108612178D01*
X105449036Y-108578696D01*
X105518728Y-108583680D01*
X105574662Y-108625551D01*
X105591577Y-108656528D01*
X105640646Y-108788088D01*
X105640649Y-108788093D01*
X105726809Y-108903187D01*
X105726812Y-108903190D01*
X105841906Y-108989350D01*
X105841913Y-108989354D01*
X105976620Y-109039596D01*
X105976627Y-109039598D01*
X106036155Y-109045999D01*
X106036172Y-109046000D01*
X106684000Y-109046000D01*
X106684000Y-108129012D01*
X106741007Y-108161925D01*
X106868174Y-108196000D01*
X106999826Y-108196000D01*
X107126993Y-108161925D01*
X107184000Y-108129012D01*
X107184000Y-109046000D01*
X107831828Y-109046000D01*
X107831844Y-109045999D01*
X107891372Y-109039598D01*
X107891379Y-109039596D01*
X108026086Y-108989354D01*
X108026093Y-108989350D01*
X108141187Y-108903190D01*
X108141190Y-108903187D01*
X108227350Y-108788093D01*
X108227354Y-108788086D01*
X108277596Y-108653379D01*
X108277598Y-108653372D01*
X108283999Y-108593844D01*
X108284000Y-108593827D01*
X108284000Y-107946000D01*
X107367012Y-107946000D01*
X107399925Y-107888993D01*
X107434000Y-107761826D01*
X107434000Y-107630174D01*
X107399925Y-107503007D01*
X107367012Y-107446000D01*
X108284000Y-107446000D01*
X108284000Y-106798172D01*
X108283999Y-106798155D01*
X108277598Y-106738627D01*
X108277596Y-106738620D01*
X108227354Y-106603913D01*
X108227350Y-106603906D01*
X108141190Y-106488812D01*
X108141187Y-106488809D01*
X108026093Y-106402649D01*
X108026086Y-106402645D01*
X107891379Y-106352403D01*
X107891372Y-106352401D01*
X107831844Y-106346000D01*
X107184000Y-106346000D01*
X107184000Y-107262988D01*
X107126993Y-107230075D01*
X106999826Y-107196000D01*
X106868174Y-107196000D01*
X106741007Y-107230075D01*
X106684000Y-107262988D01*
X106684000Y-106346000D01*
X106036155Y-106346000D01*
X105976627Y-106352401D01*
X105976620Y-106352403D01*
X105841913Y-106402645D01*
X105841906Y-106402649D01*
X105726812Y-106488809D01*
X105726809Y-106488812D01*
X105640649Y-106603906D01*
X105640645Y-106603913D01*
X105591578Y-106735470D01*
X105549707Y-106791404D01*
X105484242Y-106815821D01*
X105415969Y-106800969D01*
X105387715Y-106779819D01*
X105335705Y-106727809D01*
X105265401Y-106657505D01*
X105265397Y-106657502D01*
X105265396Y-106657501D01*
X105071834Y-106521967D01*
X105071830Y-106521965D01*
X105050188Y-106511873D01*
X104857663Y-106422097D01*
X104857659Y-106422096D01*
X104857655Y-106422094D01*
X104629413Y-106360938D01*
X104629403Y-106360936D01*
X104394001Y-106340341D01*
X104393999Y-106340341D01*
X104158596Y-106360936D01*
X104158586Y-106360938D01*
X103930344Y-106422094D01*
X103930335Y-106422098D01*
X103716171Y-106521964D01*
X103716169Y-106521965D01*
X103522597Y-106657505D01*
X103355505Y-106824597D01*
X103219965Y-107018169D01*
X103219964Y-107018171D01*
X103120098Y-107232335D01*
X103120094Y-107232344D01*
X103058938Y-107460586D01*
X103058936Y-107460596D01*
X103038341Y-107695999D01*
X95641029Y-107695999D01*
X95848981Y-107661298D01*
X96068503Y-107585936D01*
X96272626Y-107475470D01*
X96280843Y-107469075D01*
X96415739Y-107364081D01*
X96455784Y-107332913D01*
X96612979Y-107162153D01*
X96739924Y-106967849D01*
X96833157Y-106755300D01*
X96890134Y-106530305D01*
X96890825Y-106521964D01*
X96909300Y-106299006D01*
X96909300Y-106298993D01*
X96890135Y-106067702D01*
X96890133Y-106067691D01*
X96833157Y-105842699D01*
X96739924Y-105630151D01*
X96612983Y-105435852D01*
X96612980Y-105435849D01*
X96612979Y-105435847D01*
X96455784Y-105265087D01*
X96455779Y-105265083D01*
X96455777Y-105265081D01*
X96272634Y-105122535D01*
X96272628Y-105122531D01*
X96068504Y-105012064D01*
X96068495Y-105012061D01*
X95848984Y-104936702D01*
X95661404Y-104905401D01*
X95620049Y-104898500D01*
X95387951Y-104898500D01*
X95346596Y-104905401D01*
X95159015Y-104936702D01*
X94939504Y-105012061D01*
X94939495Y-105012064D01*
X94735371Y-105122531D01*
X94735365Y-105122535D01*
X94552222Y-105265081D01*
X94552215Y-105265087D01*
X94543484Y-105274572D01*
X94483595Y-105310561D01*
X94413757Y-105308458D01*
X94356143Y-105268932D01*
X94336075Y-105233918D01*
X94307355Y-105156915D01*
X94307350Y-105156906D01*
X94221190Y-105041812D01*
X94221187Y-105041809D01*
X94106093Y-104955649D01*
X94106086Y-104955645D01*
X93971379Y-104905403D01*
X93971372Y-104905401D01*
X93911844Y-104899000D01*
X93214000Y-104899000D01*
X93214000Y-105923722D01*
X93137694Y-105879667D01*
X93023244Y-105849000D01*
X92904756Y-105849000D01*
X92790306Y-105879667D01*
X92714000Y-105923722D01*
X92714000Y-104899000D01*
X92016155Y-104899000D01*
X91956627Y-104905401D01*
X91956620Y-104905403D01*
X91821913Y-104955645D01*
X91821906Y-104955649D01*
X91706812Y-105041809D01*
X91706809Y-105041812D01*
X91620649Y-105156906D01*
X91620645Y-105156913D01*
X91570403Y-105291620D01*
X91570401Y-105291627D01*
X91564000Y-105351155D01*
X88661015Y-105351155D01*
X88581784Y-105265087D01*
X88581779Y-105265083D01*
X88581777Y-105265081D01*
X88398634Y-105122535D01*
X88398628Y-105122531D01*
X88194504Y-105012064D01*
X88194495Y-105012061D01*
X87974984Y-104936702D01*
X87787404Y-104905401D01*
X87746049Y-104898500D01*
X87513951Y-104898500D01*
X87472596Y-104905401D01*
X87285015Y-104936702D01*
X87065504Y-105012061D01*
X87065495Y-105012064D01*
X86861371Y-105122531D01*
X86861365Y-105122535D01*
X86678222Y-105265081D01*
X86678215Y-105265087D01*
X86669484Y-105274572D01*
X86609595Y-105310561D01*
X86539757Y-105308458D01*
X86482143Y-105268932D01*
X86462075Y-105233918D01*
X86433355Y-105156915D01*
X86433350Y-105156906D01*
X86347190Y-105041812D01*
X86347187Y-105041809D01*
X86232093Y-104955649D01*
X86232086Y-104955645D01*
X86097379Y-104905403D01*
X86097372Y-104905401D01*
X86037844Y-104899000D01*
X85340000Y-104899000D01*
X85340000Y-105923722D01*
X85263694Y-105879667D01*
X85149244Y-105849000D01*
X85030756Y-105849000D01*
X84916306Y-105879667D01*
X84840000Y-105923722D01*
X84840000Y-104899000D01*
X84142155Y-104899000D01*
X84082627Y-104905401D01*
X84082620Y-104905403D01*
X83947913Y-104955645D01*
X83947906Y-104955649D01*
X83832812Y-105041809D01*
X83832809Y-105041812D01*
X83746649Y-105156906D01*
X83746645Y-105156913D01*
X83696403Y-105291620D01*
X83696401Y-105291627D01*
X83690000Y-105351155D01*
X80533015Y-105351155D01*
X80453784Y-105265087D01*
X80453779Y-105265083D01*
X80453777Y-105265081D01*
X80270634Y-105122535D01*
X80270628Y-105122531D01*
X80066504Y-105012064D01*
X80066495Y-105012061D01*
X79846984Y-104936702D01*
X79659404Y-104905401D01*
X79618049Y-104898500D01*
X79385951Y-104898500D01*
X79344596Y-104905401D01*
X79157015Y-104936702D01*
X78937504Y-105012061D01*
X78937495Y-105012064D01*
X78733371Y-105122531D01*
X78733365Y-105122535D01*
X78550222Y-105265081D01*
X78550215Y-105265087D01*
X78541484Y-105274572D01*
X78481595Y-105310561D01*
X78411757Y-105308458D01*
X78354143Y-105268932D01*
X78334075Y-105233918D01*
X78305355Y-105156915D01*
X78305350Y-105156906D01*
X78219190Y-105041812D01*
X78219187Y-105041809D01*
X78104093Y-104955649D01*
X78104086Y-104955645D01*
X77969379Y-104905403D01*
X77969372Y-104905401D01*
X77909844Y-104899000D01*
X77212000Y-104899000D01*
X77212000Y-105923722D01*
X77135694Y-105879667D01*
X77021244Y-105849000D01*
X76902756Y-105849000D01*
X76788306Y-105879667D01*
X76712000Y-105923722D01*
X76712000Y-104899000D01*
X76014155Y-104899000D01*
X75954627Y-104905401D01*
X75954620Y-104905403D01*
X75819913Y-104955645D01*
X75819906Y-104955649D01*
X75704812Y-105041809D01*
X75704809Y-105041812D01*
X75618649Y-105156906D01*
X75618645Y-105156913D01*
X75568403Y-105291620D01*
X75568401Y-105291627D01*
X75562000Y-105351155D01*
X74676000Y-105351155D01*
X74676000Y-101599999D01*
X76622341Y-101599999D01*
X76622341Y-101600000D01*
X76642936Y-101835403D01*
X76642938Y-101835413D01*
X76704094Y-102063655D01*
X76704096Y-102063659D01*
X76704097Y-102063663D01*
X76757026Y-102177169D01*
X76803965Y-102277830D01*
X76803967Y-102277834D01*
X76912281Y-102432521D01*
X76939505Y-102471401D01*
X77106599Y-102638495D01*
X77164796Y-102679245D01*
X77300165Y-102774032D01*
X77300167Y-102774033D01*
X77300170Y-102774035D01*
X77514337Y-102873903D01*
X77742592Y-102935063D01*
X77930918Y-102951539D01*
X77977999Y-102955659D01*
X77978000Y-102955659D01*
X77978001Y-102955659D01*
X78017234Y-102952226D01*
X78213408Y-102935063D01*
X78441663Y-102873903D01*
X78655830Y-102774035D01*
X78849401Y-102638495D01*
X79016495Y-102471401D01*
X79152035Y-102277830D01*
X79251903Y-102063663D01*
X79313063Y-101835408D01*
X79333659Y-101600000D01*
X79313063Y-101364592D01*
X79251903Y-101136337D01*
X79152035Y-100922171D01*
X79016495Y-100728599D01*
X79016494Y-100728597D01*
X78849402Y-100561506D01*
X78849401Y-100561505D01*
X78663405Y-100431269D01*
X78619781Y-100376692D01*
X78612588Y-100307193D01*
X78644110Y-100244839D01*
X78663405Y-100228119D01*
X78849082Y-100098105D01*
X79016105Y-99931082D01*
X79151600Y-99737578D01*
X79251429Y-99523492D01*
X79251432Y-99523486D01*
X79308636Y-99310000D01*
X78411012Y-99310000D01*
X78443925Y-99252993D01*
X78478000Y-99125826D01*
X78478000Y-98994174D01*
X78443925Y-98867007D01*
X78411012Y-98810000D01*
X79308636Y-98810000D01*
X79308635Y-98809999D01*
X79251432Y-98596513D01*
X79251429Y-98596507D01*
X79151600Y-98382422D01*
X79151599Y-98382420D01*
X79016113Y-98188926D01*
X79016108Y-98188920D01*
X78894053Y-98066865D01*
X78860568Y-98005542D01*
X78865552Y-97935850D01*
X78907424Y-97879917D01*
X78938400Y-97863002D01*
X79070331Y-97813796D01*
X79185546Y-97727546D01*
X79271796Y-97612331D01*
X79312143Y-97504155D01*
X88463500Y-97504155D01*
X88463500Y-98302000D01*
X89425252Y-98302000D01*
X89403482Y-98339708D01*
X89366000Y-98479591D01*
X89366000Y-98624409D01*
X89403482Y-98764292D01*
X89425252Y-98802000D01*
X88463500Y-98802000D01*
X88463500Y-99599844D01*
X88469901Y-99659372D01*
X88469903Y-99659379D01*
X88520145Y-99794086D01*
X88520149Y-99794093D01*
X88606309Y-99909187D01*
X88606312Y-99909190D01*
X88721406Y-99995350D01*
X88721413Y-99995354D01*
X88856120Y-100045596D01*
X88856127Y-100045598D01*
X88915655Y-100051999D01*
X88915672Y-100052000D01*
X89666000Y-100052000D01*
X89666000Y-99042747D01*
X89703708Y-99064518D01*
X89843591Y-99102000D01*
X89988409Y-99102000D01*
X90128292Y-99064518D01*
X90166000Y-99042747D01*
X90166000Y-100052000D01*
X90916328Y-100052000D01*
X90916344Y-100051999D01*
X90975872Y-100045598D01*
X90975879Y-100045596D01*
X91110586Y-99995354D01*
X91110593Y-99995350D01*
X91225687Y-99909190D01*
X91225690Y-99909187D01*
X91311850Y-99794093D01*
X91311854Y-99794086D01*
X91322272Y-99766155D01*
X91364143Y-99710221D01*
X91429607Y-99685804D01*
X91497880Y-99700655D01*
X91511331Y-99709164D01*
X91694462Y-99842217D01*
X91825904Y-99909190D01*
X91898244Y-99946049D01*
X92115751Y-100016721D01*
X92115752Y-100016721D01*
X92115755Y-100016722D01*
X92341646Y-100052500D01*
X92341647Y-100052500D01*
X92570353Y-100052500D01*
X92570354Y-100052500D01*
X92796245Y-100016722D01*
X92796248Y-100016721D01*
X92796249Y-100016721D01*
X93013755Y-99946049D01*
X93013755Y-99946048D01*
X93013758Y-99946048D01*
X93217538Y-99842217D01*
X93402566Y-99707786D01*
X93564286Y-99546066D01*
X93625683Y-99461559D01*
X93681012Y-99418896D01*
X93750625Y-99412917D01*
X93812420Y-99445523D01*
X93826314Y-99461556D01*
X93887714Y-99546066D01*
X94049434Y-99707786D01*
X94234462Y-99842217D01*
X94365904Y-99909190D01*
X94438244Y-99946049D01*
X94655751Y-100016721D01*
X94655752Y-100016721D01*
X94655755Y-100016722D01*
X94881646Y-100052500D01*
X94881647Y-100052500D01*
X95110353Y-100052500D01*
X95110354Y-100052500D01*
X95336245Y-100016722D01*
X95336248Y-100016721D01*
X95336249Y-100016721D01*
X95553755Y-99946049D01*
X95553755Y-99946048D01*
X95553758Y-99946048D01*
X95757538Y-99842217D01*
X95942566Y-99707786D01*
X96104286Y-99546066D01*
X96238717Y-99361038D01*
X96342548Y-99157258D01*
X96413222Y-98939745D01*
X96449000Y-98713854D01*
X96449000Y-98390146D01*
X96413222Y-98164255D01*
X96413221Y-98164251D01*
X96413221Y-98164250D01*
X96342549Y-97946744D01*
X96298096Y-97859500D01*
X96238717Y-97742962D01*
X96104286Y-97557934D01*
X96050487Y-97504135D01*
X103632000Y-97504135D01*
X103632000Y-99599870D01*
X103632001Y-99599876D01*
X103638408Y-99659483D01*
X103688702Y-99794328D01*
X103688706Y-99794335D01*
X103774952Y-99909544D01*
X103774955Y-99909547D01*
X103890164Y-99995793D01*
X103890171Y-99995797D01*
X104025017Y-100046091D01*
X104025016Y-100046091D01*
X104031944Y-100046835D01*
X104084627Y-100052500D01*
X106085372Y-100052499D01*
X106144983Y-100046091D01*
X106279831Y-99995796D01*
X106395046Y-99909546D01*
X106481296Y-99794331D01*
X106491872Y-99765974D01*
X106533740Y-99710041D01*
X106599204Y-99685622D01*
X106667477Y-99700472D01*
X106680940Y-99708988D01*
X106863723Y-99841788D01*
X107067429Y-99945582D01*
X107284871Y-100016234D01*
X107375000Y-100030509D01*
X107375000Y-99042747D01*
X107412708Y-99064518D01*
X107552591Y-99102000D01*
X107697409Y-99102000D01*
X107837292Y-99064518D01*
X107875000Y-99042747D01*
X107875000Y-100030508D01*
X107965128Y-100016234D01*
X108182570Y-99945582D01*
X108386276Y-99841788D01*
X108571242Y-99707402D01*
X108732905Y-99545739D01*
X108794371Y-99461137D01*
X108849701Y-99418470D01*
X108919314Y-99412491D01*
X108981109Y-99445096D01*
X108995007Y-99461134D01*
X109056714Y-99546066D01*
X109218434Y-99707786D01*
X109403462Y-99842217D01*
X109534904Y-99909190D01*
X109607244Y-99946049D01*
X109824751Y-100016721D01*
X109824752Y-100016721D01*
X109824755Y-100016722D01*
X110050646Y-100052500D01*
X110050647Y-100052500D01*
X110279353Y-100052500D01*
X110279354Y-100052500D01*
X110505245Y-100016722D01*
X110505248Y-100016721D01*
X110505249Y-100016721D01*
X110722755Y-99946049D01*
X110722755Y-99946048D01*
X110722758Y-99946048D01*
X110926538Y-99842217D01*
X111111566Y-99707786D01*
X111273286Y-99546066D01*
X111407717Y-99361038D01*
X111511548Y-99157258D01*
X111582222Y-98939745D01*
X111618000Y-98713854D01*
X111618000Y-98390146D01*
X111582222Y-98164255D01*
X111582221Y-98164251D01*
X111582221Y-98164250D01*
X111511549Y-97946744D01*
X111467096Y-97859500D01*
X111407717Y-97742962D01*
X111273286Y-97557934D01*
X111111566Y-97396214D01*
X110926538Y-97261783D01*
X110795100Y-97194812D01*
X110722755Y-97157950D01*
X110505248Y-97087278D01*
X110319812Y-97057908D01*
X110279354Y-97051500D01*
X110050646Y-97051500D01*
X110007063Y-97058403D01*
X109824753Y-97087278D01*
X109824750Y-97087278D01*
X109607244Y-97157950D01*
X109403461Y-97261783D01*
X109337217Y-97309913D01*
X109218434Y-97396214D01*
X109218432Y-97396216D01*
X109218431Y-97396216D01*
X109056716Y-97557931D01*
X109056709Y-97557940D01*
X108995007Y-97642864D01*
X108939677Y-97685530D01*
X108870063Y-97691508D01*
X108808269Y-97658901D01*
X108794372Y-97642863D01*
X108732907Y-97558263D01*
X108732902Y-97558257D01*
X108571242Y-97396597D01*
X108386276Y-97262211D01*
X108182568Y-97158417D01*
X107965124Y-97087765D01*
X107875000Y-97073490D01*
X107875000Y-98061252D01*
X107837292Y-98039482D01*
X107697409Y-98002000D01*
X107552591Y-98002000D01*
X107412708Y-98039482D01*
X107375000Y-98061252D01*
X107375000Y-97073490D01*
X107374999Y-97073490D01*
X107284875Y-97087765D01*
X107067431Y-97158417D01*
X106863719Y-97262213D01*
X106680939Y-97395010D01*
X106615132Y-97418490D01*
X106547079Y-97402664D01*
X106498384Y-97352558D01*
X106491875Y-97338033D01*
X106481296Y-97309669D01*
X106481295Y-97309667D01*
X106481293Y-97309664D01*
X106395047Y-97194455D01*
X106395044Y-97194452D01*
X106279835Y-97108206D01*
X106279828Y-97108202D01*
X106144982Y-97057908D01*
X106144983Y-97057908D01*
X106085383Y-97051501D01*
X106085381Y-97051500D01*
X106085373Y-97051500D01*
X106085364Y-97051500D01*
X104084629Y-97051500D01*
X104084623Y-97051501D01*
X104025016Y-97057908D01*
X103890171Y-97108202D01*
X103890164Y-97108206D01*
X103774955Y-97194452D01*
X103774952Y-97194455D01*
X103688706Y-97309664D01*
X103688702Y-97309671D01*
X103638408Y-97444517D01*
X103632001Y-97504116D01*
X103632000Y-97504135D01*
X96050487Y-97504135D01*
X95942566Y-97396214D01*
X95757538Y-97261783D01*
X95626100Y-97194812D01*
X95553755Y-97157950D01*
X95336248Y-97087278D01*
X95150812Y-97057908D01*
X95110354Y-97051500D01*
X94881646Y-97051500D01*
X94838063Y-97058403D01*
X94655753Y-97087278D01*
X94655750Y-97087278D01*
X94438244Y-97157950D01*
X94234461Y-97261783D01*
X94168217Y-97309913D01*
X94049434Y-97396214D01*
X94049432Y-97396216D01*
X94049431Y-97396216D01*
X93887715Y-97557932D01*
X93826318Y-97642438D01*
X93770987Y-97685103D01*
X93701374Y-97691082D01*
X93639579Y-97658476D01*
X93625682Y-97642438D01*
X93594303Y-97599249D01*
X93564286Y-97557934D01*
X93402566Y-97396214D01*
X93217538Y-97261783D01*
X93086100Y-97194812D01*
X93013755Y-97157950D01*
X92796248Y-97087278D01*
X92610812Y-97057908D01*
X92570354Y-97051500D01*
X92341646Y-97051500D01*
X92298063Y-97058403D01*
X92115753Y-97087278D01*
X92115750Y-97087278D01*
X91898244Y-97157950D01*
X91694458Y-97261785D01*
X91511339Y-97394829D01*
X91445533Y-97418309D01*
X91377479Y-97402484D01*
X91328784Y-97352378D01*
X91322272Y-97337845D01*
X91311853Y-97309911D01*
X91311850Y-97309906D01*
X91225690Y-97194812D01*
X91225687Y-97194809D01*
X91110593Y-97108649D01*
X91110586Y-97108645D01*
X90975879Y-97058403D01*
X90975872Y-97058401D01*
X90916344Y-97052000D01*
X90166000Y-97052000D01*
X90166000Y-98061252D01*
X90128292Y-98039482D01*
X89988409Y-98002000D01*
X89843591Y-98002000D01*
X89703708Y-98039482D01*
X89666000Y-98061252D01*
X89666000Y-97052000D01*
X88915655Y-97052000D01*
X88856127Y-97058401D01*
X88856120Y-97058403D01*
X88721413Y-97108645D01*
X88721406Y-97108649D01*
X88606312Y-97194809D01*
X88606309Y-97194812D01*
X88520149Y-97309906D01*
X88520145Y-97309913D01*
X88469903Y-97444620D01*
X88469901Y-97444627D01*
X88463500Y-97504155D01*
X79312143Y-97504155D01*
X79322091Y-97477483D01*
X79328500Y-97417873D01*
X79328499Y-95622128D01*
X79322091Y-95562517D01*
X79320359Y-95557874D01*
X79271797Y-95427671D01*
X79271793Y-95427664D01*
X79185547Y-95312455D01*
X79185544Y-95312452D01*
X79070335Y-95226206D01*
X79070328Y-95226202D01*
X78935482Y-95175908D01*
X78935483Y-95175908D01*
X78875883Y-95169501D01*
X78875881Y-95169500D01*
X78875873Y-95169500D01*
X78875864Y-95169500D01*
X77080129Y-95169500D01*
X77080123Y-95169501D01*
X77020516Y-95175908D01*
X76885671Y-95226202D01*
X76885664Y-95226206D01*
X76770455Y-95312452D01*
X76770452Y-95312455D01*
X76684206Y-95427664D01*
X76684202Y-95427671D01*
X76633908Y-95562517D01*
X76627501Y-95622116D01*
X76627501Y-95622123D01*
X76627500Y-95622135D01*
X76627500Y-97417870D01*
X76627501Y-97417876D01*
X76633908Y-97477483D01*
X76684202Y-97612328D01*
X76684206Y-97612335D01*
X76770452Y-97727544D01*
X76770455Y-97727547D01*
X76885664Y-97813793D01*
X76885671Y-97813797D01*
X76885674Y-97813798D01*
X77017598Y-97863002D01*
X77073531Y-97904873D01*
X77097949Y-97970337D01*
X77083098Y-98038610D01*
X77061947Y-98066865D01*
X76939886Y-98188926D01*
X76804400Y-98382420D01*
X76804399Y-98382422D01*
X76704570Y-98596507D01*
X76704567Y-98596513D01*
X76647364Y-98809999D01*
X76647364Y-98810000D01*
X77544988Y-98810000D01*
X77512075Y-98867007D01*
X77478000Y-98994174D01*
X77478000Y-99125826D01*
X77512075Y-99252993D01*
X77544988Y-99310000D01*
X76647364Y-99310000D01*
X76704567Y-99523486D01*
X76704570Y-99523492D01*
X76804399Y-99737578D01*
X76939894Y-99931082D01*
X77106917Y-100098105D01*
X77292595Y-100228119D01*
X77336219Y-100282696D01*
X77343412Y-100352195D01*
X77311890Y-100414549D01*
X77292595Y-100431269D01*
X77106594Y-100561508D01*
X76939505Y-100728597D01*
X76803965Y-100922169D01*
X76803964Y-100922171D01*
X76704098Y-101136335D01*
X76704094Y-101136344D01*
X76642938Y-101364586D01*
X76642936Y-101364596D01*
X76622341Y-101599999D01*
X74676000Y-101599999D01*
X74676000Y-83819999D01*
X113856357Y-83819999D01*
X113856357Y-83820000D01*
X113876884Y-84041535D01*
X113876885Y-84041537D01*
X113937769Y-84255523D01*
X113937775Y-84255538D01*
X114036938Y-84454683D01*
X114036943Y-84454691D01*
X114171020Y-84632238D01*
X114335437Y-84782123D01*
X114335439Y-84782125D01*
X114524595Y-84899245D01*
X114524596Y-84899245D01*
X114524599Y-84899247D01*
X114718524Y-84974374D01*
X114773924Y-85016946D01*
X114797515Y-85082713D01*
X114781804Y-85150793D01*
X114731780Y-85199572D01*
X114718533Y-85205622D01*
X114570488Y-85262975D01*
X114524601Y-85280752D01*
X114524595Y-85280754D01*
X114335439Y-85397874D01*
X114335437Y-85397876D01*
X114171020Y-85547761D01*
X114036943Y-85725308D01*
X114036938Y-85725316D01*
X113937775Y-85924461D01*
X113937769Y-85924476D01*
X113876885Y-86138462D01*
X113876884Y-86138464D01*
X113856357Y-86359999D01*
X113856357Y-86360000D01*
X113876884Y-86581535D01*
X113876885Y-86581537D01*
X113937769Y-86795523D01*
X113937775Y-86795538D01*
X114036938Y-86994683D01*
X114036943Y-86994691D01*
X114171020Y-87172238D01*
X114335437Y-87322123D01*
X114335439Y-87322125D01*
X114524595Y-87439245D01*
X114524596Y-87439245D01*
X114524599Y-87439247D01*
X114718524Y-87514374D01*
X114773924Y-87556946D01*
X114797515Y-87622713D01*
X114781804Y-87690793D01*
X114731780Y-87739572D01*
X114718533Y-87745622D01*
X114570488Y-87802975D01*
X114524601Y-87820752D01*
X114524595Y-87820754D01*
X114335439Y-87937874D01*
X114335437Y-87937876D01*
X114171020Y-88087761D01*
X114036943Y-88265308D01*
X114036938Y-88265316D01*
X113937775Y-88464461D01*
X113937769Y-88464476D01*
X113876885Y-88678462D01*
X113876884Y-88678464D01*
X113856357Y-88899999D01*
X113856357Y-88900000D01*
X113876884Y-89121535D01*
X113876885Y-89121537D01*
X113937769Y-89335523D01*
X113937775Y-89335538D01*
X114036938Y-89534683D01*
X114036943Y-89534691D01*
X114171020Y-89712238D01*
X114335437Y-89862123D01*
X114335439Y-89862125D01*
X114524595Y-89979245D01*
X114524596Y-89979245D01*
X114524599Y-89979247D01*
X114718524Y-90054374D01*
X114773924Y-90096946D01*
X114797515Y-90162713D01*
X114781804Y-90230793D01*
X114731780Y-90279572D01*
X114718533Y-90285622D01*
X114570488Y-90342975D01*
X114524601Y-90360752D01*
X114524595Y-90360754D01*
X114335439Y-90477874D01*
X114335437Y-90477876D01*
X114171020Y-90627761D01*
X114036943Y-90805308D01*
X114036938Y-90805316D01*
X113937775Y-91004461D01*
X113937769Y-91004476D01*
X113876885Y-91218462D01*
X113876884Y-91218464D01*
X113856357Y-91439999D01*
X113856357Y-91440000D01*
X113876884Y-91661535D01*
X113876885Y-91661537D01*
X113937769Y-91875523D01*
X113937775Y-91875538D01*
X114036938Y-92074683D01*
X114036943Y-92074691D01*
X114171020Y-92252238D01*
X114335437Y-92402123D01*
X114335439Y-92402125D01*
X114524595Y-92519245D01*
X114524596Y-92519245D01*
X114524599Y-92519247D01*
X114718524Y-92594374D01*
X114773924Y-92636946D01*
X114797515Y-92702713D01*
X114781804Y-92770793D01*
X114731780Y-92819572D01*
X114718533Y-92825622D01*
X114570488Y-92882975D01*
X114524601Y-92900752D01*
X114524595Y-92900754D01*
X114335439Y-93017874D01*
X114335437Y-93017876D01*
X114171020Y-93167761D01*
X114036943Y-93345308D01*
X114036938Y-93345316D01*
X113937775Y-93544461D01*
X113937769Y-93544476D01*
X113876885Y-93758462D01*
X113876884Y-93758464D01*
X113856357Y-93979999D01*
X113856357Y-93980000D01*
X113876884Y-94201535D01*
X113876885Y-94201537D01*
X113937769Y-94415523D01*
X113937775Y-94415538D01*
X114036938Y-94614683D01*
X114036943Y-94614691D01*
X114171020Y-94792238D01*
X114335437Y-94942123D01*
X114335439Y-94942125D01*
X114524595Y-95059245D01*
X114524596Y-95059245D01*
X114524599Y-95059247D01*
X114718524Y-95134374D01*
X114773924Y-95176946D01*
X114797515Y-95242713D01*
X114781804Y-95310793D01*
X114731780Y-95359572D01*
X114718533Y-95365622D01*
X114570488Y-95422975D01*
X114524601Y-95440752D01*
X114524595Y-95440754D01*
X114335439Y-95557874D01*
X114335437Y-95557876D01*
X114171020Y-95707761D01*
X114036943Y-95885308D01*
X114036938Y-95885316D01*
X113937775Y-96084461D01*
X113937769Y-96084476D01*
X113876885Y-96298462D01*
X113876884Y-96298464D01*
X113856357Y-96519999D01*
X113856357Y-96520000D01*
X113876884Y-96741535D01*
X113876885Y-96741537D01*
X113937769Y-96955523D01*
X113937775Y-96955538D01*
X114036938Y-97154683D01*
X114036943Y-97154691D01*
X114171020Y-97332238D01*
X114335437Y-97482123D01*
X114335439Y-97482125D01*
X114524595Y-97599245D01*
X114524596Y-97599245D01*
X114524599Y-97599247D01*
X114718524Y-97674374D01*
X114773924Y-97716946D01*
X114797515Y-97782713D01*
X114781804Y-97850793D01*
X114731780Y-97899572D01*
X114718533Y-97905622D01*
X114570488Y-97962975D01*
X114524601Y-97980752D01*
X114524595Y-97980754D01*
X114335439Y-98097874D01*
X114335437Y-98097876D01*
X114171020Y-98247761D01*
X114036943Y-98425308D01*
X114036938Y-98425316D01*
X113937775Y-98624461D01*
X113937769Y-98624476D01*
X113876885Y-98838462D01*
X113876884Y-98838464D01*
X113856357Y-99059999D01*
X113856357Y-99060000D01*
X113876884Y-99281535D01*
X113876885Y-99281537D01*
X113937769Y-99495523D01*
X113937775Y-99495538D01*
X114036938Y-99694683D01*
X114036943Y-99694691D01*
X114171020Y-99872238D01*
X114335437Y-100022123D01*
X114335439Y-100022125D01*
X114524595Y-100139245D01*
X114524596Y-100139245D01*
X114524599Y-100139247D01*
X114718524Y-100214374D01*
X114773924Y-100256946D01*
X114797515Y-100322713D01*
X114781804Y-100390793D01*
X114731780Y-100439572D01*
X114718533Y-100445622D01*
X114570488Y-100502975D01*
X114524601Y-100520752D01*
X114524595Y-100520754D01*
X114335439Y-100637874D01*
X114335437Y-100637876D01*
X114171020Y-100787761D01*
X114036943Y-100965308D01*
X114036938Y-100965316D01*
X113937775Y-101164461D01*
X113937769Y-101164476D01*
X113876885Y-101378462D01*
X113876884Y-101378464D01*
X113856357Y-101599999D01*
X113856357Y-101600000D01*
X113876884Y-101821535D01*
X113876885Y-101821537D01*
X113937769Y-102035523D01*
X113937775Y-102035538D01*
X114036938Y-102234683D01*
X114036943Y-102234691D01*
X114171020Y-102412238D01*
X114335437Y-102562123D01*
X114335439Y-102562125D01*
X114524595Y-102679245D01*
X114524596Y-102679245D01*
X114524599Y-102679247D01*
X114718524Y-102754374D01*
X114773924Y-102796946D01*
X114797515Y-102862713D01*
X114781804Y-102930793D01*
X114731780Y-102979572D01*
X114718533Y-102985622D01*
X114570488Y-103042975D01*
X114524601Y-103060752D01*
X114524595Y-103060754D01*
X114335439Y-103177874D01*
X114335437Y-103177876D01*
X114171020Y-103327761D01*
X114036943Y-103505308D01*
X114036938Y-103505316D01*
X113937775Y-103704461D01*
X113937769Y-103704476D01*
X113876885Y-103918462D01*
X113876884Y-103918464D01*
X113856357Y-104139999D01*
X113856357Y-104140000D01*
X113876884Y-104361535D01*
X113876885Y-104361537D01*
X113937769Y-104575523D01*
X113937775Y-104575538D01*
X114036938Y-104774683D01*
X114036943Y-104774691D01*
X114171020Y-104952238D01*
X114335437Y-105102123D01*
X114335439Y-105102125D01*
X114524595Y-105219245D01*
X114524596Y-105219245D01*
X114524599Y-105219247D01*
X114732060Y-105299618D01*
X114950757Y-105340500D01*
X114950759Y-105340500D01*
X115173241Y-105340500D01*
X115173243Y-105340500D01*
X115391940Y-105299618D01*
X115599401Y-105219247D01*
X115788562Y-105102124D01*
X115952981Y-104952236D01*
X116087058Y-104774689D01*
X116186229Y-104575528D01*
X116212734Y-104482371D01*
X116250013Y-104423278D01*
X116313323Y-104393721D01*
X116382562Y-104403083D01*
X116435749Y-104448393D01*
X116451266Y-104482372D01*
X116477769Y-104575523D01*
X116477775Y-104575538D01*
X116576938Y-104774683D01*
X116576943Y-104774691D01*
X116711020Y-104952238D01*
X116875437Y-105102123D01*
X116875439Y-105102125D01*
X117064595Y-105219245D01*
X117064596Y-105219245D01*
X117064599Y-105219247D01*
X117272060Y-105299618D01*
X117490757Y-105340500D01*
X117490759Y-105340500D01*
X117713241Y-105340500D01*
X117713243Y-105340500D01*
X117931940Y-105299618D01*
X118139401Y-105219247D01*
X118328562Y-105102124D01*
X118492981Y-104952236D01*
X118627058Y-104774689D01*
X118726229Y-104575528D01*
X118787115Y-104361536D01*
X118807643Y-104140000D01*
X118787115Y-103918464D01*
X118726229Y-103704472D01*
X118640761Y-103532830D01*
X118627061Y-103505316D01*
X118627056Y-103505308D01*
X118492979Y-103327761D01*
X118328562Y-103177876D01*
X118328560Y-103177874D01*
X118139404Y-103060754D01*
X118139395Y-103060750D01*
X118045956Y-103024552D01*
X117945475Y-102985625D01*
X117890075Y-102943054D01*
X117866484Y-102877288D01*
X117882195Y-102809207D01*
X117932219Y-102760428D01*
X117945466Y-102754377D01*
X118139401Y-102679247D01*
X118328562Y-102562124D01*
X118492981Y-102412236D01*
X118627058Y-102234689D01*
X118726229Y-102035528D01*
X118787115Y-101821536D01*
X118807643Y-101600000D01*
X118787115Y-101378464D01*
X118726229Y-101164472D01*
X118712223Y-101136344D01*
X118627061Y-100965316D01*
X118627056Y-100965308D01*
X118492979Y-100787761D01*
X118328562Y-100637876D01*
X118328560Y-100637874D01*
X118139404Y-100520754D01*
X118139395Y-100520750D01*
X118045956Y-100484552D01*
X117945475Y-100445625D01*
X117890075Y-100403054D01*
X117866484Y-100337288D01*
X117882195Y-100269207D01*
X117932219Y-100220428D01*
X117945466Y-100214377D01*
X118139401Y-100139247D01*
X118328562Y-100022124D01*
X118492981Y-99872236D01*
X118627058Y-99694689D01*
X118726229Y-99495528D01*
X118787115Y-99281536D01*
X118807643Y-99060000D01*
X118787115Y-98838464D01*
X118726229Y-98624472D01*
X118694126Y-98560000D01*
X118627061Y-98425316D01*
X118627056Y-98425308D01*
X118492979Y-98247761D01*
X118328562Y-98097876D01*
X118328560Y-98097874D01*
X118139404Y-97980754D01*
X118139395Y-97980750D01*
X118023493Y-97935850D01*
X117945475Y-97905625D01*
X117890075Y-97863054D01*
X117866484Y-97797288D01*
X117882195Y-97729207D01*
X117932219Y-97680428D01*
X117945466Y-97674377D01*
X118139401Y-97599247D01*
X118328562Y-97482124D01*
X118492981Y-97332236D01*
X118627058Y-97154689D01*
X118726229Y-96955528D01*
X118787115Y-96741536D01*
X118807643Y-96520000D01*
X118787115Y-96298464D01*
X118726229Y-96084472D01*
X118726224Y-96084461D01*
X118627061Y-95885316D01*
X118627056Y-95885308D01*
X118492979Y-95707761D01*
X118328562Y-95557876D01*
X118328560Y-95557874D01*
X118139404Y-95440754D01*
X118139395Y-95440750D01*
X118045956Y-95404552D01*
X117945475Y-95365625D01*
X117890075Y-95323054D01*
X117866484Y-95257288D01*
X117882195Y-95189207D01*
X117932219Y-95140428D01*
X117945466Y-95134377D01*
X118139401Y-95059247D01*
X118328562Y-94942124D01*
X118492981Y-94792236D01*
X118627058Y-94614689D01*
X118726229Y-94415528D01*
X118787115Y-94201536D01*
X118807643Y-93980000D01*
X118787115Y-93758464D01*
X118726229Y-93544472D01*
X118726224Y-93544461D01*
X118627061Y-93345316D01*
X118627056Y-93345308D01*
X118492979Y-93167761D01*
X118328562Y-93017876D01*
X118328560Y-93017874D01*
X118139404Y-92900754D01*
X118139395Y-92900750D01*
X118045956Y-92864552D01*
X117945475Y-92825625D01*
X117890075Y-92783054D01*
X117866484Y-92717288D01*
X117882195Y-92649207D01*
X117932219Y-92600428D01*
X117945466Y-92594377D01*
X118139401Y-92519247D01*
X118328562Y-92402124D01*
X118492981Y-92252236D01*
X118627058Y-92074689D01*
X118726229Y-91875528D01*
X118787115Y-91661536D01*
X118807643Y-91440000D01*
X118799992Y-91357436D01*
X118787115Y-91218464D01*
X118787114Y-91218462D01*
X118775293Y-91176916D01*
X118726229Y-91004472D01*
X118711920Y-90975735D01*
X118627061Y-90805316D01*
X118627056Y-90805308D01*
X118492979Y-90627761D01*
X118328562Y-90477876D01*
X118328560Y-90477874D01*
X118139404Y-90360754D01*
X118139395Y-90360750D01*
X118045956Y-90324552D01*
X117945475Y-90285625D01*
X117890075Y-90243054D01*
X117866484Y-90177288D01*
X117882195Y-90109207D01*
X117932219Y-90060428D01*
X117945466Y-90054377D01*
X118139401Y-89979247D01*
X118328562Y-89862124D01*
X118492981Y-89712236D01*
X118627058Y-89534689D01*
X118726229Y-89335528D01*
X118787115Y-89121536D01*
X118807643Y-88900000D01*
X118787115Y-88678464D01*
X118726229Y-88464472D01*
X118680730Y-88373098D01*
X118627061Y-88265316D01*
X118627056Y-88265308D01*
X118492979Y-88087761D01*
X118328562Y-87937876D01*
X118328560Y-87937874D01*
X118139404Y-87820754D01*
X118139395Y-87820750D01*
X118045956Y-87784552D01*
X117945475Y-87745625D01*
X117890075Y-87703054D01*
X117866484Y-87637288D01*
X117882195Y-87569207D01*
X117932219Y-87520428D01*
X117945466Y-87514377D01*
X118139401Y-87439247D01*
X118328562Y-87322124D01*
X118492981Y-87172236D01*
X118627058Y-86994689D01*
X118726229Y-86795528D01*
X118787115Y-86581536D01*
X118807643Y-86360000D01*
X118787115Y-86138464D01*
X118726229Y-85924472D01*
X118726224Y-85924461D01*
X118627061Y-85725316D01*
X118627056Y-85725308D01*
X118492979Y-85547761D01*
X118328562Y-85397876D01*
X118328560Y-85397874D01*
X118139404Y-85280754D01*
X118139395Y-85280750D01*
X118045956Y-85244552D01*
X117945475Y-85205625D01*
X117890075Y-85163054D01*
X117866484Y-85097288D01*
X117882195Y-85029207D01*
X117932219Y-84980428D01*
X117945466Y-84974377D01*
X118139401Y-84899247D01*
X118328562Y-84782124D01*
X118468282Y-84654751D01*
X118492979Y-84632238D01*
X118576988Y-84520993D01*
X118627058Y-84454689D01*
X118726229Y-84255528D01*
X118787115Y-84041536D01*
X118807643Y-83820000D01*
X118787115Y-83598464D01*
X118726229Y-83384472D01*
X118719335Y-83370627D01*
X118627061Y-83185316D01*
X118627056Y-83185308D01*
X118492979Y-83007761D01*
X118328562Y-82857876D01*
X118328560Y-82857874D01*
X118139404Y-82740754D01*
X118139395Y-82740750D01*
X118045956Y-82704552D01*
X117945475Y-82665625D01*
X117890075Y-82623054D01*
X117866484Y-82557288D01*
X117882195Y-82489207D01*
X117932219Y-82440428D01*
X117945466Y-82434377D01*
X118139401Y-82359247D01*
X118328562Y-82242124D01*
X118492981Y-82092236D01*
X118627058Y-81914689D01*
X118726229Y-81715528D01*
X118787115Y-81501536D01*
X118807643Y-81280000D01*
X118807643Y-81279999D01*
X139256357Y-81279999D01*
X139256357Y-81280000D01*
X139276884Y-81501535D01*
X139276885Y-81501537D01*
X139337769Y-81715523D01*
X139337775Y-81715538D01*
X139436938Y-81914683D01*
X139436943Y-81914691D01*
X139571020Y-82092238D01*
X139735437Y-82242123D01*
X139735439Y-82242125D01*
X139924595Y-82359245D01*
X139924596Y-82359245D01*
X139924599Y-82359247D01*
X140118524Y-82434374D01*
X140173924Y-82476946D01*
X140197515Y-82542713D01*
X140181804Y-82610793D01*
X140131780Y-82659572D01*
X140118533Y-82665622D01*
X139970488Y-82722975D01*
X139924601Y-82740752D01*
X139924595Y-82740754D01*
X139735439Y-82857874D01*
X139735437Y-82857876D01*
X139571020Y-83007761D01*
X139436943Y-83185308D01*
X139436938Y-83185316D01*
X139337775Y-83384461D01*
X139337769Y-83384476D01*
X139276885Y-83598462D01*
X139276884Y-83598464D01*
X139256357Y-83819999D01*
X139256357Y-83820000D01*
X139276884Y-84041535D01*
X139276885Y-84041537D01*
X139337769Y-84255523D01*
X139337775Y-84255538D01*
X139436938Y-84454683D01*
X139436943Y-84454691D01*
X139571020Y-84632238D01*
X139735437Y-84782123D01*
X139735439Y-84782125D01*
X139924595Y-84899245D01*
X139924596Y-84899245D01*
X139924599Y-84899247D01*
X140118524Y-84974374D01*
X140173924Y-85016946D01*
X140197515Y-85082713D01*
X140181804Y-85150793D01*
X140131780Y-85199572D01*
X140118533Y-85205622D01*
X139970488Y-85262975D01*
X139924601Y-85280752D01*
X139924595Y-85280754D01*
X139735439Y-85397874D01*
X139735437Y-85397876D01*
X139571020Y-85547761D01*
X139436943Y-85725308D01*
X139436938Y-85725316D01*
X139337775Y-85924461D01*
X139337769Y-85924476D01*
X139276885Y-86138462D01*
X139276884Y-86138464D01*
X139256357Y-86359999D01*
X139256357Y-86360000D01*
X139276884Y-86581535D01*
X139276885Y-86581537D01*
X139337769Y-86795523D01*
X139337775Y-86795538D01*
X139436938Y-86994683D01*
X139436943Y-86994691D01*
X139571020Y-87172238D01*
X139735437Y-87322123D01*
X139735439Y-87322125D01*
X139924595Y-87439245D01*
X139924596Y-87439245D01*
X139924599Y-87439247D01*
X140118524Y-87514374D01*
X140173924Y-87556946D01*
X140197515Y-87622713D01*
X140181804Y-87690793D01*
X140131780Y-87739572D01*
X140118533Y-87745622D01*
X139970488Y-87802975D01*
X139924601Y-87820752D01*
X139924595Y-87820754D01*
X139735439Y-87937874D01*
X139735437Y-87937876D01*
X139571020Y-88087761D01*
X139436943Y-88265308D01*
X139436938Y-88265316D01*
X139337775Y-88464461D01*
X139337769Y-88464476D01*
X139276885Y-88678462D01*
X139276884Y-88678464D01*
X139256357Y-88899999D01*
X139256357Y-88900000D01*
X139276884Y-89121535D01*
X139276885Y-89121537D01*
X139337769Y-89335523D01*
X139337775Y-89335538D01*
X139436938Y-89534683D01*
X139436943Y-89534691D01*
X139571020Y-89712238D01*
X139735437Y-89862123D01*
X139735439Y-89862125D01*
X139924595Y-89979245D01*
X139924596Y-89979245D01*
X139924599Y-89979247D01*
X140118524Y-90054374D01*
X140173924Y-90096946D01*
X140197515Y-90162713D01*
X140181804Y-90230793D01*
X140131780Y-90279572D01*
X140118533Y-90285622D01*
X139970488Y-90342975D01*
X139924601Y-90360752D01*
X139924595Y-90360754D01*
X139735439Y-90477874D01*
X139735437Y-90477876D01*
X139571020Y-90627761D01*
X139436943Y-90805308D01*
X139436938Y-90805316D01*
X139337775Y-91004461D01*
X139337769Y-91004476D01*
X139276885Y-91218462D01*
X139276884Y-91218464D01*
X139256357Y-91439999D01*
X139256357Y-91440000D01*
X139276884Y-91661535D01*
X139276885Y-91661537D01*
X139337769Y-91875523D01*
X139337775Y-91875538D01*
X139436938Y-92074683D01*
X139436943Y-92074691D01*
X139571020Y-92252238D01*
X139735437Y-92402123D01*
X139735439Y-92402125D01*
X139924595Y-92519245D01*
X139924596Y-92519245D01*
X139924599Y-92519247D01*
X140118524Y-92594374D01*
X140173924Y-92636946D01*
X140197515Y-92702713D01*
X140181804Y-92770793D01*
X140131780Y-92819572D01*
X140118533Y-92825622D01*
X139970488Y-92882975D01*
X139924601Y-92900752D01*
X139924595Y-92900754D01*
X139735439Y-93017874D01*
X139735437Y-93017876D01*
X139571020Y-93167761D01*
X139436943Y-93345308D01*
X139436938Y-93345316D01*
X139337775Y-93544461D01*
X139337769Y-93544476D01*
X139276885Y-93758462D01*
X139276884Y-93758464D01*
X139256357Y-93979999D01*
X139256357Y-93980000D01*
X139276884Y-94201535D01*
X139276885Y-94201537D01*
X139337769Y-94415523D01*
X139337775Y-94415538D01*
X139436938Y-94614683D01*
X139436943Y-94614691D01*
X139571020Y-94792238D01*
X139735437Y-94942123D01*
X139735439Y-94942125D01*
X139924595Y-95059245D01*
X139924596Y-95059245D01*
X139924599Y-95059247D01*
X140119215Y-95134642D01*
X140174614Y-95177213D01*
X140198205Y-95242980D01*
X140182494Y-95311060D01*
X140132470Y-95359839D01*
X140119213Y-95365893D01*
X139924833Y-95441196D01*
X139924823Y-95441201D01*
X139808671Y-95513119D01*
X140415553Y-96120000D01*
X140409339Y-96120000D01*
X140307606Y-96147259D01*
X140216394Y-96199920D01*
X140141920Y-96274394D01*
X140089259Y-96365606D01*
X140062000Y-96467339D01*
X140062000Y-96473553D01*
X139453138Y-95864691D01*
X139453137Y-95864691D01*
X139437368Y-95885574D01*
X139338240Y-96084649D01*
X139277378Y-96298560D01*
X139256859Y-96519999D01*
X139256859Y-96520000D01*
X139277378Y-96741439D01*
X139338240Y-96955350D01*
X139437369Y-97154428D01*
X139453137Y-97175308D01*
X139453138Y-97175308D01*
X140062000Y-96566446D01*
X140062000Y-96572661D01*
X140089259Y-96674394D01*
X140141920Y-96765606D01*
X140216394Y-96840080D01*
X140307606Y-96892741D01*
X140409339Y-96920000D01*
X140415553Y-96920000D01*
X139808672Y-97526879D01*
X139808672Y-97526880D01*
X139924821Y-97598797D01*
X139924822Y-97598798D01*
X140119213Y-97674105D01*
X140174614Y-97716678D01*
X140198205Y-97782445D01*
X140182494Y-97850525D01*
X140132470Y-97899304D01*
X140119213Y-97905359D01*
X139924601Y-97980751D01*
X139924595Y-97980754D01*
X139735439Y-98097874D01*
X139735437Y-98097876D01*
X139571020Y-98247761D01*
X139436943Y-98425308D01*
X139436938Y-98425316D01*
X139337775Y-98624461D01*
X139337769Y-98624476D01*
X139276885Y-98838462D01*
X139276884Y-98838464D01*
X139256357Y-99059999D01*
X139256357Y-99060000D01*
X139276884Y-99281535D01*
X139276885Y-99281537D01*
X139337769Y-99495523D01*
X139337775Y-99495538D01*
X139436938Y-99694683D01*
X139436943Y-99694691D01*
X139571020Y-99872238D01*
X139735437Y-100022123D01*
X139735439Y-100022125D01*
X139924595Y-100139245D01*
X139924596Y-100139245D01*
X139924599Y-100139247D01*
X140118524Y-100214374D01*
X140173924Y-100256946D01*
X140197515Y-100322713D01*
X140181804Y-100390793D01*
X140131780Y-100439572D01*
X140118533Y-100445622D01*
X139970488Y-100502975D01*
X139924601Y-100520752D01*
X139924595Y-100520754D01*
X139735439Y-100637874D01*
X139735437Y-100637876D01*
X139571020Y-100787761D01*
X139436943Y-100965308D01*
X139436938Y-100965316D01*
X139337775Y-101164461D01*
X139337769Y-101164476D01*
X139276885Y-101378462D01*
X139276884Y-101378464D01*
X139256357Y-101599999D01*
X139256357Y-101600000D01*
X139276884Y-101821535D01*
X139276885Y-101821537D01*
X139337769Y-102035523D01*
X139337775Y-102035538D01*
X139436938Y-102234683D01*
X139436943Y-102234691D01*
X139571020Y-102412238D01*
X139735437Y-102562123D01*
X139735439Y-102562125D01*
X139924595Y-102679245D01*
X139924596Y-102679245D01*
X139924599Y-102679247D01*
X140118524Y-102754374D01*
X140173924Y-102796946D01*
X140197515Y-102862713D01*
X140181804Y-102930793D01*
X140131780Y-102979572D01*
X140118533Y-102985622D01*
X139970488Y-103042975D01*
X139924601Y-103060752D01*
X139924595Y-103060754D01*
X139735439Y-103177874D01*
X139735437Y-103177876D01*
X139571020Y-103327761D01*
X139436943Y-103505308D01*
X139436938Y-103505316D01*
X139337775Y-103704461D01*
X139337769Y-103704476D01*
X139276885Y-103918462D01*
X139276884Y-103918464D01*
X139256357Y-104139999D01*
X139256357Y-104140000D01*
X139276884Y-104361535D01*
X139276885Y-104361537D01*
X139337769Y-104575523D01*
X139337775Y-104575538D01*
X139436938Y-104774683D01*
X139436943Y-104774691D01*
X139571020Y-104952238D01*
X139735437Y-105102123D01*
X139735439Y-105102125D01*
X139924595Y-105219245D01*
X139924596Y-105219245D01*
X139924599Y-105219247D01*
X140132060Y-105299618D01*
X140350757Y-105340500D01*
X140350759Y-105340500D01*
X140573241Y-105340500D01*
X140573243Y-105340500D01*
X140791940Y-105299618D01*
X140999401Y-105219247D01*
X141188562Y-105102124D01*
X141352981Y-104952236D01*
X141487058Y-104774689D01*
X141586229Y-104575528D01*
X141612734Y-104482371D01*
X141650013Y-104423278D01*
X141713323Y-104393721D01*
X141782562Y-104403083D01*
X141835749Y-104448393D01*
X141851266Y-104482372D01*
X141877769Y-104575523D01*
X141877775Y-104575538D01*
X141976938Y-104774683D01*
X141976943Y-104774691D01*
X142111020Y-104952238D01*
X142275437Y-105102123D01*
X142275439Y-105102125D01*
X142464595Y-105219245D01*
X142464596Y-105219245D01*
X142464599Y-105219247D01*
X142672060Y-105299618D01*
X142890757Y-105340500D01*
X142890759Y-105340500D01*
X143113241Y-105340500D01*
X143113243Y-105340500D01*
X143331940Y-105299618D01*
X143539401Y-105219247D01*
X143728562Y-105102124D01*
X143892981Y-104952236D01*
X144027058Y-104774689D01*
X144126229Y-104575528D01*
X144187115Y-104361536D01*
X144207643Y-104140000D01*
X144187115Y-103918464D01*
X144126229Y-103704472D01*
X144040761Y-103532830D01*
X144027061Y-103505316D01*
X144027056Y-103505308D01*
X143892979Y-103327761D01*
X143728562Y-103177876D01*
X143728560Y-103177874D01*
X143539404Y-103060754D01*
X143539395Y-103060750D01*
X143445956Y-103024552D01*
X143345475Y-102985625D01*
X143290075Y-102943054D01*
X143266484Y-102877288D01*
X143271628Y-102854999D01*
X145964341Y-102854999D01*
X145964341Y-102855000D01*
X145984936Y-103090403D01*
X145984938Y-103090413D01*
X146046094Y-103318655D01*
X146046096Y-103318659D01*
X146046097Y-103318663D01*
X146050341Y-103327764D01*
X146145965Y-103532830D01*
X146145967Y-103532834D01*
X146254281Y-103687521D01*
X146266142Y-103704461D01*
X146281501Y-103726395D01*
X146281506Y-103726402D01*
X146448597Y-103893493D01*
X146448603Y-103893498D01*
X146634158Y-104023425D01*
X146677783Y-104078002D01*
X146684977Y-104147500D01*
X146653454Y-104209855D01*
X146634158Y-104226575D01*
X146448597Y-104356505D01*
X146281505Y-104523597D01*
X146145965Y-104717169D01*
X146145964Y-104717171D01*
X146046098Y-104931335D01*
X146046094Y-104931344D01*
X145984938Y-105159586D01*
X145984936Y-105159596D01*
X145964341Y-105394999D01*
X145964341Y-105395000D01*
X145984936Y-105630403D01*
X145984938Y-105630413D01*
X146046094Y-105858655D01*
X146046096Y-105858659D01*
X146046097Y-105858663D01*
X146143569Y-106067691D01*
X146145965Y-106072830D01*
X146145967Y-106072834D01*
X146182709Y-106125306D01*
X146281501Y-106266396D01*
X146281506Y-106266402D01*
X146403818Y-106388714D01*
X146437303Y-106450037D01*
X146432319Y-106519729D01*
X146390447Y-106575662D01*
X146359471Y-106592577D01*
X146227912Y-106641646D01*
X146227906Y-106641649D01*
X146112812Y-106727809D01*
X146112809Y-106727812D01*
X146026649Y-106842906D01*
X146026645Y-106842913D01*
X145976403Y-106977620D01*
X145976401Y-106977627D01*
X145970000Y-107037155D01*
X145970000Y-107685000D01*
X146886988Y-107685000D01*
X146854075Y-107742007D01*
X146820000Y-107869174D01*
X146820000Y-108000826D01*
X146854075Y-108127993D01*
X146886988Y-108185000D01*
X145970000Y-108185000D01*
X145970000Y-108832844D01*
X145976401Y-108892372D01*
X145976403Y-108892379D01*
X146026645Y-109027086D01*
X146026649Y-109027093D01*
X146112809Y-109142187D01*
X146112812Y-109142190D01*
X146227906Y-109228350D01*
X146227913Y-109228354D01*
X146362620Y-109278596D01*
X146362627Y-109278598D01*
X146422155Y-109284999D01*
X146422172Y-109285000D01*
X147070000Y-109285000D01*
X147070000Y-108368012D01*
X147127007Y-108400925D01*
X147254174Y-108435000D01*
X147385826Y-108435000D01*
X147512993Y-108400925D01*
X147570000Y-108368012D01*
X147570000Y-109285000D01*
X148217828Y-109285000D01*
X148217844Y-109284999D01*
X148277372Y-109278598D01*
X148277379Y-109278596D01*
X148412086Y-109228354D01*
X148412093Y-109228350D01*
X148527187Y-109142190D01*
X148527190Y-109142187D01*
X148613350Y-109027093D01*
X148613354Y-109027086D01*
X148663596Y-108892379D01*
X148663598Y-108892372D01*
X148669999Y-108832844D01*
X148670000Y-108832827D01*
X148670000Y-108185000D01*
X147753012Y-108185000D01*
X147785925Y-108127993D01*
X147820000Y-108000826D01*
X147820000Y-107869174D01*
X147785925Y-107742007D01*
X147753012Y-107685000D01*
X148670000Y-107685000D01*
X148670000Y-107037172D01*
X148669999Y-107037155D01*
X148663598Y-106977627D01*
X148663596Y-106977620D01*
X148613354Y-106842913D01*
X148613350Y-106842906D01*
X148527190Y-106727812D01*
X148527187Y-106727809D01*
X148412093Y-106641649D01*
X148412088Y-106641646D01*
X148280528Y-106592577D01*
X148224595Y-106550705D01*
X148200178Y-106485241D01*
X148215030Y-106416968D01*
X148236175Y-106388720D01*
X148358495Y-106266401D01*
X148494035Y-106072830D01*
X148593903Y-105858663D01*
X148655063Y-105630408D01*
X148675659Y-105395000D01*
X148655063Y-105159592D01*
X148593903Y-104931337D01*
X148540183Y-104816135D01*
X152409500Y-104816135D01*
X152409500Y-106511870D01*
X152409501Y-106511876D01*
X152415908Y-106571483D01*
X152466202Y-106706328D01*
X152466206Y-106706335D01*
X152552452Y-106821544D01*
X152552455Y-106821547D01*
X152667664Y-106907793D01*
X152667671Y-106907797D01*
X152802517Y-106958091D01*
X152802516Y-106958091D01*
X152809444Y-106958835D01*
X152862127Y-106964500D01*
X154557872Y-106964499D01*
X154617483Y-106958091D01*
X154752331Y-106907796D01*
X154867546Y-106821546D01*
X154953796Y-106706331D01*
X155004091Y-106571483D01*
X155010500Y-106511873D01*
X155010499Y-106511845D01*
X155010678Y-106508547D01*
X155012183Y-106508627D01*
X155030112Y-106447326D01*
X155082868Y-106401514D01*
X155126465Y-106393981D01*
X155810000Y-105710446D01*
X155810000Y-105716661D01*
X155837259Y-105818394D01*
X155889920Y-105909606D01*
X155964394Y-105984080D01*
X156055606Y-106036741D01*
X156157339Y-106064000D01*
X156163553Y-106064000D01*
X155484526Y-106743025D01*
X155557513Y-106794132D01*
X155557521Y-106794136D01*
X155763668Y-106890264D01*
X155763682Y-106890269D01*
X155983389Y-106949139D01*
X155983400Y-106949141D01*
X156209998Y-106968966D01*
X156210002Y-106968966D01*
X156436599Y-106949141D01*
X156436610Y-106949139D01*
X156656317Y-106890269D01*
X156656331Y-106890264D01*
X156862478Y-106794136D01*
X156935471Y-106743024D01*
X156256447Y-106064000D01*
X156262661Y-106064000D01*
X156364394Y-106036741D01*
X156455606Y-105984080D01*
X156530080Y-105909606D01*
X156582741Y-105818394D01*
X156610000Y-105716661D01*
X156610000Y-105710447D01*
X157289024Y-106389471D01*
X157340136Y-106316478D01*
X157436264Y-106110331D01*
X157436269Y-106110317D01*
X157495139Y-105890610D01*
X157495141Y-105890599D01*
X157514966Y-105664002D01*
X157514966Y-105663997D01*
X157495141Y-105437400D01*
X157495139Y-105437389D01*
X157436269Y-105217682D01*
X157436264Y-105217668D01*
X157340136Y-105011521D01*
X157340132Y-105011513D01*
X157289025Y-104938526D01*
X156610000Y-105617551D01*
X156610000Y-105611339D01*
X156582741Y-105509606D01*
X156530080Y-105418394D01*
X156455606Y-105343920D01*
X156364394Y-105291259D01*
X156262661Y-105264000D01*
X156256448Y-105264000D01*
X156935472Y-104584974D01*
X156862478Y-104533863D01*
X156656331Y-104437735D01*
X156656317Y-104437730D01*
X156436610Y-104378860D01*
X156436599Y-104378858D01*
X156210002Y-104359034D01*
X156209998Y-104359034D01*
X155983400Y-104378858D01*
X155983389Y-104378860D01*
X155763682Y-104437730D01*
X155763673Y-104437734D01*
X155557516Y-104533866D01*
X155557512Y-104533868D01*
X155484526Y-104584973D01*
X155484526Y-104584974D01*
X156163553Y-105264000D01*
X156157339Y-105264000D01*
X156055606Y-105291259D01*
X155964394Y-105343920D01*
X155889920Y-105418394D01*
X155837259Y-105509606D01*
X155810000Y-105611339D01*
X155810000Y-105617552D01*
X155125799Y-104933351D01*
X155076805Y-104923505D01*
X155026622Y-104874889D01*
X155011981Y-104819366D01*
X155010900Y-104819423D01*
X155010854Y-104819429D01*
X155010853Y-104819426D01*
X155010676Y-104819436D01*
X155010499Y-104816135D01*
X155010499Y-104816128D01*
X155004091Y-104756517D01*
X154953796Y-104621669D01*
X154953795Y-104621668D01*
X154953793Y-104621664D01*
X154867547Y-104506455D01*
X154867544Y-104506452D01*
X154752335Y-104420206D01*
X154752328Y-104420202D01*
X154617482Y-104369908D01*
X154617483Y-104369908D01*
X154557883Y-104363501D01*
X154557881Y-104363500D01*
X154557873Y-104363500D01*
X154557864Y-104363500D01*
X152862129Y-104363500D01*
X152862123Y-104363501D01*
X152802516Y-104369908D01*
X152667671Y-104420202D01*
X152667664Y-104420206D01*
X152552455Y-104506452D01*
X152552452Y-104506455D01*
X152466206Y-104621664D01*
X152466202Y-104621671D01*
X152415908Y-104756517D01*
X152409501Y-104816116D01*
X152409501Y-104816123D01*
X152409500Y-104816135D01*
X148540183Y-104816135D01*
X148494035Y-104717171D01*
X148427166Y-104621671D01*
X148358494Y-104523597D01*
X148191402Y-104356506D01*
X148191396Y-104356501D01*
X148005842Y-104226575D01*
X147962217Y-104171998D01*
X147955023Y-104102500D01*
X147986546Y-104040145D01*
X148005842Y-104023425D01*
X148028026Y-104007891D01*
X148191401Y-103893495D01*
X148358495Y-103726401D01*
X148494035Y-103532830D01*
X148593903Y-103318663D01*
X148655063Y-103090408D01*
X148675659Y-102855000D01*
X148655063Y-102619592D01*
X148593903Y-102391337D01*
X148494035Y-102177171D01*
X148414557Y-102063663D01*
X148358494Y-101983597D01*
X148191402Y-101816506D01*
X148191395Y-101816501D01*
X147997834Y-101680967D01*
X147997830Y-101680965D01*
X147824200Y-101600000D01*
X147783663Y-101581097D01*
X147783659Y-101581096D01*
X147783655Y-101581094D01*
X147555413Y-101519938D01*
X147555403Y-101519936D01*
X147320001Y-101499341D01*
X147319999Y-101499341D01*
X147084596Y-101519936D01*
X147084586Y-101519938D01*
X146856344Y-101581094D01*
X146856335Y-101581098D01*
X146642171Y-101680964D01*
X146642169Y-101680965D01*
X146448597Y-101816505D01*
X146281505Y-101983597D01*
X146145965Y-102177169D01*
X146145964Y-102177171D01*
X146046098Y-102391335D01*
X146046094Y-102391344D01*
X145984938Y-102619586D01*
X145984936Y-102619596D01*
X145964341Y-102854999D01*
X143271628Y-102854999D01*
X143282195Y-102809207D01*
X143332219Y-102760428D01*
X143345466Y-102754377D01*
X143539401Y-102679247D01*
X143728562Y-102562124D01*
X143892981Y-102412236D01*
X144027058Y-102234689D01*
X144126229Y-102035528D01*
X144187115Y-101821536D01*
X144207643Y-101600000D01*
X144187115Y-101378464D01*
X144126229Y-101164472D01*
X144112223Y-101136344D01*
X144027061Y-100965316D01*
X144027056Y-100965308D01*
X143892979Y-100787761D01*
X143728562Y-100637876D01*
X143728560Y-100637874D01*
X143539404Y-100520754D01*
X143539395Y-100520750D01*
X143445956Y-100484552D01*
X143345475Y-100445625D01*
X143290075Y-100403054D01*
X143266484Y-100337288D01*
X143282195Y-100269207D01*
X143332219Y-100220428D01*
X143345466Y-100214377D01*
X143539401Y-100139247D01*
X143728562Y-100022124D01*
X143892981Y-99872236D01*
X144027058Y-99694689D01*
X144126229Y-99495528D01*
X144187115Y-99281536D01*
X144207643Y-99060000D01*
X144187115Y-98838464D01*
X144126229Y-98624472D01*
X144094126Y-98560000D01*
X144027061Y-98425316D01*
X144027056Y-98425308D01*
X143892979Y-98247761D01*
X143728562Y-98097876D01*
X143728560Y-98097874D01*
X143539404Y-97980754D01*
X143539395Y-97980750D01*
X143423493Y-97935850D01*
X143345475Y-97905625D01*
X143290075Y-97863054D01*
X143266484Y-97797288D01*
X143282195Y-97729207D01*
X143332219Y-97680428D01*
X143345466Y-97674377D01*
X143539401Y-97599247D01*
X143728562Y-97482124D01*
X143892981Y-97332236D01*
X144027058Y-97154689D01*
X144126229Y-96955528D01*
X144187115Y-96741536D01*
X144207643Y-96520000D01*
X144187115Y-96298464D01*
X144126229Y-96084472D01*
X144126224Y-96084461D01*
X144027061Y-95885316D01*
X144027056Y-95885308D01*
X143892979Y-95707761D01*
X143728562Y-95557876D01*
X143728560Y-95557874D01*
X143539404Y-95440754D01*
X143539395Y-95440750D01*
X143445956Y-95404552D01*
X143345475Y-95365625D01*
X143290075Y-95323054D01*
X143266484Y-95257288D01*
X143282195Y-95189207D01*
X143332219Y-95140428D01*
X143345466Y-95134377D01*
X143539401Y-95059247D01*
X143728562Y-94942124D01*
X143892981Y-94792236D01*
X144027058Y-94614689D01*
X144126229Y-94415528D01*
X144187115Y-94201536D01*
X144207643Y-93980000D01*
X144187115Y-93758464D01*
X144126229Y-93544472D01*
X144126224Y-93544461D01*
X144027061Y-93345316D01*
X144027056Y-93345308D01*
X143892979Y-93167761D01*
X143728562Y-93017876D01*
X143728560Y-93017874D01*
X143539404Y-92900754D01*
X143539395Y-92900750D01*
X143445956Y-92864552D01*
X143345475Y-92825625D01*
X143290075Y-92783054D01*
X143266484Y-92717288D01*
X143282195Y-92649207D01*
X143332219Y-92600428D01*
X143345466Y-92594377D01*
X143539401Y-92519247D01*
X143728562Y-92402124D01*
X143892981Y-92252236D01*
X144027058Y-92074689D01*
X144126229Y-91875528D01*
X144187115Y-91661536D01*
X144207643Y-91440000D01*
X144199992Y-91357436D01*
X144187115Y-91218464D01*
X144187114Y-91218462D01*
X144175293Y-91176916D01*
X144126229Y-91004472D01*
X144111920Y-90975735D01*
X144027061Y-90805316D01*
X144027056Y-90805308D01*
X143892979Y-90627761D01*
X143728562Y-90477876D01*
X143728560Y-90477874D01*
X143539404Y-90360754D01*
X143539395Y-90360750D01*
X143445956Y-90324552D01*
X143345475Y-90285625D01*
X143290075Y-90243054D01*
X143266484Y-90177288D01*
X143282195Y-90109207D01*
X143332219Y-90060428D01*
X143345466Y-90054377D01*
X143539401Y-89979247D01*
X143728562Y-89862124D01*
X143892981Y-89712236D01*
X143942246Y-89646999D01*
X145964341Y-89646999D01*
X145964341Y-89647000D01*
X145984936Y-89882403D01*
X145984938Y-89882413D01*
X146046094Y-90110655D01*
X146046096Y-90110659D01*
X146046097Y-90110663D01*
X146127684Y-90285627D01*
X146145965Y-90324830D01*
X146145967Y-90324834D01*
X146281501Y-90518395D01*
X146281506Y-90518402D01*
X146448597Y-90685493D01*
X146448603Y-90685498D01*
X146634158Y-90815425D01*
X146677783Y-90870002D01*
X146684977Y-90939500D01*
X146653454Y-91001855D01*
X146634158Y-91018575D01*
X146448597Y-91148505D01*
X146281505Y-91315597D01*
X146145965Y-91509169D01*
X146145964Y-91509171D01*
X146046098Y-91723335D01*
X146046094Y-91723344D01*
X145984938Y-91951586D01*
X145984936Y-91951596D01*
X145964341Y-92186999D01*
X145964341Y-92187000D01*
X145984936Y-92422403D01*
X145984938Y-92422413D01*
X146046094Y-92650655D01*
X146046096Y-92650659D01*
X146046097Y-92650663D01*
X146127684Y-92825627D01*
X146145965Y-92864830D01*
X146145967Y-92864834D01*
X146198259Y-92939514D01*
X146281501Y-93058396D01*
X146281506Y-93058402D01*
X146403818Y-93180714D01*
X146437303Y-93242037D01*
X146432319Y-93311729D01*
X146390447Y-93367662D01*
X146359471Y-93384577D01*
X146227912Y-93433646D01*
X146227906Y-93433649D01*
X146112812Y-93519809D01*
X146112809Y-93519812D01*
X146026649Y-93634906D01*
X146026645Y-93634913D01*
X145976403Y-93769620D01*
X145976401Y-93769627D01*
X145970000Y-93829155D01*
X145970000Y-94477000D01*
X146886988Y-94477000D01*
X146854075Y-94534007D01*
X146820000Y-94661174D01*
X146820000Y-94792826D01*
X146854075Y-94919993D01*
X146886988Y-94977000D01*
X145970000Y-94977000D01*
X145970000Y-95624844D01*
X145976401Y-95684372D01*
X145976403Y-95684379D01*
X146026645Y-95819086D01*
X146026649Y-95819093D01*
X146112809Y-95934187D01*
X146112812Y-95934190D01*
X146227906Y-96020350D01*
X146227913Y-96020354D01*
X146362620Y-96070596D01*
X146362627Y-96070598D01*
X146422155Y-96076999D01*
X146422172Y-96077000D01*
X147070000Y-96077000D01*
X147070000Y-95160012D01*
X147127007Y-95192925D01*
X147254174Y-95227000D01*
X147385826Y-95227000D01*
X147512993Y-95192925D01*
X147570000Y-95160012D01*
X147570000Y-96077000D01*
X148217828Y-96077000D01*
X148217844Y-96076999D01*
X148277372Y-96070598D01*
X148277379Y-96070596D01*
X148412086Y-96020354D01*
X148412093Y-96020350D01*
X148527187Y-95934190D01*
X148527190Y-95934187D01*
X148613350Y-95819093D01*
X148613354Y-95819086D01*
X148663596Y-95684379D01*
X148663598Y-95684372D01*
X148669999Y-95624844D01*
X148670000Y-95624827D01*
X148670000Y-94977000D01*
X147753012Y-94977000D01*
X147785925Y-94919993D01*
X147820000Y-94792826D01*
X147820000Y-94661174D01*
X147785925Y-94534007D01*
X147753012Y-94477000D01*
X148670000Y-94477000D01*
X148670000Y-93829172D01*
X148669999Y-93829155D01*
X148663598Y-93769627D01*
X148663596Y-93769620D01*
X148613354Y-93634913D01*
X148613350Y-93634906D01*
X148527190Y-93519812D01*
X148527187Y-93519809D01*
X148412093Y-93433649D01*
X148412088Y-93433646D01*
X148280528Y-93384577D01*
X148224595Y-93342705D01*
X148200178Y-93277241D01*
X148215030Y-93208968D01*
X148236175Y-93180720D01*
X148358495Y-93058401D01*
X148494035Y-92864830D01*
X148593903Y-92650663D01*
X148655063Y-92422408D01*
X148675659Y-92187000D01*
X148655063Y-91951592D01*
X148593903Y-91723337D01*
X148494035Y-91509171D01*
X148467554Y-91471351D01*
X148385479Y-91354135D01*
X152369500Y-91354135D01*
X152369500Y-93049870D01*
X152369501Y-93049876D01*
X152375908Y-93109483D01*
X152426202Y-93244328D01*
X152426206Y-93244335D01*
X152512452Y-93359544D01*
X152512455Y-93359547D01*
X152627664Y-93445793D01*
X152627671Y-93445797D01*
X152762517Y-93496091D01*
X152762516Y-93496091D01*
X152769444Y-93496835D01*
X152822127Y-93502500D01*
X154517872Y-93502499D01*
X154577483Y-93496091D01*
X154712331Y-93445796D01*
X154827546Y-93359546D01*
X154913796Y-93244331D01*
X154964091Y-93109483D01*
X154970500Y-93049873D01*
X154970499Y-93049845D01*
X154970678Y-93046547D01*
X154972183Y-93046627D01*
X154990112Y-92985326D01*
X155042868Y-92939514D01*
X155086465Y-92931981D01*
X155770000Y-92248446D01*
X155770000Y-92254661D01*
X155797259Y-92356394D01*
X155849920Y-92447606D01*
X155924394Y-92522080D01*
X156015606Y-92574741D01*
X156117339Y-92602000D01*
X156123553Y-92602000D01*
X155444526Y-93281025D01*
X155517513Y-93332132D01*
X155517521Y-93332136D01*
X155723668Y-93428264D01*
X155723682Y-93428269D01*
X155943389Y-93487139D01*
X155943400Y-93487141D01*
X156169998Y-93506966D01*
X156170002Y-93506966D01*
X156396599Y-93487141D01*
X156396610Y-93487139D01*
X156616317Y-93428269D01*
X156616331Y-93428264D01*
X156822478Y-93332136D01*
X156895471Y-93281024D01*
X156216447Y-92602000D01*
X156222661Y-92602000D01*
X156324394Y-92574741D01*
X156415606Y-92522080D01*
X156490080Y-92447606D01*
X156542741Y-92356394D01*
X156570000Y-92254661D01*
X156570000Y-92248447D01*
X157249024Y-92927471D01*
X157300136Y-92854478D01*
X157396264Y-92648331D01*
X157396269Y-92648317D01*
X157455139Y-92428610D01*
X157455141Y-92428599D01*
X157474966Y-92202002D01*
X157474966Y-92201997D01*
X157455141Y-91975400D01*
X157455139Y-91975389D01*
X157396269Y-91755682D01*
X157396264Y-91755668D01*
X157300136Y-91549521D01*
X157300132Y-91549513D01*
X157249025Y-91476526D01*
X156570000Y-92155551D01*
X156570000Y-92149339D01*
X156542741Y-92047606D01*
X156490080Y-91956394D01*
X156415606Y-91881920D01*
X156324394Y-91829259D01*
X156222661Y-91802000D01*
X156216448Y-91802000D01*
X156895472Y-91122974D01*
X156822478Y-91071863D01*
X156616331Y-90975735D01*
X156616317Y-90975730D01*
X156396610Y-90916860D01*
X156396599Y-90916858D01*
X156170002Y-90897034D01*
X156169998Y-90897034D01*
X155943400Y-90916858D01*
X155943389Y-90916860D01*
X155723682Y-90975730D01*
X155723673Y-90975734D01*
X155517516Y-91071866D01*
X155517512Y-91071868D01*
X155444526Y-91122973D01*
X155444526Y-91122974D01*
X156123553Y-91802000D01*
X156117339Y-91802000D01*
X156015606Y-91829259D01*
X155924394Y-91881920D01*
X155849920Y-91956394D01*
X155797259Y-92047606D01*
X155770000Y-92149339D01*
X155770000Y-92155552D01*
X155085799Y-91471351D01*
X155036805Y-91461505D01*
X154986622Y-91412889D01*
X154971981Y-91357366D01*
X154970900Y-91357423D01*
X154970854Y-91357429D01*
X154970853Y-91357426D01*
X154970676Y-91357436D01*
X154970499Y-91354135D01*
X154970499Y-91354128D01*
X154964091Y-91294517D01*
X154935724Y-91218462D01*
X154913797Y-91159671D01*
X154913793Y-91159664D01*
X154827547Y-91044455D01*
X154827544Y-91044452D01*
X154712335Y-90958206D01*
X154712328Y-90958202D01*
X154577482Y-90907908D01*
X154577483Y-90907908D01*
X154517883Y-90901501D01*
X154517881Y-90901500D01*
X154517873Y-90901500D01*
X154517864Y-90901500D01*
X152822129Y-90901500D01*
X152822123Y-90901501D01*
X152762516Y-90907908D01*
X152627671Y-90958202D01*
X152627664Y-90958206D01*
X152512455Y-91044452D01*
X152512452Y-91044455D01*
X152426206Y-91159664D01*
X152426202Y-91159671D01*
X152375908Y-91294517D01*
X152373642Y-91315599D01*
X152369501Y-91354123D01*
X152369500Y-91354135D01*
X148385479Y-91354135D01*
X148358494Y-91315597D01*
X148191402Y-91148506D01*
X148191396Y-91148501D01*
X148005842Y-91018575D01*
X147962217Y-90963998D01*
X147955023Y-90894500D01*
X147986546Y-90832145D01*
X148005842Y-90815425D01*
X148028026Y-90799891D01*
X148191401Y-90685495D01*
X148358495Y-90518401D01*
X148494035Y-90324830D01*
X148593903Y-90110663D01*
X148655063Y-89882408D01*
X148675659Y-89647000D01*
X148655063Y-89411592D01*
X148593903Y-89183337D01*
X148494035Y-88969171D01*
X148445602Y-88900000D01*
X148358494Y-88775597D01*
X148191402Y-88608506D01*
X148191395Y-88608501D01*
X147997834Y-88472967D01*
X147997830Y-88472965D01*
X147979593Y-88464461D01*
X147783663Y-88373097D01*
X147783659Y-88373096D01*
X147783655Y-88373094D01*
X147555413Y-88311938D01*
X147555403Y-88311936D01*
X147320001Y-88291341D01*
X147319999Y-88291341D01*
X147084596Y-88311936D01*
X147084586Y-88311938D01*
X146856344Y-88373094D01*
X146856335Y-88373098D01*
X146642171Y-88472964D01*
X146642169Y-88472965D01*
X146448597Y-88608505D01*
X146281505Y-88775597D01*
X146145965Y-88969169D01*
X146145964Y-88969171D01*
X146046098Y-89183335D01*
X146046094Y-89183344D01*
X145984938Y-89411586D01*
X145984936Y-89411596D01*
X145964341Y-89646999D01*
X143942246Y-89646999D01*
X144027058Y-89534689D01*
X144126229Y-89335528D01*
X144187115Y-89121536D01*
X144207643Y-88900000D01*
X144187115Y-88678464D01*
X144126229Y-88464472D01*
X144080730Y-88373098D01*
X144027061Y-88265316D01*
X144027056Y-88265308D01*
X143892979Y-88087761D01*
X143728562Y-87937876D01*
X143728560Y-87937874D01*
X143539404Y-87820754D01*
X143539395Y-87820750D01*
X143445956Y-87784552D01*
X143345475Y-87745625D01*
X143290075Y-87703054D01*
X143266484Y-87637288D01*
X143282195Y-87569207D01*
X143332219Y-87520428D01*
X143345466Y-87514377D01*
X143539401Y-87439247D01*
X143728562Y-87322124D01*
X143892981Y-87172236D01*
X144027058Y-86994689D01*
X144126229Y-86795528D01*
X144187115Y-86581536D01*
X144207643Y-86360000D01*
X144187115Y-86138464D01*
X144126229Y-85924472D01*
X144126224Y-85924461D01*
X144027061Y-85725316D01*
X144027056Y-85725308D01*
X143892979Y-85547761D01*
X143728562Y-85397876D01*
X143728560Y-85397874D01*
X143539404Y-85280754D01*
X143539395Y-85280750D01*
X143445956Y-85244552D01*
X143345475Y-85205625D01*
X143290075Y-85163054D01*
X143266484Y-85097288D01*
X143282195Y-85029207D01*
X143332219Y-84980428D01*
X143345466Y-84974377D01*
X143539401Y-84899247D01*
X143728562Y-84782124D01*
X143868282Y-84654751D01*
X143892979Y-84632238D01*
X143976988Y-84520993D01*
X144027058Y-84454689D01*
X144126229Y-84255528D01*
X144187115Y-84041536D01*
X144207643Y-83820000D01*
X144187115Y-83598464D01*
X144126229Y-83384472D01*
X144119335Y-83370627D01*
X144027061Y-83185316D01*
X144027056Y-83185308D01*
X143892979Y-83007761D01*
X143728562Y-82857876D01*
X143728560Y-82857874D01*
X143539404Y-82740754D01*
X143539398Y-82740751D01*
X143409967Y-82690610D01*
X143344784Y-82665358D01*
X143289385Y-82622786D01*
X143265794Y-82557019D01*
X143281505Y-82488939D01*
X143331529Y-82440160D01*
X143344786Y-82434105D01*
X143539177Y-82358797D01*
X143539181Y-82358795D01*
X143655326Y-82286879D01*
X143048448Y-81680000D01*
X143054661Y-81680000D01*
X143156394Y-81652741D01*
X143247606Y-81600080D01*
X143322080Y-81525606D01*
X143374741Y-81434394D01*
X143402000Y-81332661D01*
X143402000Y-81326447D01*
X144010861Y-81935308D01*
X144026631Y-81914425D01*
X144026633Y-81914422D01*
X144125759Y-81715350D01*
X144186621Y-81501439D01*
X144207141Y-81280000D01*
X144207141Y-81279999D01*
X144186621Y-81058560D01*
X144125759Y-80844649D01*
X144026635Y-80645580D01*
X144026630Y-80645572D01*
X144010860Y-80624690D01*
X143402000Y-81233551D01*
X143402000Y-81227339D01*
X143374741Y-81125606D01*
X143322080Y-81034394D01*
X143247606Y-80959920D01*
X143156394Y-80907259D01*
X143054661Y-80880000D01*
X143048448Y-80880000D01*
X143655327Y-80273119D01*
X143539178Y-80201202D01*
X143539177Y-80201201D01*
X143331804Y-80120865D01*
X143113193Y-80080000D01*
X142890807Y-80080000D01*
X142672195Y-80120865D01*
X142464824Y-80201200D01*
X142464823Y-80201201D01*
X142348671Y-80273119D01*
X142955553Y-80880000D01*
X142949339Y-80880000D01*
X142847606Y-80907259D01*
X142756394Y-80959920D01*
X142681920Y-81034394D01*
X142629259Y-81125606D01*
X142602000Y-81227339D01*
X142602000Y-81233553D01*
X141993138Y-80624691D01*
X141993137Y-80624691D01*
X141977368Y-80645574D01*
X141878239Y-80844651D01*
X141878237Y-80844655D01*
X141851525Y-80938540D01*
X141814246Y-80997633D01*
X141750936Y-81027190D01*
X141681697Y-81017828D01*
X141628510Y-80972518D01*
X141612994Y-80938541D01*
X141586229Y-80844472D01*
X141586224Y-80844461D01*
X141487061Y-80645316D01*
X141487056Y-80645308D01*
X141352979Y-80467761D01*
X141188562Y-80317876D01*
X141188560Y-80317874D01*
X140999404Y-80200754D01*
X140999398Y-80200752D01*
X140791940Y-80120382D01*
X140573243Y-80079500D01*
X140350757Y-80079500D01*
X140132060Y-80120382D01*
X140000864Y-80171207D01*
X139924601Y-80200752D01*
X139924595Y-80200754D01*
X139735439Y-80317874D01*
X139735437Y-80317876D01*
X139571020Y-80467761D01*
X139436943Y-80645308D01*
X139436938Y-80645316D01*
X139337775Y-80844461D01*
X139337769Y-80844476D01*
X139276885Y-81058462D01*
X139276884Y-81058464D01*
X139256357Y-81279999D01*
X118807643Y-81279999D01*
X118787115Y-81058464D01*
X118726229Y-80844472D01*
X118726224Y-80844461D01*
X118627061Y-80645316D01*
X118627056Y-80645308D01*
X118492979Y-80467761D01*
X118328562Y-80317876D01*
X118328560Y-80317874D01*
X118139404Y-80200754D01*
X118139398Y-80200752D01*
X117931940Y-80120382D01*
X117713243Y-80079500D01*
X117490757Y-80079500D01*
X117272060Y-80120382D01*
X117140864Y-80171207D01*
X117064601Y-80200752D01*
X117064595Y-80200754D01*
X116875439Y-80317874D01*
X116875437Y-80317876D01*
X116711020Y-80467761D01*
X116576943Y-80645308D01*
X116576938Y-80645316D01*
X116477775Y-80844461D01*
X116477770Y-80844474D01*
X116451006Y-80938540D01*
X116413726Y-80997633D01*
X116350417Y-81027190D01*
X116281177Y-81017828D01*
X116227991Y-80972518D01*
X116212473Y-80938538D01*
X116185760Y-80844650D01*
X116086635Y-80645580D01*
X116086630Y-80645572D01*
X116070860Y-80624690D01*
X115462000Y-81233551D01*
X115462000Y-81227339D01*
X115434741Y-81125606D01*
X115382080Y-81034394D01*
X115307606Y-80959920D01*
X115216394Y-80907259D01*
X115114661Y-80880000D01*
X115108448Y-80880000D01*
X115715327Y-80273119D01*
X115599178Y-80201202D01*
X115599177Y-80201201D01*
X115391804Y-80120865D01*
X115173193Y-80080000D01*
X114950807Y-80080000D01*
X114732195Y-80120865D01*
X114524824Y-80201200D01*
X114524823Y-80201201D01*
X114408671Y-80273119D01*
X115015553Y-80880000D01*
X115009339Y-80880000D01*
X114907606Y-80907259D01*
X114816394Y-80959920D01*
X114741920Y-81034394D01*
X114689259Y-81125606D01*
X114662000Y-81227339D01*
X114662000Y-81233553D01*
X114053138Y-80624691D01*
X114053137Y-80624691D01*
X114037368Y-80645574D01*
X113938240Y-80844649D01*
X113877378Y-81058560D01*
X113856859Y-81279999D01*
X113856859Y-81280000D01*
X113877378Y-81501439D01*
X113938240Y-81715350D01*
X114037369Y-81914428D01*
X114053137Y-81935308D01*
X114053138Y-81935308D01*
X114662000Y-81326446D01*
X114662000Y-81332661D01*
X114689259Y-81434394D01*
X114741920Y-81525606D01*
X114816394Y-81600080D01*
X114907606Y-81652741D01*
X115009339Y-81680000D01*
X115015553Y-81680000D01*
X114408672Y-82286879D01*
X114408672Y-82286880D01*
X114524821Y-82358797D01*
X114524822Y-82358798D01*
X114719213Y-82434105D01*
X114774614Y-82476678D01*
X114798205Y-82542445D01*
X114782494Y-82610525D01*
X114732470Y-82659304D01*
X114719213Y-82665359D01*
X114524601Y-82740751D01*
X114524595Y-82740754D01*
X114335439Y-82857874D01*
X114335437Y-82857876D01*
X114171020Y-83007761D01*
X114036943Y-83185308D01*
X114036938Y-83185316D01*
X113937775Y-83384461D01*
X113937769Y-83384476D01*
X113876885Y-83598462D01*
X113876884Y-83598464D01*
X113856357Y-83819999D01*
X74676000Y-83819999D01*
X74676000Y-76671994D01*
X76270357Y-76671994D01*
X76270357Y-76672005D01*
X76290890Y-76919812D01*
X76290892Y-76919824D01*
X76351936Y-77160881D01*
X76451826Y-77388606D01*
X76587833Y-77596782D01*
X76587836Y-77596785D01*
X76756256Y-77779738D01*
X76952491Y-77932474D01*
X77171190Y-78050828D01*
X77406386Y-78131571D01*
X77651665Y-78172500D01*
X77900335Y-78172500D01*
X78145614Y-78131571D01*
X78380810Y-78050828D01*
X78599509Y-77932474D01*
X78795744Y-77779738D01*
X78964164Y-77596785D01*
X79100173Y-77388607D01*
X79200063Y-77160881D01*
X79261108Y-76919821D01*
X79261109Y-76919812D01*
X79281643Y-76672005D01*
X79281643Y-76671994D01*
X82770357Y-76671994D01*
X82770357Y-76672005D01*
X82790890Y-76919812D01*
X82790892Y-76919824D01*
X82851936Y-77160881D01*
X82951826Y-77388606D01*
X83087833Y-77596782D01*
X83087836Y-77596785D01*
X83256256Y-77779738D01*
X83452491Y-77932474D01*
X83671190Y-78050828D01*
X83906386Y-78131571D01*
X84151665Y-78172500D01*
X84400335Y-78172500D01*
X84645614Y-78131571D01*
X84880810Y-78050828D01*
X85099509Y-77932474D01*
X85295744Y-77779738D01*
X85464164Y-77596785D01*
X85600173Y-77388607D01*
X85700063Y-77160881D01*
X85704339Y-77143994D01*
X86938357Y-77143994D01*
X86938357Y-77144005D01*
X86958890Y-77391812D01*
X86958892Y-77391824D01*
X87019936Y-77632881D01*
X87119826Y-77860606D01*
X87255833Y-78068782D01*
X87265769Y-78079575D01*
X87424256Y-78251738D01*
X87620491Y-78404474D01*
X87839190Y-78522828D01*
X88074386Y-78603571D01*
X88319665Y-78644500D01*
X88568335Y-78644500D01*
X88813614Y-78603571D01*
X89048810Y-78522828D01*
X89267509Y-78404474D01*
X89463744Y-78251738D01*
X89632164Y-78068785D01*
X89768173Y-77860607D01*
X89868063Y-77632881D01*
X89929108Y-77391821D01*
X89929109Y-77391812D01*
X89949643Y-77144005D01*
X89949643Y-77143994D01*
X93438357Y-77143994D01*
X93438357Y-77144005D01*
X93458890Y-77391812D01*
X93458892Y-77391824D01*
X93519936Y-77632881D01*
X93619826Y-77860606D01*
X93755833Y-78068782D01*
X93765769Y-78079575D01*
X93924256Y-78251738D01*
X94120491Y-78404474D01*
X94339190Y-78522828D01*
X94574386Y-78603571D01*
X94819665Y-78644500D01*
X95068335Y-78644500D01*
X95313614Y-78603571D01*
X95548810Y-78522828D01*
X95767509Y-78404474D01*
X95963744Y-78251738D01*
X96132164Y-78068785D01*
X96268173Y-77860607D01*
X96368063Y-77632881D01*
X96429108Y-77391821D01*
X96429109Y-77391812D01*
X96443678Y-77215994D01*
X102992357Y-77215994D01*
X102992357Y-77216005D01*
X103012890Y-77463812D01*
X103012892Y-77463824D01*
X103073936Y-77704881D01*
X103173826Y-77932606D01*
X103309833Y-78140782D01*
X103309836Y-78140785D01*
X103478256Y-78323738D01*
X103674491Y-78476474D01*
X103893190Y-78594828D01*
X104128386Y-78675571D01*
X104373665Y-78716500D01*
X104622335Y-78716500D01*
X104867614Y-78675571D01*
X105102810Y-78594828D01*
X105321509Y-78476474D01*
X105517744Y-78323738D01*
X105686164Y-78140785D01*
X105822173Y-77932607D01*
X105922063Y-77704881D01*
X105983108Y-77463821D01*
X105989075Y-77391812D01*
X106003643Y-77216005D01*
X106003643Y-77215994D01*
X109492357Y-77215994D01*
X109492357Y-77216005D01*
X109512890Y-77463812D01*
X109512892Y-77463824D01*
X109573936Y-77704881D01*
X109673826Y-77932606D01*
X109809833Y-78140782D01*
X109809836Y-78140785D01*
X109978256Y-78323738D01*
X110174491Y-78476474D01*
X110393190Y-78594828D01*
X110628386Y-78675571D01*
X110873665Y-78716500D01*
X111122335Y-78716500D01*
X111367614Y-78675571D01*
X111602810Y-78594828D01*
X111821509Y-78476474D01*
X112017744Y-78323738D01*
X112186164Y-78140785D01*
X112322173Y-77932607D01*
X112422063Y-77704881D01*
X112483108Y-77463821D01*
X112489075Y-77391812D01*
X112503643Y-77216005D01*
X112503643Y-77215994D01*
X112483109Y-76968187D01*
X112483107Y-76968175D01*
X112422063Y-76727118D01*
X112413677Y-76707999D01*
X145964341Y-76707999D01*
X145964341Y-76708000D01*
X145984936Y-76943403D01*
X145984938Y-76943413D01*
X146046094Y-77171655D01*
X146046096Y-77171659D01*
X146046097Y-77171663D01*
X146066769Y-77215994D01*
X146145965Y-77385830D01*
X146145967Y-77385834D01*
X146281501Y-77579395D01*
X146281506Y-77579402D01*
X146448597Y-77746493D01*
X146448603Y-77746498D01*
X146634158Y-77876425D01*
X146677783Y-77931002D01*
X146684977Y-78000500D01*
X146653454Y-78062855D01*
X146634158Y-78079575D01*
X146448597Y-78209505D01*
X146281505Y-78376597D01*
X146145965Y-78570169D01*
X146145964Y-78570171D01*
X146046098Y-78784335D01*
X146046094Y-78784344D01*
X145984938Y-79012586D01*
X145984936Y-79012596D01*
X145964341Y-79247999D01*
X145964341Y-79248000D01*
X145984936Y-79483403D01*
X145984938Y-79483413D01*
X146046094Y-79711655D01*
X146046096Y-79711659D01*
X146046097Y-79711663D01*
X146145965Y-79925830D01*
X146145967Y-79925834D01*
X146281501Y-80119395D01*
X146281506Y-80119402D01*
X146448597Y-80286493D01*
X146448603Y-80286498D01*
X146634158Y-80416425D01*
X146677783Y-80471002D01*
X146684977Y-80540500D01*
X146653454Y-80602855D01*
X146634158Y-80619575D01*
X146448597Y-80749505D01*
X146281505Y-80916597D01*
X146145965Y-81110169D01*
X146145964Y-81110171D01*
X146046098Y-81324335D01*
X146046094Y-81324344D01*
X145984938Y-81552586D01*
X145984936Y-81552596D01*
X145964341Y-81787999D01*
X145964341Y-81788000D01*
X145984936Y-82023403D01*
X145984938Y-82023413D01*
X146046094Y-82251655D01*
X146046096Y-82251659D01*
X146046097Y-82251663D01*
X146131171Y-82434105D01*
X146145965Y-82465830D01*
X146145967Y-82465834D01*
X146247282Y-82610525D01*
X146281501Y-82659396D01*
X146281506Y-82659402D01*
X146403818Y-82781714D01*
X146437303Y-82843037D01*
X146432319Y-82912729D01*
X146390447Y-82968662D01*
X146359471Y-82985577D01*
X146227912Y-83034646D01*
X146227906Y-83034649D01*
X146112812Y-83120809D01*
X146112809Y-83120812D01*
X146026649Y-83235906D01*
X146026645Y-83235913D01*
X145976403Y-83370620D01*
X145976401Y-83370627D01*
X145970000Y-83430155D01*
X145970000Y-84078000D01*
X146886988Y-84078000D01*
X146854075Y-84135007D01*
X146820000Y-84262174D01*
X146820000Y-84393826D01*
X146854075Y-84520993D01*
X146886988Y-84578000D01*
X145970000Y-84578000D01*
X145970000Y-85225844D01*
X145976401Y-85285372D01*
X145976403Y-85285379D01*
X146026645Y-85420086D01*
X146026649Y-85420093D01*
X146112809Y-85535187D01*
X146112812Y-85535190D01*
X146227906Y-85621350D01*
X146227913Y-85621354D01*
X146362620Y-85671596D01*
X146362627Y-85671598D01*
X146422155Y-85677999D01*
X146422172Y-85678000D01*
X147070000Y-85678000D01*
X147070000Y-84761012D01*
X147127007Y-84793925D01*
X147254174Y-84828000D01*
X147385826Y-84828000D01*
X147512993Y-84793925D01*
X147570000Y-84761012D01*
X147570000Y-85678000D01*
X148217828Y-85678000D01*
X148217844Y-85677999D01*
X148277372Y-85671598D01*
X148277379Y-85671596D01*
X148412086Y-85621354D01*
X148412093Y-85621350D01*
X148527187Y-85535190D01*
X148527190Y-85535187D01*
X148613350Y-85420093D01*
X148613354Y-85420086D01*
X148663596Y-85285379D01*
X148663598Y-85285372D01*
X148669999Y-85225844D01*
X148670000Y-85225827D01*
X148670000Y-84578000D01*
X147753012Y-84578000D01*
X147785925Y-84520993D01*
X147820000Y-84393826D01*
X147820000Y-84262174D01*
X147785925Y-84135007D01*
X147753012Y-84078000D01*
X148670000Y-84078000D01*
X148670000Y-83430172D01*
X148669999Y-83430155D01*
X148663598Y-83370627D01*
X148663596Y-83370620D01*
X148613354Y-83235913D01*
X148613350Y-83235906D01*
X148527190Y-83120812D01*
X148527187Y-83120809D01*
X148412093Y-83034649D01*
X148412088Y-83034646D01*
X148280528Y-82985577D01*
X148224595Y-82943705D01*
X148200178Y-82878241D01*
X148215030Y-82809968D01*
X148236175Y-82781720D01*
X148358495Y-82659401D01*
X148494035Y-82465830D01*
X148593903Y-82251663D01*
X148655063Y-82023408D01*
X148675659Y-81788000D01*
X148655063Y-81552592D01*
X148593903Y-81324337D01*
X148494035Y-81110171D01*
X148457829Y-81058462D01*
X148358494Y-80916597D01*
X148191402Y-80749506D01*
X148191396Y-80749501D01*
X148005842Y-80619575D01*
X147962217Y-80564998D01*
X147955023Y-80495500D01*
X147986546Y-80433145D01*
X148005842Y-80416425D01*
X148146587Y-80317874D01*
X148191401Y-80286495D01*
X148358495Y-80119401D01*
X148494035Y-79925830D01*
X148593903Y-79711663D01*
X148655063Y-79483408D01*
X148675659Y-79248000D01*
X148655063Y-79012592D01*
X148593903Y-78784337D01*
X148494035Y-78570171D01*
X148460886Y-78522828D01*
X148358494Y-78376597D01*
X148191402Y-78209506D01*
X148191396Y-78209501D01*
X148005842Y-78079575D01*
X147962217Y-78024998D01*
X147955023Y-77955500D01*
X147986546Y-77893145D01*
X148005842Y-77876425D01*
X148143925Y-77779738D01*
X148191401Y-77746495D01*
X148358495Y-77579401D01*
X148494035Y-77385830D01*
X148593903Y-77171663D01*
X148655063Y-76943408D01*
X148675659Y-76708000D01*
X148655063Y-76472592D01*
X148593903Y-76244337D01*
X148494035Y-76030171D01*
X148441769Y-75955526D01*
X148358494Y-75836597D01*
X148191402Y-75669506D01*
X148191395Y-75669501D01*
X147997834Y-75533967D01*
X147997830Y-75533965D01*
X147997828Y-75533964D01*
X147783663Y-75434097D01*
X147783659Y-75434096D01*
X147783655Y-75434094D01*
X147555413Y-75372938D01*
X147555403Y-75372936D01*
X147320001Y-75352341D01*
X147319999Y-75352341D01*
X147084596Y-75372936D01*
X147084586Y-75372938D01*
X146856344Y-75434094D01*
X146856335Y-75434098D01*
X146642171Y-75533964D01*
X146642169Y-75533965D01*
X146448597Y-75669505D01*
X146281505Y-75836597D01*
X146145965Y-76030169D01*
X146145964Y-76030171D01*
X146046098Y-76244335D01*
X146046094Y-76244344D01*
X145984938Y-76472586D01*
X145984936Y-76472596D01*
X145964341Y-76707999D01*
X112413677Y-76707999D01*
X112322173Y-76499393D01*
X112186166Y-76291217D01*
X112119883Y-76219215D01*
X112017744Y-76108262D01*
X111821509Y-75955526D01*
X111821507Y-75955525D01*
X111821506Y-75955524D01*
X111602811Y-75837172D01*
X111602802Y-75837169D01*
X111367616Y-75756429D01*
X111122335Y-75715500D01*
X110873665Y-75715500D01*
X110628383Y-75756429D01*
X110393197Y-75837169D01*
X110393188Y-75837172D01*
X110174493Y-75955524D01*
X109978257Y-76108261D01*
X109809833Y-76291217D01*
X109673826Y-76499393D01*
X109573936Y-76727118D01*
X109512892Y-76968175D01*
X109512890Y-76968187D01*
X109492357Y-77215994D01*
X106003643Y-77215994D01*
X105983109Y-76968187D01*
X105983107Y-76968175D01*
X105922063Y-76727118D01*
X105822173Y-76499393D01*
X105686166Y-76291217D01*
X105619883Y-76219215D01*
X105517744Y-76108262D01*
X105321509Y-75955526D01*
X105321507Y-75955525D01*
X105321506Y-75955524D01*
X105102811Y-75837172D01*
X105102802Y-75837169D01*
X104867616Y-75756429D01*
X104622335Y-75715500D01*
X104373665Y-75715500D01*
X104128383Y-75756429D01*
X103893197Y-75837169D01*
X103893188Y-75837172D01*
X103674493Y-75955524D01*
X103478257Y-76108261D01*
X103309833Y-76291217D01*
X103173826Y-76499393D01*
X103073936Y-76727118D01*
X103012892Y-76968175D01*
X103012890Y-76968187D01*
X102992357Y-77215994D01*
X96443678Y-77215994D01*
X96449643Y-77144005D01*
X96449643Y-77143994D01*
X96429109Y-76896187D01*
X96429107Y-76896175D01*
X96368063Y-76655118D01*
X96268173Y-76427393D01*
X96132166Y-76219217D01*
X96098934Y-76183118D01*
X95963744Y-76036262D01*
X95767509Y-75883526D01*
X95767507Y-75883525D01*
X95767506Y-75883524D01*
X95548811Y-75765172D01*
X95548802Y-75765169D01*
X95313616Y-75684429D01*
X95068335Y-75643500D01*
X94819665Y-75643500D01*
X94574383Y-75684429D01*
X94339197Y-75765169D01*
X94339188Y-75765172D01*
X94120493Y-75883524D01*
X93924257Y-76036261D01*
X93755833Y-76219217D01*
X93619826Y-76427393D01*
X93519936Y-76655118D01*
X93458892Y-76896175D01*
X93458890Y-76896187D01*
X93438357Y-77143994D01*
X89949643Y-77143994D01*
X89929109Y-76896187D01*
X89929107Y-76896175D01*
X89868063Y-76655118D01*
X89768173Y-76427393D01*
X89632166Y-76219217D01*
X89598934Y-76183118D01*
X89463744Y-76036262D01*
X89267509Y-75883526D01*
X89267507Y-75883525D01*
X89267506Y-75883524D01*
X89048811Y-75765172D01*
X89048802Y-75765169D01*
X88813616Y-75684429D01*
X88568335Y-75643500D01*
X88319665Y-75643500D01*
X88074383Y-75684429D01*
X87839197Y-75765169D01*
X87839188Y-75765172D01*
X87620493Y-75883524D01*
X87424257Y-76036261D01*
X87255833Y-76219217D01*
X87119826Y-76427393D01*
X87019936Y-76655118D01*
X86958892Y-76896175D01*
X86958890Y-76896187D01*
X86938357Y-77143994D01*
X85704339Y-77143994D01*
X85761108Y-76919821D01*
X85761109Y-76919812D01*
X85781643Y-76672005D01*
X85781643Y-76671994D01*
X85761109Y-76424187D01*
X85761107Y-76424175D01*
X85700063Y-76183118D01*
X85600173Y-75955393D01*
X85464166Y-75747217D01*
X85392623Y-75669501D01*
X85295744Y-75564262D01*
X85099509Y-75411526D01*
X85099507Y-75411525D01*
X85099506Y-75411524D01*
X84880811Y-75293172D01*
X84880802Y-75293169D01*
X84645616Y-75212429D01*
X84400335Y-75171500D01*
X84151665Y-75171500D01*
X83906383Y-75212429D01*
X83671197Y-75293169D01*
X83671188Y-75293172D01*
X83452493Y-75411524D01*
X83256257Y-75564261D01*
X83087833Y-75747217D01*
X82951826Y-75955393D01*
X82851936Y-76183118D01*
X82790892Y-76424175D01*
X82790890Y-76424187D01*
X82770357Y-76671994D01*
X79281643Y-76671994D01*
X79261109Y-76424187D01*
X79261107Y-76424175D01*
X79200063Y-76183118D01*
X79100173Y-75955393D01*
X78964166Y-75747217D01*
X78892623Y-75669501D01*
X78795744Y-75564262D01*
X78599509Y-75411526D01*
X78599507Y-75411525D01*
X78599506Y-75411524D01*
X78380811Y-75293172D01*
X78380802Y-75293169D01*
X78145616Y-75212429D01*
X77900335Y-75171500D01*
X77651665Y-75171500D01*
X77406383Y-75212429D01*
X77171197Y-75293169D01*
X77171188Y-75293172D01*
X76952493Y-75411524D01*
X76756257Y-75564261D01*
X76587833Y-75747217D01*
X76451826Y-75955393D01*
X76351936Y-76183118D01*
X76290892Y-76424175D01*
X76290890Y-76424187D01*
X76270357Y-76671994D01*
X74676000Y-76671994D01*
X74676000Y-72171994D01*
X76270859Y-72171994D01*
X76270859Y-72172005D01*
X76291385Y-72419729D01*
X76291387Y-72419738D01*
X76352412Y-72660717D01*
X76452266Y-72888364D01*
X76552564Y-73041882D01*
X77252212Y-72342234D01*
X77263482Y-72384292D01*
X77335890Y-72509708D01*
X77438292Y-72612110D01*
X77563708Y-72684518D01*
X77605765Y-72695787D01*
X76905942Y-73395609D01*
X76952768Y-73432055D01*
X76952770Y-73432056D01*
X77171385Y-73550364D01*
X77171396Y-73550369D01*
X77406506Y-73631083D01*
X77651707Y-73672000D01*
X77900293Y-73672000D01*
X78145493Y-73631083D01*
X78380603Y-73550369D01*
X78380614Y-73550364D01*
X78599228Y-73432057D01*
X78599231Y-73432055D01*
X78646056Y-73395609D01*
X77946234Y-72695787D01*
X77988292Y-72684518D01*
X78113708Y-72612110D01*
X78216110Y-72509708D01*
X78288518Y-72384292D01*
X78299787Y-72342235D01*
X78999434Y-73041882D01*
X79099731Y-72888369D01*
X79199587Y-72660717D01*
X79260612Y-72419738D01*
X79260614Y-72419729D01*
X79281141Y-72172005D01*
X79281141Y-72171994D01*
X82770859Y-72171994D01*
X82770859Y-72172005D01*
X82791385Y-72419729D01*
X82791387Y-72419738D01*
X82852412Y-72660717D01*
X82952266Y-72888364D01*
X83052564Y-73041882D01*
X83752212Y-72342234D01*
X83763482Y-72384292D01*
X83835890Y-72509708D01*
X83938292Y-72612110D01*
X84063708Y-72684518D01*
X84105765Y-72695787D01*
X83405942Y-73395609D01*
X83452768Y-73432055D01*
X83452770Y-73432056D01*
X83671385Y-73550364D01*
X83671396Y-73550369D01*
X83906506Y-73631083D01*
X84151707Y-73672000D01*
X84400293Y-73672000D01*
X84645493Y-73631083D01*
X84880603Y-73550369D01*
X84880614Y-73550364D01*
X85099228Y-73432057D01*
X85099231Y-73432055D01*
X85146056Y-73395609D01*
X84446234Y-72695787D01*
X84488292Y-72684518D01*
X84613708Y-72612110D01*
X84716110Y-72509708D01*
X84788518Y-72384292D01*
X84799787Y-72342235D01*
X85499434Y-73041882D01*
X85599731Y-72888369D01*
X85699587Y-72660717D01*
X85703822Y-72643994D01*
X86938859Y-72643994D01*
X86938859Y-72644005D01*
X86959385Y-72891729D01*
X86959387Y-72891738D01*
X87020412Y-73132717D01*
X87120266Y-73360364D01*
X87220564Y-73513882D01*
X87920212Y-72814234D01*
X87931482Y-72856292D01*
X88003890Y-72981708D01*
X88106292Y-73084110D01*
X88231708Y-73156518D01*
X88273765Y-73167787D01*
X87573942Y-73867609D01*
X87620768Y-73904055D01*
X87620770Y-73904056D01*
X87839385Y-74022364D01*
X87839396Y-74022369D01*
X88074506Y-74103083D01*
X88319707Y-74144000D01*
X88568293Y-74144000D01*
X88813493Y-74103083D01*
X89048603Y-74022369D01*
X89048614Y-74022364D01*
X89267228Y-73904057D01*
X89267231Y-73904055D01*
X89314056Y-73867609D01*
X88614234Y-73167787D01*
X88656292Y-73156518D01*
X88781708Y-73084110D01*
X88884110Y-72981708D01*
X88956518Y-72856292D01*
X88967787Y-72814235D01*
X89667434Y-73513882D01*
X89767731Y-73360369D01*
X89867587Y-73132717D01*
X89928612Y-72891738D01*
X89928614Y-72891729D01*
X89949141Y-72644005D01*
X89949141Y-72643994D01*
X93438859Y-72643994D01*
X93438859Y-72644005D01*
X93459385Y-72891729D01*
X93459387Y-72891738D01*
X93520412Y-73132717D01*
X93620266Y-73360364D01*
X93720564Y-73513882D01*
X94420212Y-72814234D01*
X94431482Y-72856292D01*
X94503890Y-72981708D01*
X94606292Y-73084110D01*
X94731708Y-73156518D01*
X94773765Y-73167787D01*
X94073942Y-73867609D01*
X94120768Y-73904055D01*
X94120770Y-73904056D01*
X94339385Y-74022364D01*
X94339396Y-74022369D01*
X94574506Y-74103083D01*
X94819707Y-74144000D01*
X95068293Y-74144000D01*
X95313493Y-74103083D01*
X95548603Y-74022369D01*
X95548614Y-74022364D01*
X95767228Y-73904057D01*
X95767231Y-73904055D01*
X95814056Y-73867609D01*
X95114234Y-73167787D01*
X95156292Y-73156518D01*
X95281708Y-73084110D01*
X95384110Y-72981708D01*
X95456518Y-72856292D01*
X95467787Y-72814234D01*
X96167434Y-73513882D01*
X96267731Y-73360369D01*
X96367587Y-73132717D01*
X96428612Y-72891738D01*
X96428614Y-72891729D01*
X96443176Y-72715994D01*
X102992859Y-72715994D01*
X102992859Y-72716005D01*
X103013385Y-72963729D01*
X103013387Y-72963738D01*
X103074412Y-73204717D01*
X103174266Y-73432364D01*
X103274564Y-73585882D01*
X103974212Y-72886234D01*
X103985482Y-72928292D01*
X104057890Y-73053708D01*
X104160292Y-73156110D01*
X104285708Y-73228518D01*
X104327765Y-73239787D01*
X103627942Y-73939609D01*
X103674768Y-73976055D01*
X103674770Y-73976056D01*
X103893385Y-74094364D01*
X103893396Y-74094369D01*
X104128506Y-74175083D01*
X104373707Y-74216000D01*
X104622293Y-74216000D01*
X104867493Y-74175083D01*
X105102603Y-74094369D01*
X105102614Y-74094364D01*
X105321228Y-73976057D01*
X105321231Y-73976055D01*
X105368056Y-73939609D01*
X104668234Y-73239787D01*
X104710292Y-73228518D01*
X104835708Y-73156110D01*
X104938110Y-73053708D01*
X105010518Y-72928292D01*
X105021787Y-72886235D01*
X105721434Y-73585882D01*
X105821731Y-73432369D01*
X105921587Y-73204717D01*
X105982612Y-72963738D01*
X105982614Y-72963729D01*
X106003141Y-72716005D01*
X106003141Y-72715994D01*
X109492859Y-72715994D01*
X109492859Y-72716005D01*
X109513385Y-72963729D01*
X109513387Y-72963738D01*
X109574412Y-73204717D01*
X109674266Y-73432364D01*
X109774564Y-73585882D01*
X110474212Y-72886234D01*
X110485482Y-72928292D01*
X110557890Y-73053708D01*
X110660292Y-73156110D01*
X110785708Y-73228518D01*
X110827765Y-73239787D01*
X110127942Y-73939609D01*
X110174768Y-73976055D01*
X110174770Y-73976056D01*
X110393385Y-74094364D01*
X110393396Y-74094369D01*
X110628506Y-74175083D01*
X110873707Y-74216000D01*
X111122293Y-74216000D01*
X111367493Y-74175083D01*
X111602603Y-74094369D01*
X111602614Y-74094364D01*
X111821228Y-73976057D01*
X111821231Y-73976055D01*
X111868056Y-73939609D01*
X111168234Y-73239787D01*
X111210292Y-73228518D01*
X111335708Y-73156110D01*
X111438110Y-73053708D01*
X111510518Y-72928292D01*
X111521787Y-72886235D01*
X112221434Y-73585882D01*
X112321731Y-73432369D01*
X112421587Y-73204717D01*
X112482612Y-72963738D01*
X112482614Y-72963729D01*
X112503141Y-72716005D01*
X112503141Y-72715994D01*
X112482614Y-72468270D01*
X112482612Y-72468261D01*
X112421587Y-72227282D01*
X112321731Y-71999630D01*
X112221434Y-71846116D01*
X111521787Y-72545764D01*
X111510518Y-72503708D01*
X111438110Y-72378292D01*
X111335708Y-72275890D01*
X111210292Y-72203482D01*
X111168235Y-72192212D01*
X111868057Y-71492390D01*
X111868056Y-71492389D01*
X111821229Y-71455943D01*
X111602614Y-71337635D01*
X111602603Y-71337630D01*
X111367493Y-71256916D01*
X111122293Y-71216000D01*
X110873707Y-71216000D01*
X110628506Y-71256916D01*
X110393396Y-71337630D01*
X110393390Y-71337632D01*
X110174761Y-71455949D01*
X110127942Y-71492388D01*
X110127942Y-71492390D01*
X110827765Y-72192212D01*
X110785708Y-72203482D01*
X110660292Y-72275890D01*
X110557890Y-72378292D01*
X110485482Y-72503708D01*
X110474212Y-72545764D01*
X109774564Y-71846116D01*
X109674267Y-71999632D01*
X109574412Y-72227282D01*
X109513387Y-72468261D01*
X109513385Y-72468270D01*
X109492859Y-72715994D01*
X106003141Y-72715994D01*
X105982614Y-72468270D01*
X105982612Y-72468261D01*
X105921587Y-72227282D01*
X105821731Y-71999630D01*
X105721434Y-71846116D01*
X105021787Y-72545764D01*
X105010518Y-72503708D01*
X104938110Y-72378292D01*
X104835708Y-72275890D01*
X104710292Y-72203482D01*
X104668235Y-72192212D01*
X105368057Y-71492390D01*
X105368056Y-71492389D01*
X105321229Y-71455943D01*
X105102614Y-71337635D01*
X105102603Y-71337630D01*
X104867493Y-71256916D01*
X104622293Y-71216000D01*
X104373707Y-71216000D01*
X104128506Y-71256916D01*
X103893396Y-71337630D01*
X103893390Y-71337632D01*
X103674761Y-71455949D01*
X103627942Y-71492388D01*
X103627942Y-71492390D01*
X104327765Y-72192212D01*
X104285708Y-72203482D01*
X104160292Y-72275890D01*
X104057890Y-72378292D01*
X103985482Y-72503708D01*
X103974212Y-72545764D01*
X103274564Y-71846116D01*
X103174267Y-71999632D01*
X103074412Y-72227282D01*
X103013387Y-72468261D01*
X103013385Y-72468270D01*
X102992859Y-72715994D01*
X96443176Y-72715994D01*
X96449141Y-72644005D01*
X96449141Y-72643994D01*
X96428614Y-72396270D01*
X96428612Y-72396261D01*
X96367587Y-72155282D01*
X96267731Y-71927630D01*
X96167434Y-71774116D01*
X95467787Y-72473764D01*
X95456518Y-72431708D01*
X95384110Y-72306292D01*
X95281708Y-72203890D01*
X95156292Y-72131482D01*
X95114235Y-72120212D01*
X95814057Y-71420390D01*
X95814056Y-71420389D01*
X95767229Y-71383943D01*
X95548614Y-71265635D01*
X95548603Y-71265630D01*
X95313493Y-71184916D01*
X95068293Y-71144000D01*
X94819707Y-71144000D01*
X94574506Y-71184916D01*
X94339396Y-71265630D01*
X94339390Y-71265632D01*
X94120761Y-71383949D01*
X94073942Y-71420388D01*
X94073942Y-71420390D01*
X94773765Y-72120212D01*
X94731708Y-72131482D01*
X94606292Y-72203890D01*
X94503890Y-72306292D01*
X94431482Y-72431708D01*
X94420212Y-72473764D01*
X93720564Y-71774116D01*
X93620267Y-71927632D01*
X93520412Y-72155282D01*
X93459387Y-72396261D01*
X93459385Y-72396270D01*
X93438859Y-72643994D01*
X89949141Y-72643994D01*
X89928614Y-72396270D01*
X89928612Y-72396261D01*
X89867587Y-72155282D01*
X89767731Y-71927630D01*
X89667434Y-71774116D01*
X88967787Y-72473764D01*
X88956518Y-72431708D01*
X88884110Y-72306292D01*
X88781708Y-72203890D01*
X88656292Y-72131482D01*
X88614235Y-72120212D01*
X89314057Y-71420390D01*
X89314056Y-71420389D01*
X89267229Y-71383943D01*
X89048614Y-71265635D01*
X89048603Y-71265630D01*
X88813493Y-71184916D01*
X88568293Y-71144000D01*
X88319707Y-71144000D01*
X88074506Y-71184916D01*
X87839396Y-71265630D01*
X87839390Y-71265632D01*
X87620761Y-71383949D01*
X87573942Y-71420388D01*
X87573942Y-71420390D01*
X88273765Y-72120212D01*
X88231708Y-72131482D01*
X88106292Y-72203890D01*
X88003890Y-72306292D01*
X87931482Y-72431708D01*
X87920212Y-72473764D01*
X87220564Y-71774116D01*
X87120267Y-71927632D01*
X87020412Y-72155282D01*
X86959387Y-72396261D01*
X86959385Y-72396270D01*
X86938859Y-72643994D01*
X85703822Y-72643994D01*
X85760612Y-72419738D01*
X85760614Y-72419729D01*
X85781141Y-72172005D01*
X85781141Y-72171994D01*
X85760614Y-71924270D01*
X85760612Y-71924261D01*
X85699587Y-71683282D01*
X85599731Y-71455630D01*
X85499434Y-71302116D01*
X84799787Y-72001764D01*
X84788518Y-71959708D01*
X84716110Y-71834292D01*
X84613708Y-71731890D01*
X84488292Y-71659482D01*
X84446235Y-71648212D01*
X85146057Y-70948390D01*
X85146056Y-70948389D01*
X85099229Y-70911943D01*
X84880614Y-70793635D01*
X84880603Y-70793630D01*
X84645493Y-70712916D01*
X84400293Y-70672000D01*
X84151707Y-70672000D01*
X83906506Y-70712916D01*
X83671396Y-70793630D01*
X83671390Y-70793632D01*
X83452761Y-70911949D01*
X83405942Y-70948388D01*
X83405942Y-70948390D01*
X84105765Y-71648212D01*
X84063708Y-71659482D01*
X83938292Y-71731890D01*
X83835890Y-71834292D01*
X83763482Y-71959708D01*
X83752212Y-72001764D01*
X83052564Y-71302116D01*
X82952267Y-71455632D01*
X82852412Y-71683282D01*
X82791387Y-71924261D01*
X82791385Y-71924270D01*
X82770859Y-72171994D01*
X79281141Y-72171994D01*
X79260614Y-71924270D01*
X79260612Y-71924261D01*
X79199587Y-71683282D01*
X79099731Y-71455630D01*
X78999434Y-71302116D01*
X78299787Y-72001764D01*
X78288518Y-71959708D01*
X78216110Y-71834292D01*
X78113708Y-71731890D01*
X77988292Y-71659482D01*
X77946235Y-71648212D01*
X78646057Y-70948390D01*
X78646056Y-70948389D01*
X78599229Y-70911943D01*
X78380614Y-70793635D01*
X78380603Y-70793630D01*
X78145493Y-70712916D01*
X77900293Y-70672000D01*
X77651707Y-70672000D01*
X77406506Y-70712916D01*
X77171396Y-70793630D01*
X77171390Y-70793632D01*
X76952761Y-70911949D01*
X76905942Y-70948388D01*
X76905942Y-70948390D01*
X77605765Y-71648212D01*
X77563708Y-71659482D01*
X77438292Y-71731890D01*
X77335890Y-71834292D01*
X77263482Y-71959708D01*
X77252212Y-72001764D01*
X76552564Y-71302116D01*
X76452267Y-71455632D01*
X76352412Y-71683282D01*
X76291387Y-71924261D01*
X76291385Y-71924270D01*
X76270859Y-72171994D01*
X74676000Y-72171994D01*
X74676000Y-69466000D01*
X74695685Y-69398961D01*
X74748489Y-69353206D01*
X74800000Y-69342000D01*
X159134000Y-69342000D01*
X159201039Y-69361685D01*
G37*
%TD.AperFunction*%
%TD*%
M02*
