%TF.GenerationSoftware,KiCad,Pcbnew,8.0.6*%
%TF.CreationDate,2024-11-19T15:42:56-05:00*%
%TF.ProjectId,airflow_device,61697266-6c6f-4775-9f64-65766963652e,rev?*%
%TF.SameCoordinates,Original*%
%TF.FileFunction,Drillmap*%
%TF.FilePolarity,Positive*%
%FSLAX45Y45*%
G04 Gerber Fmt 4.5, Leading zero omitted, Abs format (unit mm)*
G04 Created by KiCad (PCBNEW 8.0.6) date 2024-11-19 15:42:56*
%MOMM*%
%LPD*%
G01*
G04 APERTURE LIST*
%ADD10C,0.200000*%
G04 APERTURE END LIST*
D10*
X7467600Y-6934200D02*
X15925800Y-6934200D01*
X15925800Y-11201400D01*
X7467600Y-11201400D01*
X7467600Y-6934200D01*
X7718377Y-11522884D02*
X7718377Y-11322884D01*
X7718377Y-11322884D02*
X7765996Y-11322884D01*
X7765996Y-11322884D02*
X7794567Y-11332408D01*
X7794567Y-11332408D02*
X7813615Y-11351455D01*
X7813615Y-11351455D02*
X7823139Y-11370503D01*
X7823139Y-11370503D02*
X7832662Y-11408598D01*
X7832662Y-11408598D02*
X7832662Y-11437169D01*
X7832662Y-11437169D02*
X7823139Y-11475265D01*
X7823139Y-11475265D02*
X7813615Y-11494312D01*
X7813615Y-11494312D02*
X7794567Y-11513360D01*
X7794567Y-11513360D02*
X7765996Y-11522884D01*
X7765996Y-11522884D02*
X7718377Y-11522884D01*
X7918377Y-11522884D02*
X7918377Y-11389550D01*
X7918377Y-11427646D02*
X7927901Y-11408598D01*
X7927901Y-11408598D02*
X7937424Y-11399074D01*
X7937424Y-11399074D02*
X7956472Y-11389550D01*
X7956472Y-11389550D02*
X7975520Y-11389550D01*
X8042186Y-11522884D02*
X8042186Y-11389550D01*
X8042186Y-11322884D02*
X8032662Y-11332408D01*
X8032662Y-11332408D02*
X8042186Y-11341931D01*
X8042186Y-11341931D02*
X8051710Y-11332408D01*
X8051710Y-11332408D02*
X8042186Y-11322884D01*
X8042186Y-11322884D02*
X8042186Y-11341931D01*
X8165996Y-11522884D02*
X8146948Y-11513360D01*
X8146948Y-11513360D02*
X8137424Y-11494312D01*
X8137424Y-11494312D02*
X8137424Y-11322884D01*
X8270758Y-11522884D02*
X8251710Y-11513360D01*
X8251710Y-11513360D02*
X8242186Y-11494312D01*
X8242186Y-11494312D02*
X8242186Y-11322884D01*
X8499329Y-11522884D02*
X8499329Y-11322884D01*
X8499329Y-11322884D02*
X8565996Y-11465741D01*
X8565996Y-11465741D02*
X8632663Y-11322884D01*
X8632663Y-11322884D02*
X8632663Y-11522884D01*
X8813615Y-11522884D02*
X8813615Y-11418122D01*
X8813615Y-11418122D02*
X8804091Y-11399074D01*
X8804091Y-11399074D02*
X8785044Y-11389550D01*
X8785044Y-11389550D02*
X8746948Y-11389550D01*
X8746948Y-11389550D02*
X8727901Y-11399074D01*
X8813615Y-11513360D02*
X8794567Y-11522884D01*
X8794567Y-11522884D02*
X8746948Y-11522884D01*
X8746948Y-11522884D02*
X8727901Y-11513360D01*
X8727901Y-11513360D02*
X8718377Y-11494312D01*
X8718377Y-11494312D02*
X8718377Y-11475265D01*
X8718377Y-11475265D02*
X8727901Y-11456217D01*
X8727901Y-11456217D02*
X8746948Y-11446693D01*
X8746948Y-11446693D02*
X8794567Y-11446693D01*
X8794567Y-11446693D02*
X8813615Y-11437169D01*
X8908853Y-11389550D02*
X8908853Y-11589550D01*
X8908853Y-11399074D02*
X8927901Y-11389550D01*
X8927901Y-11389550D02*
X8965996Y-11389550D01*
X8965996Y-11389550D02*
X8985044Y-11399074D01*
X8985044Y-11399074D02*
X8994567Y-11408598D01*
X8994567Y-11408598D02*
X9004091Y-11427646D01*
X9004091Y-11427646D02*
X9004091Y-11484788D01*
X9004091Y-11484788D02*
X8994567Y-11503836D01*
X8994567Y-11503836D02*
X8985044Y-11513360D01*
X8985044Y-11513360D02*
X8965996Y-11522884D01*
X8965996Y-11522884D02*
X8927901Y-11522884D01*
X8927901Y-11522884D02*
X8908853Y-11513360D01*
X9089805Y-11503836D02*
X9099329Y-11513360D01*
X9099329Y-11513360D02*
X9089805Y-11522884D01*
X9089805Y-11522884D02*
X9080282Y-11513360D01*
X9080282Y-11513360D02*
X9089805Y-11503836D01*
X9089805Y-11503836D02*
X9089805Y-11522884D01*
X9089805Y-11399074D02*
X9099329Y-11408598D01*
X9099329Y-11408598D02*
X9089805Y-11418122D01*
X9089805Y-11418122D02*
X9080282Y-11408598D01*
X9080282Y-11408598D02*
X9089805Y-11399074D01*
X9089805Y-11399074D02*
X9089805Y-11418122D01*
M02*
