%TF.GenerationSoftware,KiCad,Pcbnew,8.0.6*%
%TF.CreationDate,2024-11-19T15:42:44-05:00*%
%TF.ProjectId,airflow_device,61697266-6c6f-4775-9f64-65766963652e,rev?*%
%TF.SameCoordinates,Original*%
%TF.FileFunction,Soldermask,Bot*%
%TF.FilePolarity,Negative*%
%FSLAX46Y46*%
G04 Gerber Fmt 4.6, Leading zero omitted, Abs format (unit mm)*
G04 Created by KiCad (PCBNEW 8.0.6) date 2024-11-19 15:42:44*
%MOMM*%
%LPD*%
G01*
G04 APERTURE LIST*
%ADD10C,1.400000*%
%ADD11R,1.600000X1.600000*%
%ADD12C,1.600000*%
%ADD13R,1.800000X1.800000*%
%ADD14C,1.800000*%
%ADD15R,1.905000X2.000000*%
%ADD16O,1.905000X2.000000*%
%ADD17C,2.000000*%
%ADD18R,1.700000X1.700000*%
%ADD19O,1.700000X1.700000*%
G04 APERTURE END LIST*
D10*
%TO.C,U1*%
X115062000Y-81280000D03*
X117602000Y-81280000D03*
X115062000Y-83820000D03*
X117602000Y-83820000D03*
X115062000Y-86360000D03*
X117602000Y-86360000D03*
X115062000Y-88900000D03*
X117602000Y-88900000D03*
X115062000Y-91440000D03*
X117602000Y-91440000D03*
X115062000Y-93980000D03*
X117602000Y-93980000D03*
X115062000Y-96520000D03*
X117602000Y-96520000D03*
X115062000Y-99060000D03*
X117602000Y-99060000D03*
X115062000Y-101600000D03*
X117602000Y-101600000D03*
X115062000Y-104140000D03*
X117602000Y-104140000D03*
X140462000Y-81280000D03*
X143002000Y-81280000D03*
X140462000Y-83820000D03*
X143002000Y-83820000D03*
X140462000Y-86360000D03*
X143002000Y-86360000D03*
X140462000Y-88900000D03*
X143002000Y-88900000D03*
X140462000Y-91440000D03*
X143002000Y-91440000D03*
X140462000Y-93980000D03*
X143002000Y-93980000D03*
X140462000Y-96520000D03*
X143002000Y-96520000D03*
X140462000Y-99060000D03*
X143002000Y-99060000D03*
X140462000Y-101600000D03*
X143002000Y-101600000D03*
X140462000Y-104140000D03*
X143002000Y-104140000D03*
%TD*%
D11*
%TO.C,C6*%
X153710000Y-105664000D03*
D12*
X156210000Y-105664000D03*
%TD*%
D11*
%TO.C,C1*%
X153670000Y-92202000D03*
D12*
X156170000Y-92202000D03*
%TD*%
D13*
%TO.C,D2*%
X92964000Y-106299000D03*
D14*
X95504000Y-106299000D03*
%TD*%
D15*
%TO.C,U2*%
X89916000Y-98552000D03*
D16*
X92456000Y-98552000D03*
X94996000Y-98552000D03*
%TD*%
D17*
%TO.C,SW2*%
X88444000Y-72644000D03*
X94944000Y-72644000D03*
X88444000Y-77144000D03*
X94944000Y-77144000D03*
%TD*%
%TO.C,SW4*%
X77776000Y-72172000D03*
X84276000Y-72172000D03*
X77776000Y-76672000D03*
X84276000Y-76672000D03*
%TD*%
D18*
%TO.C,J2*%
X147320000Y-107935000D03*
D19*
X147320000Y-105395000D03*
X147320000Y-102855000D03*
%TD*%
D18*
%TO.C,J4*%
X106934000Y-107696000D03*
D19*
X104394000Y-107696000D03*
%TD*%
D17*
%TO.C,SW3*%
X104498000Y-72716000D03*
X110998000Y-72716000D03*
X104498000Y-77216000D03*
X110998000Y-77216000D03*
%TD*%
D18*
%TO.C,J3*%
X147320000Y-94727000D03*
D19*
X147320000Y-92187000D03*
X147320000Y-89647000D03*
%TD*%
D18*
%TO.C,J1*%
X147320000Y-84328000D03*
D19*
X147320000Y-81788000D03*
X147320000Y-79248000D03*
X147320000Y-76708000D03*
%TD*%
D13*
%TO.C,D3*%
X76962000Y-106299000D03*
D14*
X79502000Y-106299000D03*
%TD*%
D15*
%TO.C,U3*%
X105085000Y-98552000D03*
D16*
X107625000Y-98552000D03*
X110165000Y-98552000D03*
%TD*%
D18*
%TO.C,SW1*%
X77978000Y-96520000D03*
D19*
X77978000Y-99060000D03*
X77978000Y-101600000D03*
%TD*%
D13*
%TO.C,D1*%
X85090000Y-106299000D03*
D14*
X87630000Y-106299000D03*
%TD*%
M02*
