%TF.GenerationSoftware,KiCad,Pcbnew,8.0.6*%
%TF.CreationDate,2024-11-19T15:42:44-05:00*%
%TF.ProjectId,airflow_device,61697266-6c6f-4775-9f64-65766963652e,rev?*%
%TF.SameCoordinates,Original*%
%TF.FileFunction,Soldermask,Top*%
%TF.FilePolarity,Negative*%
%FSLAX46Y46*%
G04 Gerber Fmt 4.6, Leading zero omitted, Abs format (unit mm)*
G04 Created by KiCad (PCBNEW 8.0.6) date 2024-11-19 15:42:44*
%MOMM*%
%LPD*%
G01*
G04 APERTURE LIST*
G04 Aperture macros list*
%AMRoundRect*
0 Rectangle with rounded corners*
0 $1 Rounding radius*
0 $2 $3 $4 $5 $6 $7 $8 $9 X,Y pos of 4 corners*
0 Add a 4 corners polygon primitive as box body*
4,1,4,$2,$3,$4,$5,$6,$7,$8,$9,$2,$3,0*
0 Add four circle primitives for the rounded corners*
1,1,$1+$1,$2,$3*
1,1,$1+$1,$4,$5*
1,1,$1+$1,$6,$7*
1,1,$1+$1,$8,$9*
0 Add four rect primitives between the rounded corners*
20,1,$1+$1,$2,$3,$4,$5,0*
20,1,$1+$1,$4,$5,$6,$7,0*
20,1,$1+$1,$6,$7,$8,$9,0*
20,1,$1+$1,$8,$9,$2,$3,0*%
G04 Aperture macros list end*
%ADD10C,1.400000*%
%ADD11R,2.500000X2.500000*%
%ADD12R,1.600000X1.600000*%
%ADD13C,1.600000*%
%ADD14RoundRect,0.250000X0.337500X0.475000X-0.337500X0.475000X-0.337500X-0.475000X0.337500X-0.475000X0*%
%ADD15RoundRect,0.250000X-0.350000X-0.450000X0.350000X-0.450000X0.350000X0.450000X-0.350000X0.450000X0*%
%ADD16R,1.800000X1.800000*%
%ADD17C,1.800000*%
%ADD18R,1.905000X2.000000*%
%ADD19O,1.905000X2.000000*%
%ADD20RoundRect,0.250000X0.350000X0.450000X-0.350000X0.450000X-0.350000X-0.450000X0.350000X-0.450000X0*%
%ADD21C,2.000000*%
%ADD22R,1.700000X1.700000*%
%ADD23O,1.700000X1.700000*%
%ADD24RoundRect,0.250000X-0.337500X-0.475000X0.337500X-0.475000X0.337500X0.475000X-0.337500X0.475000X0*%
G04 APERTURE END LIST*
D10*
%TO.C,U1*%
X115062000Y-81280000D03*
X117602000Y-81280000D03*
X115062000Y-83820000D03*
X117602000Y-83820000D03*
X115062000Y-86360000D03*
X117602000Y-86360000D03*
X115062000Y-88900000D03*
X117602000Y-88900000D03*
X115062000Y-91440000D03*
X117602000Y-91440000D03*
X115062000Y-93980000D03*
X117602000Y-93980000D03*
X115062000Y-96520000D03*
X117602000Y-96520000D03*
X115062000Y-99060000D03*
X117602000Y-99060000D03*
X115062000Y-101600000D03*
X117602000Y-101600000D03*
X115062000Y-104140000D03*
X117602000Y-104140000D03*
X140462000Y-81280000D03*
X143002000Y-81280000D03*
X140462000Y-83820000D03*
X143002000Y-83820000D03*
X140462000Y-86360000D03*
X143002000Y-86360000D03*
X140462000Y-88900000D03*
X143002000Y-88900000D03*
X140462000Y-91440000D03*
X143002000Y-91440000D03*
X140462000Y-93980000D03*
X143002000Y-93980000D03*
X140462000Y-96520000D03*
X143002000Y-96520000D03*
X140462000Y-99060000D03*
X143002000Y-99060000D03*
X140462000Y-101600000D03*
X143002000Y-101600000D03*
X140462000Y-104140000D03*
X143002000Y-104140000D03*
%TD*%
D11*
%TO.C,TP3*%
X155194000Y-82550000D03*
%TD*%
%TO.C,TP2*%
X151130000Y-98552000D03*
%TD*%
%TO.C,TP1*%
X155194000Y-76962000D03*
%TD*%
D12*
%TO.C,C6*%
X153710000Y-105664000D03*
D13*
X156210000Y-105664000D03*
%TD*%
D12*
%TO.C,C1*%
X153670000Y-92202000D03*
D13*
X156170000Y-92202000D03*
%TD*%
D14*
%TO.C,C5*%
X90607000Y-101092000D03*
X88532000Y-101092000D03*
%TD*%
D15*
%TO.C,R6*%
X76962000Y-92456000D03*
X78962000Y-92456000D03*
%TD*%
D16*
%TO.C,D2*%
X92964000Y-106299000D03*
D17*
X95504000Y-106299000D03*
%TD*%
D18*
%TO.C,U2*%
X89916000Y-98552000D03*
D19*
X92456000Y-98552000D03*
X94996000Y-98552000D03*
%TD*%
D15*
%TO.C,R4*%
X92964000Y-109601000D03*
X94964000Y-109601000D03*
%TD*%
D20*
%TO.C,R2*%
X101314000Y-72136000D03*
X99314000Y-72136000D03*
%TD*%
D15*
%TO.C,R5*%
X77248000Y-109601000D03*
X79248000Y-109601000D03*
%TD*%
D21*
%TO.C,SW2*%
X88444000Y-72644000D03*
X94944000Y-72644000D03*
X88444000Y-77144000D03*
X94944000Y-77144000D03*
%TD*%
%TO.C,SW4*%
X77776000Y-72172000D03*
X84276000Y-72172000D03*
X77776000Y-76672000D03*
X84276000Y-76672000D03*
%TD*%
D15*
%TO.C,R7*%
X82042000Y-79502000D03*
X84042000Y-79502000D03*
%TD*%
D22*
%TO.C,J2*%
X147320000Y-107935000D03*
D23*
X147320000Y-105395000D03*
X147320000Y-102855000D03*
%TD*%
D22*
%TO.C,J4*%
X106934000Y-107696000D03*
D23*
X104394000Y-107696000D03*
%TD*%
D21*
%TO.C,SW3*%
X104498000Y-72716000D03*
X110998000Y-72716000D03*
X104498000Y-77216000D03*
X110998000Y-77216000D03*
%TD*%
D22*
%TO.C,J3*%
X147320000Y-94727000D03*
D23*
X147320000Y-92187000D03*
X147320000Y-89647000D03*
%TD*%
D24*
%TO.C,C2*%
X103518000Y-101092000D03*
X105593000Y-101092000D03*
%TD*%
D22*
%TO.C,J1*%
X147320000Y-84328000D03*
D23*
X147320000Y-81788000D03*
X147320000Y-79248000D03*
X147320000Y-76708000D03*
%TD*%
D24*
%TO.C,C3*%
X109911000Y-101092000D03*
X111986000Y-101092000D03*
%TD*%
D16*
%TO.C,D3*%
X76962000Y-106299000D03*
D17*
X79502000Y-106299000D03*
%TD*%
D18*
%TO.C,U3*%
X105085000Y-98552000D03*
D19*
X107625000Y-98552000D03*
X110165000Y-98552000D03*
%TD*%
D24*
%TO.C,C4*%
X94628000Y-101092000D03*
X96703000Y-101092000D03*
%TD*%
D15*
%TO.C,R3*%
X99314000Y-77216000D03*
X101314000Y-77216000D03*
%TD*%
D22*
%TO.C,SW1*%
X77978000Y-96520000D03*
D23*
X77978000Y-99060000D03*
X77978000Y-101600000D03*
%TD*%
D16*
%TO.C,D1*%
X85090000Y-106299000D03*
D17*
X87630000Y-106299000D03*
%TD*%
M02*
